<svg xmlns="http://www.w3.org/2000/svg" width="374.219" height="332.339" viewBox="0 0 374.219 332.339"><path d="M535.339-423.833a3.888,3.888,0,0,1,1.218.381,5.123,5.123,0,0,1,2.428,2.457,5.192,5.192,0,0,1,.5,2.373,5.269,5.269,0,0,1-.816,2.66,4.938,4.938,0,0,1-.991,1.153,4.973,4.973,0,0,1-1.339.85,5.308,5.308,0,0,1-3.28.324,5.311,5.311,0,0,1-2.829-1.694,4.987,4.987,0,0,1-.848-1.341,4.967,4.967,0,0,1-.4-1.466,5.271,5.271,0,0,1,.4-2.754,5.186,5.186,0,0,1,1.462-1.934,5.134,5.134,0,0,1,3.244-1.185,3.884,3.884,0,0,1,1.263.176c-.006.037-.45-.089-1.261-.06a5.136,5.136,0,0,0-3.112,1.229,5.018,5.018,0,0,0-1.371,1.871,5.067,5.067,0,0,0-.354,2.624,4.737,4.737,0,0,0,.393,1.385,4.7,4.7,0,0,0,.808,1.265,5.043,5.043,0,0,0,2.676,1.6,5.041,5.041,0,0,0,3.1-.3,4.738,4.738,0,0,0,1.271-.8,4.736,4.736,0,0,0,.946-1.085,5.065,5.065,0,0,0,.8-2.524,5.023,5.023,0,0,0-.441-2.276,5.134,5.134,0,0,0-2.289-2.441c-.72-.372-1.176-.448-1.167-.484" transform="translate(-206.411 497.806)" fill="#dadbd8"/><path d="M533.371-435.347a.982.982,0,0,1-.011-.181c0-.135-.008-.315-.014-.55-.006-.5-.017-1.229-.029-2.171l.037.046-4.692-1.024.085-.041-1.234,2.626-.022.047-.054,0a11.745,11.745,0,0,0-3.058.543l-.056.018-.041-.042-2.063-2.041.131.014-4.05,2.579.048-.137c.3.846.637,1.777.979,2.733l.024.069-.05.054a11.671,11.671,0,0,0-1.78,2.536l-.036.068h-.076l-2.9.01.128-.1c-.328,1.472-.681,3.06-1.045,4.688l-.076-.154,2.622,1.242.077.037,0,.085a11.735,11.735,0,0,0,.533,3.046l.026.083-.061.061-2.047,2.059.02-.18,2.572,4.055-.173-.059,2.734-.975.085-.029.066.06a11.618,11.618,0,0,0,2.524,1.779h0c.036.059-.079-.13.081.132v.727l0,.728q0,.726,0,1.446l-.115-.143,4.686,1.052-.164.08q.628-1.323,1.246-2.62l.037-.08.088,0a11.611,11.611,0,0,0,3.047-.528l.083-.026.061.061,2.055,2.049-.175-.019,4.059-2.566-.056.161q-.493-1.393-.97-2.736l-.027-.076.055-.059a11.63,11.63,0,0,0,1.787-2.528l.036-.069h2.978l-.119.1c.373-1.648.726-3.2,1.061-4.684l.062.128-2.618-1.251-.058-.028,0-.064a11.708,11.708,0,0,0-.524-3.059l-.017-.057.041-.042,2.054-2.05-.012.109-2.552-4.068.078.027-2.741.956-.028.01-.02-.02a12.25,12.25,0,0,0-1.863-1.435l-.5-.3a1.081,1.081,0,0,1-.164-.1,1.647,1.647,0,0,1,.176.08c.115.059.288.149.512.281a11.356,11.356,0,0,1,1.9,1.407l-.049-.011,2.728-.99.049-.018.028.045,2.589,4.046.037.058-.05.05-2.041,2.063.023-.1a11.859,11.859,0,0,1,.551,3.109l-.061-.091,2.624,1.238.082.039-.02.088c-.328,1.482-.675,3.039-1.041,4.688l-.022.1h-.1l-2.9.011.114-.068a11.88,11.88,0,0,1-1.82,2.589l.028-.134.976,2.733.037.1-.093.059-4.053,2.574-.1.06-.08-.08-2.059-2.046.144.035a11.865,11.865,0,0,1-3.122.546l.125-.083-1.243,2.622-.05.106-.114-.026-4.686-1.05-.115-.026v-.118q0-.72,0-1.446l0-.728v-.728a1.411,1.411,0,1,1,.078.131h0a11.907,11.907,0,0,1-2.589-1.825l.149.032-2.734.972-.111.04-.063-.1-2.568-4.059-.063-.1.081-.082,2.05-2.055-.035.144a12.01,12.01,0,0,1-.542-3.121l.081.121-2.62-1.248-.1-.046.024-.108,1.056-4.685.024-.1h.1l2.9,0-.113.068a11.9,11.9,0,0,1,1.827-2.584l-.025.124c-.338-.956-.669-1.889-.969-2.736l-.031-.089.079-.049,4.062-2.561.072-.045.059.059,2.051,2.054-.1-.024a11.884,11.884,0,0,1,3.111-.531l-.075.05c.451-.942.874-1.824,1.254-2.615l.026-.054.058.013,4.68,1.078.037.008v.038c-.009.933-.015,1.653-.02,2.151,0,.237-.007.42-.01.558a1.561,1.561,0,0,1-.011.192" transform="translate(-200.311 503.807)" fill="#dadbd8"/><path d="M538.511-80.15s-.01-.3-.015-.884-.008-1.445-.014-2.566c-.008-2.255-.02-5.561-.034-9.806-.017-8.484-.041-20.713-.071-35.727l.133.134-84.657.039h-.007l.173-.173c0,17.337-.009,33.9-.013,48.983l-.16-.16,60.892.078c7.484.019,13.416.034,17.488.043l4.663.02,1.2.009c.272,0,.415.01.415.01s-.13.007-.4.01l-1.187.01c-1.059,0-2.612.01-4.63.019l-17.45.044-61,.077h-.161v-.162c0-15.083-.008-31.646-.013-48.983v-.173h.18l84.657.04h.134v.133c-.029,15.049-.055,27.306-.071,35.81-.015,4.232-.026,7.528-.033,9.775-.007,1.111-.012,1.961-.015,2.541s-.014.858-.014.858" transform="translate(-177.043 382.8)" fill="#dadbd8"/><path d="M538.724-119.407c0,.1-18.937.174-42.293.174s-42.3-.078-42.3-.174,18.932-.173,42.3-.173,42.293.078,42.293.173" transform="translate(-177.224 379.005)" fill="#dadbd8"/><path d="M492.136-79.9H465.984v-26.153h26.152V-79.9" transform="translate(-181.848 373.724)" fill="#f3f2f1"/><path d="M558.51-99.087a1.508,1.508,0,0,1-.385.035c-.29.009-.655.02-1.1.032l-4.056.056-13.382.05-13.385-.05-4.057-.056c-.447-.012-.813-.023-1.1-.032a1.51,1.51,0,0,1-.385-.035,1.712,1.712,0,0,1,.385-.035l1.1-.032,4.057-.055,13.385-.051,13.382.051,4.056.055,1.1.032a1.709,1.709,0,0,1,.385.035" transform="translate(-203.182 371.075)" fill="#dadbd8"/><path d="M559.352-89.505a1.733,1.733,0,0,1-.393.035l-1.128.033-4.147.054L540-89.332l-13.682-.051-4.146-.054-1.127-.033a1.75,1.75,0,0,1-.394-.035,1.641,1.641,0,0,1,.394-.035l1.127-.032,4.146-.055L540-89.678l13.68.05,4.147.055,1.128.032a1.626,1.626,0,0,1,.393.035" transform="translate(-203.182 367.336)" fill="#dadbd8"/><path d="M559.352-79.925a1.628,1.628,0,0,1-.393.035l-1.128.032-4.147.055L540-79.752,526.322-79.8l-4.146-.055-1.127-.032a1.644,1.644,0,0,1-.394-.035,1.726,1.726,0,0,1,.394-.035l1.127-.033,4.146-.054L540-80.1l13.68.051,4.147.054,1.128.033a1.71,1.71,0,0,1,.393.035" transform="translate(-203.182 363.597)" fill="#dadbd8"/><path d="M559.352-70.346a1.641,1.641,0,0,1-.393.035l-1.128.033-4.147.055-13.68.05-13.682-.05-4.146-.055-1.127-.033a1.658,1.658,0,0,1-.394-.035,1.779,1.779,0,0,1,.394-.035l1.127-.032,4.146-.055L540-70.519l13.68.051,4.147.055,1.128.032a1.762,1.762,0,0,1,.393.035" transform="translate(-203.182 359.859)" fill="#dadbd8"/><path d="M133.681-512.155a35.186,35.186,0,0,1,37.415-32.8,35.186,35.186,0,0,1,32.8,37.415,35.186,35.186,0,0,1-37.415,32.8,35.185,35.185,0,0,1-32.8-37.415" transform="translate(-52.138 545.037)" fill="#f3f2f1"/><path d="M207.015-498.826a7,7,0,0,1-1.244.082l-3.419.069c-2.9.04-6.945.068-11.509.075h-.225v-.226c0-.73,0-1.5,0-2.281,0-5.1.025-9.711.067-13.05.029-1.611.054-2.943.072-3.955a8.879,8.879,0,0,1,.089-1.45,8.878,8.878,0,0,1,.089,1.45c.019,1.011.043,2.344.072,3.955.041,3.339.067,7.953.067,13.05,0,.781,0,1.551,0,2.281l-.226-.226c4.564.007,8.606.035,11.509.075l3.419.069a7,7,0,0,1,1.244.082" transform="translate(-74.387 535.096)" fill="#dadbd8"/><path d="M191.021-535.556a9.784,9.784,0,0,1,.228,2.956,9.776,9.776,0,0,1-.228,2.955,9.777,9.777,0,0,1-.228-2.955,9.785,9.785,0,0,1,.228-2.956" transform="translate(-74.456 541.337)" fill="#dadbd8"/><path d="M214.818-527.775a9.487,9.487,0,0,1-1.9,2.22,9.51,9.51,0,0,1-2.221,1.9,9.519,9.519,0,0,1,1.9-2.22,9.516,9.516,0,0,1,2.22-1.9" transform="translate(-82.221 538.303)" fill="#dadbd8"/><path d="M229.643-510.986a12.287,12.287,0,0,1-2.424,1.618,12.271,12.271,0,0,1-2.554,1.407,7.808,7.808,0,0,1,2.317-1.8,7.782,7.782,0,0,1,2.661-1.229" transform="translate(-87.673 531.755)" fill="#dadbd8"/><path d="M236.683-486.2a18.109,18.109,0,0,1-4.03.227,18.108,18.108,0,0,1-4.031-.227,18.017,18.017,0,0,1,4.031-.228,18.018,18.018,0,0,1,4.03.228" transform="translate(-89.218 522.165)" fill="#dadbd8"/><path d="M145.313-487.083a16.064,16.064,0,0,1-3.806.228,16.065,16.065,0,0,1-3.806-.228,16.17,16.17,0,0,1,3.806-.227,16.17,16.17,0,0,1,3.806.227" transform="translate(-53.736 522.509)" fill="#dadbd8"/><path d="M152.8-468.387a16.648,16.648,0,0,1-2.876,2.609,16.679,16.679,0,0,1-3.162,2.255,16.725,16.725,0,0,1,2.876-2.609,16.763,16.763,0,0,1,3.162-2.255" transform="translate(-57.272 515.127)" fill="#dadbd8"/><path d="M170.069-454.035a25.883,25.883,0,0,1-1.958,3.393,25.861,25.861,0,0,1-2.078,3.321,12.789,12.789,0,0,1,1.688-3.556,12.754,12.754,0,0,1,2.348-3.159" transform="translate(-64.789 509.525)" fill="#dadbd8"/><path d="M191.021-440.686a18.019,18.019,0,0,1-.228-4.03,18.018,18.018,0,0,1,.228-4.031,18.016,18.016,0,0,1,.228,4.031,18.017,18.017,0,0,1-.228,4.03" transform="translate(-74.456 507.46)" fill="#dadbd8"/><path d="M215.794-447.7a11.783,11.783,0,0,1-3.324-2.276,11.813,11.813,0,0,1-2.708-2.981,37.229,37.229,0,0,1,3.008,2.638,37.111,37.111,0,0,1,3.024,2.619" transform="translate(-81.857 509.105)" fill="#dadbd8"/><path d="M229.815-461.948a13.984,13.984,0,0,1-2.669-2.346,13.976,13.976,0,0,1-2.346-2.669,14.046,14.046,0,0,1,2.668,2.347,14.017,14.017,0,0,1,2.347,2.668" transform="translate(-87.725 514.571)" fill="#dadbd8"/><path d="M153.248-507.522a10.773,10.773,0,0,1-2.355-2.033,10.759,10.759,0,0,1-2.033-2.355,10.764,10.764,0,0,1,2.355,2.033,10.773,10.773,0,0,1,2.033,2.355" transform="translate(-58.089 532.112)" fill="#dadbd8"/><path d="M169.8-524.842a10.351,10.351,0,0,1-2.315-1.983,10.335,10.335,0,0,1-1.994-2.307,10.357,10.357,0,0,1,2.315,1.984,10.371,10.371,0,0,1,1.993,2.306" transform="translate(-64.58 538.832)" fill="#dadbd8"/><path d="M467.6-472.569l-9.269-2.078-.012-5.739a23.262,23.262,0,0,1-5.063-3.567l-5.409,1.925-5.084-8.024,4.052-4.068a23.309,23.309,0,0,1-1.063-6.1l-5.183-2.463,2.078-9.268,5.739-.012a23.242,23.242,0,0,1,3.567-5.063l-1.925-5.409,8.023-5.083,4.069,4.051a23.237,23.237,0,0,1,6.1-1.063l2.461-5.183,9.267,2.078.014,5.739a23.306,23.306,0,0,1,5.063,3.566l5.408-1.925,5.083,8.024-4.051,4.068a23.247,23.247,0,0,1,1.063,6.1l5.184,2.462-2.08,9.268-5.738.012a23.272,23.272,0,0,1-3.567,5.063l1.925,5.409-8.023,5.083-4.069-4.05a23.315,23.315,0,0,1-6.1,1.062l-2.461,5.184m1.953-38.668a10.192,10.192,0,0,0-9.933,7.962,10.19,10.19,0,0,0,7.712,12.172,10.229,10.229,0,0,0,2.239.249,10.193,10.193,0,0,0,9.934-7.961,10.19,10.19,0,0,0-7.713-12.173,10.221,10.221,0,0,0-2.239-.249" transform="translate(-171.931 539.056)" fill="#ececea"/><path d="M58.461-392.036H118.6s-5.318-9.677-20.8-8.269c-14.784,1.346-15.536-4.761-23.054-5.513s-13.782,5.012-16.288,13.782" transform="translate(-22.814 490.733)" fill="#f3f2f1"/><path d="M271.922-211.025H320.6s-4.3-7.833-16.835-6.693c-11.967,1.088-12.576-3.854-18.661-4.463s-11.155,4.058-13.184,11.156" transform="translate(-106.116 419.065)" fill="#f3f2f1"/><path d="M374.218-6.994c0,.118-83.779.212-187.1.212C83.761-6.782,0-6.876,0-6.994s83.761-.211,187.118-.211c103.322,0,187.1.095,187.1.211" transform="translate(0 335.151)" fill="#17282f"/><path d="M386.738-327.364H504.853V-406.45H386.738Z" transform="translate(-150.922 490.954)" fill="#fff"/><path d="M504.717-327.5s-.011-.494-.018-1.438-.011-2.348-.019-4.173c-.01-3.66-.024-9.03-.043-15.9-.021-13.741-.052-33.491-.09-57.569l.169.169-118.105.042h-.01l.212-.211c-.007,28.175-.013,54.966-.019,79.085l-.193-.193,85.095.1,24.311.053,6.467.023,1.67.012c.376,0,.572.011.572.011s-.181.007-.55.011l-1.647.012-6.428.023-24.267.052-85.222.1h-.194v-.194c-.006-24.119-.012-50.91-.019-79.085v-.212h.222l118.105.042h.17v.169c-.037,24.122-.067,43.909-.088,57.674-.02,6.859-.033,12.216-.044,15.867-.008,1.811-.014,3.2-.019,4.141s-.019,1.4-.019,1.4" transform="translate(-150.786 491.09)" fill="#f03d5f"/><path d="M386.738-395.012c0-.116,26.421-.211,59.006-.211s59.011.1,59.011.211-26.415.212-59.011.212-59.006-.094-59.006-.212" transform="translate(-150.922 486.573)" fill="#f03d5f"/><path d="M392.221-400.374a.947.947,0,0,1-.946-.947.946.946,0,0,1,.946-.946.946.946,0,0,1,.946.946.946.946,0,0,1-.946.947" transform="translate(-152.693 489.322)" fill="#f9b2c4"/><path d="M397.542-400.374a.947.947,0,0,1-.947-.947.946.946,0,0,1,.947-.946.947.947,0,0,1,.946.946.947.947,0,0,1-.946.947" transform="translate(-154.769 489.322)" fill="#f9b2c4"/><path d="M402.785-400.374a.948.948,0,0,1-.947-.947.947.947,0,0,1,.947-.946.946.946,0,0,1,.946.946.947.947,0,0,1-.946.947" transform="translate(-156.815 489.322)" fill="#f9b2c4"/><path d="M403.391-349.842H434.9V-381.35H403.391Z" transform="translate(-157.421 481.159)" fill="#f9b2c4"/><path d="M518.754-366.88c0,.117-12.288.211-27.443.211s-27.445-.094-27.445-.211,12.285-.212,27.445-.212,27.443.1,27.443.212" transform="translate(-181.021 475.595)" fill="#f03d5f"/><path d="M518.754-357.278c0,.117-12.288.212-27.443.212s-27.445-.1-27.445-.212,12.285-.211,27.445-.211,27.443.1,27.443.211" transform="translate(-181.021 471.848)" fill="#f03d5f"/><path d="M518.754-347.676c0,.117-12.288.212-27.443.212s-27.445-.1-27.445-.212,12.285-.211,27.445-.211,27.443.094,27.443.211" transform="translate(-181.021 468.1)" fill="#f03d5f"/><path d="M496.306-338.074a7.381,7.381,0,0,1-1.275.082l-3.476.067c-2.935.038-6.989.062-11.468.062s-8.535-.024-11.471-.062l-3.476-.067a7.37,7.37,0,0,1-1.275-.082,7.374,7.374,0,0,1,1.275-.082l3.476-.067c2.936-.038,6.99-.063,11.471-.063s8.533.024,11.468.063l3.476.067a7.385,7.385,0,0,1,1.275.082" transform="translate(-181.021 464.353)" fill="#f03d5f"/><path d="M406.624-297.449h14.807v-14.807H406.624Z" transform="translate(-158.683 454.196)" fill="#f9b2c4"/><path d="M450.663-297.449h14.807v-14.807H450.663Z" transform="translate(-175.868 454.196)" fill="#f9b2c4"/><path d="M494.7-297.449h14.807v-14.807H494.7Z" transform="translate(-193.054 454.196)" fill="#f9b2c4"/><path d="M538.74-297.449h14.808v-14.807H538.74Z" transform="translate(-210.24 454.196)" fill="#f9b2c4"/><path d="M32.473-316.986H137.7v-42.739H32.473Z" transform="translate(-12.673 472.72)" fill="#fff"/><path d="M137.589-317.092s-.008-.263-.012-.763-.007-1.248-.013-2.217c-.007-1.95-.016-4.815-.028-8.506-.015-7.377-.037-18.047-.063-31.253l.117.116-105.214.05h-.007l.166-.166c0,14.967,0,29.413-.007,42.739l-.159-.159,75.441.075,21.885.045,5.858.02,1.515.009c.342,0,.522.011.522.011s-.167.007-.5.01l-1.5.01-5.824.02-21.849.045-75.549.075h-.16v-.159c0-13.326,0-27.772-.007-42.739V-360h.173l105.214.05h.117v.117c-.028,13.236-.049,23.93-.064,31.324-.012,3.679-.022,6.535-.028,8.479-.006.961-.01,1.7-.013,2.2s-.011.74-.011.74" transform="translate(-12.566 472.826)" fill="#f03d5f"/><path d="M32.646-350.379c0-.092,23.519-.167,52.525-.167s52.53.075,52.53.167-23.514.167-52.53.167-52.525-.075-52.525-.167" transform="translate(-12.74 469.138)" fill="#f03d5f"/><path d="M38.13-354.226a.763.763,0,0,1-.763-.763.764.764,0,0,1,.763-.763.764.764,0,0,1,.764.763.763.763,0,0,1-.764.763" transform="translate(-14.582 471.17)" fill="#f9b2c4"/><path d="M42.421-354.226a.763.763,0,0,1-.764-.763.764.764,0,0,1,.764-.763.764.764,0,0,1,.763.763.763.763,0,0,1-.763.763" transform="translate(-16.256 471.17)" fill="#f9b2c4"/><path d="M46.65-354.226a.763.763,0,0,1-.763-.763.764.764,0,0,1,.763-.763.764.764,0,0,1,.764.763.763.763,0,0,1-.764.763" transform="translate(-17.907 471.17)" fill="#f9b2c4"/><path d="M47.139-313.465H72.554v-25.415H47.139Z" transform="translate(-18.396 464.585)" fill="#f9b2c4"/><path d="M155.71-327.817c0,.093-13.078.168-29.207.168s-29.21-.075-29.21-.168,13.075-.166,29.21-.166,29.207.075,29.207.166" transform="translate(-37.968 460.333)" fill="#f03d5f"/><path d="M155.71-319.326c0,.092-13.078.167-29.207.167s-29.21-.075-29.21-.167,13.075-.167,29.21-.167,29.207.075,29.207.167" transform="translate(-37.968 457.019)" fill="#f03d5f"/><path d="M134.9-310.835a1.675,1.675,0,0,1-.381.034l-1.1.031-4.03.053-13.294.049-13.3-.049-4.03-.053-1.1-.031a1.681,1.681,0,0,1-.382-.034,1.655,1.655,0,0,1,.382-.033l1.1-.031,4.03-.054L116.1-311l13.294.048,4.03.054,1.1.031a1.649,1.649,0,0,1,.381.033" transform="translate(-37.968 453.705)" fill="#f03d5f"/><path d="M309.7-448.19c-1.764-1.176-4.185-.464-5.949.712s-3.271,2.789-5.246,3.556c-3.711,1.443-8.576-.267-11.46,2.479-1.83,1.741-2.017,4.6-3.415,6.706-2.355,3.545-8.009,4.876-8.493,9.1a5.487,5.487,0,0,0,4.053,5.523,8.7,8.7,0,0,0,7.075-1.412c2.415-1.6,4.312-4.08,7.063-4.994,2.812-.933,6.283-.151,8.5-2.115s1.886-5.575,3.477-8.081a16.217,16.217,0,0,1,3.378-3.3,6.558,6.558,0,0,0,2.535-3.878c.2-1.567-.442-4.241-1.52-4.3" transform="translate(-107.358 507.478)" fill="#f3f2f1"/><path d="M256.686-164.542c.1-.061.429.268.737.734s.478.9.382.967-.425-.261-.736-.734-.483-.906-.383-.967" transform="translate(-100.159 396.554)" fill="#17282f"/><path d="M250.974-176.564a5.123,5.123,0,0,1,.967,1.8,5.122,5.122,0,0,1,.576,1.963,5.033,5.033,0,0,1-.967-1.8,5.021,5.021,0,0,1-.576-1.962" transform="translate(-97.931 401.243)" fill="#17282f"/><path d="M247.864-189.528a5.162,5.162,0,0,1,.579,1.962,5.13,5.13,0,0,1,.163,2.039,5.03,5.03,0,0,1-.579-1.962,4.99,4.99,0,0,1-.163-2.039" transform="translate(-96.706 406.301)" fill="#17282f"/><path d="M247.275-202.845a5.117,5.117,0,0,1,.184,2.037,5.109,5.109,0,0,1-.241,2.031,5.039,5.039,0,0,1-.183-2.037,5.025,5.025,0,0,1,.24-2.031" transform="translate(-96.403 411.498)" fill="#17282f"/><path d="M249.006-216a5.154,5.154,0,0,1-.222,2.034,5.106,5.106,0,0,1-.637,1.943,5.019,5.019,0,0,1,.223-2.033,5.017,5.017,0,0,1,.636-1.944" transform="translate(-96.819 416.631)" fill="#17282f"/><path d="M253.3-228.424a5.134,5.134,0,0,1-.638,1.942,5.134,5.134,0,0,1-1.026,1.77,5.025,5.025,0,0,1,.64-1.943,5.01,5.01,0,0,1,1.024-1.769" transform="translate(-98.191 421.481)" fill="#17282f"/><path d="M260.17-239.538a5.1,5.1,0,0,1-1.042,1.759,5.537,5.537,0,0,1-1.376,1.513c-.11-.073.363-.855,1.035-1.763s1.293-1.582,1.383-1.508" transform="translate(-100.58 425.82)" fill="#17282f"/><path d="M268.89-249.415c.083.082-.476.806-1.25,1.618s-1.469,1.406-1.556,1.327.473-.8,1.25-1.618,1.473-1.41,1.556-1.327" transform="translate(-103.834 429.675)" fill="#17282f"/><path d="M278.246-258.9c.085.081-.487.8-1.276,1.6s-1.5,1.383-1.579,1.3.489-.8,1.276-1.6,1.5-1.38,1.579-1.3" transform="translate(-107.466 433.375)" fill="#17282f"/><path d="M287.185-268.949c.094.07-.411.834-1.126,1.707s-1.367,1.517-1.454,1.439a5.086,5.086,0,0,1,1.125-1.706c.71-.864,1.361-1.509,1.454-1.439" transform="translate(-111.061 437.297)" fill="#17282f"/><path d="M294.444-280.391a4.368,4.368,0,0,1-.683,1.935c-.52,1.007-1.083,1.739-1.18,1.679a5.938,5.938,0,0,1,.8-1.873,6.067,6.067,0,0,1,1.059-1.741" transform="translate(-114.172 441.761)" fill="#17282f"/><path d="M298.439-293.275a4.288,4.288,0,0,1-.044,2.053,4.275,4.275,0,0,1-.623,1.956,6.239,6.239,0,0,1,.2-2.025,6.222,6.222,0,0,1,.462-1.984" transform="translate(-116.187 446.788)" fill="#17282f"/><path d="M297.875-306.528a4.271,4.271,0,0,1,.6,1.963,4.294,4.294,0,0,1,.022,2.054,6.213,6.213,0,0,1-.441-1.989,6.249,6.249,0,0,1-.184-2.028" transform="translate(-116.227 451.96)" fill="#17282f"/><path d="M292.655-318.727c.094-.065.692.643,1.227,1.645a4.221,4.221,0,0,1,.694,1.931,6.372,6.372,0,0,1-1.067-1.731,6.4,6.4,0,0,1-.854-1.845" transform="translate(-114.201 456.722)" fill="#17282f"/><path d="M283.358-328.2a4.171,4.171,0,0,1,1.756,1.067c.875.728,1.444,1.462,1.361,1.54s-.778-.5-1.633-1.215-1.55-1.292-1.485-1.391" transform="translate(-110.577 460.421)" fill="#17282f"/><path d="M271.24-333.626a4.191,4.191,0,0,1,2.021.369,4.206,4.206,0,0,1,1.824.945,6.445,6.445,0,0,1-1.962-.544,6.456,6.456,0,0,1-1.884-.77" transform="translate(-105.85 462.551)" fill="#17282f"/><path d="M257.992-334.481A4.1,4.1,0,0,1,260-334.9a4.134,4.134,0,0,1,2.046.208,6.618,6.618,0,0,1-2.023.215,6.694,6.694,0,0,1-2.034,0" transform="translate(-100.68 463.039)" fill="#17282f"/><path d="M245.69-330.545c-.067-.092.632-.707,1.636-1.246a4.02,4.02,0,0,1,1.944-.674,6.923,6.923,0,0,1-1.743,1.046,6.793,6.793,0,0,1-1.837.873" transform="translate(-95.877 462.091)" fill="#17282f"/><path d="M236.529-321.772a4.112,4.112,0,0,1,1-1.8c.7-.9,1.414-1.492,1.494-1.411s-.48.793-1.16,1.672-1.229,1.6-1.332,1.537" transform="translate(-92.298 459.164)" fill="#17282f"/><path d="M232-309.784a4,4,0,0,1,.158-2.051,4.053,4.053,0,0,1,.8-1.9,6.849,6.849,0,0,1-.383,2,7.017,7.017,0,0,1-.57,1.951" transform="translate(-90.509 454.772)" fill="#17282f"/><path d="M232.971-296.654a4.071,4.071,0,0,1-.8-1.9,4.036,4.036,0,0,1-.163-2.05,6.887,6.887,0,0,1,.576,1.949,6.79,6.79,0,0,1,.383,2" transform="translate(-90.514 449.647)" fill="#17282f"/><path d="M238.864-284.82c-.087.076-.76-.559-1.423-1.48a4.251,4.251,0,0,1-.946-1.823c.1-.059.639.672,1.29,1.575a6.163,6.163,0,0,1,1.079,1.728" transform="translate(-92.284 444.779)" fill="#17282f"/><path d="M248.179-275.356a4.5,4.5,0,0,1-1.75-1.068c-.882-.711-1.491-1.4-1.412-1.489s.808.459,1.678,1.159,1.553,1.3,1.485,1.4" transform="translate(-95.613 440.797)" fill="#17282f"/><path d="M259.443-268.279a5.025,5.025,0,0,1-1.909-.733c-1.007-.512-1.776-1.01-1.717-1.111a5.12,5.12,0,0,1,1.909.733,5.115,5.115,0,0,1,1.717,1.111" transform="translate(-99.83 437.76)" fill="#17282f"/><path d="M271.932-263.716a4.448,4.448,0,0,1-2.037-.241,4.456,4.456,0,0,1-1.9-.769,5.875,5.875,0,0,1,2.007.359,5.913,5.913,0,0,1,1.932.65" transform="translate(-104.582 435.659)" fill="#17282f"/><path d="M285.134-262.432a4.307,4.307,0,0,1-2.026.329,4.346,4.346,0,0,1-2.037-.248,6.066,6.066,0,0,1,2.029-.176,6.2,6.2,0,0,1,2.033.094" transform="translate(-109.686 434.793)" fill="#17282f"/><path d="M298.119-265.81a4.268,4.268,0,0,1-1.812.965,4.253,4.253,0,0,1-2.012.408,6.331,6.331,0,0,1,1.869-.807,6.235,6.235,0,0,1,1.955-.567" transform="translate(-114.846 436.079)" fill="#17282f"/><path d="M309.624-273.085c.076.085-.54.774-1.44,1.463a4.336,4.336,0,0,1-1.786,1.011c-.064-.1.646-.667,1.528-1.347s1.617-1.215,1.7-1.127" transform="translate(-119.568 438.913)" fill="#17282f"/><path d="M318.8-283.17a4.426,4.426,0,0,1-1,1.793c-.68.907-1.358,1.535-1.443,1.459a5.944,5.944,0,0,1,1.1-1.714c.671-.891,1.237-1.6,1.338-1.539" transform="translate(-123.453 442.846)" fill="#17282f"/><path d="M325.158-295.159a4.395,4.395,0,0,1-.5,1.99,4.417,4.417,0,0,1-1.019,1.781,5.957,5.957,0,0,1,.627-1.94,6.022,6.022,0,0,1,.894-1.832" transform="translate(-126.289 447.524)" fill="#17282f"/><path d="M328.339-308.219a4.477,4.477,0,0,1-.009,2.05,4.464,4.464,0,0,1-.543,1.978,5.876,5.876,0,0,1,.124-2.036,5.818,5.818,0,0,1,.428-1.993" transform="translate(-127.896 452.62)" fill="#17282f"/><path d="M328.314-321.539a5,5,0,0,1,.368,2.011,5.005,5.005,0,0,1-.054,2.044,5.12,5.12,0,0,1-.368-2.011,5.139,5.139,0,0,1,.054-2.044" transform="translate(-128.082 457.818)" fill="#17282f"/><path d="M325.464-334.555a5.036,5.036,0,0,1,.737,1.909,5.039,5.039,0,0,1,.327,2.02,5.121,5.121,0,0,1-.736-1.91,5.128,5.128,0,0,1-.328-2.02" transform="translate(-126.996 462.898)" fill="#17282f"/><path d="M320.369-346.877a5,5,0,0,1,1.083,1.74,5.039,5.039,0,0,1,.63,1.951,5.076,5.076,0,0,1-1.013-1.772,5.164,5.164,0,0,1-.7-1.919" transform="translate(-125.014 467.707)" fill="#17282f"/><path d="M313.812-358.492c.1-.06.643.678,1.212,1.647a5.061,5.061,0,0,1,.846,1.861c-.1.059-.644-.679-1.212-1.647a5.1,5.1,0,0,1-.846-1.861" transform="translate(-122.457 472.24)" fill="#17282f"/><path d="M307.192-370.074c.1-.054.628.7,1.17,1.677a5.081,5.081,0,0,1,.8,1.881c-.1.059-.624-.692-1.17-1.678a5.048,5.048,0,0,1-.8-1.88" transform="translate(-119.873 476.76)" fill="#17282f"/><path d="M301.977-382.334a5.123,5.123,0,0,1,.907,1.83,5.1,5.1,0,0,1,.511,1.977,5.016,5.016,0,0,1-.907-1.83,5.014,5.014,0,0,1-.511-1.977" transform="translate(-117.834 481.543)" fill="#17282f"/><path d="M299.646-395.446a5.932,5.932,0,0,1,.361,2.006,5.971,5.971,0,0,1,.07,2.037,4.418,4.418,0,0,1-.491-1.992,4.437,4.437,0,0,1,.06-2.05" transform="translate(-116.887 486.66)" fill="#17282f"/><path d="M300.391-408.713a5.9,5.9,0,0,1-.146,2.033,5.911,5.911,0,0,1-.441,1.99,4.448,4.448,0,0,1,.023-2.052,4.441,4.441,0,0,1,.565-1.972" transform="translate(-116.96 491.837)" fill="#17282f"/><path d="M304.152-421.3a5.953,5.953,0,0,1-.648,1.931,5.93,5.93,0,0,1-.919,1.82,4.431,4.431,0,0,1,.528-1.982,4.414,4.414,0,0,1,1.039-1.768" transform="translate(-118.07 496.748)" fill="#17282f"/><path d="M311.005-432.338c.089.08-.448.814-1.13,1.7s-1.26,1.584-1.359,1.519a4.39,4.39,0,0,1,1.024-1.778c.693-.9,1.38-1.514,1.465-1.437" transform="translate(-120.391 501.059)" fill="#17282f"/><path d="M320.55-441.117c.065.1-.637.677-1.52,1.359a5.922,5.922,0,0,1-1.7,1.124c-.077-.085.545-.769,1.442-1.459a4.44,4.44,0,0,1,1.778-1.024" transform="translate(-123.834 504.488)" fill="#17282f"/><path d="M332.093-447.161a5.948,5.948,0,0,1-1.807.942,5.924,5.924,0,0,1-1.925.671,4.444,4.444,0,0,1,1.757-1.059,4.43,4.43,0,0,1,1.976-.554" transform="translate(-128.14 506.852)" fill="#17282f"/><path d="M342.872-449.649c.017.115-.413.292-.961.393s-1.013.09-1.039-.024.406-.289.962-.392,1.022-.092,1.038.024" transform="translate(-133.023 507.849)" fill="#17282f"/><path d="M371.363-491.339a26.574,26.574,0,0,1,22.763-2.412s1.086,10.94-9.512,19.641" transform="translate(-144.922 525.6)" fill="#f03d5f"/><path d="M321.994-469.818c.407.61,10.768,17.271,10.768,17.271l31.118-19.171a10.891,10.891,0,0,0,3.039-15.754,10.891,10.891,0,0,0-14.822-2.559l-30.1,20.214" transform="translate(-125.656 524.293)" fill="#f03d5f"/><path d="M339.208-433.065l-.7,11.721s20.166-9.765,15.132-20.615l-14.436,8.893" transform="translate(-132.102 504.811)" fill="#17282f"/><path d="M329.677-472.855s-13.672-6.032-24.931,2.815l10.517,6.863,14.414-9.678" transform="translate(-118.925 517.652)" fill="#17282f"/><path d="M333.021-455.826l-19.46,12.172s.667,2.094,1.192,1.919c.438-.146,15.06-8.78,19.8-11.584a1.464,1.464,0,0,0,.383-2.193,1.47,1.47,0,0,0-1.916-.315" transform="translate(-122.365 510.31)" fill="#17282f"/><path d="M377.112-474.8a6.231,6.231,0,0,1-6.23,6.231,6.231,6.231,0,0,1-6.231-6.231,6.23,6.23,0,0,1,6.231-6.23,6.23,6.23,0,0,1,6.23,6.23" transform="translate(-142.303 520.058)" fill="#fafaf9"/><path d="M376.977-474.912c-.049,0-.023-.555-.275-1.5a6.208,6.208,0,0,0-2.277-3.332,6.059,6.059,0,0,0-2.561-1.114,6.088,6.088,0,0,0-3.173.279,5.979,5.979,0,0,0-2.794,2.108,6.069,6.069,0,0,0-1.169,3.559,6.066,6.066,0,0,0,1.169,3.56,5.975,5.975,0,0,0,2.794,2.109,6.1,6.1,0,0,0,3.174.279,6.075,6.075,0,0,0,2.561-1.114,6.217,6.217,0,0,0,2.276-3.332c.252-.946.226-1.5.275-1.5a1.448,1.448,0,0,1,.022.4,4.882,4.882,0,0,1-.137,1.141,6.2,6.2,0,0,1-2.255,3.53,6.3,6.3,0,0,1-2.678,1.222,6.405,6.405,0,0,1-3.372-.259,6.327,6.327,0,0,1-3-2.229,6.428,6.428,0,0,1-1.258-3.806,6.437,6.437,0,0,1,1.258-3.8,6.331,6.331,0,0,1,3-2.229,6.4,6.4,0,0,1,3.372-.258,6.3,6.3,0,0,1,2.678,1.221,6.2,6.2,0,0,1,2.255,3.53,4.884,4.884,0,0,1,.137,1.141,1.448,1.448,0,0,1-.022.4" transform="translate(-142.168 520.171)" fill="#17282f"/><path d="M390.276-475.233c-.08.008-.174-1.209-.651-3.1a23.58,23.58,0,0,0-1.084-3.245,25.6,25.6,0,0,0-1.947-3.7,25.723,25.723,0,0,0-2.574-3.3,23.622,23.622,0,0,0-2.512-2.323c-1.529-1.214-2.6-1.8-2.56-1.871a3.278,3.278,0,0,1,.776.367,8.4,8.4,0,0,1,.867.512c.327.216.713.446,1.1.754a20.831,20.831,0,0,1,2.613,2.292,23.847,23.847,0,0,1,2.647,3.337,23.742,23.742,0,0,1,1.952,3.785,20.89,20.89,0,0,1,1.014,3.324c.122.48.172.926.234,1.314a8.481,8.481,0,0,1,.111,1,3.313,3.313,0,0,1,.015.859" transform="translate(-147.882 524.644)" fill="#17282f"/><path d="M387.429-473.987c-.08.009-.178-1.23-.663-3.156a24.27,24.27,0,0,0-1.1-3.3,26.406,26.406,0,0,0-1.972-3.772,26.494,26.494,0,0,0-2.607-3.367,24.245,24.245,0,0,0-2.542-2.377c-1.55-1.245-2.633-1.85-2.592-1.92a3.451,3.451,0,0,1,.785.38,8.821,8.821,0,0,1,.876.528c.331.223.722.459,1.113.776a21.476,21.476,0,0,1,2.644,2.346,24.43,24.43,0,0,1,2.678,3.4,24.482,24.482,0,0,1,1.977,3.854,21.522,21.522,0,0,1,1.029,3.382c.124.488.176.941.241,1.335a8.86,8.86,0,0,1,.114,1.017,3.4,3.4,0,0,1,.018.872" transform="translate(-146.713 524.295)" fill="#17282f"/><path d="M78.906-74.065c-.7-2.764,1.129-5.525,3.169-7.516s4.476-3.771,5.547-6.412c1.735-4.281-.533-9.849,2.405-13.411,1.729-2.1,4.811-2.783,6.347-5.023a11.5,11.5,0,0,0,1.394-4.012,40.826,40.826,0,0,1,10.262-18.942,35.43,35.43,0,0,1-4.088,18.289c-1.194,2.243-2.657,4.428-3.063,6.938-.659,4.075,1.593,8.289.569,12.287-1.172,4.573-6.333,7.609-6.6,12.321-.229,3.985,3.225,7.5,2.944,11.483a10.761,10.761,0,0,1-1.8,4.716c-3.111,5.106-7.657,8.608-14.518,8.455l-8.406.246,5.843-19.418" transform="translate(-28.512 382.83)" fill="#f03d5f"/><path d="M73.063-54.647l5.843-19.418h0a4.991,4.991,0,0,1-.151-1.229c0-2.338,1.583-4.592,3.32-6.288,2.04-1.991,4.476-3.771,5.547-6.412a15.163,15.163,0,0,0,.75-5.7c0-.224,0-.449,0-.672,0-2.584.063-5.1,1.656-7.035,1.729-2.1,4.811-2.783,6.347-5.023a11.5,11.5,0,0,0,1.394-4.012,40.826,40.826,0,0,1,10.262-18.942q.042.85.042,1.7a35.453,35.453,0,0,1-4.13,16.586c-1.194,2.243-2.657,4.428-3.063,6.938a10.1,10.1,0,0,0-.123,1.606c0,2.782.961,5.607.963,8.364a9.237,9.237,0,0,1-.271,2.317c-1.172,4.573-6.333,7.609-6.6,12.321-.007.125-.011.249-.011.373C94.827-75.5,97.8-72.2,97.8-68.528c0,.154-.005.309-.016.464a10.761,10.761,0,0,1-1.8,4.716c-3.045,5-7.466,8.458-14.085,8.459-.144,0-.287,0-.433,0l-8.406.246" transform="translate(-28.512 382.83)" fill="#ba2c42"/><path d="M51.819-73.146a6.7,6.7,0,0,1-2.314-.064,14.121,14.121,0,0,1-2.727-.7,11.593,11.593,0,0,1-3.363-1.867,4.7,4.7,0,0,1-1.377-1.857,8.707,8.707,0,0,1-.381-2.513,24.328,24.328,0,0,0-.181-2.719,7.491,7.491,0,0,0-1.011-2.709c-.981-1.746-2.617-3.4-3.135-5.77-.562-2.328-.135-4.841.27-7.365s.8-5.265-.151-7.9c-.887-2.633-2.716-5.017-3.621-7.985-.9-3-.454-6.215-.63-9.39a12.441,12.441,0,0,0-1.069-4.672c-.671-1.492-1.607-2.9-2.334-4.47-1.474-3.176-1.716-6.765-2.1-10.284l-.573-5.373a26.283,26.283,0,0,0-.9-5.379,47.353,47.353,0,0,0-1.981-5.213,17.269,17.269,0,0,1-.96-2.722,27.272,27.272,0,0,1-.255-2.892,34.088,34.088,0,0,1,.257-5.816c.24-1.938.6-3.859.82-5.8.014-.115.027-.229.04-.335l.046-.386.343.173a13,13,0,0,1,4.5,3.844,20.613,20.613,0,0,1,2.751,5.138c1.383,3.619,1.867,7.406,2.554,11.021a29.9,29.9,0,0,0,3.4,10.183c.912,1.5,2.019,2.875,2.986,4.341a11.884,11.884,0,0,1,2.058,4.8c.477,3.557-1.5,6.669-1.109,9.82a10.9,10.9,0,0,0,1.508,4.37c.756,1.347,1.646,2.6,2.49,3.854a24.688,24.688,0,0,1,2.234,3.89,12.3,12.3,0,0,1,1.009,4.219c.189,2.836-.229,5.521-.036,8.062A18.548,18.548,0,0,0,50.9-96.694c1,2.074,2.125,3.95,3.062,5.768a29.405,29.405,0,0,1,1.259,2.686,13.155,13.155,0,0,1,.723,2.66,16.776,16.776,0,0,1,.035,4.8,12.083,12.083,0,0,1-2.439,6.1,5.857,5.857,0,0,1-.684.733,3.373,3.373,0,0,1-.554.465c-.315.228-.483.334-.483.334a10.652,10.652,0,0,0,1.637-1.6,12.166,12.166,0,0,0,2.316-6.063,16.665,16.665,0,0,0-.08-4.728,12.976,12.976,0,0,0-.729-2.6,29.367,29.367,0,0,0-1.267-2.65c-.944-1.8-2.077-3.671-3.1-5.757a18.866,18.866,0,0,1-2.107-7.041c-.206-2.594.2-5.289,0-8.058a11.854,11.854,0,0,0-.99-4.078,24.29,24.29,0,0,0-2.209-3.813c-.843-1.248-1.743-2.5-2.52-3.878a11.36,11.36,0,0,1-1.578-4.549c-.386-3.356,1.576-6.488,1.089-9.8a11.41,11.41,0,0,0-1.989-4.593c-.951-1.438-2.064-2.812-3-4.352a30.36,30.36,0,0,1-3.475-10.353c-.694-3.637-1.179-7.384-2.537-10.928a20.076,20.076,0,0,0-2.679-5,12.443,12.443,0,0,0-4.313-3.685l.389-.212c-.013.107-.026.223-.04.338-.223,1.966-.584,3.891-.821,5.806a33.592,33.592,0,0,0-.255,5.727,27.535,27.535,0,0,0,.243,2.8,16.933,16.933,0,0,0,.928,2.626,47.66,47.66,0,0,1,2,5.27,26.739,26.739,0,0,1,.915,5.469q.286,2.715.566,5.377c.381,3.534.625,7.066,2.044,10.131.7,1.525,1.635,2.938,2.326,4.478a12.935,12.935,0,0,1,1.1,4.846c.165,3.244-.275,6.411.586,9.289s2.675,5.26,3.586,7.978c.976,2.746.549,5.582.134,8.091-.42,2.528-.842,4.989-.313,7.227.473,2.259,2.061,3.9,3.063,5.7a7.778,7.778,0,0,1,1.026,2.816,24.347,24.347,0,0,1,.161,2.752,8.527,8.527,0,0,0,.345,2.446,4.5,4.5,0,0,0,1.294,1.776,11.538,11.538,0,0,0,3.281,1.875,14.441,14.441,0,0,0,2.688.745,10.89,10.89,0,0,0,1.709.175c.387-.012.587,0,.587,0" transform="translate(-8.971 401.54)" fill="#17282f"/><path d="M27.64-169.089a.979.979,0,0,1,.08.254c.048.2.107.45.181.758.161.663.353,1.663.663,2.913s1.078,2.66,1.72,4.4c.668,1.726,1.344,3.726,1.964,5.972s1.182,4.737,1.761,7.407a31.138,31.138,0,0,0,2.644,8.223c.681,1.368,1.449,2.755,2.056,4.27a19.835,19.835,0,0,1,1.183,4.829,97.441,97.441,0,0,0,1.754,10.178c1.646,6.9,3.214,13.465,4.641,19.446,1.463,5.961,2.782,11.333,3.893,15.861,1.081,4.486,1.959,8.132,2.579,10.7l.675,2.916.162.762a.962.962,0,0,1,.037.264.993.993,0,0,1-.09-.251c-.057-.2-.127-.446-.214-.749q-.281-1.055-.773-2.893L49.809-84.485,45.8-100.318l-4.686-19.452a96.14,96.14,0,0,1-1.75-10.22A19.391,19.391,0,0,0,38.23-134.7c-.586-1.476-1.341-2.856-2.023-4.24a31.328,31.328,0,0,1-2.636-8.349c-.56-2.676-1.09-5.162-1.691-7.4s-1.24-4.238-1.878-5.966c-.608-1.733-1.338-3.163-1.64-4.452-.284-1.28-.439-2.271-.566-2.945-.052-.311-.095-.564-.129-.769a.985.985,0,0,1-.026-.265" transform="translate(-10.785 398.325)" fill="#17282f"/><path d="M64.178-89.968c-5.471-3.294-6.99-13.207-4.666-19.156s6.363-11.371,7.017-17.724c.5-4.884-1.069-9.907.1-14.675,1.572-6.437,7.892-11.393,7.857-18.019-.019-3.716-2.114-7.226-1.925-10.939.232-4.553,3.749-8.146,5.937-12.146,3.349-6.123,3.608-13.383,4.781-20.263s3.838-14.24,9.961-17.589c.868,5.852,2.384,9.864,1.856,17.782-.19,2.843-3.525,8.27-4.01,14.5-.29,3.724-.5,7.454-.746,11.182-.242,3.628-.5,7.32-1.818,10.708-1.011,2.6-2.626,4.95-3.382,7.631-1.421,5.045.377,10.527-.776,15.641-.977,4.331-4,8.047-4.638,12.442-.9,6.174,3.066,12.616.985,18.5-1.032,2.92-3.451,5.253-4.151,8.27-.543,2.341.021,4.823-.473,7.175-.794,3.788-8.044,6.692-11.906,6.436" transform="translate(-22.814 418.38)" fill="#f03d5f"/><path d="M95.347-210.975a1.525,1.525,0,0,1-.026.33l-.129.96c-.131.843-.279,2.083-.574,3.684-.316,1.611-1.157,3.421-1.833,5.606-.713,2.178-1.423,4.69-2.055,7.506s-1.185,5.927-1.754,9.279A38.957,38.957,0,0,1,86.1-173.124c-.78,1.75-1.654,3.5-2.313,5.369A24.164,24.164,0,0,0,82.6-161.83a119.666,119.666,0,0,1-1.682,12.778l-4.879,24.4c-1.579,7.472-3,14.2-4.2,19.871C70.629-99.161,69.649-94.6,68.962-91.4c-.346,1.551-.616,2.768-.809,3.634-.092.391-.167.7-.224.942a1.481,1.481,0,0,1-.094.317,1.518,1.518,0,0,1,.04-.328c.044-.243.1-.558.171-.953l.709-3.654c.647-3.206,1.57-7.781,2.709-13.421,1.165-5.674,2.549-12.414,4.085-19.895,1.487-7.5,3.12-15.738,4.835-24.389a121.068,121.068,0,0,0,1.688-12.737,24.618,24.618,0,0,1,1.232-6.044c.679-1.906,1.565-3.665,2.345-5.4a38.788,38.788,0,0,0,2.887-10.361c.587-3.346,1.153-6.469,1.822-9.287s1.4-5.339,2.141-7.515c.71-2.193,1.576-3.987,1.914-5.556.321-1.572.507-2.824.672-3.655.075-.4.135-.708.182-.951a1.466,1.466,0,0,1,.081-.322" transform="translate(-26.471 414.671)" fill="#17282f"/><path d="M515.817-197.966h-5.667v-18.306h5.667v18.306" transform="translate(-199.083 416.738)" fill="#f03d5f"/><path d="M532.922-202.788h-5.666v-25.841h5.666v25.841" transform="translate(-205.759 421.56)" fill="#f03d5f"/><path d="M551.128-205.04h-5.667V-234.4h5.667v29.358" transform="translate(-212.863 423.812)" fill="#f03d5f"/><path d="M569.333-207.415h-5.667v-33.071h5.667v33.071" transform="translate(-219.968 426.188)" fill="#f03d5f"/><path d="M192.781-177.434a3.923,3.923,0,0,1,1.218.381,5.128,5.128,0,0,1,2.427,2.458,5.192,5.192,0,0,1,.5,2.372,5.28,5.28,0,0,1-.816,2.66,4.96,4.96,0,0,1-.991,1.153,4.971,4.971,0,0,1-1.34.85,5.3,5.3,0,0,1-3.28.324,5.3,5.3,0,0,1-2.828-1.694,4.978,4.978,0,0,1-.849-1.341,4.951,4.951,0,0,1-.4-1.466,5.259,5.259,0,0,1,.4-2.754,5.191,5.191,0,0,1,1.461-1.934,5.13,5.13,0,0,1,3.244-1.185,3.91,3.91,0,0,1,1.264.175c-.006.037-.45-.089-1.261-.06a5.135,5.135,0,0,0-3.112,1.23,5.029,5.029,0,0,0-1.372,1.871,5.055,5.055,0,0,0-.353,2.623,4.7,4.7,0,0,0,.392,1.385,4.711,4.711,0,0,0,.808,1.265,5.04,5.04,0,0,0,2.676,1.6,5.034,5.034,0,0,0,3.1-.3,4.686,4.686,0,0,0,1.271-.8,4.672,4.672,0,0,0,.946-1.086,5.046,5.046,0,0,0,.8-2.522,5.03,5.03,0,0,0-.44-2.276,5.135,5.135,0,0,0-2.289-2.441c-.72-.372-1.176-.449-1.166-.485" transform="translate(-72.73 401.65)" fill="#17282f"/><path d="M190.812-188.949a1.259,1.259,0,0,1-.011-.18c0-.135-.008-.315-.013-.55-.007-.5-.017-1.229-.03-2.171l.037.046-4.691-1.024.084-.041-1.234,2.625-.022.048-.053,0a11.747,11.747,0,0,0-3.059.542l-.056.018-.041-.041-2.063-2.042.13.015-4.05,2.579.047-.137.979,2.733.025.069-.05.054a11.7,11.7,0,0,0-1.78,2.535l-.035.068h-.077l-2.9.011.128-.1c-.328,1.472-.682,3.06-1.046,4.688l-.075-.155,2.622,1.242.076.036,0,.086a11.71,11.71,0,0,0,.533,3.046l.026.083-.061.061-2.047,2.058.02-.18,2.572,4.056-.173-.06,2.734-.974.085-.03.066.061a11.694,11.694,0,0,0,2.524,1.779h0c.036.059-.078-.131.08.132v.727l0,.728q0,.727,0,1.446l-.115-.144,4.685,1.052-.164.08q.629-1.323,1.246-2.621l.038-.079.088,0a11.64,11.64,0,0,0,3.046-.528l.083-.026.062.061q1.043,1.04,2.055,2.05l-.175-.02,4.059-2.565-.055.16q-.494-1.391-.97-2.736l-.027-.076.054-.059a11.662,11.662,0,0,0,1.786-2.528l.037-.068h2.978l-.12.1c.373-1.648.726-3.2,1.061-4.684l.062.127-2.617-1.251-.059-.028,0-.064a11.714,11.714,0,0,0-.524-3.059l-.017-.056.041-.041,2.054-2.05-.012.108c-.988-1.576-1.831-2.918-2.552-4.067l.078.027-2.74.956-.028.009-.021-.02a12.224,12.224,0,0,0-1.863-1.436l-.5-.3a1.222,1.222,0,0,1-.164-.1,1.24,1.24,0,0,1,.176.08c.115.059.288.148.512.281a11.354,11.354,0,0,1,1.9,1.407l-.049-.01,2.728-.99.05-.019.028.046,2.588,4.045.037.059-.05.049-2.041,2.064.024-.1a11.874,11.874,0,0,1,.551,3.11l-.061-.092,2.624,1.238.082.039-.02.089c-.329,1.482-.676,3.038-1.042,4.687l-.021.1h-.1l-2.9.011.113-.069a11.878,11.878,0,0,1-1.82,2.59l.028-.134q.479,1.341.976,2.733l.037.1-.092.058L191.023-165l-.1.061-.08-.08-2.058-2.046.143.035a11.859,11.859,0,0,1-3.122.545l.126-.082-1.244,2.621-.05.106-.115-.025-4.686-1.05-.115-.026v-.118q0-.721,0-1.446v-1.455c.159.261.043.072.079.131h0a11.876,11.876,0,0,1-2.589-1.824l.15.031-2.735.972-.111.04-.063-.1-2.568-4.058-.062-.1.081-.082,2.05-2.055-.035.143a11.973,11.973,0,0,1-.541-3.12l.08.12-2.619-1.247-.1-.047.024-.107c.367-1.627.724-3.213,1.057-4.684l.023-.1h.106l2.9,0-.113.068a11.9,11.9,0,0,1,1.827-2.584l-.025.124c-.338-.956-.669-1.889-.968-2.737l-.031-.088.078-.05,4.063-2.56.071-.046.059.059,2.051,2.054-.1-.024a11.877,11.877,0,0,1,3.111-.531l-.075.05,1.254-2.616.027-.054.058.014,4.68,1.077.037.009v.037c-.009.933-.015,1.653-.02,2.152,0,.237-.007.42-.01.557a1.28,1.28,0,0,1-.011.193" transform="translate(-66.629 407.652)" fill="#17282f"/><path d="M170.491-242.877a5.7,5.7,0,0,0-6.8,4.311,5.7,5.7,0,0,0,4.311,6.8,5.7,5.7,0,0,0,6.8-4.311,5.694,5.694,0,0,0-4.311-6.8m4.567-6.1a13.039,13.039,0,0,1,2.829,1.993l3.023-1.076,2.841,4.484-2.263,2.274a13.01,13.01,0,0,1,.594,3.411l2.9,1.376-1.163,5.18-3.206.007a12.967,12.967,0,0,1-1.994,2.828l1.076,3.024-4.484,2.841-2.274-2.263a13.007,13.007,0,0,1-3.411.594l-1.376,2.9-5.18-1.162-.007-3.208a12.965,12.965,0,0,1-2.829-1.993l-3.024,1.076-2.841-4.485,2.265-2.273a13.044,13.044,0,0,1-.594-3.411l-2.9-1.376,1.162-5.18,3.207-.007a13.017,13.017,0,0,1,1.993-2.829l-1.076-3.024,4.485-2.841,2.274,2.264a13,13,0,0,1,3.41-.594l1.376-2.9,5.18,1.162.007,3.207" transform="translate(-59.723 431.205)" fill="#f03d5f" fill-rule="evenodd"/><path d="M168.148-221.4l-5.18-1.162-.007-3.208a12.965,12.965,0,0,1-2.829-1.993l-3.024,1.076-2.841-4.485,2.265-2.273h0a13.043,13.043,0,0,1-.594-3.411l-2.9-1.376,1.162-5.18,3.207-.007a13.016,13.016,0,0,1,1.993-2.829h0l-1.076-3.024,4.485-2.841,2.274,2.264a13,13,0,0,1,3.41-.594l1.376-2.9,5.18,1.162.007,3.207a13.038,13.038,0,0,1,2.829,1.993l3.023-1.076,2.841,4.484-2.263,2.274h0a13.009,13.009,0,0,1,.594,3.411l2.9,1.376-1.163,5.18-3.206.007a12.968,12.968,0,0,1-1.994,2.828h0l1.076,3.024-4.484,2.841-2.274-2.263a13.007,13.007,0,0,1-3.411.594l-1.376,2.9m-4.6-15.911a5.7,5.7,0,0,0,4.45,5.552,5.7,5.7,0,0,0,1.252.139,5.7,5.7,0,0,0,5.551-4.45,5.7,5.7,0,0,0,.139-1.251,5.7,5.7,0,0,0-4.45-5.552,5.7,5.7,0,0,0-1.251-.139,5.7,5.7,0,0,0-5.552,4.45,5.7,5.7,0,0,0-.139,1.251" transform="translate(-59.723 431.205)" fill="#fbcbd7"/><path d="M147.569-194.21a3.316,3.316,0,0,0-3.961,2.51,3.316,3.316,0,0,0,2.51,3.96,3.314,3.314,0,0,0,3.96-2.51,3.315,3.315,0,0,0-2.509-3.96m2.659-3.548a7.573,7.573,0,0,1,1.647,1.16l1.759-.627,1.654,2.611-1.319,1.324a7.582,7.582,0,0,1,.346,1.985l1.686.8-.676,3.015-1.867,0a7.578,7.578,0,0,1-1.161,1.646l.627,1.76-2.611,1.654-1.324-1.318a7.575,7.575,0,0,1-1.985.346l-.8,1.686-3.015-.676,0-1.867a7.553,7.553,0,0,1-1.647-1.16l-1.76.626-1.654-2.611,1.318-1.324a7.576,7.576,0,0,1-.346-1.985l-1.686-.8.676-3.015,1.867,0a7.558,7.558,0,0,1,1.16-1.648l-.626-1.76,2.61-1.654,1.324,1.319a7.576,7.576,0,0,1,1.985-.346l.8-1.686,3.015.676,0,1.867" transform="translate(-53.624 410.506)" fill="#f03d5f" fill-rule="evenodd"/><path d="M146.2-181.71l-3.015-.676,0-1.867a7.553,7.553,0,0,1-1.647-1.16l-1.76.626-1.654-2.611,1.318-1.324h0a7.575,7.575,0,0,1-.346-1.985l-1.686-.8.676-3.015,1.867,0a7.558,7.558,0,0,1,1.16-1.648h0l-.626-1.76,2.61-1.654,1.324,1.319a7.576,7.576,0,0,1,1.985-.346l.8-1.686,3.015.676,0,1.867a7.571,7.571,0,0,1,1.647,1.16l1.759-.627,1.654,2.611-1.319,1.324h0a7.581,7.581,0,0,1,.346,1.985l1.686.8-.676,3.015-1.867,0a7.578,7.578,0,0,1-1.161,1.646h0l.627,1.76-2.611,1.654-1.324-1.318a7.574,7.574,0,0,1-1.985.346l-.8,1.686m-2.677-9.262a3.315,3.315,0,0,0,2.59,3.232,3.3,3.3,0,0,0,.728.081,3.315,3.315,0,0,0,3.232-2.591,3.29,3.29,0,0,0,.081-.728,3.317,3.317,0,0,0-2.59-3.232,3.353,3.353,0,0,0-.729-.081,3.317,3.317,0,0,0-3.232,2.591,3.35,3.35,0,0,0-.08.728" transform="translate(-53.624 410.506)" fill="#f57797"/><path d="M450.375-269.282a7.938,7.938,0,0,0,5.743-7.922c-.1-1.591-.69-3.14-.623-4.733.106-2.471,1.746-4.562,2.981-6.706s2.063-4.972.624-6.985c-.933-1.306-2.581-1.893-3.711-3.033a12,12,0,0,1-2.224-4.115,7.147,7.147,0,0,0-2.726-3.732c-1.365-.777-3.459-.433-4.012,1.037" transform="translate(-174.215 452.11)" fill="#17282f"/><path d="M397.732-318.93c2.435-1.546,3.024-5.132,1.7-7.7a9.414,9.414,0,0,0-6.969-4.582,13.276,13.276,0,0,0-11.438,3.791c-1.572,1.618-2.846,3.73-4.976,4.472-1.874.652-3.946.063-5.913.318a8.92,8.92,0,0,0-6.249,4.506,19.264,19.264,0,0,0-2.222,7.6c-.287,2.424-.476,5.083-2.158,6.852-1.639,1.724-4.229,2.09-6.268,3.317a8.58,8.58,0,0,0-2.548,11.719c.807,1.177,1.965,2.257,2.059,3.681.085,1.3-.755,2.459-1.149,3.7a5.791,5.791,0,0,0,4.954,7.191c1.691.1,3.5-.563,5.02.194s2.066,2.567,3.029,3.947a7.243,7.243,0,0,0,8.829,2.28c1.244-.611,2.419-1.617,3.8-1.524s2.465,1.272,3.823,1.534c1.777.343,3.464-.966,4.521-2.435s1.793-3.2,3.145-4.4c1.771-1.576,4.259-1.964,6.5-2.737a18.587,18.587,0,0,0,11.034-10.479,18.594,18.594,0,0,0-.681-15.2" transform="translate(-136.341 461.654)" fill="#17282f"/><path d="M416.6-309.124a3.894,3.894,0,0,1,3.475,3.957l-2.323,52.579c-.1,6.209-9.174,9.7-15.823,9.544-6.715-.155-6.93-3.449-7.015-9.357-.141-9.869-.128-13.575-.132-13.519,0,0-8.481-1.428-10.214-12.5-.863-5.506-.566-14.532-.085-21.908.433-6.639,4.85-14.777,11.467-14.063l20.649,5.267" transform="translate(-149.863 455.046)" fill="#f8a58d"/><path d="M388.78-280.367a1.419,1.419,0,0,0,1.366,1.435,1.359,1.359,0,0,0,1.467-1.276,1.421,1.421,0,0,0-1.365-1.437,1.359,1.359,0,0,0-1.467,1.278" transform="translate(-151.719 442.25)" fill="#17282f"/><path d="M387.966-284.544c.175.185,1.253-.608,2.78-.6,1.526-.015,2.645.774,2.811.587.082-.082-.1-.417-.584-.773a3.89,3.89,0,0,0-2.25-.7,3.73,3.73,0,0,0-2.213.709c-.472.359-.631.693-.544.777" transform="translate(-151.393 443.961)" fill="#17282f"/><path d="M413.752-280.367a1.419,1.419,0,0,0,1.365,1.435,1.358,1.358,0,0,0,1.467-1.276,1.421,1.421,0,0,0-1.364-1.437,1.359,1.359,0,0,0-1.467,1.278" transform="translate(-161.464 442.25)" fill="#17282f"/><path d="M412.589-284.022c.176.185,1.254-.608,2.781-.6,1.526-.015,2.646.773,2.811.587.081-.083-.1-.417-.585-.774a3.891,3.891,0,0,0-2.25-.7,3.747,3.747,0,0,0-2.214.709c-.469.36-.63.694-.545.777" transform="translate(-161.002 443.757)" fill="#17282f"/><path d="M400.981-272.657a10.022,10.022,0,0,0-2.48-.454c-.39-.041-.759-.12-.824-.385a1.987,1.987,0,0,1,.263-1.156q.554-1.415,1.16-2.967c1.611-4.225,2.779-7.7,2.608-7.763s-1.615,3.31-3.227,7.535q-.582,1.563-1.112,2.985a2.264,2.264,0,0,0-.206,1.531.98.98,0,0,0,.641.572,2.605,2.605,0,0,0,.663.094,9.941,9.941,0,0,0,2.515.01" transform="translate(-154.963 443.709)" fill="#17282f"/><path d="M401.675-237.38a28.155,28.155,0,0,0,14.832-3.922s-3.757,7.8-14.832,6.745v-2.823" transform="translate(-156.751 426.506)" fill="#f68260"/><path d="M404.419-259.134a2.75,2.75,0,0,1,2.469-1.016,2.511,2.511,0,0,1,1.733.935,1.592,1.592,0,0,1,.117,1.821,1.846,1.846,0,0,1-2,.5,5.813,5.813,0,0,1-1.95-1.169,1.694,1.694,0,0,1-.435-.454.512.512,0,0,1,0-.568" transform="translate(-157.762 433.868)" fill="#f03d5f"/><path d="M407.718-262.763c-.249-.015-.255,1.644-1.677,2.817s-3.186.988-3.2,1.22c-.024.1.393.323,1.138.345a4.126,4.126,0,0,0,2.672-.924,3.594,3.594,0,0,0,1.3-2.362c.064-.693-.12-1.1-.233-1.1" transform="translate(-157.206 434.881)" fill="#17282f"/><path d="M411.481-288.189c.15.416,1.676.223,3.467.442,1.8.185,3.24.712,3.479.34.106-.178-.144-.569-.728-.972a5.814,5.814,0,0,0-2.577-.909,5.815,5.815,0,0,0-2.715.313c-.659.263-.991.589-.927.786" transform="translate(-160.575 445.248)" fill="#17282f"/><path d="M388.891-291.851c.268.348,1.321-.01,2.586-.024,1.265-.059,2.337.239,2.585-.124.108-.176-.059-.524-.527-.854a3.58,3.58,0,0,0-2.1-.573,3.575,3.575,0,0,0-2.064.693c-.449.356-.6.713-.478.882" transform="translate(-151.747 446.848)" fill="#17282f"/><path d="M424.082-312.9a10.75,10.75,0,0,1,8.774-1.643,7.452,7.452,0,0,1,5.5,6.518c.064,1.955-.78,4.034.089,5.8.825,1.678,2.86,2.361,4.3,3.577a6.6,6.6,0,0,1,1.529,7.987c-1.208,2.219-3.75,3.845-3.963,6.35-.2,2.358,1.786,4.346,2.269,6.663.534,2.557-.882,5.2-2.91,6.9a22.861,22.861,0,0,1-7.094,3.532c-1.954.7-4.047,1.416-6.076.956a6.217,6.217,0,0,1-4.553-5.191,8.461,8.461,0,0,1,2.3-6.682c1.421-1.566,3.416-2.9,3.757-4.963.533-3.219-3.3-5.863-3.067-9.116.122-1.677,1.3-3.066,2.289-4.445s1.845-3.114,1.24-4.688c-.785-2.047-3.476-2.581-5.1-4.081a4.969,4.969,0,0,1-1.359-5.033,5.123,5.123,0,0,1,4.014-3.421" transform="translate(-164.607 455.222)" fill="#17282f"/><path d="M405.789-317.786a7.683,7.683,0,0,1-2.712,5.837,7.682,7.682,0,0,1-6.223,1.641c-1.691-.309-3.544-1.163-5.008-.263-1.54.948-1.6,3.268-2.968,4.454-1.952,1.694-5.054.1-7.532.839-1.914.568-3.108,2.4-4.379,3.935s-3.175,3-5.088,2.432a22.452,22.452,0,0,1,.759-5.1,7.554,7.554,0,0,1,2.9-4.159,27.7,27.7,0,0,0,2.447-1.424c1.588-1.281,1.955-3.513,2.937-5.3a8.3,8.3,0,0,1,6.323-4.194c2.178-.223,4.421.431,6.544-.1,1.568-.4,2.939-1.414,4.529-1.716,3.1-.589,5.973,1.633,8.217,3.845" transform="translate(-145.124 457.612)" fill="#17282f"/><path d="M448.587-287.7a2.4,2.4,0,0,0,.246-1.277,3.215,3.215,0,0,0-2.228-2.546,16.456,16.456,0,0,0-2.433-.654,7.14,7.14,0,0,1-2.756-1.136,3.887,3.887,0,0,1-1.434-2.962,30.837,30.837,0,0,1,.172-3.484,8.063,8.063,0,0,0-.088-1.7,3.65,3.65,0,0,0-.653-1.454,5.561,5.561,0,0,0-2.664-1.528,11.973,11.973,0,0,1-2.715-1.171,9.388,9.388,0,0,1-2-1.634,9.329,9.329,0,0,1-1.954-3.154,6.552,6.552,0,0,1-.285-.969,1.105,1.105,0,0,1-.049-.349c.039-.01.148.463.486,1.257a9.879,9.879,0,0,0,2.019,3.008,10,10,0,0,0,4.622,2.641,5.867,5.867,0,0,1,2.863,1.637,4.036,4.036,0,0,1,.744,1.632,8.28,8.28,0,0,1,.1,1.8,32.941,32.941,0,0,0-.18,3.437,3.5,3.5,0,0,0,1.26,2.681,6.9,6.9,0,0,0,2.6,1.1,15.877,15.877,0,0,1,2.467.72,3.889,3.889,0,0,1,1.715,1.289,2.941,2.941,0,0,1,.563,1.52,1.928,1.928,0,0,1-.2,1,.762.762,0,0,1-.209.287" transform="translate(-167.703 453.987)" fill="#33535f"/><path d="M353.216-286.984a.689.689,0,0,1-.18-.085,1.214,1.214,0,0,1-.416-.419,2.236,2.236,0,0,1,.226-2.186,2.908,2.908,0,0,1,1.185-1.133,15.03,15.03,0,0,1,1.78-.751,5.5,5.5,0,0,0,1.862-1.055,3.987,3.987,0,0,0,1.063-2.1c.187-.831.241-1.738.393-2.683a5.881,5.881,0,0,1,1.1-2.791c1.289-1.7,3.4-2.6,4.977-4.194a7.662,7.662,0,0,0,1.729-2.932,20.033,20.033,0,0,0,.783-3.545c.343-2.431.688-5.156,2.326-7.381a5.385,5.385,0,0,1,3.339-2.158,11.7,11.7,0,0,1,3.854.1,14,14,0,0,0,3.6.211,4.683,4.683,0,0,0,2.942-1.52c1.511-1.629,2.379-3.824,4.236-4.946a7.082,7.082,0,0,1,5.593-.771,6.2,6.2,0,0,1,3.68,2.862,6.966,6.966,0,0,1,.956,3.413,5.971,5.971,0,0,1-.354,2.215,3.712,3.712,0,0,1-.326.711c-.021-.01.1-.253.246-.737a6.307,6.307,0,0,0,.271-2.183,6.888,6.888,0,0,0-1-3.3,5.962,5.962,0,0,0-3.559-2.7,6.783,6.783,0,0,0-5.324.779,7.784,7.784,0,0,0-2.137,2.2,24.526,24.526,0,0,1-2,2.714,5.532,5.532,0,0,1-1.415,1.108,5.221,5.221,0,0,1-1.76.544,14.255,14.255,0,0,1-3.71-.2,11.366,11.366,0,0,0-3.715-.094,4.969,4.969,0,0,0-3.085,2,10.247,10.247,0,0,0-1.582,3.47,34.2,34.2,0,0,0-.671,3.719,20.437,20.437,0,0,1-.811,3.615,8.043,8.043,0,0,1-1.833,3.072c-1.67,1.654-3.761,2.537-4.977,4.134a5.552,5.552,0,0,0-1.055,2.631c-.156.923-.22,1.836-.422,2.7a4.262,4.262,0,0,1-1.171,2.228,5.68,5.68,0,0,1-1.963,1.081,15.647,15.647,0,0,0-1.769.707,2.765,2.765,0,0,0-1.139,1.042,2.165,2.165,0,0,0-.291,2.059,1.782,1.782,0,0,0,.521.545" transform="translate(-137.533 460.179)" fill="#33535f"/><path d="M306.152-162.477l19.636-1.8s12.084-31.826,26.98-39.545l9.649,16.855-20.654,38.808h-40.33l4.72-14.319" transform="translate(-117.632 411.879)" fill="#f03d5f"/><path d="M333.516-148.158H309.062L302.43-150l4.111-12.474,19.636-1.8s12.084-31.826,26.98-39.545h0l-8.236,10.471-4.285,6.088a32.785,32.785,0,0,0-5.31,11.685,63.781,63.781,0,0,0-1.181,14.163l-.628,13.257" transform="translate(-118.021 411.879)" fill="#ba2c42"/><path d="M321.891-125.209a15.3,15.3,0,0,1,1.654-3.181,15.343,15.343,0,0,1,2.019-2.963,15.229,15.229,0,0,1-1.655,3.181,15.369,15.369,0,0,1-2.018,2.963" transform="translate(-125.612 383.6)" fill="#fafaf9"/><path d="M341.847-125.469a15.233,15.233,0,0,1-2.4-2.646,15.205,15.205,0,0,1-2.069-2.912,15.166,15.166,0,0,1,2.4,2.647,15.171,15.171,0,0,1,2.068,2.911" transform="translate(-131.658 383.473)" fill="#fafaf9"/><path d="M348.537-137.174a8.021,8.021,0,0,1-.212-2.574,8.024,8.024,0,0,1,.212-2.575,8,8,0,0,1,.212,2.575,7.992,7.992,0,0,1-.212,2.574" transform="translate(-135.932 387.88)" fill="#fafaf9"/><path d="M335.082-116.695a5.4,5.4,0,0,1-1.877-.974c-.973-.637-1.71-1.231-1.646-1.329a5.408,5.408,0,0,1,1.877.975c.973.636,1.71,1.231,1.646,1.328" transform="translate(-129.388 378.783)" fill="#fafaf9"/><path d="M353.837-163.191a17.114,17.114,0,0,1-1.356,3.545,17.048,17.048,0,0,1-1.743,3.373,17.166,17.166,0,0,1,1.357-3.546,17.129,17.129,0,0,1,1.742-3.372" transform="translate(-136.869 396.024)" fill="#fafaf9"/><path d="M366.707-184.348c.071.093-.632.744-1.567,1.454a5.544,5.544,0,0,1-1.824,1.116c-.07-.093.632-.744,1.568-1.454a5.539,5.539,0,0,1,1.824-1.116" transform="translate(-141.78 404.284)" fill="#fafaf9"/><path d="M417.046-149.6l10.127-40.9a13.913,13.913,0,0,1,15.973-10.349,13.913,13.913,0,0,1,11.28,15.825l-6.2,39.973a20,20,0,0,1-16.594,16.182l-8.05,1.254L417.046-149.6" transform="translate(-162.75 410.807)" fill="#f03d5f"/><path d="M456.5-206.58a9.158,9.158,0,0,0-3.612-1.815,9.63,9.63,0,0,0-4.359.03,11.835,11.835,0,0,0-4.738,2.471,23,23,0,0,0-5.68,7.985c-.542,1.151-.955,2.1-1.25,2.746a5.675,5.675,0,0,1-.494.994,5.353,5.353,0,0,1,.342-1.057c.247-.669.619-1.633,1.129-2.806a30.49,30.49,0,0,1,2.082-3.992,17.734,17.734,0,0,1,3.6-4.194,11.908,11.908,0,0,1,4.92-2.525,9.629,9.629,0,0,1,4.52.059,7.722,7.722,0,0,1,2.744,1.324,5.307,5.307,0,0,1,.615.557c.129.137.192.215.181.224" transform="translate(-170.287 413.894)" fill="#17282f"/><path d="M366.774-189.948a2.058,2.058,0,0,1-.284.38l-.866,1.037c-.75.9-1.82,2.221-3.039,3.924a41.8,41.8,0,0,0-6.913,14.677c-1.414,6.237-1.483,12.076-1.723,16.259-.1,2.1-.2,3.8-.289,4.968-.049.547-.088.993-.12,1.347a2.026,2.026,0,0,1-.071.469,1.964,1.964,0,0,1-.014-.473c.011-.356.024-.8.04-1.353.038-1.231.091-2.915.154-4.97.164-4.182.184-10.044,1.609-16.342a40.407,40.407,0,0,1,7.085-14.758c1.257-1.69,2.366-2.985,3.155-3.856.392-.439.714-.763.928-.986a1.975,1.975,0,0,1,.347-.323" transform="translate(-137.933 406.466)" fill="#17282f"/><path d="M431.239-206.4c-1.111-7.313-5.15-9.068-9.333-11.346-1.368-.744-7.962-2.437-13.189-3.711-.5-3.169-1.394-8.837-1.59-10.035-.276-1.681-26.632,2.523-26.965,3.153-.222.419-.828,6.986-1.212,11.363l-6.31,2.206L364.4-204.3l-4.285,6.088a32.784,32.784,0,0,0-5.31,11.685,63.78,63.78,0,0,0-1.181,14.163l-1.273,26.849L407.5-129.925l4.269-27.2,14.226-19.365c1.215-7.832,6.614-20.921,5.247-29.915" transform="translate(-137.504 422.833)" fill="#f03d5f"/><path d="M403.662-214.162a8.563,8.563,0,0,1-.367-1.863c-.173-1.158-.381-2.76-.587-4.533-.1-.876-.188-1.712-.273-2.5a17.57,17.57,0,0,1-.146-2.067,2.485,2.485,0,0,1,.393-1.373c.213-.276.4-.352.406-.333s-.118.147-.267.42a2.648,2.648,0,0,0-.233,1.289c.015.564.141,1.251.234,2.021.1.786.2,1.621.306,2.5.2,1.772.367,3.38.464,4.546a8.418,8.418,0,0,1,.069,1.9" transform="translate(-156.99 420.86)" fill="#17282f"/><path d="M415.148-216.536a6.349,6.349,0,0,1-.587-1.7,26.993,26.993,0,0,1-.744-4.285,27,27,0,0,1-.054-4.35,6.276,6.276,0,0,1,.265-1.783c.13.011-.109,2.745.211,6.094.3,3.35,1.035,6,.909,6.029" transform="translate(-161.444 421.572)" fill="#17282f"/><path d="M436.217-219.466a27.41,27.41,0,0,0-.15-6.064,27.472,27.472,0,0,0-1.9-5.762,5.488,5.488,0,0,1,.967,1.531,15.4,15.4,0,0,1,1.35,4.159,15.384,15.384,0,0,1,.128,4.371,5.473,5.473,0,0,1-.4,1.766" transform="translate(-169.428 422.6)" fill="#17282f"/><path d="M376.12-176.8a15.413,15.413,0,0,1,2.159-3.417,15.448,15.448,0,0,1,2.676-3.03,26.08,26.08,0,0,1-2.337,3.284,25.976,25.976,0,0,1-2.5,3.163" transform="translate(-146.776 403.853)" fill="#fafaf9"/><path d="M393.9-192.636a13.334,13.334,0,0,1-2.193-2.52,13.325,13.325,0,0,1-1.856-2.777,13.337,13.337,0,0,1,2.193,2.52,13.3,13.3,0,0,1,1.856,2.777" transform="translate(-152.134 409.583)" fill="#fafaf9"/><path d="M414.4-199.659a24.1,24.1,0,0,1-2.593,2.624,24.256,24.256,0,0,1-2.691,2.524,12.307,12.307,0,0,1,2.4-2.828,12.263,12.263,0,0,1,2.889-2.321" transform="translate(-159.652 410.257)" fill="#fafaf9"/><path d="M409.388-214.534a7.826,7.826,0,0,1-2.027-1.55,7.838,7.838,0,0,1-1.743-1.864,7.8,7.8,0,0,1,2.027,1.55,7.844,7.844,0,0,1,1.743,1.864" transform="translate(-158.288 417.395)" fill="#fafaf9"/><path d="M426.9-222.317a9.711,9.711,0,0,1-2.737.8,9.744,9.744,0,0,1-2.825.389,9.744,9.744,0,0,1,2.737-.8,9.71,9.71,0,0,1,2.825-.389" transform="translate(-164.423 419.111)" fill="#fafaf9"/><path d="M433.932-196.407a9.743,9.743,0,0,1-.356-2.834,9.8,9.8,0,0,1,.068-2.856,9.773,9.773,0,0,1,.355,2.835,9.813,9.813,0,0,1-.068,2.855" transform="translate(-169.183 411.206)" fill="#fafaf9"/><path d="M425.807-182.863a15.312,15.312,0,0,1-1.424-3.289,15.263,15.263,0,0,1-1.026-3.433,15.338,15.338,0,0,1,1.424,3.289,15.205,15.205,0,0,1,1.025,3.433" transform="translate(-165.207 406.324)" fill="#fafaf9"/><path d="M407.154-173.055a17.006,17.006,0,0,1-1.565-3.442,17.059,17.059,0,0,1-1.17-3.6,16.977,16.977,0,0,1,1.564,3.442,17,17,0,0,1,1.171,3.6" transform="translate(-157.817 402.62)" fill="#fafaf9"/><path d="M390.6-161.619a14.765,14.765,0,0,1-.913-3.406,14.763,14.763,0,0,1-.5-3.492,14.85,14.85,0,0,1,.914,3.407,14.888,14.888,0,0,1,.5,3.491" transform="translate(-151.865 398.102)" fill="#fafaf9"/><path d="M368.917-160.726a14.234,14.234,0,0,1-1.7-3.013,14.262,14.262,0,0,1-1.322-3.2,14.283,14.283,0,0,1,1.7,3.013,14.338,14.338,0,0,1,1.323,3.2" transform="translate(-142.782 397.486)" fill="#fafaf9"/><path d="M366.068-143.511a17.113,17.113,0,0,1-3.3,1.867,17.179,17.179,0,0,1-3.489,1.487,17.056,17.056,0,0,1,3.3-1.867,17.086,17.086,0,0,1,3.489-1.487" transform="translate(-140.205 388.348)" fill="#fafaf9"/><path d="M369.608-126.448a9.143,9.143,0,0,1-1.147-2.959,9.148,9.148,0,0,1-.479-3.139,17.364,17.364,0,0,1,.888,3.029,17.348,17.348,0,0,1,.738,3.068" transform="translate(-143.588 384.064)" fill="#fafaf9"/><path d="M363.181-110.767a13.753,13.753,0,0,1-2.654-2.141,13.917,13.917,0,0,1-2.369-2.454,13.834,13.834,0,0,1,2.655,2.142,13.952,13.952,0,0,1,2.368,2.454" transform="translate(-139.767 377.361)" fill="#fafaf9"/><path d="M388.549-117.88c.031.122-1.837.655-4.015,1.617s-3.841,1.961-3.91,1.856a12.5,12.5,0,0,1,3.74-2.245,12.548,12.548,0,0,1,4.185-1.228" transform="translate(-148.536 378.348)" fill="#fafaf9"/><path d="M384.374-128.821a10.976,10.976,0,0,1-1.193-2.784,10.965,10.965,0,0,1-.8-2.923,10.888,10.888,0,0,1,1.194,2.784,10.909,10.909,0,0,1,.794,2.923" transform="translate(-149.216 384.838)" fill="#fafaf9"/><path d="M398.728-143.2a24.158,24.158,0,0,1-2.226,3.928,24.24,24.24,0,0,1-2.584,3.7,24.235,24.235,0,0,1,2.226-3.928,24.282,24.282,0,0,1,2.584-3.7" transform="translate(-153.722 388.221)" fill="#fafaf9"/><path d="M416.154-146.466a16.831,16.831,0,0,1-2.7-3.692,16.833,16.833,0,0,1-1.985-4.121c.11-.053,1.055,1.754,2.349,3.9s2.437,3.837,2.338,3.91" transform="translate(-160.569 392.546)" fill="#fafaf9"/><path d="M425.567-158.614a8.228,8.228,0,0,1-3.094.55,8.274,8.274,0,0,1-3.135-.241,20.488,20.488,0,0,1,3.113-.183,20.648,20.648,0,0,1,3.116-.127" transform="translate(-163.644 394.254)" fill="#fafaf9"/><path d="M449.013-178.1a24.092,24.092,0,0,1-3.985,2.133,24.228,24.228,0,0,1-4.167,1.751,24.332,24.332,0,0,1,3.985-2.133,24.3,24.3,0,0,1,4.167-1.752" transform="translate(-172.043 401.846)" fill="#fafaf9"/><path d="M455.865-194.67a15.8,15.8,0,0,1,1.425-3.351,15.793,15.793,0,0,1,1.8-3.164,15.8,15.8,0,0,1-1.426,3.352,15.848,15.848,0,0,1-1.8,3.163" transform="translate(-177.894 410.851)" fill="#fafaf9"/><path d="M470.057-185.53a26.622,26.622,0,0,1-1.234-3.7,26.394,26.394,0,0,1-1.093-3.744,13.843,13.843,0,0,1,1.5,3.617,13.75,13.75,0,0,1,.83,3.825" transform="translate(-182.523 407.646)" fill="#fafaf9"/><path d="M469.326-167.869a12.376,12.376,0,0,1-3.567,1.3,12.4,12.4,0,0,1-3.755.572,27.643,27.643,0,0,1,3.65-.983,27.6,27.6,0,0,1,3.672-.894" transform="translate(-180.294 397.856)" fill="#fafaf9"/><path d="M447.127-157.82c-.124-.024.225-2,.324-4.466s-.068-4.464.056-4.479a13.4,13.4,0,0,1,.367,4.5,13.35,13.35,0,0,1-.747,4.448" transform="translate(-174.479 397.418)" fill="#fafaf9"/><path d="M438.4-139.955a13.614,13.614,0,0,1-2.974-2.908,13.605,13.605,0,0,1-2.311-3.46c.1-.067,1.179,1.44,2.636,3.189s2.734,3.09,2.649,3.179" transform="translate(-169.017 389.442)" fill="#fafaf9"/><path d="M464.286-139.3a16.823,16.823,0,0,1-3.39,1.645,16.852,16.852,0,0,1-3.554,1.255,16.873,16.873,0,0,1,3.391-1.646,16.919,16.919,0,0,1,3.553-1.254" transform="translate(-178.475 386.706)" fill="#fafaf9"/><path d="M458.966-114.492a23.726,23.726,0,0,1-.167-4.473,23.849,23.849,0,0,1,.256-4.47,23.755,23.755,0,0,1,.167,4.474,23.844,23.844,0,0,1-.256,4.469" transform="translate(-179.042 380.509)" fill="#fafaf9"/><path d="M438.37-116.273a17.369,17.369,0,0,1,.723-4.6,17.358,17.358,0,0,1,1.532-4.393c.115.042-.5,2.02-1.121,4.5s-1.012,4.51-1.133,4.492" transform="translate(-171.06 381.222)" fill="#fafaf9"/><path d="M433.6-102.55c.007.123-2.02.316-4.49.728s-4.454.873-4.488.754a16.3,16.3,0,0,1,4.419-1.172,16.3,16.3,0,0,1,4.559-.311" transform="translate(-165.704 372.383)" fill="#fafaf9"/><path d="M416.457-111.045a16.335,16.335,0,0,1,2.411-2.8,16.233,16.233,0,0,1,2.716-2.507,16.279,16.279,0,0,1-2.411,2.8,16.209,16.209,0,0,1-2.715,2.506" transform="translate(-162.518 377.747)" fill="#fafaf9"/><path d="M400.2-97.293a29.534,29.534,0,0,1-1.1-3.181,29.44,29.44,0,0,1-1.136-3.169,8.935,8.935,0,0,1,1.535,3.028,8.934,8.934,0,0,1,.7,3.321" transform="translate(-155.301 372.786)" fill="#fafaf9"/><path d="M420.45-87.264a22.675,22.675,0,0,1-4.079-1.578,22.7,22.7,0,0,1-3.906-1.966,22.647,22.647,0,0,1,4.078,1.578,22.884,22.884,0,0,1,3.907,1.966" transform="translate(-160.962 367.781)" fill="#fafaf9"/><path d="M383.855-91.127a11.221,11.221,0,0,1,.764-2.974,11.253,11.253,0,0,1,1.167-2.841,11.3,11.3,0,0,1-.765,2.975,11.365,11.365,0,0,1-1.166,2.841" transform="translate(-149.789 370.171)" fill="#fafaf9"/><path d="M404.66-83.31c-.023.125-2.336-.251-5.21-.4s-5.214-.032-5.224-.157a18.442,18.442,0,0,1,5.246-.266,18.467,18.467,0,0,1,5.188.82" transform="translate(-153.845 365.188)" fill="#fafaf9"/><path d="M417.032-143.187a1.015,1.015,0,0,1-.021-.321,3.038,3.038,0,0,1,.131-.922,2.042,2.042,0,0,1,.884-1.211,2.844,2.844,0,0,1,1.985-.328l-.167.1c.891-3.117,2.312-7.672,3.735-12.777,1.333-4.778,2.231-9.18,2.863-12.371.3-1.544.555-2.819.744-3.781a9.108,9.108,0,0,1,.321-1.378,8.982,8.982,0,0,1-.159,1.406c-.128.9-.336,2.2-.612,3.807-.557,3.207-1.411,7.635-2.748,12.428-1.427,5.119-2.9,9.655-3.872,12.748l-.038.121-.128-.024a2.634,2.634,0,0,0-1.807.242,1.905,1.905,0,0,0-.854,1.068,11.655,11.655,0,0,0-.256,1.194" transform="translate(-162.736 401.092)" fill="#17282f"/><path d="M437.016-112.557c-.07.032-.569-1.068-1.6-2.71a28.571,28.571,0,0,0-4.845-5.778,28.548,28.548,0,0,0-6.215-4.274c-1.732-.872-2.876-1.265-2.85-1.338a3.351,3.351,0,0,1,.824.216,18.361,18.361,0,0,1,2.157.853,25.444,25.444,0,0,1,6.369,4.229,25.393,25.393,0,0,1,4.816,5.936,18.344,18.344,0,0,1,1.054,2.066,3.3,3.3,0,0,1,.293.8" transform="translate(-164.489 381.769)" fill="#17282f"/><path d="M436.385-117.5a1.808,1.808,0,0,1-.6-.1,4.063,4.063,0,0,1-1.346-.926c-.475-.439-.954-.864-1.437-1.282-.07-.079-.141-.157-.213-.237.119-.509.252-1.061.4-1.637.259-1.038.518-1.988.723-2.745a9.665,9.665,0,0,1,3.568,4.467,2.017,2.017,0,0,1-.151,2.111,1.322,1.322,0,0,1-.941.352m-3.926-2.9c-.423-.447-.873-.892-1.352-1.328A25.981,25.981,0,0,0,426-125.337a13.971,13.971,0,0,0-2.688-1.224c-.274-.1-.518-.187-.727-.251-.166-.052-.308-.1-.425-.13.068-.218.139-.441.212-.672a28.162,28.162,0,0,1,8.421,1.54,13.767,13.767,0,0,1,2.835,1.45c-.267.759-.576,1.745-.848,2.839-.121.48-.227.946-.317,1.385" transform="translate(-164.744 382.14)" fill="#da314b"/><path d="M439.384-118.132q-.162-.178-.33-.356c.09-.438.2-.9.317-1.385.272-1.094.58-2.08.848-2.839q.144.1.285.2c-.2.757-.464,1.707-.723,2.745-.146.576-.278,1.128-.4,1.637" transform="translate(-171.338 380.227)" fill="#bfc0be"/><path d="M421.928-126.878l-.049-.008,0-.012.045.02m.12-.071-.137-.039.2-.645.153.011c-.073.231-.144.454-.212.672" transform="translate(-164.636 382.147)" fill="#111d23"/><path d="M432.9-119.4c-1.339-1.16-2.7-2.262-4.063-3.432a19.862,19.862,0,0,0-2.943-2.1A25.984,25.984,0,0,1,431-121.324c.479.437.929.881,1.352,1.328q.168.178.33.356l.213.237m-9.694-6.753a8.831,8.831,0,0,0-1.272-.31l-.045-.02.028-.09.137.039c.117.034.259.078.425.13.209.064.453.147.727.251" transform="translate(-164.638 381.735)" fill="#111d23"/><path d="M398.594-139.787a3.76,3.76,0,0,1-.848.491,15,15,0,0,1-2.5.943,16.955,16.955,0,0,1-8.763.1,16.946,16.946,0,0,1-7.608-4.351,14.764,14.764,0,0,1-1.726-2.041,3.7,3.7,0,0,1-.5-.841c.067-.05.808,1.143,2.436,2.667a17.652,17.652,0,0,0,7.507,4.157,17.661,17.661,0,0,0,8.58.02c2.163-.539,3.391-1.221,3.426-1.144" transform="translate(-146.983 389.116)" fill="#17282f"/><path d="M388.284-134.091h-.1a8.936,8.936,0,0,1-5.135-2.152c-2.486-1.916-4.068-4.745-5.4-7.6a15.3,15.3,0,0,0,1.613,1.879,16.946,16.946,0,0,0,7.608,4.351q.728.189,1.444.3a5.842,5.842,0,0,0-.746,1.491l.007,0a7.459,7.459,0,0,0,1.1-1.437,17.067,17.067,0,0,0,2.39.167,16.8,16.8,0,0,0,4.173-.518c-2.032,1.718-4.312,3.51-6.958,3.51" transform="translate(-147.378 388.472)" fill="#da314b"/><path d="M393.925-131.631l-.007,0a5.846,5.846,0,0,1,.746-1.491c.12.019.24.038.359.055a7.457,7.457,0,0,1-1.1,1.437" transform="translate(-153.722 384.29)" fill="#bfc0be"/><path d="M392.662-136.229a17.657,17.657,0,0,1-2.353-.157l.088-.131a20.341,20.341,0,0,0,2.376.287h-.111m-2.746-.215c-.516-.081-1.039-.189-1.565-.325a17.681,17.681,0,0,1-7.189-3.865A20.721,20.721,0,0,0,390-136.592l-.088.148" transform="translate(-148.746 387.221)" fill="#da314b"/><path d="M395.912-133.8c-.13-.017-.262-.037-.393-.058l.088-.148c.13.026.261.051.393.075l-.088.131" transform="translate(-154.349 384.634)" fill="#bfc0be"/><path d="M390.959-137.323a17.07,17.07,0,0,1-2.39-.167c-.12-.017-.239-.036-.359-.055q-.715-.117-1.444-.3a16.946,16.946,0,0,1-7.608-4.351,15.3,15.3,0,0,1-1.613-1.879q-.088-.187-.173-.375a14.378,14.378,0,0,0,2.311,2.33,17.682,17.682,0,0,0,7.189,3.865c.526.137,1.049.244,1.565.325.131.021.263.041.393.058a17.651,17.651,0,0,0,2.353.157h.111c.39.024.782.037,1.172.037a17.626,17.626,0,0,0,2.728-.208l-.061.052a16.8,16.8,0,0,1-4.173.518" transform="translate(-147.267 388.712)" fill="#111d23"/><path d="M425.9-217.7c-.129-.008.026-2.793-.308-6.2-.318-3.409-1-6.114-.874-6.146a6.626,6.626,0,0,1,.563,1.745,30.709,30.709,0,0,1,.733,4.36,30.905,30.905,0,0,1,.109,4.419,6.72,6.72,0,0,1-.223,1.82" transform="translate(-165.737 422.111)" fill="#17282f"/><path d="M242.477-31.366s-8.837,1.91-16.725.727c-7.4-1.108-23.956.039-23.95,9.786.007,10.872,22.089,8.185,30.7,6.462s17.2-3.285,17.2-3.285l-7.225-13.69" transform="translate(-78.752 344.58)" fill="#f03d5f"/><path d="M234.867-13.427A18.4,18.4,0,0,1,233.8-17.21a18.375,18.375,0,0,1-.654-3.877,18.38,18.38,0,0,1,1.067,3.784,18.389,18.389,0,0,1,.654,3.876" transform="translate(-90.974 340.568)" fill="#17282f"/><path d="M240.216-13.291a18.543,18.543,0,0,1-.746-3.88,18.557,18.557,0,0,1-.327-3.937,18.541,18.541,0,0,1,.746,3.879,18.526,18.526,0,0,1,.326,3.937" transform="translate(-93.309 340.576)" fill="#17282f"/><path d="M245.141-14.524a14.113,14.113,0,0,1-.623-3.389,14.179,14.179,0,0,1-.2-3.44,14.122,14.122,0,0,1,.623,3.39,14.18,14.18,0,0,1,.2,3.44" transform="translate(-95.323 340.673)" fill="#17282f"/><path d="M252.225-15.875a7.87,7.87,0,0,1-1.137-2.91,7.86,7.86,0,0,1-.324-3.108,22.245,22.245,0,0,1,.736,3.008,22.226,22.226,0,0,1,.725,3.01" transform="translate(-97.837 340.883)" fill="#17282f"/><path d="M254.8-22.9a3.8,3.8,0,0,1,1.154-.077,9.77,9.77,0,0,1,3.1.607,3.459,3.459,0,0,1,.955.515,1.448,1.448,0,0,1,.6,1.077,1.635,1.635,0,0,1-2,1.455,4.118,4.118,0,0,1-2.306-1.643,7.017,7.017,0,0,1-1.3-2.717,6.907,6.907,0,0,1,.972-5.63,1.123,1.123,0,0,1,.656-.4.894.894,0,0,1,.735.23,1.98,1.98,0,0,1,.554,1.186,6.043,6.043,0,0,1-.117,2.21A6.144,6.144,0,0,1,256.3-23.3a4.767,4.767,0,0,1-.645.572c-.162.114-.25.167-.259.155-.024-.031.308-.277.78-.837a6.344,6.344,0,0,0,1.322-2.745,5.839,5.839,0,0,0,.063-2.093,1.657,1.657,0,0,0-.452-.958.566.566,0,0,0-.852.143,6.629,6.629,0,0,0-.854,5.272,6.7,6.7,0,0,0,1.22,2.563,3.782,3.782,0,0,0,2.049,1.513,1.277,1.277,0,0,0,1.58-1.062,1.116,1.116,0,0,0-.454-.832,3.207,3.207,0,0,0-.856-.489,10.782,10.782,0,0,0-3-.721c-.733-.067-1.143-.054-1.145-.088" transform="translate(-99.427 343.939)" fill="#17282f"/><path d="M249.717-18.99a.9.9,0,0,1-.223.071l-.663.166c-.615.139-1.472.335-2.562.583-2.228.49-5.462,1.179-9.478,1.954s-8.815,1.651-14.194,2.383a38.339,38.339,0,0,1-8.528.426,18.374,18.374,0,0,1-4.467-.854,12.278,12.278,0,0,1-2.144-.952,6.654,6.654,0,0,1-1.883-1.517l.033.037a4.466,4.466,0,0,1-.768-.923,5.749,5.749,0,0,1-.45-4.758,7.6,7.6,0,0,1,2.833-3.7,14.375,14.375,0,0,1,4.027-2c.7-.2,1.391-.442,2.089-.6.7-.139,1.389-.326,2.08-.421,5.537-.875,10.575-.43,14.759-.429,2.1.039,3.993-.018,5.654-.119a37.781,37.781,0,0,0,4.231-.535l1.524-.32,1.1-.313.678-.186a1.107,1.107,0,0,1,.236-.051,1,1,0,0,1-.222.092l-.667.227-1.09.353-1.524.36a35.521,35.521,0,0,1-4.246.61c-1.667.124-3.572.2-5.674.183-1.071.009-2.2-.011-3.371-.031a62.514,62.514,0,0,0-11.323.544c-.683.1-1.358.285-2.05.425-.688.158-1.361.4-2.054.6a14.015,14.015,0,0,0-3.91,1.946,7.2,7.2,0,0,0-2.679,3.5,5.342,5.342,0,0,0,.407,4.4,4.1,4.1,0,0,0,.693.832L205.9-17l.019.023a6.352,6.352,0,0,0,1.746,1.394,12.046,12.046,0,0,0,2.067.92,18.059,18.059,0,0,0,4.367.841,38.386,38.386,0,0,0,8.444-.4c5.369-.709,10.168-1.559,14.19-2.291s7.261-1.381,9.5-1.822l2.577-.507.672-.124a1.067,1.067,0,0,1,.232-.03" transform="translate(-79.641 344.456)" fill="#17282f"/><path d="M224.615-12.476a14.638,14.638,0,0,1-.214-2.259c-.1-1.393-.266-3.315-.548-5.426s-.629-4.009-.9-5.38a14.489,14.489,0,0,1-.388-2.234,10.288,10.288,0,0,1,.68,2.169,48.642,48.642,0,0,1,1.027,5.388,48.719,48.719,0,0,1,.428,5.468,10.283,10.283,0,0,1-.085,2.272" transform="translate(-86.851 343.178)" fill="#17282f"/><path d="M269.648-16.87h0c2.646-.5,4.346-.805,4.346-.805h0l-4.346.805m-5.6-14.024h0l1.623-.471.115.19c-.448.08-1.037.179-1.737.282" transform="translate(-103.043 344.58)" fill="#8c8f8f"/><path d="M269.648-16.749l-.52-1.3.545-.119c1.09-.248,1.947-.444,2.562-.583l.663-.166a.975.975,0,0,0,.223-.07l.874,1.437h0s-1.7.31-4.346.805m-.586-1.468L264.278-30.2l.745-.176.983-.318,7.114,11.7-.009,0a2.023,2.023,0,0,0-.222.031l-.672.124-2.577.507-.577.114m-4.839-12.121-.173-.434c.7-.1,1.289-.2,1.737-.282l.17.279-.967.276-.767.162" transform="translate(-103.044 344.458)" fill="#9c2438"/><path d="M269.239-17.875l-.066-.164.577-.114,2.577-.507.672-.124a2.023,2.023,0,0,1,.222-.031l.009,0h0a.976.976,0,0,1-.223.07l-.663.166c-.615.139-1.472.335-2.562.583l-.545.119m-4.85-12.149-.054-.137.767-.162.967-.276.049.08-.983.318-.745.176" transform="translate(-103.155 344.28)" fill="#0c1418"/><path d="M312.881-108.565c-.9.3-58.766-15.915-82.166-22.495a22.231,22.231,0,0,0-18.1,2.739l-.282.183a22.229,22.229,0,0,0-9.572,23.7A22.217,22.217,0,0,0,212.8-90.523c15.432,9.453,48.089,29.342,49.088,28.955,1.31-.507,42.1-1.565,42.1-1.565L254.915-98.42l23.342,15.085,34.624-25.231" transform="translate(-78.901 383.809)" fill="#17282f"/><path d="M303.052-126.588l12.3-6.362,12.063,7.562,45.161,1.475,6.537,21.987L313.748-117.08s-11.9,1.053-12.789-1.621,2.093-7.886,2.093-7.886" transform="translate(-117.383 384.222)" fill="#f8a58d"/><path d="M361.286-75.26l-6.079,19.965.755,6.085a31.242,31.242,0,0,0,41.2,2.777,30.619,30.619,0,0,0,11.97-24.417l-.092-20.862L361.286-75.26" transform="translate(-138.617 368.129)" fill="#17282f"/><path d="M285.783-79.445c-.07.093-7.128-5.052-15.762-11.492s-15.58-11.738-15.511-11.832,7.127,5.05,15.764,11.492,15.578,11.738,15.508,11.832" transform="translate(-99.321 372.445)" fill="#33535f"/><path d="M315.527-126.421a48.27,48.27,0,0,1-6.017,2.15,48.3,48.3,0,0,1-6.146,1.747,48.132,48.132,0,0,1,6.017-2.149,48.173,48.173,0,0,1,6.146-1.748" transform="translate(-118.386 381.679)" fill="#f68260"/><path d="M315.776-120.285a12.681,12.681,0,0,1-2.1.394c-1.3.211-3.079.529-5.028.976s-3.693.943-4.95,1.318a12.824,12.824,0,0,1-2.056.561,9.085,9.085,0,0,1,1.963-.845,43.453,43.453,0,0,1,4.95-1.446,43.548,43.548,0,0,1,5.082-.86,9.232,9.232,0,0,1,2.135-.1" transform="translate(-117.716 379.291)" fill="#f68260"/><path d="M314.4-114.635a57.1,57.1,0,0,1-6.776,1.56,57.315,57.315,0,0,1-6.86,1.144,57.015,57.015,0,0,1,6.777-1.559,57.167,57.167,0,0,1,6.859-1.145" transform="translate(-117.372 377.081)" fill="#f68260"/><path d="M260.269-171.378l11.346,37.335a1.082,1.082,0,0,0,.954.763l30.919,2.32a1.082,1.082,0,0,1,1,1.079v1.93a1.083,1.083,0,0,1-1.1,1.081l-84.521-1.588a1.084,1.084,0,0,1-.99-.7L203.012-168.1a1.081,1.081,0,0,1,.959-1.466l55.212-2.583a1.082,1.082,0,0,1,1.085.766" transform="translate(-79.196 399.518)" fill="#33535f"/><path d="M256.818-144.62a2.665,2.665,0,0,0-1.672,1.9,2.559,2.559,0,0,0,1.093,2.326,2.78,2.78,0,0,0,3.089.116,2.576,2.576,0,0,0,.844-3.12,2.8,2.8,0,0,0-3.354-1.22" transform="translate(-99.562 388.847)" fill="#dadbd8"/><path d="M274.641-55.1l-8.933-14.7L331.4-121.286a26.4,26.4,0,0,1,14.349-5.88,26.4,26.4,0,0,1,28.7,28.486L373.4-86.119l-43.6,14.011-55.153,17" transform="translate(-103.691 382.009)" fill="#17282f"/><path d="M364.6-66.14a.982.982,0,0,1-.174.162l-.537.442-2.092,1.67-1.52,1.2c-.554.44-1.207.847-1.882,1.324l-2.182,1.495c-.388.264-.781.542-1.2.811l-1.3.785c-1.785,1.066-3.711,2.286-5.9,3.389-1.083.567-2.188,1.185-3.355,1.762l-3.63,1.72c-5,2.281-10.6,4.573-16.607,6.616-12,4.134-23.093,7.111-31.038,9.519-1.991.586-3.787,1.135-5.359,1.632s-2.933.906-4.032,1.28l-2.543.827-.665.2a.985.985,0,0,1-.232.055,1.037,1.037,0,0,1,.217-.1l.651-.245,2.519-.9c1.092-.4,2.442-.841,4.012-1.349s3.358-1.089,5.346-1.693c7.928-2.484,19.007-5.506,30.985-9.634,6-2.039,11.587-4.315,16.584-6.569l3.628-1.7c1.168-.569,2.272-1.179,3.355-1.737,2.186-1.086,4.115-2.288,5.9-3.334l1.308-.77c.417-.264.811-.539,1.2-.8l2.194-1.465c.68-.466,1.338-.863,1.9-1.293L361.7-64l2.137-1.6.564-.41a.98.98,0,0,1,.2-.129" transform="translate(-109.408 358.15)" fill="#33535f"/><path d="M409.351-54.875a2.543,2.543,0,0,1-.663.347c-.437.2-1.08.462-1.885.762a47.9,47.9,0,0,1-6.442,1.864,47.878,47.878,0,0,1-6.64.947c-.856.058-1.55.084-2.031.08a2.557,2.557,0,0,1-.747-.043,24.906,24.906,0,0,1,2.751-.335c1.7-.189,4.033-.518,6.578-1.063s4.809-1.208,6.433-1.732a25.081,25.081,0,0,1,2.646-.825" transform="translate(-152.563 353.756)" fill="#33535f"/><path d="M328.77-113.4c.072.093-13.988,11.141-31.4,24.674S265.78-64.295,265.707-64.386s13.986-11.137,31.4-24.676S328.7-113.493,328.77-113.4" transform="translate(-103.691 376.594)" fill="#33535f"/><path d="M335.612-28.454c-3.15-1.681-6.689-.688-9.7.328-2.006.676-4.093,1.748-6.131,1.175-1.474-.415-2.57-1.61-3.7-2.648a23.229,23.229,0,0,0-16.98-6.085,6.917,6.917,0,0,0-4.663,2.108c-3.1,3.352-.761,7.715,2,10.533a30.559,30.559,0,0,0,18.466,8.908,42.854,42.854,0,0,0,19.534-2.7c3.6-1.543,5.452-5.793,3.561-9.228a5.913,5.913,0,0,0-2.392-2.4" transform="translate(-114.329 346.281)" fill="#f03d5f"/><path d="M321.116-5.715a37.607,37.607,0,0,1-3.885-.192A30.461,30.461,0,0,1,305.47-9.685h.007a30.461,30.461,0,0,0,11.761,3.778,37.823,37.823,0,0,0,3.881.192h0m-16.365-4.393h-.007a30.129,30.129,0,0,1-5.808-4.534l.006,0a30.091,30.091,0,0,0,5.81,4.536" transform="translate(-116.658 338.054)" fill="#8c8f8f"/><path d="M309.187-6.782c-.245-.138-.486-.279-.727-.423h.007q.36.217.726.423h-.007" transform="translate(-120.375 335.151)" fill="#0c1418"/><path d="M297.1-17.17l-.046-.046.006,0,.046.046-.006,0m-.269-.273a14,14,0,0,1-2.6-3.678,14.039,14.039,0,0,0,2.609,3.676l-.006,0" transform="translate(-114.819 340.582)" fill="#0c1418"/><path d="M298.717-14.864l-.124-.126-.1-.1.006,0,.1.1.123.125-.006,0" transform="translate(-116.485 338.229)" fill="#1a2c33"/><path d="M318.9-12.225a37.822,37.822,0,0,1-3.881-.192,30.46,30.46,0,0,1-11.761-3.778q-.366-.207-.726-.423a30.089,30.089,0,0,1-5.81-4.536l-.046-.046-.123-.125-.1-.1a14.039,14.039,0,0,1-2.609-3.676,8.6,8.6,0,0,1-.6-1.721,5.383,5.383,0,0,1,1.3-2.35,6.921,6.921,0,0,1,4.663-2.108q.681-.042,1.359-.042A23.3,23.3,0,0,1,316.18-25.2c1.125,1.038,2.222,2.233,3.7,2.647a4.449,4.449,0,0,0,1.22.163c1.644,0,3.3-.795,4.911-1.337a18.9,18.9,0,0,1,5.9-1.233,7.94,7.94,0,0,1,3.8.9,5.918,5.918,0,0,1,2.392,2.4,6.051,6.051,0,0,1,.6,1.59,7.125,7.125,0,0,1-4.157,4.954A41.875,41.875,0,0,1,318.9-12.225" transform="translate(-114.434 344.564)" fill="#9c2438"/><path d="M338.589-20.169a5.456,5.456,0,0,0-.772-1.868,6.1,6.1,0,0,0-1.686-1.648,6.719,6.719,0,0,0-2.9-1.109c-2.34-.275-5.05.71-8.062,1.524a12.6,12.6,0,0,1-4.9.774,6.5,6.5,0,0,1-2.517-.871A15.726,15.726,0,0,1,315.6-25a22.651,22.651,0,0,0-8.618-5.121,22.541,22.541,0,0,0-4.288-.995,13.532,13.532,0,0,0-3.814-.023,8.308,8.308,0,0,0-2.95,1.03,7.519,7.519,0,0,0-1.806,1.531,18.359,18.359,0,0,0-1.164,1.681,6.549,6.549,0,0,1,1.037-1.785,7.417,7.417,0,0,1,1.811-1.629,8.436,8.436,0,0,1,3.025-1.123,13.556,13.556,0,0,1,3.9-.03,22.391,22.391,0,0,1,4.367.973,25.2,25.2,0,0,1,4.524,2,18.7,18.7,0,0,1,2.2,1.434c.7.549,1.365,1.153,2.046,1.74a15.425,15.425,0,0,0,2.1,1.588,6.1,6.1,0,0,0,2.355.823,12.392,12.392,0,0,0,4.74-.739c3-.784,5.755-1.767,8.2-1.446a6.781,6.781,0,0,1,4.684,2.965,4.368,4.368,0,0,1,.583,1.423,1.956,1.956,0,0,1,.051.534" transform="translate(-114.324 344.666)" fill="#17282f"/><path d="M338.589-20.169a5.456,5.456,0,0,0-.772-1.868,6.1,6.1,0,0,0-1.686-1.648,6.719,6.719,0,0,0-2.9-1.109c-2.34-.275-5.05.71-8.062,1.524a12.6,12.6,0,0,1-4.9.774,6.5,6.5,0,0,1-2.517-.871A15.726,15.726,0,0,1,315.6-25a22.651,22.651,0,0,0-8.618-5.121,22.541,22.541,0,0,0-4.288-.995,13.532,13.532,0,0,0-3.814-.023,8.308,8.308,0,0,0-2.95,1.03,7.519,7.519,0,0,0-1.806,1.531,18.359,18.359,0,0,0-1.164,1.681,6.549,6.549,0,0,1,1.037-1.785,7.417,7.417,0,0,1,1.811-1.629,8.436,8.436,0,0,1,3.025-1.123,13.556,13.556,0,0,1,3.9-.03,22.391,22.391,0,0,1,4.367.973,25.2,25.2,0,0,1,4.524,2,18.7,18.7,0,0,1,2.2,1.434c.7.549,1.365,1.153,2.046,1.74a15.425,15.425,0,0,0,2.1,1.588,6.1,6.1,0,0,0,2.355.823,12.392,12.392,0,0,0,4.74-.739c3-.784,5.755-1.767,8.2-1.446a6.781,6.781,0,0,1,4.684,2.965,4.368,4.368,0,0,1,.583,1.423,1.956,1.956,0,0,1,.051.534" transform="translate(-114.324 344.666)" fill="#17282f"/><path d="M303.7-17.741a7.949,7.949,0,0,1,1.613-1.118,45.384,45.384,0,0,1,4.175-2.229,45.856,45.856,0,0,1,4.38-1.793,8.032,8.032,0,0,1,1.891-.529,10.323,10.323,0,0,1-1.784.809c-1.113.464-2.644,1.116-4.307,1.9s-3.14,1.545-4.206,2.106a10.345,10.345,0,0,1-1.761.858" transform="translate(-118.517 341.478)" fill="#17282f"/><path d="M305.476-12.807a56.916,56.916,0,0,1,6.154-3.211,57.266,57.266,0,0,1,6.339-2.829,56.983,56.983,0,0,1-6.154,3.211,57.357,57.357,0,0,1-6.339,2.83" transform="translate(-119.21 339.697)" fill="#17282f"/><path d="M317.431-12.656c-.063.1-3.42-1.9-7.5-4.475s-7.336-4.733-7.274-4.833,3.419,1.9,7.5,4.475,7.335,4.734,7.273,4.833" transform="translate(-118.11 340.912)" fill="#17282f"/><path d="M322.9-16.971a10.066,10.066,0,0,1-1.644-1.1c-.988-.712-2.351-1.7-3.876-2.754s-2.925-1.988-3.939-2.663a9.974,9.974,0,0,1-1.606-1.154,8.573,8.573,0,0,1,1.764.9c1.057.611,2.489,1.507,4.021,2.569s2.873,2.089,3.818,2.864a8.465,8.465,0,0,1,1.461,1.336" transform="translate(-121.693 341.957)" fill="#17282f"/></svg>