<svg xmlns="http://www.w3.org/2000/svg" width="372.734" height="340.747" viewBox="0 0 372.734 340.747"><g transform="translate(0 0)"><g transform="translate(0 0)"><path d="M515.8-265.4s-3.83,2.894-3.83,6.724v19.587h28.561v-20.462s-.4-5.021-3.756-5.848H515.8" transform="translate(-206.187 447.633)" fill="#f3f2f1"/><path d="M515.312-232.461a54.2,54.2,0,0,1-.422-6.021,4.83,4.83,0,0,1,3.346-4.437c1.506-.413,3.082.138,4.623.393a12.26,12.26,0,0,0,7.392-1.1c1.93-.956,3.692-2.454,5.836-2.652,1.4-.13,3.023.527,3.412,1.883a4.683,4.683,0,0,1-.033,1.986c-.456,3.02.131,6.77.131,9.671-8,.373-16.281.108-24.284.281" transform="translate(-207.36 439.938)" fill="#dadbd8"/><path d="M508.94-218.585l4.3-2.767h26.067l4.186,2.767H508.94" transform="translate(-204.966 429.891)" fill="#dadbd8"/><path d="M507.588-327.579v29.157h35.365v34.556H508.4v8.285h59.616v-72a6.209,6.209,0,0,0-6.209-6.208H513.8a6.208,6.208,0,0,0-6.208,6.208" transform="translate(-204.421 475.172)" fill="#f3f2f1"/><path d="M568.012-322.456c0,.141-13.529.256-30.211.256s-30.213-.115-30.213-.256,13.524-.256,30.213-.256,30.211.115,30.211.256" transform="translate(-204.421 470.712)" fill="#dadbd8"/><path d="M580.5-255.445c-.142,0-.256-17.463-.256-39s.114-39,.256-39,.257,17.46.257,39-.115,39-.257,39" transform="translate(-233.682 475.036)" fill="#dadbd8"/><path d="M501.981-250.11l-.357-8.833a11.917,11.917,0,0,1,1.919-7.205,6.333,6.333,0,0,1,5.206-3.156H532.6v2.329H509.193s-4.216.444-4.771,6.213a57.048,57.048,0,0,0,0,10.652h-2.441" transform="translate(-202.015 449.203)" fill="#dadbd8"/><path d="M536.687-13.2h-9.51V-30.347h9.51V-13.2" transform="translate(-212.311 352.967)" fill="#dadbd8"/><path d="M607.046-13.2h-9.51V-30.347h9.51V-13.2" transform="translate(-240.646 352.967)" fill="#dadbd8"/><path d="M570.954-99.652H492.189V-202.434h78.764V-99.652" transform="translate(-198.22 422.272)" fill="#dadbd8"/><path d="M544.753-99.652H468.031V-202.434h76.723V-99.652" transform="translate(-188.491 422.272)" fill="#f3f2f1"/><path d="M488.9-13.2h-9.51V-30.347h9.51V-13.2" transform="translate(-193.063 352.967)" fill="#f3f2f1"/><path d="M580.447-13.2h-9.51V-30.347h9.51V-13.2" transform="translate(-229.934 352.967)" fill="#f3f2f1"/><path d="M541.762-67.219s-.007-.157-.011-.454-.006-.742-.012-1.312c-.006-1.159-.015-2.853-.026-5.039-.013-4.374-.033-10.7-.057-18.566l.107.107-65.841.048h0l.154-.155c0,8.868,0,17.439-.006,25.371l-.148-.148c19.034.028,35.476.052,47.167.07l13.717.041,3.678.019.953.01c.216,0,.331.009.331.009s-.1.007-.311.01l-.937.01-3.646.019-13.683.041-47.269.07h-.15v-.15c0-7.932,0-16.5-.006-25.371v-.155h.159l65.841.048h.107v.108c-.024,7.892-.044,14.243-.058,18.631-.011,2.175-.02,3.861-.026,5.014q-.007.845-.012,1.294c0,.291-.01.432-.01.432" transform="translate(-191.604 378.097)" fill="#dadbd8"/><path d="M531.686-72.676c-.027,0-.031-.178-.121-.471a1.979,1.979,0,0,0-.731-1.023,1.881,1.881,0,0,0-1.765-.24,1.864,1.864,0,0,0-1.2,1.734,1.862,1.862,0,0,0,1.2,1.732,1.885,1.885,0,0,0,1.765-.239,1.986,1.986,0,0,0,.731-1.023c.09-.294.094-.471.121-.47a.927.927,0,0,1,0,.5,1.977,1.977,0,0,1-.716,1.167,2.082,2.082,0,0,1-1.995.334,2.134,2.134,0,0,1-1.418-2,2.133,2.133,0,0,1,1.418-2,2.085,2.085,0,0,1,1.995.334,1.977,1.977,0,0,1,.716,1.168.93.93,0,0,1,0,.5" transform="translate(-212.462 370.869)" fill="#dadbd8"/><path d="M541.762-118.091s-.007-.157-.011-.454-.006-.742-.012-1.313c-.006-1.159-.015-2.853-.026-5.038-.013-4.373-.033-10.7-.057-18.566l.107.106-65.841.049h0l.154-.154c0,8.867,0,17.439-.006,25.371l-.148-.149,47.167.07,13.717.042,3.678.02.953.008c.216,0,.331.01.331.01s-.1.006-.311.01l-.937.009-3.646.02-13.683.041-47.269.069h-.15v-.149c0-7.932,0-16.5-.006-25.371v-.156h.159l65.841.049h.107v.108c-.024,7.892-.044,14.242-.058,18.631-.011,2.175-.02,3.861-.026,5.014q-.007.845-.012,1.294c0,.29-.01.432-.01.432" transform="translate(-191.604 398.585)" fill="#dadbd8"/><path d="M531.686-123.549c-.027,0-.031-.177-.121-.471a1.986,1.986,0,0,0-.731-1.023,1.884,1.884,0,0,0-1.765-.239,1.863,1.863,0,0,0-1.2,1.733,1.865,1.865,0,0,0,1.2,1.734,1.884,1.884,0,0,0,1.765-.24,1.984,1.984,0,0,0,.731-1.022c.09-.294.094-.471.121-.471a.929.929,0,0,1,0,.5,1.979,1.979,0,0,1-.716,1.167,2.083,2.083,0,0,1-1.995.334,2.135,2.135,0,0,1-1.418-2,2.133,2.133,0,0,1,1.418-2,2.085,2.085,0,0,1,1.995.334,1.98,1.98,0,0,1,.716,1.167.928.928,0,0,1,0,.5" transform="translate(-212.462 391.357)" fill="#dadbd8"/><path d="M541.762-168.277s-.007-.157-.011-.454-.006-.742-.012-1.312c-.006-1.159-.015-2.853-.026-5.039-.013-4.374-.033-10.7-.057-18.567l.107.108-65.841.048h0l.154-.155c0,8.868,0,17.439-.006,25.372l-.148-.148,47.167.07,13.717.041,3.678.019.953.01c.216,0,.331.009.331.009s-.1.006-.311.01l-.937.01-3.646.019-13.683.041-47.269.07h-.15v-.15c0-7.933,0-16.5-.006-25.372v-.154h.159l65.841.047h.107v.107c-.024,7.893-.044,14.244-.058,18.632-.011,2.175-.02,3.861-.026,5.014q-.007.845-.012,1.294c0,.291-.01.432-.01.432" transform="translate(-191.604 418.797)" fill="#dadbd8"/><path d="M531.686-173.735c-.027,0-.031-.178-.121-.471a1.981,1.981,0,0,0-.731-1.022,1.881,1.881,0,0,0-1.765-.241,1.863,1.863,0,0,0-1.2,1.733,1.863,1.863,0,0,0,1.2,1.733,1.886,1.886,0,0,0,1.765-.239,1.987,1.987,0,0,0,.731-1.023c.09-.294.094-.471.121-.47a.927.927,0,0,1,0,.5,1.977,1.977,0,0,1-.716,1.167,2.085,2.085,0,0,1-1.995.334,2.134,2.134,0,0,1-1.418-2,2.136,2.136,0,0,1,1.418-2,2.087,2.087,0,0,1,1.995.334,1.98,1.98,0,0,1,.716,1.168.929.929,0,0,1,0,.5" transform="translate(-212.462 411.569)" fill="#dadbd8"/><path d="M555.278-203.035c0,.155-14.353.28-32.055.28s-32.059-.125-32.059-.28,14.351-.279,32.059-.279,32.055.125,32.055.279" transform="translate(-197.807 422.627)" fill="#dadbd8"/><path d="M78.231-73.991H18.362v-4.644H78.231v4.644" transform="translate(-7.395 372.415)" fill="#e7e8e5"/><path d="M91.076-78.636v4.644h16.439v-4.644H91.076" transform="translate(-36.679 372.415)" fill="#dadbd8"/><path d="M3.424-70.86V-49.94H.145v2.271h3.28v14h61.3v-12.74H60.186v-2.775h4.541v-4.162h2.019v-1.892h-2.4V-70.86H3.424" transform="translate(-0.058 369.283)" fill="#f3f2f1"/><path d="M81.018-70.8v36.9H97.3v-12.74H92.756v-2.543H97.3v-4.162h2.019v-2.125h-2.4V-70.86l-15.9.06" transform="translate(-32.628 369.283)" fill="#dadbd8"/><path d="M49.549-32.692c0,.128-11.093.232-24.773.232S0-32.564,0-32.692s11.091-.232,24.776-.232,24.773.1,24.773.232" transform="translate(0 354.005)" fill="#dadbd8"/><path d="M49.549-36.25c0,.127-11.093.232-24.773.232S0-36.123,0-36.25s11.091-.233,24.776-.233,24.773.1,24.773.233" transform="translate(0 355.439)" fill="#dadbd8"/><path d="M54.877-45.825c0,.127-11.093.232-24.774.232s-24.776-.1-24.776-.232,11.091-.232,24.776-.232,24.774.1,24.774.232" transform="translate(-2.146 359.295)" fill="#dadbd8"/><path d="M55.389-19.732c0,.128-11.093.232-24.774.232S5.84-19.6,5.84-19.732s11.091-.232,24.776-.232,24.774.1,24.774.232" transform="translate(-2.352 348.786)" fill="#dadbd8"/><path d="M13.577-140.906v20.92H10.3v2.271h3.279v14h61.3v-12.74H70.339v-2.775H74.88v-4.162H76.9v-1.892H74.5v-15.623H13.577" transform="translate(-4.147 397.493)" fill="#f3f2f1"/><path d="M91.171-140.844v36.9H107.45v-12.74h-4.541v-2.543l4.541.087v-4.163l2.057,0-.04-2.151-2.4-.063v-15.39l-15.9.062" transform="translate(-36.717 397.493)" fill="#dadbd8"/><path d="M59.7-102.737c0,.128-11.093.232-24.773.232s-24.776-.1-24.776-.232,11.09-.232,24.776-.232,24.773.1,24.773.232" transform="translate(-4.089 382.215)" fill="#dadbd8"/><path d="M59.7-106.295c0,.127-11.093.232-24.773.232s-24.776-.1-24.776-.232,11.09-.232,24.776-.232,24.773.1,24.773.232" transform="translate(-4.089 383.647)" fill="#dadbd8"/><path d="M65.031-115.871c0,.128-11.093.232-24.773.232s-24.776-.1-24.776-.232,11.09-.232,24.776-.232,24.773.1,24.773.232" transform="translate(-6.235 387.504)" fill="#dadbd8"/><path d="M65.543-89.779c0,.129-11.093.232-24.774.232s-24.776-.1-24.776-.232,11.091-.232,24.776-.232,24.774.1,24.774.232" transform="translate(-6.441 376.996)" fill="#dadbd8"/><path d="M71.512-4.3H11.643V-8.947H71.512V-4.3" transform="translate(-4.689 344.349)" fill="#e7e8e5"/><path d="M84.357-8.947V-4.3H100.8V-8.947H84.357" transform="translate(-33.973 344.349)" fill="#dadbd8"/><path d="M42.752-300.67v19.138h-3v2.078h3v12.809H98.835V-278.3H94.681v-2.539h4.154v-3.808h1.846v-1.73H98.489V-300.67H42.752" transform="translate(-16.01 461.835)" fill="#f3f2f1"/><path d="M113.738-300.614v33.755h14.893v-11.655h-4.154v-2.325l4.154.078v-3.807l1.883,0-.037-1.968-2.192-.057V-300.67l-14.547.056" transform="translate(-45.806 461.835)" fill="#dadbd8"/><path d="M84.949-265.752c0,.118-10.148.213-22.664.213s-22.666-.095-22.666-.213,10.146-.211,22.666-.211,22.664.095,22.664.211" transform="translate(-15.956 447.858)" fill="#dadbd8"/><path d="M84.949-269.007c0,.116-10.148.212-22.664.212s-22.666-.1-22.666-.212,10.146-.213,22.666-.213,22.664.095,22.664.213" transform="translate(-15.956 449.169)" fill="#dadbd8"/><path d="M89.823-277.767c0,.118-10.148.213-22.663.213s-22.666-.095-22.666-.213,10.146-.212,22.666-.212,22.663.1,22.663.212" transform="translate(-17.919 452.697)" fill="#dadbd8"/><path d="M90.292-253.9c0,.117-10.148.212-22.664.212s-22.666-.095-22.666-.212,10.146-.213,22.666-.213,22.664.095,22.664.213" transform="translate(-18.108 443.083)" fill="#dadbd8"/><path d="M278.938-435.718H197.674v-72.7h81.263v72.7" transform="translate(-79.61 545.503)" fill="#fafaf9"/><path d="M278.791-435.865s-.013-.466-.02-1.349-.012-2.2-.022-3.9c-.011-3.413-.027-8.4-.048-14.758-.022-12.7-.056-30.855-.095-52.7l.184.185-81.256.033h-.007l.217-.217c-.01,26.451-.018,51.34-.026,72.7l-.191-.191,58.776.1,16.577.051,4.389.022,1.132.011c.255,0,.389.01.389.01s-.12.007-.368.011l-1.111.011-4.351.022-16.535.05-58.9.1h-.191v-.191c-.008-21.363-.017-46.252-.026-72.7v-.217h.225l81.256.034h.186v.184c-.039,21.895-.072,40.086-.1,52.817-.02,6.338-.036,11.314-.047,14.717-.01,1.684-.017,2.977-.022,3.861s-.021,1.309-.021,1.309" transform="translate(-79.463 545.65)" fill="#dadbd8"/><path d="M236.962-486.94c0,.12-4.277.217-9.552.217s-9.554-.1-9.554-.217,4.276-.217,9.554-.217,9.552.1,9.552.217" transform="translate(-87.737 536.939)" fill="#dadbd8"/><path d="M272.1-477.8c0,.12-11.75.217-26.243.217s-26.246-.1-26.246-.217,11.749-.217,26.246-.217,26.243.1,26.243.217" transform="translate(-88.445 533.258)" fill="#dadbd8"/><path d="M221.513-458.747h-3.424v-3.424h3.424v3.424" transform="translate(-87.831 526.876)" fill="#dadbd8"/><path d="M235.623-458.747H232.2v-3.424h3.424v3.424" transform="translate(-93.514 526.876)" fill="#dadbd8"/><path d="M249.994-459.007H246.57v-3.424h3.424v3.424" transform="translate(-99.301 526.981)" fill="#dadbd8"/><path d="M263.843-458.747h-3.424v-3.424h3.424v3.424" transform="translate(-104.879 526.876)" fill="#dadbd8"/><path d="M277.953-458.747h-3.424v-3.424h3.424v3.424" transform="translate(-110.561 526.876)" fill="#dadbd8"/><path d="M292.063-458.747h-3.423v-3.424h3.423v3.424" transform="translate(-116.244 526.876)" fill="#dadbd8"/><path d="M306.172-458.747h-3.424v-3.424h3.424v3.424" transform="translate(-121.926 526.876)" fill="#e7e8e5"/><path d="M221.513-446.561h-3.424v-3.424h3.424v3.424" transform="translate(-87.831 521.968)" fill="#e7e8e5"/><path d="M235.623-446.561H232.2v-3.424h3.424v3.424" transform="translate(-93.514 521.968)" fill="#dadbd8"/><path d="M249.733-446.561h-3.424v-3.424h3.424v3.424" transform="translate(-99.196 521.968)" fill="#e7e8e5"/><path d="M263.843-446.561h-3.424v-3.424h3.424v3.424" transform="translate(-104.879 521.968)" fill="#dadbd8"/><path d="M277.953-446.561h-3.424v-3.424h3.424v3.424" transform="translate(-110.561 521.968)" fill="#dadbd8"/><path d="M292.323-446.822H288.9v-3.424h3.424v3.424" transform="translate(-116.349 522.074)" fill="#dadbd8"/><path d="M306.172-446.561h-3.424v-3.424h3.424v3.424" transform="translate(-121.926 521.968)" fill="#dadbd8"/><path d="M221.513-434.375h-3.424V-437.8h3.424v3.424" transform="translate(-87.831 517.061)" fill="#dadbd8"/><path d="M235.883-434.635h-3.424v-3.424h3.424v3.424" transform="translate(-93.619 517.166)" fill="#dadbd8"/><path d="M249.733-434.375h-3.424V-437.8h3.424v3.424" transform="translate(-99.196 517.061)" fill="#dadbd8"/><path d="M263.843-434.375h-3.424V-437.8h3.424v3.424" transform="translate(-104.879 517.061)" fill="#e7e8e5"/><path d="M277.953-434.375h-3.424V-437.8h3.424v3.424" transform="translate(-110.561 517.061)" fill="#dadbd8"/><path d="M292.063-434.375h-3.423V-437.8h3.423v3.424" transform="translate(-116.244 517.061)" fill="#dadbd8"/><path d="M306.172-434.375h-3.424V-437.8h3.424v3.424" transform="translate(-121.926 517.061)" fill="#dadbd8"/><path d="M221.513-422.189h-3.424v-3.424h3.424v3.424" transform="translate(-87.831 512.153)" fill="#dadbd8"/><path d="M235.623-422.189H232.2v-3.424h3.424v3.424" transform="translate(-93.514 512.153)" fill="#dadbd8"/><path d="M249.733-422.189h-3.424v-3.424h3.424v3.424" transform="translate(-99.196 512.153)" fill="#dadbd8"/><path d="M264.1-422.449h-3.424v-3.424H264.1v3.424" transform="translate(-104.984 512.258)" fill="#dadbd8"/><path d="M277.953-422.189h-3.424v-3.424h3.424v3.424" transform="translate(-110.561 512.153)" fill="#dadbd8"/><path d="M292.063-422.189h-3.423v-3.424h3.423v3.424" transform="translate(-116.244 512.153)" fill="#e7e8e5"/><path d="M306.172-422.189h-3.424v-3.424h3.424v3.424" transform="translate(-121.926 512.153)" fill="#dadbd8"/><path d="M221.513-410h-3.424v-3.424h3.424V-410" transform="translate(-87.831 507.246)" fill="#dadbd8"/><path d="M235.623-410H232.2v-3.424h3.424V-410" transform="translate(-93.514 507.246)" fill="#e7e8e5"/><path d="M249.733-410h-3.424v-3.424h3.424V-410" transform="translate(-99.196 507.246)" fill="#dadbd8"/><path d="M263.843-410h-3.424v-3.424h3.424V-410" transform="translate(-104.879 507.246)" fill="#dadbd8"/><path d="M277.953-410h-3.424v-3.424h3.424V-410" transform="translate(-110.561 507.246)" fill="#dadbd8"/><path d="M292.323-410.263H288.9v-3.423h3.424v3.423" transform="translate(-116.349 507.35)" fill="#dadbd8"/><path d="M306.172-410h-3.424v-3.424h3.424V-410" transform="translate(-121.926 507.246)" fill="#dadbd8"/><path d="M515.973-498.2h14.308v-24.658H515.973V-498.2" transform="translate(-207.799 551.317)" fill="#e7e8e5"/><path d="M449.15-501.673h11.3v-30.782h-11.3v30.782" transform="translate(-180.886 555.182)" fill="#e7e8e5"/><path d="M448.931-528.848a48.606,48.606,0,0,1,5.77-.172,48.594,48.594,0,0,1,5.77.172,48.546,48.546,0,0,1-5.77.172,48.557,48.557,0,0,1-5.77-.172" transform="translate(-180.798 553.799)" fill="#fafaf9"/><path d="M449.978-526.4a43.571,43.571,0,0,1,5.457-.171,43.579,43.579,0,0,1,5.457.171,43.5,43.5,0,0,1-5.457.172,43.492,43.492,0,0,1-5.457-.172" transform="translate(-181.22 552.814)" fill="#fafaf9"/><path d="M457.951-503.361c-.095,0-.172-4.077-.172-9.106s.077-9.106.172-9.106.172,4.077.172,9.106-.077,9.106-.172,9.106" transform="translate(-184.362 550.8)" fill="#fafaf9"/><path d="M449.15-486.481a44.651,44.651,0,0,1,5.531-.172,44.631,44.631,0,0,1,5.53.172,44.646,44.646,0,0,1-5.53.172,44.666,44.666,0,0,1-5.531-.172" transform="translate(-180.886 536.736)" fill="#fafaf9"/><path d="M449.15-484.269a46.918,46.918,0,0,1,5.669-.172,46.925,46.925,0,0,1,5.67.172,47.044,47.044,0,0,1-5.67.171,47.037,47.037,0,0,1-5.669-.171" transform="translate(-180.886 535.845)" fill="#fafaf9"/><path d="M468.052-503.918h9.077v-34.11h-9.077v34.11" transform="translate(-188.499 557.427)" fill="#dadbd8"/><path d="M467.957-511.8a8.766,8.766,0,0,1,1.4.972l3.275,2.484,3.27,2.492a8.906,8.906,0,0,1,1.312,1.093,8.067,8.067,0,0,1-1.455-.9c-.871-.592-2.055-1.441-3.335-2.415s-2.414-1.887-3.218-2.567a8.2,8.2,0,0,1-1.253-1.162" transform="translate(-188.46 546.865)" fill="#fafaf9"/><path d="M467.89-520.743a52.169,52.169,0,0,1,4.644,3.754,51.978,51.978,0,0,1,4.421,4.015,52.311,52.311,0,0,1-4.644-3.755,51.867,51.867,0,0,1-4.421-4.015" transform="translate(-188.433 550.466)" fill="#fafaf9"/><path d="M402.012-502.788h4.341v-32.495h-4.341v32.495" transform="translate(-161.903 556.321)" fill="#e7e8e5"/><path d="M402.314-528.009a5.228,5.228,0,0,0,2.033.2,5.233,5.233,0,0,0,2.035-.2,5.248,5.248,0,0,0-2.035-.2,5.243,5.243,0,0,0-2.033.2" transform="translate(-162.024 553.474)" fill="#fafaf9"/><path d="M402.166-529.193a5.243,5.243,0,0,0,2.034.2,5.243,5.243,0,0,0,2.034-.2,5.229,5.229,0,0,0-2.034-.2,5.229,5.229,0,0,0-2.034.2" transform="translate(-161.965 553.951)" fill="#fafaf9"/><path d="M402.314-485.222a5.226,5.226,0,0,0,2.033.2,5.229,5.229,0,0,0,2.035-.2,5.259,5.259,0,0,0-2.035-.2,5.252,5.252,0,0,0-2.033.2" transform="translate(-162.024 536.242)" fill="#fafaf9"/><path d="M402.166-486.406a5.26,5.26,0,0,0,2.034.2,5.26,5.26,0,0,0,2.034-.2,5.239,5.239,0,0,0-2.034-.2,5.239,5.239,0,0,0-2.034.2" transform="translate(-161.965 536.719)" fill="#fafaf9"/><path d="M405.729-504.584c.112,0,.2-3.721.2-8.312s-.092-8.312-.2-8.312-.2,3.721-.2,8.312.092,8.312.2,8.312" transform="translate(-163.317 550.653)" fill="#fafaf9"/><path d="M434.583-503.137h8.682v-32.5h-8.682v32.5" transform="translate(-175.02 556.462)" fill="#dadbd8"/><path d="M441.317-502.665a.738.738,0,0,0,.1-.176c.062-.119.145-.3.247-.541a9.4,9.4,0,0,0,.631-2.2,5.741,5.741,0,0,0-.506-3.575,4.764,4.764,0,0,0-1.539-1.7,3.575,3.575,0,0,0-2.5-.591,2.632,2.632,0,0,0-1.293.6,1.711,1.711,0,0,0-.622,1.37,1.968,1.968,0,0,0,.743,1.377,2.694,2.694,0,0,0,1.48.629,3.943,3.943,0,0,0,3.077-1.121,4.943,4.943,0,0,0,1.526-3.122,8.278,8.278,0,0,0-.449-3.626,6.69,6.69,0,0,0-2.129-3.166,3.487,3.487,0,0,0-1.875-.739,2.434,2.434,0,0,0-1.95.692,1.58,1.58,0,0,0-.446,1.017,1.849,1.849,0,0,0,.3,1.062,2.822,2.822,0,0,0,1.751,1.2,4.092,4.092,0,0,0,3.825-1.281,6.4,6.4,0,0,0,1.489-3.659,9.012,9.012,0,0,0-.373-3.793,5.245,5.245,0,0,0-2.243-2.885,3.844,3.844,0,0,0-3.449-.362,1.813,1.813,0,0,0-1.122,1.326,2.1,2.1,0,0,0,.394,1.637,2.712,2.712,0,0,0,2.926.774,5.056,5.056,0,0,0,2.308-1.638,7.376,7.376,0,0,0,1.73-4.456,7.143,7.143,0,0,0-.8-3.531,7.058,7.058,0,0,0-1.365-1.84,5.168,5.168,0,0,0-.452-.389.793.793,0,0,0-.167-.115,8.277,8.277,0,0,1,1.841,2.416,7.071,7.071,0,0,1,.716,3.449,7.163,7.163,0,0,1-1.722,4.278,4.791,4.791,0,0,1-2.176,1.524,2.4,2.4,0,0,1-2.566-.676,1.758,1.758,0,0,1-.322-1.367,1.454,1.454,0,0,1,.922-1.062,3.485,3.485,0,0,1,3.111.355,4.861,4.861,0,0,1,2.067,2.688,8.651,8.651,0,0,1,.345,3.623,6.01,6.01,0,0,1-1.392,3.428,3.692,3.692,0,0,1-3.431,1.157,2.418,2.418,0,0,1-1.5-1.014,1.245,1.245,0,0,1,.1-1.585,2.037,2.037,0,0,1,1.628-.567,3.093,3.093,0,0,1,1.66.654,6.326,6.326,0,0,1,2,2.974,7.951,7.951,0,0,1,.446,3.455,4.586,4.586,0,0,1-1.4,2.9,3.6,3.6,0,0,1-2.8,1.046,2.075,2.075,0,0,1-1.945-1.685,1.4,1.4,0,0,1,.507-1.128,2.345,2.345,0,0,1,1.141-.538,3.316,3.316,0,0,1,2.311.523,4.548,4.548,0,0,1,1.48,1.59,5.629,5.629,0,0,1,.549,3.443,10.327,10.327,0,0,1-.549,2.195c-.178.489-.288.741-.272.748" transform="translate(-175.514 556.407)" fill="#fafaf9"/><path d="M409.164-501.157h15.063v-29.593H409.164v29.593" transform="translate(-164.783 554.495)" fill="#fafaf9"/><path d="M410.031-522.655a65.069,65.069,0,0,0,7.289.2,65.062,65.062,0,0,0,7.291-.2,65.48,65.48,0,0,0-7.291-.2,65.451,65.451,0,0,0-7.289.2" transform="translate(-165.132 551.317)" fill="#dadbd8"/><path d="M409.716-518.9a63.438,63.438,0,0,0,7.2.2,63.41,63.41,0,0,0,7.2-.2,63.436,63.436,0,0,0-7.2-.2,63.447,63.447,0,0,0-7.2.2" transform="translate(-165.006 549.805)" fill="#dadbd8"/><path d="M408.907-486.942a70.363,70.363,0,0,0,7.579.2,70.338,70.338,0,0,0,7.579-.2,70.435,70.435,0,0,0-7.579-.2,70.459,70.459,0,0,0-7.579.2" transform="translate(-164.68 536.934)" fill="#dadbd8"/><path d="M409.248-491.356a66.752,66.752,0,0,0,7.383.2,66.752,66.752,0,0,0,7.385-.2,66.909,66.909,0,0,0-7.385-.2,66.891,66.891,0,0,0-7.383.2" transform="translate(-164.817 538.712)" fill="#dadbd8"/><path d="M483.237-503.485h8.682V-535.98h-8.682v32.495" transform="translate(-194.615 556.602)" fill="#e7e8e5"/><path d="M489.971-503.014a.686.686,0,0,0,.1-.176c.061-.119.146-.3.247-.542a9.348,9.348,0,0,0,.63-2.2,5.738,5.738,0,0,0-.506-3.576,4.765,4.765,0,0,0-1.539-1.7,3.575,3.575,0,0,0-2.5-.591,2.635,2.635,0,0,0-1.293.6,1.707,1.707,0,0,0-.622,1.371,1.97,1.97,0,0,0,.743,1.378,2.69,2.69,0,0,0,1.48.628,3.937,3.937,0,0,0,3.076-1.121,4.939,4.939,0,0,0,1.527-3.122,8.287,8.287,0,0,0-.45-3.625,6.693,6.693,0,0,0-2.128-3.167,3.485,3.485,0,0,0-1.875-.738,2.435,2.435,0,0,0-1.951.691,1.585,1.585,0,0,0-.445,1.017,1.859,1.859,0,0,0,.3,1.062,2.819,2.819,0,0,0,1.752,1.2,4.087,4.087,0,0,0,3.824-1.281,6.389,6.389,0,0,0,1.489-3.659,9.014,9.014,0,0,0-.373-3.793,5.237,5.237,0,0,0-2.243-2.884,3.841,3.841,0,0,0-3.449-.362,1.811,1.811,0,0,0-1.121,1.325,2.092,2.092,0,0,0,.4,1.637,2.709,2.709,0,0,0,2.924.773,5.055,5.055,0,0,0,2.308-1.637A7.381,7.381,0,0,0,492-529.968a7.139,7.139,0,0,0-.8-3.53,7.063,7.063,0,0,0-1.364-1.841,5.223,5.223,0,0,0-.452-.389c-.107-.082-.163-.121-.168-.115a8.287,8.287,0,0,1,1.842,2.415,7.074,7.074,0,0,1,.716,3.45,7.175,7.175,0,0,1-1.722,4.278,4.784,4.784,0,0,1-2.178,1.523,2.4,2.4,0,0,1-2.565-.676,1.757,1.757,0,0,1-.323-1.366,1.457,1.457,0,0,1,.922-1.063,3.489,3.489,0,0,1,3.112.355,4.858,4.858,0,0,1,2.067,2.689,8.634,8.634,0,0,1,.346,3.623,6.013,6.013,0,0,1-1.392,3.428,3.692,3.692,0,0,1-3.432,1.157,2.417,2.417,0,0,1-1.5-1.014,1.245,1.245,0,0,1,.1-1.585,2.036,2.036,0,0,1,1.627-.567,3.085,3.085,0,0,1,1.66.655,6.312,6.312,0,0,1,2,2.974,7.947,7.947,0,0,1,.446,3.455,4.577,4.577,0,0,1-1.4,2.9,3.6,3.6,0,0,1-2.8,1.046,2.073,2.073,0,0,1-1.945-1.685,1.4,1.4,0,0,1,.507-1.128,2.348,2.348,0,0,1,1.14-.539,3.311,3.311,0,0,1,2.311.524,4.52,4.52,0,0,1,1.48,1.59,5.621,5.621,0,0,1,.55,3.443,10.32,10.32,0,0,1-.549,2.195c-.178.489-.288.741-.272.748" transform="translate(-195.109 556.547)" fill="#fafaf9"/><path d="M381.814-504.591h12.064v-34.134H381.814v34.134" transform="translate(-153.768 557.707)" fill="#dadbd8"/><path d="M497.773-502.066h11.284v-30.389H497.773v30.389" transform="translate(-200.469 555.182)" fill="#dadbd8"/><path d="M517.139-507.174a9.471,9.471,0,0,0,1.794,1.276,6.252,6.252,0,0,0,2.27.63,5.857,5.857,0,0,0,2.817-.491c.952-.406,1.825-.929,2.71-1.234a4.261,4.261,0,0,1,2.459-.225,2.629,2.629,0,0,1,1.426.864,1.04,1.04,0,0,1,.279.542c-.029.016-.113-.187-.379-.454a2.677,2.677,0,0,0-1.379-.716,4.171,4.171,0,0,0-2.3.285c-.841.307-1.7.831-2.684,1.253a5.971,5.971,0,0,1-2.978.489,6.129,6.129,0,0,1-2.354-.729,5.213,5.213,0,0,1-1.316-1.007,1.64,1.64,0,0,1-.366-.483" transform="translate(-208.268 545.056)" fill="#fafaf9"/><path d="M516.714-502.138a9.463,9.463,0,0,0,1.794,1.275,6.241,6.241,0,0,0,2.27.629,5.86,5.86,0,0,0,2.817-.489c.952-.407,1.825-.929,2.708-1.234a4.271,4.271,0,0,1,2.46-.225,2.624,2.624,0,0,1,1.425.864,1.033,1.033,0,0,1,.28.543c-.029.014-.114-.188-.379-.454a2.66,2.66,0,0,0-1.379-.716,4.167,4.167,0,0,0-2.3.285c-.841.307-1.7.831-2.684,1.253a5.987,5.987,0,0,1-2.978.489,6.14,6.14,0,0,1-2.355-.73,5.2,5.2,0,0,1-1.316-1.007,1.625,1.625,0,0,1-.366-.483" transform="translate(-208.096 543.028)" fill="#fafaf9"/><path d="M517.028-518.457c0-.095,3.107-.171,6.938-.171s6.939.076,6.939.171-3.107.172-6.939.172-6.938-.077-6.938-.172" transform="translate(-208.223 549.614)" fill="#fafaf9"/><path d="M507.025-524.487a1.635,1.635,0,0,0-.982-.083,1.191,1.191,0,0,0-.764.633,1.008,1.008,0,0,0,.289,1.1,1,1,0,0,0,1.112.245,1.186,1.186,0,0,0,.6-.787,1.633,1.633,0,0,0-.12-.978c.011-.012.111.041.216.21a1.233,1.233,0,0,1,.143.814,1.388,1.388,0,0,1-.7,1.024,1.306,1.306,0,0,1-1.49-.281,1.3,1.3,0,0,1-.339-1.478,1.388,1.388,0,0,1,1-.741,1.228,1.228,0,0,1,.819.111c.173.1.23.2.219.208" transform="translate(-203.332 552.111)" fill="#fafaf9"/><path d="M507.132-499.5c-.095,0-.172-4.26-.172-9.513s.077-9.514.172-9.514.172,4.259.172,9.514-.077,9.513-.172,9.513" transform="translate(-204.169 549.572)" fill="#fafaf9"/><path d="M480.921-475.2H364.139v-6.666H480.921v6.666" transform="translate(-146.65 534.808)" fill="#e7e8e5"/><path d="M552.79-475.2h-10.2v-6.666h10.2v6.666" transform="translate(-218.52 534.808)" fill="#dadbd8"/><path d="M478.472-329.2c5.6-6.653,8.8-8.484,12.846-12.994,3.414-3.807,6.888-7.706,8.889-12.411s2.3-10.447-.52-14.711a131.55,131.55,0,0,0-15.63-2.192c-6.664-.362-9.76-.311-9.76-.311L470.6-360.645l6.672,2.721-13.671,12.37L452.815-333l5.365,15.544,7.261.671L478.472-329.2" transform="translate(-182.363 490.491)" fill="#f8a58d"/><path d="M503.263-365.81a17.459,17.459,0,0,1-1.771,1.833l-4.382,4.308c-1.717,1.678-3.3,3.174-4.471,4.224a13.9,13.9,0,0,1-1.973,1.62,17.521,17.521,0,0,1,1.772-1.833l4.383-4.307c1.716-1.678,3.3-3.174,4.471-4.224a13.985,13.985,0,0,1,1.972-1.62" transform="translate(-197.606 488.07)" fill="#f68260"/><path d="M523.45-362.056c-.051.046-.368-.308-1.006-.682a4.678,4.678,0,0,0-2.728-.64,4.676,4.676,0,0,0-2.575,1.105c-.563.479-.813.883-.872.847-.041-.019.123-.491.671-1.061a4.414,4.414,0,0,1,2.74-1.3,4.417,4.417,0,0,1,2.924.807c.639.467.883.9.846.928" transform="translate(-207.915 487.262)" fill="#f68260"/><path d="M458.923-382.148a4.549,4.549,0,0,0,2.786-5.939,18.344,18.344,0,0,0-1.983-2.837,10.125,10.125,0,0,1-.943-1.742l-1.1-3.382c-.743-2.832-1.359-5.695-3.562-7.49-2-1.626-4.768-1.867-7.073-3.016-1.68-.838-3.084-2.146-4.732-3.044s-3.763-1.337-5.36-.351c-.936.58-1.564,1.57-2.507,2.141-1.946,1.179-4.734.3-6.517,1.716-1.449,1.149-1.581,3.3-2.626,4.823-1.138,1.658-1.824,3.215-3.627,4.106a5.1,5.1,0,0,0-2.868,4.636c-.019,1.769-.253,2.575-.3,4.343a10.874,10.874,0,0,1-1.22,3.772c-.512,1.184-1.477,5.78-.427,6.529l12.011,5.414c3.8,3.728,7.722,7.545,12.645,9.56l.948,1.278c-1.133.138,12.015-1.175,14.214-9.081a7.866,7.866,0,0,1,1.369-3.061,13.973,13.973,0,0,0,2.078-2.712,4.86,4.86,0,0,0-1.2-5.661" transform="translate(-167.693 506.072)" fill="#17282f"/><path d="M466.372-357.39a66.246,66.246,0,0,0,6.873-9.137,23.137,23.137,0,0,0,3.456-10.79c.021-.578-.186-4.6-.739-4.762-.4-.119-.708,3.422-1.037,3.674a19.617,19.617,0,0,0-6.394,9.745,51.681,51.681,0,0,0-2.159,11.271" transform="translate(-187.823 494.622)" fill="#17282f"/><path d="M421.058-340.861c5.519,2.135,16.644-7.271,16.644-7.271l12.989-30.577c3.925-8.729,2.117-18.289-6.717-21.971l-.836-.293a17.11,17.11,0,0,0-21.3,9.216c-3.36,7.585-6.975,16.008-8.389,20.213-2.925,8.706,5.273,13.087,5.273,13.087.019.007-.762,1.987-1.761,4.491-2.244,5.623,1.822,12.395,4.092,13.1" transform="translate(-166.256 502.618)" fill="#f8a58d"/><path d="M422.114-329.138a22.189,22.189,0,0,0,12.453.612s-4.957,5.341-13.333,1.535l.88-2.146" transform="translate(-169.644 473.3)" fill="#f68260"/><path d="M426.168-372.471c.1.215,1.278-.151,2.609.319,1.335.45,2.074,1.477,2.275,1.364.1-.047.042-.393-.276-.852a3.592,3.592,0,0,0-1.752-1.292,3.455,3.455,0,0,0-2.146-.053c-.52.171-.761.415-.71.514" transform="translate(-171.628 491.017)" fill="#17282f"/><path d="M448.077-365.746c.1.215,1.279-.151,2.609.319,1.336.45,2.074,1.477,2.276,1.365.1-.048.043-.393-.276-.852a3.59,3.59,0,0,0-1.751-1.292,3.457,3.457,0,0,0-2.147-.053c-.518.172-.761.415-.71.514" transform="translate(-180.452 488.309)" fill="#17282f"/><path d="M434.344-362.243a9.378,9.378,0,0,0-2.028-1.147c-.327-.154-.626-.335-.6-.587a1.836,1.836,0,0,1,.58-.929l1.912-2.238c2.687-3.2,4.76-5.878,4.63-5.985s-2.413,2.4-5.1,5.6l-1.875,2.269a2.087,2.087,0,0,0-.643,1.273.9.9,0,0,0,.385.694,2.476,2.476,0,0,0,.549.283,9.155,9.155,0,0,0,2.192.769" transform="translate(-173.664 491.017)" fill="#17282f"/><path d="M438.777-351.063c-.213-.088-.721,1.356-2.317,1.95s-3.081-.1-3.162.094c-.053.084.245.4.89.647a3.81,3.81,0,0,0,2.61,0,3.325,3.325,0,0,0,1.851-1.668c.267-.585.231-1,.129-1.026" transform="translate(-174.5 482.131)" fill="#17282f"/><path d="M453.738-378.522c0,.408,1.394.7,2.892,1.437,1.511.706,2.612,1.6,2.932,1.351.147-.123.047-.541-.34-1.07a5.37,5.37,0,0,0-1.974-1.574,5.359,5.359,0,0,0-2.463-.549c-.655.03-1.043.213-1.046.405" transform="translate(-182.734 493.353)" fill="#17282f"/><path d="M432.429-385.395c.128.385,1.155.392,2.264.763,1.121.332,1.967.916,2.293.675.148-.121.107-.475-.2-.9a3.307,3.307,0,0,0-1.66-1.137,3.306,3.306,0,0,0-2.012-.021c-.5.174-.736.441-.683.625" transform="translate(-174.15 496.267)" fill="#17282f"/><path d="M469.044-352.715c.17-.013,6.572.322,4.31,6.181s-7.678,2.38-7.624,2.208,3.314-8.39,3.314-8.39" transform="translate(-187.564 482.795)" fill="#f8a58d"/><path d="M470.15-344.109c.033-.009.075.111.217.256a1.1,1.1,0,0,0,.757.311c.706.011,1.608-.77,2.043-1.816a3.608,3.608,0,0,0,.279-1.571,1.266,1.266,0,0,0-.465-1.081.559.559,0,0,0-.711.047c-.141.134-.15.265-.185.263s-.087-.147.053-.369a.7.7,0,0,1,.373-.279.829.829,0,0,1,.622.068,1.538,1.538,0,0,1,.716,1.32,3.714,3.714,0,0,1-.277,1.77,2.84,2.84,0,0,1-2.465,1.956,1.17,1.17,0,0,1-.874-.516c-.126-.215-.106-.358-.082-.36" transform="translate(-189.337 481.05)" fill="#f68260"/><path d="M440.607-400.6c-.738-.9,3.311-2.833,6.052-2.966,4.141-.2,9.89.942,12.762,3.142,3.459,2.65,5.929,5.871,6.479,10.193a24.694,24.694,0,0,1-2.07,12.75,7.506,7.506,0,0,1-2.236,3.242c-1.327.968-3.214,1.16-3.851,2.969a2.631,2.631,0,0,1-1.314,1.543c-1.519.713-2.4-.873-2.579-2.182-.377-2.8.562-5.583,1.488-8.249a18.381,18.381,0,0,1,2.571-5.407c.671-.86,1.495-1.6,2.118-2.494a3.774,3.774,0,0,0,.741-3.079,3.881,3.881,0,0,0-.284-.667,6.549,6.549,0,0,0-5.586-3.545c-3.749-.14-10.054-.628-11.078-2.325a9.665,9.665,0,0,1-1.564-3.69l-1.648.766" transform="translate(-177.411 503.283)" fill="#17282f"/><path d="M461.367-402.129a13.8,13.8,0,0,0-10.08-3.369,7.18,7.18,0,0,0-5.058,2.483,4.118,4.118,0,0,0,.119,5.293l.086.117c2.159,1.826,3.911,2.133,6.736,2.258,2.376.1,4.747-.448,7.123-.332a12.769,12.769,0,0,1,7.027,2.551,20.837,20.837,0,0,0-5.953-9" transform="translate(-179.347 504.076)" fill="#17282f"/><path d="M478.917-378.753a5.3,5.3,0,0,1-1.124,1.476,13.007,13.007,0,0,1-3.628,2.631,13.015,13.015,0,0,1-4.306,1.249,5.342,5.342,0,0,1-1.856-.019,19.64,19.64,0,0,0,5.977-1.606,19.648,19.648,0,0,0,4.937-3.73" transform="translate(-188.48 493.283)" fill="#33535f"/><path d="M479.494-375.549a2.154,2.154,0,0,1-.249.671,11.068,11.068,0,0,1-.987,1.68,13.25,13.25,0,0,1-4.855,4.175,13.246,13.246,0,0,1-6.254,1.38,11.129,11.129,0,0,1-1.937-.218,2.131,2.131,0,0,1-.686-.2c.013-.074,1.007.147,2.625.125a14.17,14.17,0,0,0,6.064-1.459,14.16,14.16,0,0,0,4.8-3.976c.987-1.281,1.408-2.209,1.475-2.175" transform="translate(-187.079 491.991)" fill="#33535f"/><path d="M337.049-286.95,308.85-316.4l-6.058,9.549,7.477,14.291s8.151,13.34,12.345,18.045,4.5,3.686,4.5,3.686l9.933-16.118" transform="translate(-121.944 468.171)" fill="#f8a58d"/><path d="M286.157-331.4c-.092-.06-5.035-.788-7-1.076a2.086,2.086,0,0,0-1.454.327l-2.959,1.965-2.432,5.153.727.481-.74,4.653a1.473,1.473,0,0,0,2.355-.172,20.4,20.4,0,0,0,2.152-3.494l3.208-.056-.143.3-3.29.839-1.089,2.8.984,2.888,2.211,2.025.955-.039,1.8,1.081s1.825-1.6.281-3.146c0,0,1.488,1.468,2.306.892l6.692,3.045,5.262-5.078,1.43-4.046s-8.39-8.221-8.9-8.612a8.773,8.773,0,0,0-2.361-.727" transform="translate(-109.664 474.652)" fill="#f8a58d"/><path d="M287.082-310.9c-.066-.016.029-.407-.059-1.015a3.118,3.118,0,0,0-1.118-2l-.118-.089-.125-.095.045-.139a4.348,4.348,0,0,0,.084-2.258c-.131-.576-.306-.909-.251-.941.039-.027.311.263.526.861a3.942,3.942,0,0,1,.036,2.464l-.08-.233.139.1a3.076,3.076,0,0,1,1.156,2.3c.015.678-.191,1.058-.233,1.04" transform="translate(-114.991 468.587)" fill="#f68260"/><path d="M282.973-307.565a3,3,0,0,0,.577-.974,2.969,2.969,0,0,0-.7-2.524c-.179-.246-.369-.48-.549-.706l-.073-.091.039-.106a1.94,1.94,0,0,0-.354-1.945c-.355-.4-.689-.517-.667-.571,0-.037.389-.014.852.388a2.122,2.122,0,0,1,.549,2.266l-.034-.2c.186.221.383.459.573.718a4.1,4.1,0,0,1,.723,1.488,2.321,2.321,0,0,1-.077,1.373c-.308.759-.852.932-.854.88" transform="translate(-113.264 467.403)" fill="#f68260"/><path d="M284.723-311.81c.061.1-.231.39-.652.655s-.812.4-.872.305.23-.39.651-.655.811-.4.873-.3" transform="translate(-114.05 466.334)" fill="#f68260"/><path d="M286.367-307.141c-.118.021-.3-.57-.761-1.131s-1-.859-.956-.97c.023-.108.739.041,1.278.708s.55,1.39.44,1.393" transform="translate(-114.636 465.3)" fill="#f68260"/><path d="M290.965-310.425c-.116-.051.539-1.529.776-3.475.258-1.944-.014-3.537.111-3.558a6.9,6.9,0,0,1,.3,3.611,6.97,6.97,0,0,1-1.187,3.423" transform="translate(-117.175 468.596)" fill="#f68260"/><path d="M277.171-324.8c.051.021-.009.31-.17.757a5.084,5.084,0,0,1-.939,1.633,2.805,2.805,0,0,1-1.669.938c-.506.062-.8-.086-.784-.131.012-.065.3-.031.725-.156a3.145,3.145,0,0,0,1.42-.929,8.046,8.046,0,0,0,.98-1.477c.226-.407.384-.659.437-.635" transform="translate(-110.19 471.555)" fill="#f68260"/><path d="M285.43-319.389c-.07-.094.1-.337.277-.629s.326-.549.441-.527.138.382-.089.745-.565.5-.629.411" transform="translate(-114.945 469.84)" fill="#f68260"/><path d="M250.935-332.538l.084,12.061c.029,4.056,16.322,3.924,16.12-.114-.012-.239-.085-12.06-.085-12.06l-16.119.113" transform="translate(-101.059 474.715)" fill="#33535f"/><path d="M277.2-329.18a9.032,9.032,0,0,1,2.9.03,2.739,2.739,0,0,1,1.84.943,3.174,3.174,0,0,1,.44,1.572,6.144,6.144,0,0,1-.314,3.126,3.992,3.992,0,0,1-2.111,1.946,6.488,6.488,0,0,1-2.856.416q.007-.92.014-1.841a7.924,7.924,0,0,0,1.716-.1,2.7,2.7,0,0,0,1.5-.806,3.669,3.669,0,0,0,.625-2.705,1.977,1.977,0,0,0-.3-1.065,1.708,1.708,0,0,0-1.4-.526,5.108,5.108,0,0,0-1.99.4" transform="translate(-111.597 473.358)" fill="#33535f"/><path d="M265.739-375.289a.58.58,0,0,1-.342.146,1.125,1.125,0,0,1-.956-.456,1.435,1.435,0,0,1-.325-.724,1.084,1.084,0,0,1,.293-.909,1.8,1.8,0,0,1,2.186-.2,2.44,2.44,0,0,1,.975,2.493,5.68,5.68,0,0,1-1.434,2.747,9.636,9.636,0,0,0-1.84,2.707,3.13,3.13,0,0,0,.607,3.17c.788.894,1.867,1.492,2.708,2.366a3.072,3.072,0,0,1,.855,1.589,2.651,2.651,0,0,1-.284,1.714,6.183,6.183,0,0,1-2.188,2.194,9.143,9.143,0,0,0-2.009,1.648,5.723,5.723,0,0,0-1.3,3.452,13.085,13.085,0,0,0,.088,1.393,1.249,1.249,0,0,1-.12-.348,4.967,4.967,0,0,1-.13-1.046,5.718,5.718,0,0,1,1.237-3.638,9.238,9.238,0,0,1,2.039-1.743,5.915,5.915,0,0,0,2.045-2.083,2.278,2.278,0,0,0,.235-1.473,2.689,2.689,0,0,0-.761-1.379c-.779-.812-1.866-1.407-2.726-2.374a3.533,3.533,0,0,1-.677-3.577,9.806,9.806,0,0,1,1.928-2.815,5.4,5.4,0,0,0,1.389-2.552,2.14,2.14,0,0,0-.787-2.192,1.55,1.55,0,0,0-1.866.108,1.037,1.037,0,0,0-.01,1.375,1.063,1.063,0,0,0,.823.472c.228-.009.338-.085.348-.062" transform="translate(-105.725 492.86)" fill="#17282f"/><path d="M278.971-327.532l6.361-.3,7.233,2.055,9.019,7.7s-6.885,5.109-9.119,2.877-4.831-7.177-4.831-7.177l-2.566-1.082s-8.441-.015-6.1-4.072" transform="translate(-112.185 472.775)" fill="#f8a58d"/><path d="M297.281-321.77a1.739,1.739,0,0,1-.365-.255l-.991-.793-3.594-2.98.057.03-7.245-2.011.063.007-6.361.313.17-.1-.049.1a1.741,1.741,0,0,0-.022,2,3.862,3.862,0,0,0,1.839,1.084,15.666,15.666,0,0,0,4.15.606l.041,0,.031.014,2.559,1.1.057.025.028.053a50.54,50.54,0,0,0,3.244,5.383c.431.62.8,1.076,1.052,1.39a2.934,2.934,0,0,1,.385.483,2.794,2.794,0,0,1-.46-.415,16.058,16.058,0,0,1-1.133-1.343,43.078,43.078,0,0,1-3.388-5.34l.084.077-2.572-1.066.072.014A15.749,15.749,0,0,1,280.66-324a4.213,4.213,0,0,1-2.041-1.214,1.836,1.836,0,0,1-.395-1.229,2.794,2.794,0,0,1,.376-1.218l.055-.106.05-.1.119-.006,6.362-.291h.033l.03.008,7.22,2.1.033.01.024.021,3.507,3.082.938.854a1.758,1.758,0,0,1,.309.32" transform="translate(-112.048 472.908)" fill="#f68260"/><path d="M267.091-311.613c.014.025-.179.153-.543.363a5.7,5.7,0,0,1-.682.346,8.627,8.627,0,0,1-.938.386,16.4,16.4,0,0,1-5.778.936,18.133,18.133,0,0,1-5.768-1,12.143,12.143,0,0,1-1.635-.694c-.372-.194-.57-.314-.557-.339.031-.066.867.328,2.283.755a20.816,20.816,0,0,0,5.681.861,18.488,18.488,0,0,0,5.68-.8c1.41-.44,2.223-.883,2.258-.817" transform="translate(-101.162 466.245)" fill="#17282f"/><path d="M277.847-320.189a46.957,46.957,0,0,1-.232-6.229,46.919,46.919,0,0,1,.183-6.232,46.953,46.953,0,0,1,.232,6.23,47.09,47.09,0,0,1-.183,6.231" transform="translate(-111.804 474.714)" fill="#17282f"/><path d="M264.362-346.833c-.014.006-.058-.062-.134-.2a2.458,2.458,0,0,1-.21-.66,3.959,3.959,0,0,1,.479-2.48,9.4,9.4,0,0,1,2.524-2.76,8.473,8.473,0,0,0,2.825-3.338,3.121,3.121,0,0,0,.084-2.157,4.684,4.684,0,0,0-1.187-1.707,10.444,10.444,0,0,1-2.487-2.784,2.586,2.586,0,0,1,.1-2.5,1.552,1.552,0,0,1,.507-.483c.141-.076.223-.1.227-.086a2.673,2.673,0,0,0-.6.654,2.463,2.463,0,0,0,.026,2.288,10.814,10.814,0,0,0,2.49,2.639,4.99,4.99,0,0,1,1.3,1.844,3.5,3.5,0,0,1-.078,2.438,8.608,8.608,0,0,1-2.97,3.488,9.56,9.56,0,0,0-2.51,2.6,4.006,4.006,0,0,0-.575,2.318c.053.574.222.867.183.883" transform="translate(-106.309 488.142)" fill="#17282f"/><path d="M65.4-342.994,49.884-354.725s6.713-19.709,4.057-22.156L30.116-347.617l23.423,19.27L65.4-342.994" transform="translate(-12.128 492.528)" fill="#f2575d"/><path d="M46.852-321.789,30.116-335.558l2.437,1.85,10.093-13.231,9.607,10.123-.554.467,0,.006c.015.028.081.153.209.362l.063.1q1.144,1.936,2.414,3.807a62.814,62.814,0,0,0-7.535,10.284" transform="translate(-12.128 480.469)" fill="#cc4341"/><path d="M51.437-324.644a1.54,1.54,0,0,1-2.036-.283,1.481,1.481,0,0,1,.264-2.021,1.626,1.626,0,0,1,2.155.312,1.537,1.537,0,0,1-.507,2.072" transform="translate(-19.781 472.527)" fill="#dadbd8"/><path d="M32.553-334.957l-2.437-1.85,10.773-13.232,1.757,1.852L32.553-334.957" transform="translate(-12.128 481.717)" fill="#eca7a7"/><path d="M61.535-340.385c-.147-.112-.793.55-1.825.878-1.023.357-1.937.215-1.988.393-.079.154.948.636,2.191.217s1.778-1.412,1.622-1.488" transform="translate(-23.245 477.835)" fill="#17282f"/><path d="M63.649-347.267c-.112-.146-.859.276-1.858.268-1,.023-1.753-.387-1.863-.24-.132.116.625.9,1.867.881s1.987-.8,1.853-.909" transform="translate(-24.129 480.613)" fill="#17282f"/><path d="M62.38-355.188c-.136.105.416.885,1.5,1.155s1.937-.144,1.867-.3c-.052-.176-.825-.084-1.709-.319-.889-.215-1.525-.664-1.655-.534" transform="translate(-25.114 483.801)" fill="#17282f"/><path d="M67.746-335.244c-.179-.047-.515.769-1.228,1.532-.7.778-1.48,1.186-1.418,1.36.036.166,1.065-.017,1.891-.927s.924-1.945.755-1.965" transform="translate(-26.216 475.76)" fill="#17282f"/><path d="M78.723-362.812,64.767-376.359s9.084-18.736,6.748-21.49l-27.24,26.116,20.878,22,13.569-13.079" transform="translate(-17.831 500.972)" fill="#f2575d"/><path d="M64.911-348.177a1.541,1.541,0,0,1-1.986-.532,1.482,1.482,0,0,1,.51-1.973,1.626,1.626,0,0,1,2.1.575,1.537,1.537,0,0,1-.758,1.993" transform="translate(-25.267 482.045)" fill="#dadbd8"/><path d="M44.281-371.728l-.006-.006L71.516-397.85l-27.24,26.116.006.006M71.875-395.76a2.986,2.986,0,0,0-.359-2.09c.7.526.511,1.562.359,2.09" transform="translate(-17.831 500.972)" fill="#fff"/><path d="M46.467-369.6l-2.185-2.129-.006-.006,27.24-26.116h0a2.986,2.986,0,0,1,.359,2.09,3.229,3.229,0,0,1-.11.323L46.467-369.6" transform="translate(-17.831 500.972)" fill="#f9acb4"/><path d="M76.885-362.358c-.132-.129-.855.448-1.919.648-1.059.228-1.949-.025-2.021.145-.1.143.863.749,2.148.484s1.938-1.183,1.793-1.277" transform="translate(-29.374 486.686)" fill="#17282f"/><path d="M79.928-369.214c-.093-.159-.886.167-1.877.038-.995-.1-1.692-.6-1.819-.467-.145.1.51.966,1.745,1.1s2.069-.546,1.951-.675" transform="translate(-30.693 489.621)" fill="#17282f"/><path d="M79.643-377.251c-.148.088.3.929,1.344,1.331s1.94.095,1.89-.07c-.03-.182-.808-.186-1.657-.528-.856-.322-1.432-.846-1.577-.733" transform="translate(-32.064 492.683)" fill="#17282f"/><path d="M82.287-356.589c-.172-.068-.606.7-1.407,1.371-.788.686-1.614.995-1.574,1.175.015.17,1.058.115,1.99-.687s1.156-1.817.99-1.859" transform="translate(-31.938 484.357)" fill="#17282f"/><path d="M81.483-350.692s41.89,33.086,49.748,34.068l8.923,1.446,17.925,7.722,55.333,29.139L230.765-266.2l8.914,16.835.753,10.118s-40.032,4.873-45.925,1.272-56.4-41.321-59.02-44.268-50.255-22.918-69.237-55.615l15.232-12.832" transform="translate(-26.681 481.981)" fill="#17282f"/><path d="M55.625-309.921s30.383,28.214,51.665,36.4A259.717,259.717,0,0,1,145.6-254.859l35.7,19.438,45.86-20.724-9.05-16.238-74.475-17.509L68.018-328.216s-12.066,12.4-12.394,18.3" transform="translate(-22.402 472.929)" fill="#17282f"/><path d="M308.394-199.66a18.983,18.983,0,0,1,17.724-9.584" transform="translate(-124.2 425.036)" fill="#17282f"/><path d="M312.993-220.839a10.462,10.462,0,0,1-3.319,11.214" transform="translate(-124.715 429.685)" fill="#17282f"/><path d="M271.1-252.116a4.057,4.057,0,0,1,.851.366c.536.259,1.3.651,2.239,1.151,1.876,1,4.436,2.439,7.2,4.134s5.211,3.325,6.951,4.545c.87.61,1.567,1.113,2.04,1.474a3.949,3.949,0,0,1,.712.592,4.012,4.012,0,0,1-.8-.46l-2.112-1.363c-1.78-1.157-4.245-2.742-7-4.435s-5.289-3.169-7.127-4.231l-2.173-1.265a3.966,3.966,0,0,1-.774-.508" transform="translate(-109.18 442.282)" fill="#33535f"/><path d="M196.625-230.248s-.127-.07-.36-.227l-1.032-.7-3.945-2.726L176.822-244,155.4-259.008l-12.643-8.876-6.685-4.7q-3.367-2.425-6.976-4.679c-4.818-3-9.656-5.731-14.16-8.644-4.517-2.892-8.779-5.823-12.807-8.656-4.018-2.849-7.845-5.535-11.356-8.164a112.376,112.376,0,0,1-9.361-7.81A86.7,86.7,0,0,1,69.8-323.8c-.612-.843-1.127-1.613-1.57-2.281s-.817-1.235-1.1-1.7l-.658-1.06c-.146-.24-.212-.369-.212-.369s.09.114.248.346l.692,1.038c.3.459.675,1.023,1.137,1.678s.978,1.421,1.6,2.255a89.3,89.3,0,0,0,11.684,13.141A113.572,113.572,0,0,0,90.98-303c3.509,2.609,7.349,5.289,11.369,8.127s8.293,5.745,12.806,8.627c4.5,2.9,9.331,5.628,14.162,8.636,2.413,1.5,4.751,3.076,7,4.694l6.681,4.7,12.628,8.9,21.371,15.085,14.389,10.2,3.9,2.79,1.008.734c.226.167.336.261.336.261" transform="translate(-26.682 473.328)" fill="#33535f"/><path d="M375.206-321.578s-14.584,7.877-17.3,11.16c-2.535,3.059-30.754,31.3-30.754,31.3s-18.257,5.431-17.55,6.947c1.3,2.782,6.415,7.772,9.156,10.329a25.556,25.556,0,0,1,3.279,3.7c2.308,3.185,6.824,9.425,10.551,14.621a34.7,34.7,0,0,1,5.844,15.993l12.878-7.077c6.569-2.653,10.158-9.837,17.379-13.568l21.676-23.359,6.61-13.492,2.2-33.222-3.132.225-12.131,1.606s-10.5-1.124-8.7-5.167" transform="translate(-124.677 470.255)" fill="#f2575d"/><path d="M437.242-314.516l9.98-4.414a87.389,87.389,0,0,1,7.985-6.817s-12.443,15.505-1.516,20.669,19.741-8.465,19.741-8.465a67.069,67.069,0,0,0-3.471,6.022c-1.277,2.649-7.763,11.077-7.763,11.077A15.09,15.09,0,0,1,458.285-288c-3.731,4.266-7.919,11.316-11.245,13.125s-10.771,5.125-10.771,5.125a94.713,94.713,0,0,1-1.36-24.452c1.093-12.777,2.333-20.312,2.333-20.312" transform="translate(-175.038 471.934)" fill="#f2575d"/><path d="M461.635-301.719a4.817,4.817,0,0,1-.843-.619,16.3,16.3,0,0,1-2.051-1.989,8.11,8.11,0,0,1-1.867-3.817,13.2,13.2,0,0,1,.31-5.194,26.722,26.722,0,0,1,3.86-8.557c.665-1,1.249-1.783,1.661-2.312a4.91,4.91,0,0,1,.685-.79,5.25,5.25,0,0,1-.554.885c-.372.557-.916,1.359-1.544,2.375a28.793,28.793,0,0,0-3.7,8.492,13.276,13.276,0,0,0-.337,5.035,8.039,8.039,0,0,0,1.718,3.7c1.519,1.825,2.734,2.724,2.668,2.792" transform="translate(-183.941 471.632)" fill="#17282f"/><path d="M453.951-285.177a1.652,1.652,0,0,1-.385.186c-.259.1-.639.268-1.139.448A14.391,14.391,0,0,1,448-283.7a6.722,6.722,0,0,1-3.063-.7,5.779,5.779,0,0,1-2.477-2.618,15.891,15.891,0,0,1-1.019-8.1,32.286,32.286,0,0,1,1.684-8.007,28.319,28.319,0,0,1,3.154-5.888c1.073-1.569,2.025-2.775,2.687-3.6l.776-.943a1.652,1.652,0,0,1,.294-.311,1.684,1.684,0,0,1-.228.362c-.19.264-.426.592-.714.99-.621.857-1.536,2.086-2.571,3.666a29.3,29.3,0,0,0-3.039,5.859,32.976,32.976,0,0,0-1.63,7.909,15.779,15.779,0,0,0,.949,7.893,5.445,5.445,0,0,0,2.3,2.485,6.481,6.481,0,0,0,2.9.708,15.45,15.45,0,0,0,4.374-.7l1.159-.374a1.713,1.713,0,0,1,.414-.107" transform="translate(-177.742 467.15)" fill="#17282f"/><path d="M448.83-314.988a19.72,19.72,0,0,1-1.756,1.435,34.2,34.2,0,0,0-3.931,3.754,34.23,34.23,0,0,0-3.26,4.351,19.615,19.615,0,0,1-1.216,1.914,9.107,9.107,0,0,1,.964-2.064,26.322,26.322,0,0,1,3.2-4.475,26.258,26.258,0,0,1,4.061-3.711,9.022,9.022,0,0,1,1.935-1.2" transform="translate(-176.663 467.602)" fill="#17282f"/><path d="M439.663-288.9h-.018c-.794-.019-1.033-1.083-1.008-1.877a36.264,36.264,0,0,1,10.823-24.208q-.262.354-.532.713c.014-.026.02-.041.017-.044h0a1.944,1.944,0,0,0-.292.311l-.776.943c-.662.827-1.613,2.033-2.687,3.6a28.317,28.317,0,0,0-3.154,5.888,32.287,32.287,0,0,0-1.684,8.007,20.01,20.01,0,0,0,.248,5.819,1.066,1.066,0,0,1-.935.846" transform="translate(-176.652 467.6)" fill="#cc4341"/><path d="M441.689-289.3a20.013,20.013,0,0,1-.248-5.819,32.286,32.286,0,0,1,1.684-8.007,28.314,28.314,0,0,1,3.154-5.888c1.073-1.569,2.025-2.774,2.687-3.6l.776-.943a1.948,1.948,0,0,1,.292-.311h0s0,.018-.017.044c-2.434,3.24-5.34,6.846-6.569,10.609a33.586,33.586,0,0,0-1.862,12.406,5.215,5.215,0,0,1,.118,1.437c0,.025-.011.049-.018.074" transform="translate(-177.743 467.149)" fill="#0f191d"/><path d="M457.184-299.99a2.868,2.868,0,0,1-2.089-1.541c-2.08-3.49-2.016-7.953-.644-11.777a31.756,31.756,0,0,1,6.622-10.14l-.049.342c-.365.485-.808,1.1-1.3,1.836a26.727,26.727,0,0,0-3.86,8.557,13.2,13.2,0,0,0-.31,5.194,8.111,8.111,0,0,0,1.867,3.817q.141.165.28.317a4.59,4.59,0,0,1,.647,1.164,1.741,1.741,0,0,1-.554,2.064,1.2,1.2,0,0,1-.614.167m2.64-20.873.152-.25c.362-.585.7-1.1.985-1.536l-.02.142c-.374.545-.749,1.093-1.117,1.644" transform="translate(-182.626 471.009)" fill="#cc4341"/><path d="M459.02-303.156q-.139-.152-.279-.317a8.11,8.11,0,0,1-1.867-3.817,13.2,13.2,0,0,1,.31-5.194,26.722,26.722,0,0,1,3.86-8.557c.488-.736.932-1.351,1.3-1.836l-.064.458c-.29.437-.624.952-.985,1.536l-.152.25a27.735,27.735,0,0,0-3.66,7.08c-.986,3.181-.922,6.858.965,9.6.184.268.386.528.577.794" transform="translate(-183.941 470.778)" fill="#0f191d"/><path d="M431.838-223.777h0" transform="translate(-173.914 430.868)" fill="#a7a9a8"/><path d="M341.648-217.539a24.475,24.475,0,0,1-3.8-.28,42.415,42.415,0,0,1-15.241-5.958l13.062,0h52.18c-12.023,1.462-24.191,3.2-36.148,5.13a63.715,63.715,0,0,1-10.049,1.109" transform="translate(-129.922 430.869)" fill="#cc4341"/><path d="M395.279-164.312a2.049,2.049,0,0,1,.7-.2,7.252,7.252,0,0,1,1.973-.074,9.781,9.781,0,0,1,5.816,2.759,10.337,10.337,0,0,1,2.154,2.876,7.02,7.02,0,0,1,.726,2.85,7.232,7.232,0,0,1-.206,1.964,2.236,2.236,0,0,1-.245.68,15.5,15.5,0,0,0,.159-2.627,7.124,7.124,0,0,0-.776-2.7,10.5,10.5,0,0,0-2.1-2.748,10.052,10.052,0,0,0-5.56-2.765,15.312,15.312,0,0,0-2.635-.018" transform="translate(-159.191 407.043)" fill="#17282f"/><path d="M343.489-146.263H267.716a8.229,8.229,0,0,1-8.229-8.229v-1.385a8.229,8.229,0,0,1,8.229-8.229h75.772a8.229,8.229,0,0,1,8.229,8.229v1.385a8.229,8.229,0,0,1-8.229,8.229" transform="translate(-104.504 406.836)" fill="#33535f"/><path d="M389.178-200.411l.917.608a6.534,6.534,0,0,0,9.056-1.836l54.054-81.56a6.534,6.534,0,0,0-1.837-9.056l-.917-.608a6.534,6.534,0,0,0-9.056,1.836l-54.054,81.56a6.534,6.534,0,0,0,1.837,9.056" transform="translate(-155.556 459.129)" fill="#33535f"/><path d="M323.011-195.006c.155,0,5.578,5.3,6.846,8.879s2.936,12.34,3.706,15.668c1.054,4.562,2.746,8.956,8.984,9.25l23.608.092a4.266,4.266,0,0,0,3.6-1.949l20.669-31.94H383.96l-18.04,26.875H345.47a4.615,4.615,0,0,1-3.68-1.752,3.459,3.459,0,0,1-.628-1.247c-.461-1.847-2.076-11.421-4.038-15.574a75.389,75.389,0,0,0-4.729-8.3h-9.384" transform="translate(-130.087 419.281)" fill="#17282f"/><path d="M357.092-145.164a1.453,1.453,0,0,1-1.453,1.453,1.453,1.453,0,0,1-1.453-1.453,1.453,1.453,0,0,1,1.453-1.453,1.453,1.453,0,0,1,1.453,1.453" transform="translate(-142.642 399.793)" fill="#33535f"/><path d="M395.327-145.164a1.453,1.453,0,0,1-1.453,1.453,1.452,1.452,0,0,1-1.452-1.453,1.453,1.453,0,0,1,1.452-1.453,1.453,1.453,0,0,1,1.453,1.453" transform="translate(-158.041 399.793)" fill="#33535f"/><path d="M389.675-197.965H312.7a2.023,2.023,0,0,1-2.024-2.024v-.341a2.023,2.023,0,0,1,2.024-2.024h76.976a2.023,2.023,0,0,1,2.023,2.024v.341a2.023,2.023,0,0,1-2.023,2.024" transform="translate(-125.119 422.24)" fill="#17282f"/><path d="M344.277-202.482a.942.942,0,0,1-.2.019l-.6.021-2.309.05-8.632.107c-3.684.031-8.119.068-13.132.057l-3.867-.033c-1.309.011-2.742-.269-3.879.415a1.454,1.454,0,0,0-.714,1.6,1.964,1.964,0,0,0,1.265,1.394,9.785,9.785,0,0,0,4.244.562h.016l15.637-.007,40.386.061,12.238.066,3.327.039.866.021a1.612,1.612,0,0,1,.295.021,1.554,1.554,0,0,1-.295.021l-.866.021-3.327.039-12.238.065-40.386.061-15.637-.008h.014a10.119,10.119,0,0,1-4.437-.607,2.349,2.349,0,0,1-1.477-1.673,5.053,5.053,0,0,1-.039-.581,1.7,1.7,0,0,1,.16-.569,2,2,0,0,1,.769-.838,4.144,4.144,0,0,1,2.069-.51c.7,0,1.352.045,2.017.053l3.861.051,13.13.033,8.633.01,2.309.016.6.013a.927.927,0,0,1,.2.016" transform="translate(-125.06 422.369)" fill="#33535f"/><path d="M332.805-175.1a3.63,3.63,0,0,1-.273-.836l-.6-2.316a69.611,69.611,0,0,0-2.195-7.542,26.122,26.122,0,0,0-1.836-3.889,21.5,21.5,0,0,0-2.046-2.852c-1.31-1.519-2.286-2.308-2.231-2.372a3.6,3.6,0,0,1,.71.522,15.9,15.9,0,0,1,1.74,1.656,19.267,19.267,0,0,1,2.154,2.849,24.242,24.242,0,0,1,1.9,3.939,53.46,53.46,0,0,1,2.093,7.624c.208.988.366,1.79.468,2.345a3.531,3.531,0,0,1,.115.873" transform="translate(-130.334 419.241)" fill="#33535f"/><path d="M340.163-69.5h-5.14v-64.735h5.14V-69.5" transform="translate(-134.924 394.805)" fill="#17282f"/><path d="M341.88-43.217l53.374,10.508v5.573l-53.374-8.04v-8.042" transform="translate(-137.686 358.151)" fill="#17282f"/><path d="M424.865-12.75a4.732,4.732,0,0,1-4.731,4.731,4.731,4.731,0,0,1-4.73-4.731,4.73,4.73,0,0,1,4.73-4.731,4.731,4.731,0,0,1,4.731,4.731" transform="translate(-167.296 347.786)" fill="#17282f"/><path d="M310.445-43.217,267.257-32.673V-27.1l43.189-8.584v-7.533" transform="translate(-107.633 358.151)" fill="#17282f"/><path d="M267.257-12.75a4.732,4.732,0,0,0,4.731,4.731,4.732,4.732,0,0,0,4.73-4.731,4.73,4.73,0,0,0-4.73-4.731,4.731,4.731,0,0,0-4.731,4.731" transform="translate(-107.633 347.786)" fill="#17282f"/><path d="M331.419-12.75a4.731,4.731,0,0,0,4.73,4.731,4.732,4.732,0,0,0,4.731-4.731,4.731,4.731,0,0,0-4.731-4.731,4.73,4.73,0,0,0-4.73,4.731" transform="translate(-133.473 347.786)" fill="#17282f"/><path d="M341.133-44.785H330.417l.107-40.494h10.717l-.108,40.494" transform="translate(-133.069 375.09)" fill="#17282f"/><path d="M341.039-85.273a31.173,31.173,0,0,1-5.072.207,31.187,31.187,0,0,1-5.073-.207,31.184,31.184,0,0,1,5.073-.207,31.17,31.17,0,0,1,5.072.207" transform="translate(-133.261 375.171)" fill="#33535f"/><path d="M340.477-29.1a31.062,31.062,0,0,1-5.073.208,31.054,31.054,0,0,1-5.073-.208,62.484,62.484,0,0,1,10.146,0" transform="translate(-133.035 352.549)" fill="#33535f"/><path d="M37.925-242.351v11.093H291.609v-11.093H37.925" transform="translate(-15.274 438.348)" fill="#33535f"/><path d="M91.936-242.077a.519.519,0,0,1-.081.12c-.058.076-.142.191-.265.332a5.329,5.329,0,0,1-1.275,1.022,7.158,7.158,0,0,1-2.451.822,17.336,17.336,0,0,1-3.418.151,33.185,33.185,0,0,1-4.115-.474,36.741,36.741,0,0,0-4.686-.558A29.058,29.058,0,0,0,65.1-238.618c-3.62,1.294-7,2.766-10.237,3.662a28.175,28.175,0,0,1-4.668.925,19.732,19.732,0,0,1-4.149-.008,14.076,14.076,0,0,1-5.688-1.82,8.941,8.941,0,0,1-1.759-1.315.511.511,0,0,1,.123.077l.338.253a11.809,11.809,0,0,0,1.359.879,14.385,14.385,0,0,0,5.652,1.706,19.818,19.818,0,0,0,4.1-.029,28.346,28.346,0,0,0,4.617-.945c3.207-.9,6.574-2.379,10.211-3.678a28.98,28.98,0,0,1,10.661-2.038,36.157,36.157,0,0,1,4.718.591,34.205,34.205,0,0,0,4.082.507,17.659,17.659,0,0,0,3.382-.1,7.2,7.2,0,0,0,2.419-.757,6.425,6.425,0,0,0,1.68-1.367" transform="translate(-15.545 438.238)" fill="#17282f"/><path d="M65.793-241.817a6.188,6.188,0,0,1-.768.655,17.574,17.574,0,0,1-2.314,1.491,20.232,20.232,0,0,1-3.786,1.539,20.519,20.519,0,0,1-4.945.774,18.938,18.938,0,0,1-8.843-1.825A5.594,5.594,0,0,1,43-240.927a3.027,3.027,0,0,1-.349-.669.827.827,0,0,1-.065-.256A6.767,6.767,0,0,0,43.1-241a5.8,5.8,0,0,0,2.134,1.617,19.592,19.592,0,0,0,8.734,1.711,21.124,21.124,0,0,0,4.877-.738,21.6,21.6,0,0,0,3.762-1.459,21.769,21.769,0,0,0,2.345-1.393,6.264,6.264,0,0,1,.839-.557" transform="translate(-17.151 438.147)" fill="#17282f"/><path d="M167.443-233.268a3.051,3.051,0,0,1,.393.142,7.512,7.512,0,0,0,1.171.311,6.905,6.905,0,0,0,4.44-.694l-.014.141a10.569,10.569,0,0,0-5.505-2.145,10.711,10.711,0,0,0-7.16,1.86,1.146,1.146,0,0,0-.554.72.775.775,0,0,0,.475.716,3.25,3.25,0,0,0,.984.344l1.08.245c1.452.323,2.951.644,4.5.872a26.756,26.756,0,0,0,4.79.326,17.511,17.511,0,0,0,2.458-.236c.409-.07.819-.149,1.224-.256a6.148,6.148,0,0,0,1.185-.384,3.9,3.9,0,0,0,1.536-1.11,1.751,1.751,0,0,0,.295-1.705,2.91,2.91,0,0,0-1.206-1.347,9.5,9.5,0,0,0-1.684-.822,22.986,22.986,0,0,0-7.046-1.462,29.171,29.171,0,0,0-12.027,1.864,29.764,29.764,0,0,0-7.241,3.954c-.774.6-1.369,1.071-1.75,1.42l-.447.381a.893.893,0,0,1-.16.121,1.034,1.034,0,0,1,.138-.144l.427-.4c.368-.364.952-.853,1.719-1.469a28.833,28.833,0,0,1,7.236-4.064,29.13,29.13,0,0,1,12.122-1.946,23.186,23.186,0,0,1,7.143,1.465,9.778,9.778,0,0,1,1.74.849,3.2,3.2,0,0,1,1.329,1.5,2.066,2.066,0,0,1-.339,2,4.209,4.209,0,0,1-1.659,1.207,6.529,6.529,0,0,1-1.234.4c-.413.109-.831.19-1.248.261a17.93,17.93,0,0,1-2.5.238,26.961,26.961,0,0,1-4.843-.337c-1.564-.233-3.069-.559-4.522-.887l-1.081-.249a3.575,3.575,0,0,1-1.062-.38,1.422,1.422,0,0,1-.446-.39.866.866,0,0,1-.162-.6,1.4,1.4,0,0,1,.671-.912,10.915,10.915,0,0,1,7.342-1.867,10.692,10.692,0,0,1,5.59,2.24l.1.081-.115.059a6.891,6.891,0,0,1-4.537.633,5.11,5.11,0,0,1-1.547-.541" transform="translate(-59.276 436.629)" fill="#17282f"/><path d="M229.819-241.594a1.644,1.644,0,0,1,.25.558,4.249,4.249,0,0,1,.168,1.665,8.206,8.206,0,0,1-2.471,4.842,12.464,12.464,0,0,1-2.308,1.961,10.3,10.3,0,0,1-2.227,1.08,10.514,10.514,0,0,1-1.613.4,2.207,2.207,0,0,1-.608.052c-.012-.057.851-.177,2.145-.664a11.067,11.067,0,0,0,2.145-1.113,13.02,13.02,0,0,0,2.238-1.935,8.389,8.389,0,0,0,2.479-4.65,6.011,6.011,0,0,0-.2-2.2" transform="translate(-89.008 438.043)" fill="#17282f"/><path d="M287.089-229.687a14.206,14.206,0,0,0-1.164-1.134,8.268,8.268,0,0,0-3.968-1.789,8.859,8.859,0,0,0-3.021.087,12.973,12.973,0,0,1-3.541.326,7.072,7.072,0,0,1-3.524-1.728,12.005,12.005,0,0,0-3.542-2.1,12.987,12.987,0,0,0-7.866-.123,18.664,18.664,0,0,0-5.82,2.949,31.753,31.753,0,0,0-3.374,2.88l-.861.849a2.224,2.224,0,0,1-.311.287,2.147,2.147,0,0,1,.265-.33c.181-.209.456-.511.821-.892a28.216,28.216,0,0,1,3.328-2.972,18.494,18.494,0,0,1,5.872-3.047,13.155,13.155,0,0,1,8.051.1,12.218,12.218,0,0,1,3.623,2.152,6.831,6.831,0,0,0,3.372,1.685,12.975,12.975,0,0,0,3.466-.3,8.942,8.942,0,0,1,3.1-.049,8.145,8.145,0,0,1,4.01,1.915,5.375,5.375,0,0,1,1.086,1.226" transform="translate(-100.722 436.195)" fill="#17282f"/><path d="M353.117-242.174a2.54,2.54,0,0,1-.277.379,13.182,13.182,0,0,1-.867,1.031,23.672,23.672,0,0,1-3.7,3.291,29.746,29.746,0,0,1-6.425,3.562,26.409,26.409,0,0,1-4.143,1.321,21.345,21.345,0,0,1-4.636.6,22.911,22.911,0,0,1-8.795-1.829,29.268,29.268,0,0,1-6.391-3.625,24.98,24.98,0,0,1-3.678-3.318c-.408-.42-.671-.794-.868-1.03a2.684,2.684,0,0,1-.28-.378,2.6,2.6,0,0,1,.327.338c.213.221.491.581.909.987a27.059,27.059,0,0,0,3.719,3.224,29.938,29.938,0,0,0,6.368,3.537,22.971,22.971,0,0,0,8.683,1.783,21.327,21.327,0,0,0,4.571-.582,26.547,26.547,0,0,0,4.1-1.291,30.451,30.451,0,0,0,6.4-3.474,25.608,25.608,0,0,0,3.744-3.194c.42-.4.694-.767.907-.988a2.777,2.777,0,0,1,.326-.339" transform="translate(-126.077 438.277)" fill="#17282f"/><path d="M353.319-242.352c.006.009-.069.068-.215.175s-.365.263-.658.445a26.619,26.619,0,0,1-2.541,1.438,27,27,0,0,1-4.014,1.634,17.654,17.654,0,0,1-5.238.9,21.5,21.5,0,0,1-9.3-2.35,20.428,20.428,0,0,1-2.519-1.479c-.288-.19-.5-.361-.641-.469s-.214-.175-.208-.184a9.048,9.048,0,0,1,.915.551,25.612,25.612,0,0,0,2.549,1.382,22.326,22.326,0,0,0,9.2,2.237,17.958,17.958,0,0,0,5.153-.859,28.931,28.931,0,0,0,4-1.558c1.107-.525,1.981-1,2.575-1.343a8.26,8.26,0,0,1,.936-.516" transform="translate(-132.089 438.349)" fill="#17282f"/><path d="M414.834-240.658a3.16,3.16,0,0,1-.5,0l-1.432-.053-1.031-.045-1.23-.006c-.882-.006-1.887-.023-3,.029l-1.739.055-1.875.127c-1.3.065-2.665.244-4.112.383-2.867.362-5.976.874-9.136,1.582a88.731,88.731,0,0,0-8.558,2.443c-1.231.463-2.44.87-3.479,1.329l-1.535.64-1.354.637c-.882.393-1.61.795-2.262,1.14l-.913.481-.721.43-1.011.59a1.878,1.878,0,0,1-.381.192c-.014-.007.089-.087.3-.234l.941-.632.69-.452.886-.5c.637-.36,1.352-.776,2.226-1.183l1.343-.658,1.528-.66c1.038-.471,2.247-.892,3.484-1.365a83.825,83.825,0,0,1,8.618-2.489c3.19-.714,6.335-1.223,9.235-1.573,1.462-.134,2.841-.3,4.158-.358l1.9-.111,1.757-.034c1.118-.039,2.131-.006,3.019.018l1.237.031,1.034.072,1.426.111a2.943,2.943,0,0,1,.491.061" transform="translate(-149.237 437.792)" fill="#17282f"/><path d="M285.25-231.277a11.854,11.854,0,0,0-1.4-1.66,12.915,12.915,0,0,0-5.112-2.856,27.92,27.92,0,0,0-3.989-.882c-1.455-.231-3.023-.412-4.664-.7a39.114,39.114,0,0,1-5.066-1.271,33.243,33.243,0,0,0-5.4-1.3,22.508,22.508,0,0,0-10.527,1.453,38.343,38.343,0,0,0-4.282,1.923c-1.312.673-2.516,1.336-3.607,1.953-2.184,1.236-3.921,2.287-5.119,3.018l-1.378.845-.361.216a.462.462,0,0,1-.13.064.509.509,0,0,1,.112-.091l.344-.243c.3-.209.757-.513,1.347-.894,1.179-.764,2.9-1.845,5.074-3.107,1.087-.63,2.287-1.306,3.6-1.991a37.607,37.607,0,0,1,4.3-1.963,22.6,22.6,0,0,1,10.666-1.494,33.087,33.087,0,0,1,5.453,1.322,39.716,39.716,0,0,0,5.027,1.28c1.629.289,3.2.479,4.655.723a27.661,27.661,0,0,1,4.016.926,12.7,12.7,0,0,1,5.129,2.981,6.52,6.52,0,0,1,1.31,1.746" transform="translate(-94.326 437.561)" fill="#17282f"/><path d="M215.4-242.075a2.437,2.437,0,0,1-.037.709,8.3,8.3,0,0,1-.5,1.872,10.744,10.744,0,0,1-3.9,4.988,26.031,26.031,0,0,1-5.778,2.661c-.773.256-1.4.44-1.845.554a2.889,2.889,0,0,1-.693.144,3.226,3.226,0,0,1,.657-.26l1.807-.647a29.8,29.8,0,0,0,5.681-2.713,11.092,11.092,0,0,0,3.866-4.81,14.944,14.944,0,0,0,.738-2.5" transform="translate(-81.613 438.237)" fill="#17282f"/><path d="M125.394-231.149a4.523,4.523,0,0,1,.617-.593c.408-.371,1.025-.878,1.806-1.477a52.266,52.266,0,0,1,6.47-4.17c2.637-1.449,5.1-2.607,6.887-3.428.894-.41,1.621-.733,2.127-.952a4.461,4.461,0,0,1,.8-.308,4.644,4.644,0,0,1-.747.419l-2.084,1.04c-1.762.872-4.2,2.059-6.83,3.5a63.76,63.76,0,0,0-6.489,4.073c-.795.576-1.43,1.053-1.86,1.394a4.493,4.493,0,0,1-.695.5" transform="translate(-50.5 438.239)" fill="#17282f"/><path d="M118.8-241.4c0,.037-.586-.075-1.637,0a11.557,11.557,0,0,0-4.232,1.287,38.678,38.678,0,0,0-5.5,3.69,28.114,28.114,0,0,1-3.311,2.145,18.5,18.5,0,0,1-3.96,1.524,36.811,36.811,0,0,1-8.1.974c-2.508.074-4.761.023-6.649.1a32.7,32.7,0,0,0-4.447.435c-.519.1-.922.174-1.192.239a2.031,2.031,0,0,1-.42.076,2.255,2.255,0,0,1,.4-.137c.266-.084.666-.182,1.185-.3A29.183,29.183,0,0,1,85.4-231.9c1.9-.106,4.153-.079,6.649-.168a37.554,37.554,0,0,0,8.035-.988,18.422,18.422,0,0,0,3.895-1.492,28.381,28.381,0,0,0,3.285-2.107,37.049,37.049,0,0,1,5.569-3.654,11.187,11.187,0,0,1,4.322-1.21,7.623,7.623,0,0,1,1.225.041,2.123,2.123,0,0,1,.42.076" transform="translate(-31.959 438.015)" fill="#17282f"/><path d="M73.187-91.4h-3.6L67.53-225.21h7.71L73.187-91.4" transform="translate(-27.196 431.445)" fill="#33535f"/><path d="M463.7-91.419h-3.6l1.8-133.149h7.71L463.7-91.419" transform="translate(-185.296 431.187)" fill="#17282f"/><path d="M474.588-231.259H442.423v-11.094h32.165v11.094" transform="translate(-178.177 438.349)" fill="#17282f"/><path d="M108.153-274.2l2.915,19.152H128l3.93-18.875-23.775-.277" transform="translate(-43.557 451.174)" fill="#f2575d"/><path d="M130.929-253.715c0,.055-4.338.1-9.689.1s-9.69-.045-9.69-.1,4.338-.1,9.69-.1,9.689.044,9.689.1" transform="translate(-44.925 442.965)" fill="#fafaf9"/><path d="M130.951-255.293c0,.056-4.368.1-9.755.1s-9.756-.044-9.756-.1,4.367-.1,9.756-.1,9.755.045,9.755.1" transform="translate(-44.881 443.6)" fill="#fafaf9"/><path d="M130.895-257.074c0,.056-4.368.1-9.754.1s-9.756-.044-9.756-.1,4.367-.1,9.756-.1,9.754.045,9.754.1" transform="translate(-44.858 444.317)" fill="#fafaf9"/><path d="M115.713-247.238a15.355,15.355,0,0,1-.519-2.411,15.322,15.322,0,0,1-.323-2.445,15.377,15.377,0,0,1,.519,2.411,15.363,15.363,0,0,1,.323,2.446" transform="translate(-46.257 442.272)" fill="#fafaf9"/><path d="M117.989-247.481a18.687,18.687,0,0,1-.21-2.352,18.673,18.673,0,0,1-.11-2.36,11.406,11.406,0,0,1,.309,2.346,11.377,11.377,0,0,1,.012,2.366" transform="translate(-47.381 442.312)" fill="#fafaf9"/><path d="M121.331-247.583a11.818,11.818,0,0,1-.44-2.413,11.809,11.809,0,0,1-.129-2.449,21.2,21.2,0,0,1,.327,2.426,21.177,21.177,0,0,1,.243,2.435" transform="translate(-48.624 442.413)" fill="#fafaf9"/><path d="M124.031-247.448a12.019,12.019,0,0,1-.234-2.452,12.011,12.011,0,0,1,.075-2.461,21.111,21.111,0,0,1,.124,2.455,21.028,21.028,0,0,1,.036,2.458" transform="translate(-49.851 442.379)" fill="#fafaf9"/><path d="M128.429-247.445a13.727,13.727,0,0,1-.179-2.326,13.814,13.814,0,0,1,.02-2.333,13.755,13.755,0,0,1,.178,2.326,13.786,13.786,0,0,1-.02,2.333" transform="translate(-51.639 442.276)" fill="#fafaf9"/><path d="M131.7-247.378a14.6,14.6,0,0,1-.08-2.407,14.546,14.546,0,0,1,.119-2.4,14.694,14.694,0,0,1,.08,2.406,14.708,14.708,0,0,1-.119,2.406" transform="translate(-53.008 442.311)" fill="#fafaf9"/><path d="M134.735-247.943a16.105,16.105,0,0,1,.145-2.515,16.059,16.059,0,0,1,.342-2.5,15.951,15.951,0,0,1-.144,2.516,15.864,15.864,0,0,1-.342,2.495" transform="translate(-54.254 442.618)" fill="#fafaf9"/><path d="M138.595-247.817a8.537,8.537,0,0,1,.285-2.139,8.529,8.529,0,0,1,.629-2.063,18.906,18.906,0,0,1-.435,2.106,18.882,18.882,0,0,1-.479,2.1" transform="translate(-55.81 442.242)" fill="#fafaf9"/><path d="M104.9-280.549v3.584a1.411,1.411,0,0,0,1.411,1.411h24.518a1.411,1.411,0,0,0,1.41-1.411v-3.584H104.9" transform="translate(-42.246 453.732)" fill="#f2575d"/><path d="M131.286-269.433h0l.573-2.753h0l-.573,2.753M108.46-272.18v0" transform="translate(-43.68 450.364)" fill="#0c1418"/><path d="M131.286-269.433l-22.623-1.613-.2-1.135v-.006h23.4l-.573,2.753" transform="translate(-43.68 450.364)" fill="#ab3837"/><path d="M115.958-296.162c-3.6-2.089-5.53-6.947-5.674-10.924a12.2,12.2,0,0,1,4.773-10.405,10.925,10.925,0,0,1,11.857-.1,12.342,12.342,0,0,1,5.438,10.715,14.209,14.209,0,0,1-5.82,10.672" transform="translate(-44.411 469.333)" fill="#33535f"/><path d="M128.721-295.519a4.738,4.738,0,0,1-.067-.91c-.018-.65-.042-1.483-.07-2.48-.053-2.094-.136-4.986-.276-8.179s-.313-6.081-.443-8.172c-.06-1-.11-1.827-.148-2.477a4.727,4.727,0,0,1-.014-.912,4.713,4.713,0,0,1,.145.9c.072.582.159,1.426.254,2.47.192,2.087.4,4.978.543,8.175s.185,6.093.177,8.19c0,1.048-.016,1.9-.037,2.483a4.7,4.7,0,0,1-.065.91" transform="translate(-51.425 469.075)" fill="#17282f"/><path d="M110.362-300.569c-.007.093-.582.122-1.283.065s-1.263-.18-1.255-.272.582-.122,1.283-.065,1.263.18,1.256.272" transform="translate(-43.424 461.916)" fill="#17282f"/><path d="M111-306.978c-.038.085-.533-.052-1.107-.306s-1.008-.53-.97-.616.534.052,1.107.307,1.008.53.97.615" transform="translate(-43.866 464.757)" fill="#17282f"/><path d="M114.084-311.929c-.048.077-.605-.185-1.184-.666s-.943-.977-.876-1.04.529.316,1.091.78,1.02.846.969.926" transform="translate(-45.112 467.059)" fill="#17282f"/><path d="M117.956-316.308c-.085.038-.352-.379-.6-.932s-.373-1.03-.288-1.069.352.38.6.932.373,1.031.288,1.068" transform="translate(-47.138 468.94)" fill="#17282f"/><path d="M122.926-319.4c-.083.039-.371-.405-.561-1.021s-.208-1.144-.117-1.159.254.467.439,1.059.325,1.081.239,1.121" transform="translate(-49.211 470.255)" fill="#17282f"/><path d="M131.108-321.274c.088.031.034.41-.12.847s-.351.765-.439.734-.034-.41.12-.847.35-.765.438-.734" transform="translate(-52.559 470.134)" fill="#17282f"/><path d="M136.662-318.705c.063.068-.167.385-.514.7s-.68.526-.744.458.167-.384.514-.706.68-.526.744-.457" transform="translate(-54.527 469.104)" fill="#17282f"/><path d="M141.824-315.3c.053.077-.228.358-.626.628s-.764.427-.816.349.229-.358.627-.628.764-.425.815-.349" transform="translate(-56.534 467.734)" fill="#17282f"/><path d="M145.132-310.213c.037.086-.405.357-.987.6s-1.083.381-1.12.295.405-.357.987-.605,1.083-.379,1.12-.294" transform="translate(-57.6 465.689)" fill="#17282f"/><path d="M146.649-304.7c.011.092-.439.225-1,.295s-1.034.052-1.046-.04.437-.225,1-.295,1.035-.053,1.046.04" transform="translate(-58.235 463.492)" fill="#17282f"/><path d="M147.447-298.42c-.037.086-.517-.04-1.07-.281s-.973-.5-.936-.591.516.041,1.07.282.972.5.936.59" transform="translate(-58.573 461.291)" fill="#17282f"/><path d="M146.626-292.933c-.029.086-.635-.059-1.269-.474s-1.01-.91-.944-.972.529.3,1.129.688,1.118.668,1.084.757" transform="translate(-58.157 459.304)" fill="#17282f"/><path d="M143.959-287.806c-.056.072-.538-.21-1-.71s-.711-1-.635-1.05.438.344.883.821.812.865.753.94" transform="translate(-57.312 457.365)" fill="#17282f"/><path d="M114.457-286c.043.082-.463.431-1.131.778s-1.244.564-1.287.48.463-.432,1.131-.779,1.244-.563,1.287-.479" transform="translate(-45.12 455.934)" fill="#17282f"/><path d="M112.123-290.833c.039.084-.367.352-.907.6s-1.008.374-1.046.289.368-.352.907-.6,1.008-.374,1.046-.289" transform="translate(-44.368 457.884)" fill="#17282f"/><path d="M109.958-295.138c.013.092-.487.24-1.117.329s-1.15.087-1.164-.006.487-.24,1.116-.329,1.151-.087,1.164.006" transform="translate(-43.365 459.636)" fill="#17282f"/><path d="M116.342-297.476c.028.087-.46.315-1.11.387s-1.176-.039-1.168-.129.515-.135,1.131-.206,1.121-.143,1.148-.052" transform="translate(-45.937 460.566)" fill="#17282f"/><path d="M121.956-302.76c.028.088-.36.283-.884.334s-.942-.065-.932-.156.412-.131.9-.181.89-.089.917,0" transform="translate(-48.384 462.698)" fill="#17282f"/><path d="M123-307.388c-.03.088-.45.023-.938-.146s-.858-.377-.828-.464.45-.023.938.146.859.376.828.464" transform="translate(-48.825 464.802)" fill="#17282f"/><path d="M125.634-312.041c-.065.065-.353-.126-.559-.483s-.227-.7-.139-.725.247.24.431.557.335.587.266.652" transform="translate(-50.296 466.902)" fill="#17282f"/><path d="M122.742-293.763c.022.09-.342.257-.812.373a3.122,3.122,0,0,1-.683.1l-.067-.2c.122-.022.2-.017.216.018s-.034.1-.133.172l-.067-.2a3.076,3.076,0,0,1,.652-.225c.471-.115.87-.135.892-.045" transform="translate(-48.803 459.076)" fill="#17282f"/><path d="M123.406-286.25c.035.087-.43.35-1.036.589s-1.125.361-1.159.274.43-.35,1.036-.589,1.125-.361,1.159-.274" transform="translate(-48.815 456.039)" fill="#17282f"/><path d="M117.891-289.591c.03.089-.279.274-.691.414s-.77.182-.8.093.279-.273.691-.413.77-.182.8-.094" transform="translate(-46.877 457.392)" fill="#17282f"/><path d="M117.859-305.359c-.021.089-.56.036-1.182-.186s-1.075-.518-1.035-.6.543.068,1.148.282,1.092.413,1.069.5" transform="translate(-46.572 464.049)" fill="#17282f"/><path d="M132.809-306.484c.051.078-.252.369-.678.649s-.812.445-.863.367.252-.369.678-.649.812-.445.863-.367" transform="translate(-52.863 464.184)" fill="#17282f"/><path d="M133.632-298.994c.019.091-.3.235-.711.32s-.762.081-.781-.01.3-.235.712-.32.761-.081.78.01" transform="translate(-53.217 461.189)" fill="#17282f"/><path d="M134.266-291.1c-.039.084-.5-.045-1.024-.288s-.923-.51-.883-.595.5.044,1.025.288.922.51.882.595" transform="translate(-53.304 458.346)" fill="#17282f"/><path d="M132.885-283.131c-.072.059-.37-.186-.666-.545s-.477-.7-.4-.758.37.184.665.543.477.7.405.76" transform="translate(-53.079 455.3)" fill="#17282f"/><path d="M132.44-312.029c.057.072-.139.32-.477.489s-.653.179-.677.091.222-.239.526-.393.571-.261.629-.187" transform="translate(-52.872 466.419)" fill="#17282f"/><path d="M139.065-304.452c.031.086-.362.3-.9.375s-.974-.025-.968-.115.42-.147.921-.218.914-.131.945-.041" transform="translate(-55.255 463.376)" fill="#17282f"/><path d="M137.593-311.253c.041.081-.349.36-.9.536s-1.033.178-1.046.088.417-.24.944-.409.964-.3,1.005-.214" transform="translate(-54.628 466.108)" fill="#17282f"/><path d="M139.952-294.238a2.575,2.575,0,0,1-1.472,0,2.569,2.569,0,0,1-1.378-.519,4.557,4.557,0,0,1,1.438.187,4.522,4.522,0,0,1,1.411.33" transform="translate(-55.215 459.464)" fill="#17282f"/><path d="M138.053-285.156c-.056.072-.546-.217-1.036-.71s-.778-.983-.7-1.04.469.327.944.8.856.874.8.948" transform="translate(-54.893 456.294)" fill="#17282f"/><path d="M122.863-319.29a15.32,15.32,0,0,0-2.96,2.338,14.448,14.448,0,0,0-3.686,8.149,18.305,18.305,0,0,0,.222,4.992,38.2,38.2,0,0,0,.935,4.006c.324,1.128.622,2.032.821,2.658a6.281,6.281,0,0,1,.284.983,5.626,5.626,0,0,1-.408-.939c-.238-.614-.571-1.508-.926-2.634a33.817,33.817,0,0,1-1.013-4.022,17.909,17.909,0,0,1-.251-5.086,14.207,14.207,0,0,1,3.85-8.275,10.557,10.557,0,0,1,2.208-1.725,6.687,6.687,0,0,1,.676-.351.8.8,0,0,1,.248-.1" transform="translate(-46.635 469.334)" fill="#17282f"/><path d="M132.059-295.852a37.158,37.158,0,0,0,1.517-3.626,20.5,20.5,0,0,0,.907-9.323,17.546,17.546,0,0,0-1.437-4.972,11.744,11.744,0,0,0-2.451-3.414,8.949,8.949,0,0,0-2.4-1.518c-.624-.26-1-.321-.993-.35a.818.818,0,0,1,.276.021,5.214,5.214,0,0,1,.764.206,8.315,8.315,0,0,1,2.512,1.461,11.565,11.565,0,0,1,2.575,3.459,17.267,17.267,0,0,1,1.491,5.058A19.826,19.826,0,0,1,133.8-299.4c-.19.582-.436,1.082-.619,1.532-.217.435-.4.814-.561,1.113a6.429,6.429,0,0,1-.562.9" transform="translate(-51.227 469.241)" fill="#17282f"/><path d="M475.794-112.861c-5.936,2.073-13.679.221-18.756-3.487s-8.732-9.02-11.97-14.409A21.387,21.387,0,0,1,441.9-138.1c-.436-2.647.206-5.625,2.259-7.353,3.19-2.685,8.079-1.323,11.7.741a40.356,40.356,0,0,1,19.932,31.852" transform="translate(-177.915 399.926)" fill="#f2575d"/><path d="M462.52-72.439c-3.564,4.7-9.689,6.8-15.583,7.069s-11.72-1.357-17.229-3.471c-2-.767-4.186-1.818-4.872-3.846a4.891,4.891,0,0,1,1.043-4.538,10.175,10.175,0,0,1,3.979-2.711,27.172,27.172,0,0,1,17.342-.939c5.706,1.479,10.69,4.787,15.32,8.436" transform="translate(-171.013 373.711)" fill="#f2575d"/><path d="M489.26-156.356c-4.913.1-8.632-4.205-10.856-8.587a31.828,31.828,0,0,1-2.927-19.848c.448-2.511,1.4-5.217,3.646-6.426,2.282-1.227,5.254-.418,7.169,1.329a14.735,14.735,0,0,1,3.728,6.718c2.637,8.534,2.069,18.342-.76,26.814" transform="translate(-191.294 417.992)" fill="#f2575d"/><path d="M520.722-122.786c-8.377-14.257-9.773-31.7-4.826-47.482.8-2.56,2.318-5.488,4.995-5.658,2.966-.188,4.824,3.118,5.642,5.973,2.872,10.02,2.262,20.662,1.627,31.066-.391,6.409-2.593,11.888-7.438,16.1" transform="translate(-206.617 411.6)" fill="#f2575d"/><path d="M540.489-92.179a34.265,34.265,0,0,1,20.329-21.558c2.225-.838,5.053-1.315,6.712.388,1.628,1.669,1.126,4.46.081,6.544-1.686,3.368-4.425,6.073-7.152,8.669-2.482,2.362-5.06,4.732-8.2,6.1s-8.9,1.722-11.772-.149" transform="translate(-217.672 386.857)" fill="#f2575d"/><path d="M453.529-138.46c0,.006.045.05.146.131l.451.349,1.756,1.312,1.273.941c.458.354.936.764,1.461,1.189,1.037.867,2.262,1.8,3.5,2.973q.945.856,1.975,1.795c.683.627,1.341,1.335,2.052,2.038,1.441,1.385,2.837,3,4.34,4.675a101.193,101.193,0,0,1,8.639,11.776,101.072,101.072,0,0,1,6.673,13c.824,2.091,1.647,4.063,2.243,5.973.311.949.649,1.855.906,2.747s.492,1.75.723,2.568c.5,1.628.783,3.142,1.1,4.456.146.659.3,1.27.41,1.838s.19,1.088.272,1.56c.165.912.295,1.633.39,2.157.045.227.081.41.111.56a.685.685,0,0,0,.052.188.791.791,0,0,0-.012-.194c-.018-.151-.043-.337-.072-.566-.076-.527-.182-1.253-.316-2.172-.072-.475-.152-1-.238-1.569-.1-.571-.244-1.185-.38-1.848-.292-1.324-.56-2.845-1.042-4.482q-.336-1.237-.7-2.585c-.249-.9-.583-1.808-.887-2.763-.585-1.922-1.4-3.906-2.217-6.009a98.324,98.324,0,0,0-6.673-13.062,98.525,98.525,0,0,0-8.7-11.809c-1.516-1.671-2.927-3.286-4.384-4.668-.719-.7-1.385-1.405-2.075-2.029l-2-1.781c-1.249-1.164-2.491-2.083-3.545-2.936-.532-.418-1.018-.82-1.484-1.166l-1.3-.915-1.8-1.254-.473-.317a.8.8,0,0,0-.169-.1" transform="translate(-182.65 396.508)" fill="#17282f"/><path d="M434.953-73.34a3.155,3.155,0,0,0,.576-.1c.374-.067.917-.212,1.632-.331a46.014,46.014,0,0,1,6.065-.741,45.072,45.072,0,0,1,19.7,3.314,45.1,45.1,0,0,1,16.238,11.639,46.17,46.17,0,0,1,3.748,4.825c.418.59.7,1.077.915,1.39a3.336,3.336,0,0,0,.337.476,3.1,3.1,0,0,0-.269-.516c-.2-.327-.454-.829-.854-1.434a40.837,40.837,0,0,0-3.666-4.925,44.173,44.173,0,0,0-16.3-11.819,44.17,44.17,0,0,0-19.867-3.228,40.891,40.891,0,0,0-6.078.87c-.711.142-1.25.311-1.621.4a3.307,3.307,0,0,0-.556.172" transform="translate(-175.169 370.91)" fill="#17282f"/><path d="M486.754-181.29a.978.978,0,0,0,.033.222c.035.166.078.377.134.64l.55,2.454c.483,2.13,1.218,5.2,2.144,9,1.845,7.59,4.527,18.041,7.322,29.623,1.388,5.794,2.645,11.33,3.729,16.376,1.062,5.051,1.969,9.61,2.644,13.455.362,1.919.634,3.663.891,5.192s.466,2.849.624,3.929c.165,1.057.294,1.888.387,2.484.045.266.081.478.11.645a.912.912,0,0,0,.052.218,1.015,1.015,0,0,0-.011-.224c-.018-.168-.042-.382-.072-.65-.076-.6-.18-1.434-.313-2.5-.135-1.084-.315-2.408-.559-3.941s-.49-3.282-.834-5.206c-.639-3.854-1.519-8.423-2.563-13.482-1.065-5.054-2.313-10.6-3.7-16.394-2.8-11.586-5.52-22.026-7.435-29.6-.951-3.765-1.723-6.822-2.265-8.967-.264-1.037-.474-1.852-.624-2.437-.069-.26-.127-.467-.17-.632a.93.93,0,0,0-.072-.213" transform="translate(-196.03 413.757)" fill="#17282f"/><path d="M518.962-88.8a.633.633,0,0,0,.053-.173c.032-.138.07-.306.117-.514q.152-.729.413-1.985c.355-1.725.826-4.228,1.362-7.33,1.074-6.2,2.348-14.819,3.131-24.4.38-4.792.591-9.368.683-13.532.069-4.165.033-7.917-.1-11.063-.038-1.574-.142-3-.21-4.245s-.152-2.323-.233-3.2q-.117-1.277-.186-2.02c-.023-.209-.042-.382-.058-.524a.6.6,0,0,0-.033-.177.618.618,0,0,0-.007.181c.006.143.012.315.02.527q.041.743.112,2.023c.058.878.123,1.952.166,3.2s.131,2.669.152,4.241c.094,3.143.1,6.889.012,11.046-.112,4.157-.334,8.724-.713,13.509-.782,9.565-2.011,18.174-3.013,24.384-.5,3.105-.929,5.616-1.238,7.349q-.215,1.261-.34,2c-.032.21-.057.381-.078.523a.582.582,0,0,0-.014.179" transform="translate(-209.001 404.363)" fill="#17282f"/><path d="M517.925-65.539a2.8,2.8,0,0,0,.217-.493c.141-.364.323-.841.552-1.433l.393-1.038q.251-.559.538-1.2l.616-1.385c.216-.491.5-.985.762-1.518l.855-1.662,1.019-1.751c.673-1.229,1.543-2.451,2.383-3.782a89.336,89.336,0,0,1,6.31-8.064,98.963,98.963,0,0,1,7.241-7.248c1.2-1.015,2.307-2.031,3.42-2.883l1.586-1.264,1.506-1.109c.949-.722,1.844-1.324,2.63-1.852s1.46-.989,2.031-1.332l1.3-.822a2.806,2.806,0,0,0,.44-.31,2.591,2.591,0,0,0-.479.241l-1.339.76c-.586.324-1.281.757-2.074,1.28s-1.708,1.1-2.672,1.808l-1.527,1.094-1.606,1.251c-1.127.843-2.242,1.854-3.458,2.865a94.336,94.336,0,0,0-7.295,7.259,85.247,85.247,0,0,0-6.315,8.123c-.837,1.343-1.7,2.577-2.364,3.821l-1,1.771c-.29.585-.57,1.146-.837,1.683s-.532,1.04-.741,1.537l-.589,1.4-.51,1.222c-.131.381-.253.733-.362,1.053-.2.605-.36,1.09-.483,1.462a2.682,2.682,0,0,0-.142.519" transform="translate(-208.584 382.909)" fill="#17282f"/><path d="M458.731-110.859c0,.062,1.016.062,2.646.153a49.441,49.441,0,0,1,6.325.765,49.341,49.341,0,0,1,6.165,1.607c1.55.513,2.494.885,2.518.827a2.476,2.476,0,0,0-.629-.342c-.414-.2-1.027-.457-1.8-.749a37.691,37.691,0,0,0-6.184-1.732,37.683,37.683,0,0,0-6.388-.656c-.822-.01-1.487.006-1.946.039a2.521,2.521,0,0,0-.71.087" transform="translate(-184.745 385.444)" fill="#17282f"/><path d="M448.144-65.179a24,24,0,0,1,3.448-5.2,24,24,0,0,1,4.933-3.824,5.872,5.872,0,0,0-1.7.753,15.06,15.06,0,0,0-3.52,2.8,15.036,15.036,0,0,0-2.533,3.717,5.9,5.9,0,0,0-.625,1.753" transform="translate(-180.479 370.632)" fill="#17282f"/><path d="M484.23-161.911c-.08.085,1.463,1.614,3.146,3.686s2.88,3.884,2.979,3.823a17.111,17.111,0,0,0-2.673-4.072,17.124,17.124,0,0,0-3.452-3.436" transform="translate(-195.013 405.954)" fill="#17282f"/><path d="M491.918-176.545a14.661,14.661,0,0,0-.763,3.306,14.627,14.627,0,0,0-.374,3.373,14.754,14.754,0,0,0,.763-3.307,14.777,14.777,0,0,0,.374-3.373" transform="translate(-197.639 411.846)" fill="#17282f"/><path d="M518.941-130.62a41.427,41.427,0,0,0,2.452,5.16,41.487,41.487,0,0,0,2.8,4.979,41.711,41.711,0,0,0-2.453-5.161,41.535,41.535,0,0,0-2.8-4.978" transform="translate(-208.991 393.351)" fill="#17282f"/><path d="M531.993-146.211a23.188,23.188,0,0,0-2.078,3.733,23.141,23.141,0,0,0-1.725,3.909,23.227,23.227,0,0,0,2.078-3.733,23.091,23.091,0,0,0,1.725-3.909" transform="translate(-212.715 399.63)" fill="#17282f"/><path d="M557.516-93.423c.026.113,1.689-.21,3.764-.353s3.764-.066,3.775-.182a10.815,10.815,0,0,0-3.8-.211,10.812,10.812,0,0,0-3.735.746" transform="translate(-224.529 378.69)" fill="#17282f"/><path d="M522.107-45.745l-4.663,24.526a3.438,3.438,0,0,1-3.377,2.8H500.289A3.438,3.438,0,0,1,496.9-21.3l-4.054-24.447h29.264" transform="translate(-198.483 359.169)" fill="#17282f"/><path d="M520.592-37.774H494.243l-1.4-7.971h29.264l-1.515,7.971" transform="translate(-198.483 359.169)" fill="#33535f"/><path d="M521.536-32.4l-.552,2.907H495.59l-.4-2.907h26.349" transform="translate(-199.427 353.794)" fill="#fafaf9"/><path d="M122.408-538.6A31.909,31.909,0,0,1,90.5-506.691,31.909,31.909,0,0,1,58.593-538.6,31.908,31.908,0,0,1,90.5-570.507,31.908,31.908,0,0,1,122.408-538.6" transform="translate(-23.597 570.507)" fill="#f2575d"/><path d="M61.437-539.645a30.127,30.127,0,0,1,32.037-28.089A30.128,30.128,0,0,1,121.563-535.7a30.127,30.127,0,0,1-32.037,28.088,30.126,30.126,0,0,1-28.088-32.036" transform="translate(-24.716 569.416)" fill="#fafaf9"/><path d="M61.416-539.75s.012.166.014.489c0,.339,0,.814,0,1.433q0,.473-.006,1.054c.015.388.07.81.109,1.268s.088.952.137,1.478a16.344,16.344,0,0,0,.285,1.664,28.728,28.728,0,0,0,2.807,8.191,29.95,29.95,0,0,0,7.057,8.987l1.23,1.048c.435.327.9.631,1.349.954.465.307.9.671,1.4.939l1.5.847.765.426.81.356,1.642.723c.559.226,1.149.387,1.731.587a15.186,15.186,0,0,0,1.782.528,28,28,0,0,0,3.75.685c.643.064,1.288.17,1.943.2l1.984.028c.333,0,.668.022,1,0l1.006-.088c.673-.067,1.354-.1,2.031-.2a31.714,31.714,0,0,0,4.06-.907,31.238,31.238,0,0,0,4.008-1.457c.653-.3,1.284-.659,1.932-.989.319-.175.656-.32.962-.522l.922-.6a33.79,33.79,0,0,0,3.576-2.657,33.833,33.833,0,0,0,3.153-3.27l.748-.874.666-.943.665-.95a7.345,7.345,0,0,0,.623-.981l1.152-2.039q.477-1.075.956-2.158a31.923,31.923,0,0,0,2.159-9.319,31.97,31.97,0,0,0-.92-9.524q-.333-1.137-.664-2.266-.441-1.091-.876-2.173a7.3,7.3,0,0,0-.49-1.056l-.535-1.028-.537-1.022-.627-.964a33.846,33.846,0,0,0-2.7-3.654,33.614,33.614,0,0,0-3.2-3.1l-.836-.716c-.276-.241-.592-.429-.884-.645-.6-.411-1.179-.849-1.788-1.234a31.26,31.26,0,0,0-3.783-1.968,31.713,31.713,0,0,0-3.907-1.431c-.659-.182-1.331-.305-1.988-.459l-.986-.219c-.329-.065-.664-.085-.994-.131l-1.971-.232c-.654-.053-1.307-.033-1.953-.053a27.888,27.888,0,0,0-3.808.189,15.271,15.271,0,0,0-1.836.291c-.6.123-1.209.2-1.792.356l-1.723.5-.849.247-.814.323-1.6.643c-.533.2-1.013.5-1.514.748-.492.26-.989.5-1.463.769l-1.357.878a29.938,29.938,0,0,0-8.17,7.987A28.727,28.727,0,0,0,62.915-547a16.331,16.331,0,0,0-.5,1.613l-.329,1.447c-.1.449-.208.861-.273,1.243-.048.384-.092.733-.132,1.046-.081.614-.142,1.085-.186,1.42s-.078.484-.078.484.005-.166.035-.487.083-.811.146-1.428q.051-.473.112-1.052c.06-.385.163-.8.255-1.251s.2-.938.311-1.458a16.2,16.2,0,0,1,.485-1.626,28.566,28.566,0,0,1,3.816-7.834,30.025,30.025,0,0,1,8.2-8.1l1.366-.893c.477-.272.978-.518,1.475-.784.5-.248.989-.556,1.527-.761l1.616-.655.822-.33.857-.253,1.741-.514c.59-.154,1.2-.24,1.811-.365a15.566,15.566,0,0,1,1.857-.3,28.208,28.208,0,0,1,3.851-.2c.654.018,1.315,0,1.977.049l2,.23c.334.045.673.065,1.006.13l1,.219c.667.155,1.346.277,2.014.46a32,32,0,0,1,3.96,1.441,31.494,31.494,0,0,1,3.836,1.988c.617.387,1.2.83,1.813,1.246.3.218.617.409.9.651l.848.725a33.921,33.921,0,0,1,3.244,3.14,34.292,34.292,0,0,1,2.74,3.7l.635.977.545,1.036.543,1.042a7.534,7.534,0,0,1,.5,1.07q.443,1.1.889,2.2l.676,2.3a32.348,32.348,0,0,1,.934,9.656,32.312,32.312,0,0,1-2.191,9.446q-.487,1.1-.97,2.188l-1.169,2.067a7.5,7.5,0,0,1-.633.994l-.675.963-.676.955-.757.885a34.2,34.2,0,0,1-3.2,3.309,33.97,33.97,0,0,1-3.627,2.688l-.936.607c-.31.2-.651.351-.975.529-.657.333-1.3.7-1.959,1a31.539,31.539,0,0,1-4.062,1.469,32,32,0,0,1-4.114.911c-.686.095-1.376.127-2.057.193l-1.019.087c-.339.022-.678,0-1.015,0l-2.007-.033c-.663-.034-1.316-.143-1.966-.209a28.112,28.112,0,0,1-3.792-.7,15.548,15.548,0,0,1-1.8-.539c-.587-.2-1.183-.369-1.748-.6l-1.658-.737-.817-.364-.772-.432-1.516-.862c-.506-.273-.946-.643-1.414-.954-.457-.327-.922-.636-1.359-.969l-1.238-1.064a30.04,30.04,0,0,1-7.07-9.1,28.551,28.551,0,0,1-2.759-8.268,16.126,16.126,0,0,1-.268-1.676q-.063-.793-.118-1.486c-.032-.46-.08-.885-.089-1.274q.015-.582.026-1.058c.018-.62.032-1.1.042-1.435.012-.323.029-.487.029-.487" transform="translate(-24.695 569.521)" fill="#17282f"/><path d="M111.558-559.513a8.412,8.412,0,0,1,.195,2.532,8.4,8.4,0,0,1-.195,2.53,8.356,8.356,0,0,1-.2-2.53,8.372,8.372,0,0,1,.2-2.532" transform="translate(-44.849 566.079)" fill="#17282f"/><path d="M132.291-552.712a8.157,8.157,0,0,1-1.626,1.9,8.141,8.141,0,0,1-1.9,1.625,8.161,8.161,0,0,1,1.626-1.9,8.173,8.173,0,0,1,1.9-1.627" transform="translate(-51.855 563.342)" fill="#17282f"/><path d="M145.234-538.035a10.451,10.451,0,0,1-2.075,1.386,10.486,10.486,0,0,1-2.187,1.2,6.7,6.7,0,0,1,1.984-1.539,6.71,6.71,0,0,1,2.278-1.052" transform="translate(-56.773 557.435)" fill="#17282f"/><path d="M151.334-516.373a15.472,15.472,0,0,1-3.451.194,15.47,15.47,0,0,1-3.451-.194,15.451,15.451,0,0,1,3.451-.2,15.452,15.452,0,0,1,3.451.2" transform="translate(-58.167 548.784)" fill="#17282f"/><path d="M71.47-517.144a13.8,13.8,0,0,1-3.259.2,13.8,13.8,0,0,1-3.259-.2,13.789,13.789,0,0,1,3.259-.2,13.8,13.8,0,0,1,3.259.2" transform="translate(-26.158 549.094)" fill="#17282f"/><path d="M78.044-500.8a14.231,14.231,0,0,1-2.462,2.235,14.292,14.292,0,0,1-2.708,1.93,14.372,14.372,0,0,1,2.463-2.235,14.4,14.4,0,0,1,2.707-1.93" transform="translate(-29.348 542.435)" fill="#17282f"/><path d="M93.175-488.251a22.18,22.18,0,0,1-1.676,2.905A22.169,22.169,0,0,1,89.72-482.5a10.931,10.931,0,0,1,1.445-3.044,10.948,10.948,0,0,1,2.01-2.7" transform="translate(-36.129 537.381)" fill="#17282f"/><path d="M111.558-476.726a15.409,15.409,0,0,1-.2-3.451,15.406,15.406,0,0,1,.2-3.451,15.48,15.48,0,0,1,.195,3.451,15.482,15.482,0,0,1-.195,3.451" transform="translate(-44.849 535.518)" fill="#17282f"/><path d="M133.11-482.809a10.1,10.1,0,0,1-2.846-1.949,10.11,10.11,0,0,1-2.319-2.552,31.673,31.673,0,0,1,2.576,2.259,31.94,31.94,0,0,1,2.589,2.243" transform="translate(-51.526 537.002)" fill="#17282f"/><path d="M145.385-495.258a12.008,12.008,0,0,1-2.285-2.009,12,12,0,0,1-2.01-2.286,12.017,12.017,0,0,1,2.286,2.009,12,12,0,0,1,2.009,2.286" transform="translate(-56.819 541.933)" fill="#17282f"/><path d="M78.464-535.086a9.231,9.231,0,0,1-2.016-1.74,9.249,9.249,0,0,1-1.741-2.017,9.219,9.219,0,0,1,2.017,1.741,9.241,9.241,0,0,1,1.741,2.016" transform="translate(-30.085 557.757)" fill="#17282f"/><path d="M92.936-550.224a8.836,8.836,0,0,1-1.982-1.7,8.826,8.826,0,0,1-1.707-1.974,8.837,8.837,0,0,1,1.982,1.7,8.874,8.874,0,0,1,1.707,1.974" transform="translate(-35.94 563.819)" fill="#17282f"/><path d="M104.832-543.9a5.409,5.409,0,0,1,.081,1.078c.017.776.039,1.763.066,2.942.038,2.484.061,5.915.061,9.7,0,.73,0,1.447,0,2.132v.333l-.3-.15c-2.934-1.485-5.512-2.811-7.35-3.777L95.234-532.8a4,4,0,0,1-.759-.464,4.066,4.066,0,0,1,.825.334l2.211,1.043c1.871.9,4.472,2.182,7.413,3.654l-.3.182c0-.685,0-1.4,0-2.132,0-3.79.023-7.221.061-9.7.026-1.179.049-2.165.066-2.942a5.383,5.383,0,0,1,.081-1.078" transform="translate(-38.048 559.793)" fill="#17282f"/><path d="M183.994-301.085l14.58,32.254a4.783,4.783,0,0,0,3.9,2.438l67.278-.091A2.854,2.854,0,0,0,266.982-269l-25.528-.561-13.067-31.361a2.7,2.7,0,0,0-2.474-1.663l-40.743-.308a1.28,1.28,0,0,0-1.176,1.808" transform="translate(-74.054 462.73)" fill="#dadbd8"/><path d="M183.981-301.116a.985.985,0,0,1-.121-.375,1.291,1.291,0,0,1,.362-1.084,1.3,1.3,0,0,1,.776-.383c.326-.021.664-.006,1.042-.01l2.6,0,16.77.069,11.777.064,6.625.04,1.727.01a3.219,3.219,0,0,1,1.774.382,2.9,2.9,0,0,1,1.228,1.4l.7,1.668,12.392,29.668-.18-.123,13.8.3,7.186.156,3.651.08.92.022a3.049,3.049,0,0,1,.964.188,3.092,3.092,0,0,1,1.519,1.217,3.173,3.173,0,0,1,.464,1.292l.028.232h-.234l-41.9.04-18.26,0h-6.262c-.341,0-.667.01-1.018-.009a4.3,4.3,0,0,1-1.018-.2,4.743,4.743,0,0,1-2.96-2.548l-1.531-3.4L187.379-293.4l-2.539-5.71-.651-1.488c-.144-.336-.209-.513-.209-.513s.09.165.248.5.389.834.687,1.472l2.609,5.678,9.534,20.932,1.543,3.4a4.438,4.438,0,0,0,2.779,2.371,5.563,5.563,0,0,0,1.941.186l2.048-.006,4.213-.011,18.26-.044,41.9-.074-.206.232a2.756,2.756,0,0,0-.4-1.116,2.666,2.666,0,0,0-1.313-1.051,2.6,2.6,0,0,0-.834-.164l-.916-.021-3.65-.08-7.186-.16-13.8-.307-.13,0-.05-.121L228.916-299.2q-.35-.841-.694-1.671a2.565,2.565,0,0,0-1.081-1.237,2.881,2.881,0,0,0-1.61-.341l-1.728-.016-6.624-.061-11.776-.114-16.77-.186-2.595-.036c-.373,0-.726-.021-1.031-.006a1.232,1.232,0,0,0-.737.346,1.272,1.272,0,0,0-.376,1.03,2.669,2.669,0,0,0,.086.38" transform="translate(-74.041 462.761)" fill="#17282f"/><path d="M268.108-265.911a1.474,1.474,0,0,1-.2-.352l-.485-1.042c-.43-.971-1.007-2.277-1.708-3.864-1.422-3.271-3.353-7.8-5.431-12.834s-3.91-9.607-5.183-12.941c-.634-1.668-1.14-3.019-1.465-3.963l-.37-1.089a1.482,1.482,0,0,1-.1-.389,1.433,1.433,0,0,1,.181.359c.12.287.266.637.443,1.06l1.589,3.913,5.293,12.89,5.317,12.879,1.586,3.916c.165.428.3.781.413,1.071a1.475,1.475,0,0,1,.118.385" transform="translate(-101.958 462.525)" fill="#33535f"/><path d="M231.2-275.092a2.085,2.085,0,0,1-2.085,2.086,2.085,2.085,0,0,1-2.085-2.086,2.085,2.085,0,0,1,2.085-2.085,2.085,2.085,0,0,1,2.085,2.085" transform="translate(-91.433 452.373)" fill="#fff"/><path d="M357.746-389.525l-5.346-9.421a25.086,25.086,0,0,0,3.732-13.2,25.2,25.2,0,0,0-25.2-25.2,25.2,25.2,0,0,0-25.2,25.2,25.2,25.2,0,0,0,25.2,25.2,25.082,25.082,0,0,0,15.422-5.277l-.009.011,11.4,2.685" transform="translate(-123.127 516.878)" fill="#fafaf9"/><path d="M357.623-389.641,346.2-392.224l-.078-.123.02-.041.008-.011.146.144a25.182,25.182,0,0,1-12.108,5.115,22.634,22.634,0,0,1-4,.2c-.688-.038-1.388-.055-2.094-.113l-2.133-.322a25.555,25.555,0,0,1-8.511-3.338,25.532,25.532,0,0,1-7.274-6.787,25.167,25.167,0,0,1-4.27-9.757,25.748,25.748,0,0,1,.3-11.237,24.923,24.923,0,0,1,5.414-10.389,25.367,25.367,0,0,1,9.734-6.948,25.752,25.752,0,0,1,11.322-1.738,24.9,24.9,0,0,1,10.392,3.073,25.635,25.635,0,0,1,7.681,6.564,25.653,25.653,0,0,1,4.3,8.191,27.264,27.264,0,0,1,1.092,8.213,25.106,25.106,0,0,1-3.777,12.515l0-.1,5.26,9.47-5.433-9.372,0-.1a25.04,25.04,0,0,0,3.661-12.419,27.1,27.1,0,0,0-1.115-8.109,25.384,25.384,0,0,0-4.272-8.066,25.324,25.324,0,0,0-7.584-6.451,24.58,24.58,0,0,0-10.237-3.009,25.4,25.4,0,0,0-11.141,1.722,24.982,24.982,0,0,0-9.572,6.839,24.529,24.529,0,0,0-5.329,10.218,25.365,25.365,0,0,0-.3,11.058,24.828,24.828,0,0,0,4.189,9.613,25.21,25.21,0,0,0,7.153,6.706,25.252,25.252,0,0,0,8.384,3.321l2.1.326c.7.061,1.389.079,2.067.12a22.555,22.555,0,0,0,3.952-.183,25.106,25.106,0,0,0,12.019-4.99l.144.018v.127l-.008.011-.059-.163,11.378,2.785" transform="translate(-123.004 516.994)" fill="#17282f"/><path d="M333.453-394.723v2.426h-1.229v-2.236c0-.686-.307-1-.8-1-.551,0-.936.354-.936,1.11v2.126h-1.229v-2.236c0-.686-.291-1-.8-1-.543,0-.929.354-.929,1.11v2.126H326.3v-4.237h1.174v.488a1.714,1.714,0,0,1,1.331-.551,1.582,1.582,0,0,1,1.394.693,1.9,1.9,0,0,1,1.527-.693,1.641,1.641,0,0,1,1.732,1.874" transform="translate(-131.409 500.468)" fill="#17282f"/><path d="M347.287-394.723v2.426h-1.229v-2.236c0-.686-.307-1-.8-1-.55,0-.937.354-.937,1.11v2.126h-1.228v-2.236c0-.686-.291-1-.8-1-.543,0-.929.354-.929,1.11v2.126H340.13v-4.237H341.3v.488a1.713,1.713,0,0,1,1.33-.551,1.581,1.581,0,0,1,1.394.693,1.907,1.907,0,0,1,1.527-.693,1.641,1.641,0,0,1,1.733,1.874" transform="translate(-136.981 500.468)" fill="#17282f"/><path d="M361.123-394.723v2.426h-1.229v-2.236c0-.686-.307-1-.8-1-.55,0-.937.354-.937,1.11v2.126h-1.228v-2.236c0-.686-.292-1-.8-1-.543,0-.929.354-.929,1.11v2.126h-1.229v-4.237h1.174v.488a1.713,1.713,0,0,1,1.33-.551,1.582,1.582,0,0,1,1.394.693,1.907,1.907,0,0,1,1.527-.693,1.641,1.641,0,0,1,1.733,1.874" transform="translate(-142.553 500.468)" fill="#17282f"/><path d="M367.3-391.094a.735.735,0,0,1,.764-.757.734.734,0,0,1,.764.757.751.751,0,0,1-.764.772.752.752,0,0,1-.764-.772" transform="translate(-147.923 498.556)" fill="#17282f"/><path d="M370.755-391.094a.734.734,0,0,1,.764-.757.734.734,0,0,1,.764.757.751.751,0,0,1-.764.772.751.751,0,0,1-.764-.772" transform="translate(-149.315 498.556)" fill="#17282f"/><path d="M374.211-391.094a.734.734,0,0,1,.763-.757.734.734,0,0,1,.764.757.751.751,0,0,1-.764.772.751.751,0,0,1-.763-.772" transform="translate(-150.706 498.556)" fill="#17282f"/><path d="M363.968-1.311c0,.115-78.979.208-176.382.208-97.437,0-176.4-.093-176.4-.208s78.961-.208,176.4-.208c97.4,0,176.382.094,176.382.208" transform="translate(-4.506 341.357)" fill="#17282f"/></g></g></svg>