<svg xmlns="http://www.w3.org/2000/svg" width="360.944" height="374.213" viewBox="0 0 360.944 374.213"><g transform="translate(0 592.852)"><g transform="translate(0 -592.852)"><path d="M23.988-468.376s-5.1,3.887-.214,9.022a.441.441,0,0,0,.323.137l44.575-.26s3.806-4.269.648-9.189l-45.332.29" transform="translate(-7.987 547.053)" fill="#e7e8e5"/><path d="M66.049-461.832c0,.051-5.55.09-12.4.09s-12.4-.04-12.4-.09,5.549-.089,12.4-.089,12.4.04,12.4.089" transform="translate(-15.215 544.566)" fill="#dadbd8"/><path d="M62.74-459.277c0,.05-2.609.09-5.828.09s-5.828-.04-5.828-.09,2.609-.09,5.828-.09,5.828.04,5.828.09" transform="translate(-18.839 543.624)" fill="#dadbd8"/><path d="M87.7-459.691c-.029-.008.1-.513.236-1.338a19.019,19.019,0,0,0,.257-3.252,19.013,19.013,0,0,0-.319-3.247c-.153-.823-.29-1.325-.261-1.333a1.442,1.442,0,0,1,.13.343c.074.224.163.554.256.964a15.869,15.869,0,0,1,.374,3.271,15.84,15.84,0,0,1-.312,3.277c-.086.412-.169.743-.238.969a1.439,1.439,0,0,1-.123.346" transform="translate(-32.31 547.125)" fill="#dadbd8"/><path d="M93.024-468.755a1.543,1.543,0,0,1,.2.324,3.987,3.987,0,0,1,.2.4c.069.159.157.337.228.545a9.474,9.474,0,0,1,.424,1.479,10.8,10.8,0,0,1,.194,1.875,10.753,10.753,0,0,1-.163,1.879,9.453,9.453,0,0,1-.4,1.485c-.066.209-.152.389-.219.55a3.909,3.909,0,0,1-.191.4,1.517,1.517,0,0,1-.193.327c-.031-.015.218-.495.483-1.319a10.713,10.713,0,0,0,.358-1.474,11.7,11.7,0,0,0,.147-1.849,11.592,11.592,0,0,0-.177-1.846,10.776,10.776,0,0,0-.381-1.468c-.279-.819-.535-1.3-.5-1.311" transform="translate(-34.306 547.086)" fill="#dadbd8"/><path d="M35.756-459.343a1.4,1.4,0,0,1-.208-.3,3.185,3.185,0,0,1-.208-.372,5.325,5.325,0,0,1-.238-.513,7.777,7.777,0,0,1-.434-1.406,8.974,8.974,0,0,1-.173-1.8,8.98,8.98,0,0,1,.221-1.791,7.775,7.775,0,0,1,.472-1.395,5.385,5.385,0,0,1,.252-.506,3.229,3.229,0,0,1,.218-.366,1.415,1.415,0,0,1,.216-.292c.03.018-.256.449-.568,1.214a8.7,8.7,0,0,0-.428,1.381,9.57,9.57,0,0,0-.2,1.756,9.628,9.628,0,0,0,.155,1.761,8.65,8.65,0,0,0,.391,1.391c.291.773.566,1.212.535,1.23" transform="translate(-12.721 546.836)" fill="#dadbd8"/><path d="M28-458.3a1.755,1.755,0,0,1-.229-.337,3.782,3.782,0,0,1-.233-.419c-.082-.167-.186-.354-.27-.575a9.451,9.451,0,0,1-.51-1.574,10.782,10.782,0,0,1-.251-2.011,10.82,10.82,0,0,1,.161-2.021,9.455,9.455,0,0,1,.441-1.595,6.233,6.233,0,0,1,.244-.587,3.937,3.937,0,0,1,.214-.428,1.767,1.767,0,0,1,.214-.348c.032.017-.253.524-.552,1.405a10.449,10.449,0,0,0-.4,1.581,11.546,11.546,0,0,0-.145,1.988,11.594,11.594,0,0,0,.233,1.979,10.5,10.5,0,0,0,.467,1.561c.337.867.645,1.361.613,1.379" transform="translate(-9.773 546.879)" fill="#dadbd8"/><path d="M83.908-432.6v8.531H67.4V-432.6H83.908" transform="translate(-24.857 533.753)" fill="#e7e8e5"/><path d="M9.1-428.787l.01.226a4.888,4.888,0,0,0,4.91,4.577H63.174v-.617H51.5a4.265,4.265,0,0,1-4.265-4.265,4.265,4.265,0,0,1,4.265-4.265H63.174v-.906L14-433.871A4.918,4.918,0,0,0,9.1-428.787" transform="translate(-3.354 534.282)" fill="#dadbd8"/><path d="M84.695-425.717c0,.05-3.394.09-7.579.09s-7.58-.04-7.58-.09,3.393-.09,7.58-.09,7.579.04,7.579.09" transform="translate(-25.644 531.247)" fill="#dadbd8"/><path d="M84.793-422.672c0,.05-3.212.09-7.172.09s-7.173-.04-7.173-.09,3.211-.09,7.173-.09,7.172.04,7.172.09" transform="translate(-25.981 530.124)" fill="#dadbd8"/><path d="M86.017-419.886c0,.05-2.887.09-6.448.09s-6.449-.04-6.449-.09,2.886-.09,6.449-.09,6.448.04,6.448.09" transform="translate(-26.966 529.097)" fill="#dadbd8"/><path d="M84.876-428.453c0,.05-3.324.09-7.424.09s-7.424-.04-7.424-.09,3.323-.09,7.424-.09,7.424.04,7.424.09" transform="translate(-25.826 532.256)" fill="#dadbd8"/><path d="M85.451-431.189c0,.05-2.959.09-6.609.09s-6.609-.04-6.609-.09,2.958-.09,6.609-.09,6.609.04,6.609.09" transform="translate(-26.639 533.265)" fill="#dadbd8"/><path d="M17.163-433.549a11.047,11.047,0,0,0-1.044,1.242A6.513,6.513,0,0,0,15-428.638,6.516,6.516,0,0,0,16.205-425a10.891,10.891,0,0,0,1.073,1.216,1.67,1.67,0,0,1-.355-.262,5.6,5.6,0,0,1-.821-.879,6.361,6.361,0,0,1-1.285-3.715,6.359,6.359,0,0,1,1.2-3.743,5.588,5.588,0,0,1,.8-.9,1.745,1.745,0,0,1,.349-.27" transform="translate(-5.464 534.102)" fill="#f3f2f1"/><path d="M14.53-433.837a10.951,10.951,0,0,0-1.044,1.242,6.509,6.509,0,0,0-1.122,3.669,6.513,6.513,0,0,0,1.208,3.641,10.923,10.923,0,0,0,1.073,1.217,1.7,1.7,0,0,1-.355-.262,5.64,5.64,0,0,1-.821-.879,6.358,6.358,0,0,1-1.285-3.715,6.359,6.359,0,0,1,1.2-3.743,5.614,5.614,0,0,1,.8-.9,1.746,1.746,0,0,1,.349-.27" transform="translate(-4.493 534.208)" fill="#f3f2f1"/><path d="M67.446-433.549a11.067,11.067,0,0,0-1.044,1.242,6.515,6.515,0,0,0-1.121,3.669A6.514,6.514,0,0,0,66.488-425a10.85,10.85,0,0,0,1.073,1.216,1.665,1.665,0,0,1-.355-.262,5.619,5.619,0,0,1-.822-.879,6.361,6.361,0,0,1-1.285-3.715,6.354,6.354,0,0,1,1.2-3.743,5.587,5.587,0,0,1,.8-.9,1.757,1.757,0,0,1,.349-.27" transform="translate(-24.008 534.102)" fill="#f3f2f1"/><path d="M64.813-433.837a11,11,0,0,0-1.044,1.242,6.513,6.513,0,0,0-1.121,3.669,6.508,6.508,0,0,0,1.208,3.641,11.011,11.011,0,0,0,1.073,1.217,1.72,1.72,0,0,1-.354-.262,5.64,5.64,0,0,1-.821-.879,6.36,6.36,0,0,1-1.285-3.715,6.362,6.362,0,0,1,1.2-3.743,5.648,5.648,0,0,1,.8-.9,1.782,1.782,0,0,1,.349-.27" transform="translate(-23.037 534.208)" fill="#f3f2f1"/><path d="M25.888-426.724q-.023-1.733-.046-3.468a2.472,2.472,0,0,0-.122-.893.841.841,0,0,0-.659-.555,1.316,1.316,0,0,0-1.414.67,3.285,3.285,0,0,0-.341,1.7,24.605,24.605,0,0,0,.133,2.74,3.151,3.151,0,0,0,.323,1.255,1.171,1.171,0,0,0,1.058.635,1.182,1.182,0,0,0,.927-.8,3.479,3.479,0,0,0,.142-1.278" transform="translate(-8.594 533.418)" fill="#f3f2f1"/><path d="M48.369-425.453c0,.05-3.554.09-7.936.09s-7.937-.04-7.937-.09,3.553-.09,7.937-.09,7.936.04,7.936.09" transform="translate(-11.984 531.15)" fill="#f3f2f1"/><path d="M22.127-438.812l-.091-8.085h4.4l.152,8.085H22.127" transform="translate(-8.127 539.025)" fill="#f3f2f1"/><path d="M26.207-444.67a11.7,11.7,0,0,1-2.045.09,11.7,11.7,0,0,1-2.045-.09,11.7,11.7,0,0,1,2.045-.09,11.7,11.7,0,0,1,2.045.09" transform="translate(-8.157 538.237)" fill="#dadbd8"/><path d="M26.207-442.694a11.7,11.7,0,0,1-2.045.09,11.694,11.694,0,0,1-2.045-.09,11.7,11.7,0,0,1,2.045-.09,11.7,11.7,0,0,1,2.045.09" transform="translate(-8.157 537.508)" fill="#dadbd8"/><path d="M26.207-440.717a11.7,11.7,0,0,1-2.045.09,11.7,11.7,0,0,1-2.045-.09,11.7,11.7,0,0,1,2.045-.09,11.7,11.7,0,0,1,2.045.09" transform="translate(-8.157 536.779)" fill="#dadbd8"/><path d="M26.207-438.74a11.7,11.7,0,0,1-2.045.09,11.7,11.7,0,0,1-2.045-.09,11.694,11.694,0,0,1,2.045-.09,11.7,11.7,0,0,1,2.045.09" transform="translate(-8.157 536.05)" fill="#dadbd8"/><path d="M26.207-436.764a11.6,11.6,0,0,1-2.045.09,11.6,11.6,0,0,1-2.045-.09,11.705,11.705,0,0,1,2.045-.09,11.707,11.707,0,0,1,2.045.09" transform="translate(-8.157 535.321)" fill="#dadbd8"/><path d="M21.667-447.236h48.78a22.915,22.915,0,0,1,0,8.739H21.874v-.594h2.968a1.4,1.4,0,0,0,1.4-1.4v-4.836a1.4,1.4,0,0,0-1.4-1.4H21.667v-.5" transform="translate(-7.99 539.15)" fill="#e7e8e5"/><path d="M39.252-441.3h.814l.087.022.087.153-.007.053-.055.208a2.311,2.311,0,0,1-.51.921.962.962,0,0,1-.694.359l-.1-.007a.791.791,0,0,1-.554-.4,1.824,1.824,0,0,1-.243-.98,2.612,2.612,0,0,1,.1-.7,2.334,2.334,0,0,1,.483-.943.981.981,0,0,1,.733-.39.692.692,0,0,1,.308.071,1,1,0,0,1,.475.594l.019.081-.024.087-.151.087-.055-.008-.112-.109-.009-.015-.1-.194a.465.465,0,0,0-.39-.232.455.455,0,0,0-.269.1,1.44,1.44,0,0,0-.445.639,2.4,2.4,0,0,0-.193.918,1.65,1.65,0,0,0,.14.721.473.473,0,0,0,.425.319.582.582,0,0,0,.393-.237,2.157,2.157,0,0,0,.418-.756q-.562,0-.584-.007c-.127-.02-.192-.086-.195-.2l.018-.06a.184.184,0,0,1,.183-.1" transform="translate(-14.044 537.589)" fill="#fafaf9"/><path d="M43.084-442.2l-.542,1.14h.765Zm.219-.677.022.06q.052.179.574,3.022l.008.044-.024.089-.146.09-.028,0-.134-.12-.194-1h-1l-.482,1.008-.016.033-.151.086-.1-.029-.08-.147.011-.052q.045-.1.149-.331,1.051-2.3,1.258-2.711a.19.19,0,0,1,.169-.123l.16.087" transform="translate(-15.325 537.574)" fill="#fafaf9"/><path d="M47.671-439.572H46.2l-.094-.029a.266.266,0,0,1-.083-.184v0q0-.09.406-3.01l.009-.065.158-.108.081.02.092.155q-.02.2-.1.826-.252,1.926-.263,2.034h1.249l.094.018a.166.166,0,0,1,.112.164l-.009.057a.206.206,0,0,1-.182.123" transform="translate(-16.973 537.576)" fill="#fafaf9"/><path d="M50.579-442.2l-.542,1.14H50.8Zm.219-.677.022.06q.052.179.574,3.022l.008.044-.024.089-.145.09-.028,0-.135-.12-.194-1h-1l-.482,1.008-.015.033-.152.086-.095-.029-.08-.147.011-.052c.03-.07.08-.18.149-.331q1.051-2.3,1.258-2.711a.19.19,0,0,1,.169-.123l.16.087" transform="translate(-18.089 537.574)" fill="#fafaf9"/><path d="M54.706-441.139q.172.477.266.736.227.629.227.663l-.028.089-.147.081a.161.161,0,0,1-.146-.119l-.027-.074q-.12-.275-.394-1.036l-.832,1.136-.155.093-.091-.024-.083-.146,0-.037.087-.142q.419-.542.924-1.288-.053-.146-.1-.278-.469-1.257-.469-1.3l.022-.09.142-.087a.177.177,0,0,1,.164.1l.49,1.323.981-1.335.156-.083.08.02.085.156-.017.081-1.137,1.564" transform="translate(-19.655 537.574)" fill="#fafaf9"/><path d="M59.819-442.943l.081.019.094.151q-.361,2.852-.4,3.081a1.874,1.874,0,0,1-.315.8,1.143,1.143,0,0,1-.976.48,1.151,1.151,0,0,1-.471-.125,1.044,1.044,0,0,1-.518-.454l-.02-.086.024-.088.151-.087.134.072a.943.943,0,0,0,.753.428.743.743,0,0,0,.584-.3,1.621,1.621,0,0,0,.324-.924.868.868,0,0,1-.217.23.876.876,0,0,1-.527.172l-.1-.007a.785.785,0,0,1-.558-.4,1.815,1.815,0,0,1-.245-.98q0-.268.024-.551.042-.446.2-1.267l.015-.05a.161.161,0,0,1,.157-.12l.086.024.087.14a6.335,6.335,0,0,1-.081.671,9.278,9.278,0,0,0-.116,1.025,2.057,2.057,0,0,0,.132.8c.1.238.246.359.436.359l.059-.008a.8.8,0,0,0,.439-.351,2.2,2.2,0,0,0,.364-.811l.223-1.676.022-.074.153-.1" transform="translate(-21.131 537.567)" fill="#fafaf9"/><path d="M95.991-438.45c-.05,0-.09-2.007-.09-4.483s.04-4.483.09-4.483.09,2.006.09,4.483-.04,4.483-.09,4.483" transform="translate(-35.368 539.216)" fill="#f3f2f1"/><path d="M32.753-438.45c-.05,0-.09-2.007-.09-4.483s.04-4.483.09-4.483.09,2.006.09,4.483-.04,4.483-.09,4.483" transform="translate(-12.046 539.216)" fill="#dadbd8"/><path d="M97.347-438.45c-.05,0-.09-2.007-.09-4.483s.04-4.483.09-4.483.09,2.006.09,4.483-.04,4.483-.09,4.483" transform="translate(-35.868 539.216)" fill="#f3f2f1"/><path d="M31.485-438.45c-.05,0-.09-2.007-.09-4.483s.04-4.483.09-4.483.09,2.006.09,4.483-.04,4.483-.09,4.483" transform="translate(-11.578 539.216)" fill="#dadbd8"/><path d="M74.164-445.086l-.008-.016,5.156,4.16.046.036-.057.015-.686.181-4.353,1.142-.009,0-.009,0L70.3-441.242l-1.116-.478-.295-.129-.076-.034-.025-.013.026.009.077.03.3.12,1.122.465,3.954,1.654-.017,0,4.351-1.148.686-.18-.011.051-5.145-4.173-.007-.006v-.009" transform="translate(-25.369 538.363)" fill="#dadbd8"/><path d="M84.5-439.538l.281.265.377-.082L85-439l.195.333-.383-.049-.257.288-.072-.38-.353-.156.339-.185.038-.385" transform="translate(-31.024 536.311)" fill="#dadbd8"/><path d="M76.758-436.94l.192.16.24-.067-.092.231.138.208-.25-.016-.155.2-.061-.242-.234-.087.212-.134.01-.249" transform="translate(-28.226 535.353)" fill="#dadbd8"/><path d="M68.234-440.621l.306.019.189-.242.076.3.288.105-.259.165-.012.305-.236-.2-.295.084.113-.285-.171-.254" transform="translate(-25.164 536.792)" fill="#dadbd8"/><path d="M88.385-445.1l.306.019.189-.242.076.3.288.106-.259.164-.011.307-.236-.2-.295.084.113-.285-.171-.254" transform="translate(-32.595 538.445)" fill="#dadbd8"/><path d="M76.91-445.374l.2.012.121-.154.049.189.184.068-.165.1-.008.2-.151-.124-.188.053.072-.182-.109-.162" transform="translate(-28.364 538.516)" fill="#dadbd8"/><path d="M84.715-444.822c0,.02-1.669-.035-3.725-.123s-3.723-.176-3.721-.2,1.668.035,3.725.124,3.723.175,3.722.194" transform="translate(-28.496 538.378)" fill="#dadbd8"/><path d="M62.808-449.764H13.335a4.153,4.153,0,0,1,0-4.118H62.808a4.774,4.774,0,0,1,0,4.118" transform="translate(-4.716 541.601)" fill="#dadbd8"/><path d="M56.687-450.517h-26.8v-1.5h26.8v1.5" transform="translate(-11.021 540.913)" fill="#e7e8e5"/><path d="M16.164-449.68a1.45,1.45,0,0,1-.391-.5,3.612,3.612,0,0,1-.452-1.462,3.607,3.607,0,0,1,.19-1.518,1.457,1.457,0,0,1,.3-.559,4.619,4.619,0,0,1-.176.6,4.244,4.244,0,0,0-.132,1.464,4.253,4.253,0,0,0,.386,1.419,4.741,4.741,0,0,1,.278.556" transform="translate(-5.645 541.54)" fill="#dadbd8"/><path d="M17.86-449.68a1.445,1.445,0,0,1-.391-.5,3.612,3.612,0,0,1-.451-1.462,3.6,3.6,0,0,1,.189-1.518,1.456,1.456,0,0,1,.3-.559,4.729,4.729,0,0,1-.176.6,4.252,4.252,0,0,0-.132,1.464,4.249,4.249,0,0,0,.385,1.419,4.685,4.685,0,0,1,.278.556" transform="translate(-6.271 541.54)" fill="#dadbd8"/><path d="M88.859-449.829a8.469,8.469,0,0,0,.348-2.013,8.441,8.441,0,0,0-.325-2.017,3.591,3.591,0,0,1,.5,2.018,3.6,3.6,0,0,1-.528,2.012" transform="translate(-32.768 541.593)" fill="#f3f2f1"/><path d="M87.4-449.794c-.054-.013.154-.881.148-1.972s-.207-1.959-.154-1.972a4.808,4.808,0,0,1,.334,1.972,4.8,4.8,0,0,1-.328,1.972" transform="translate(-32.225 541.548)" fill="#f3f2f1"/><path d="M146.661-525.852l-17.615.094-.1-18.686,17.616-.094.1,18.686" transform="translate(-47.554 575.034)" fill="#e7e8e5"/><path d="M174.437-526l-17.616.093-.1-18.686,17.616-.094.1,18.687" transform="translate(-57.797 575.089)" fill="#f3f2f1"/><path d="M128.9-536.541c11.706.1,23.443.029,35.148-.162a.187.187,0,0,0,0-.374c-11.706-.065-23.442-.008-35.147.215a.161.161,0,0,0,0,.322" transform="translate(-47.479 572.292)" fill="#dadbd8"/><path d="M143.633-500.2l-32.005.172-.081-15.228,32-.172.082,15.228" transform="translate(-41.137 564.299)" fill="#e7e8e5"/><path d="M194.1-500.471l-32,.171-.081-15.227,32-.172.081,15.228" transform="translate(-59.748 564.398)" fill="#f3f2f1"/><path d="M111.491-508.884c21.262.241,42.6.024,63.858-.316a.187.187,0,0,0,0-.374c-21.262-.112-42.6-.1-63.858.369a.161.161,0,0,0,0,.322" transform="translate(-41.059 562.161)" fill="#dadbd8"/><path d="M97.865-363.65l-32,.172-.081-15.229,32-.171.082,15.228" transform="translate(-24.259 513.94)" fill="#e7e8e5"/><path d="M148.329-363.92l-32.005.172-.082-15.228,32-.172.082,15.228" transform="translate(-42.869 514.04)" fill="#f3f2f1"/><path d="M65.723-372.334c21.262.241,42.6.024,63.858-.316a.187.187,0,0,0,0-.375c-21.263-.112-42.6-.1-63.857.369a.161.161,0,0,0,0,.322" transform="translate(-24.181 511.803)" fill="#dadbd8"/><path d="M43.924-514.439l-8.073.043-.215-40.172,8.073-.043.215,40.172" transform="translate(-13.142 578.749)" fill="#dadbd8"/><path d="M56.486-523.094l-8.073.044-.3-55.251,8.074-.043.3,55.25" transform="translate(-17.745 587.501)" fill="#e7e8e5"/><path d="M73.8-517.276l-12.544.068-.24-44.775,12.544-.067.24,44.774" transform="translate(-22.503 581.492)" fill="#f3f2f1"/><path d="M73.429-548.511a45.39,45.39,0,0,1-6.272.217,45.387,45.387,0,0,1-6.273-.217,45.417,45.417,0,0,1,6.273-.217,45.419,45.419,0,0,1,6.272.217" transform="translate(-22.453 576.579)" fill="#dadbd8"/><path d="M73.429-551.491a45.419,45.419,0,0,1-6.272.217,45.417,45.417,0,0,1-6.273-.217,45.549,45.549,0,0,1,6.273-.217,45.551,45.551,0,0,1,6.272.217" transform="translate(-22.453 577.678)" fill="#dadbd8"/><path d="M73.429-501.915a45.4,45.4,0,0,1-6.272.217,45.393,45.393,0,0,1-6.273-.217,45.578,45.578,0,0,1,6.273-.217,45.575,45.575,0,0,1,6.272.217" transform="translate(-22.453 559.395)" fill="#dadbd8"/><path d="M73.429-504.895a45.322,45.322,0,0,1-6.272.218,45.308,45.308,0,0,1-6.273-.218,45.569,45.569,0,0,1,6.273-.217,45.566,45.566,0,0,1,6.272.217" transform="translate(-22.453 560.494)" fill="#dadbd8"/><path d="M71.014-523.058c-.12,0-.217-4.518-.217-10.089s.1-10.088.217-10.088.217,4.516.217,10.088-.1,10.089-.217,10.089" transform="translate(-26.109 574.554)" fill="#dadbd8"/><path d="M94.629-510.834H80.974v-33.8H94.629v33.8" transform="translate(-29.862 575.068)" fill="#e7e8e5"/><path d="M55.288-564.756a2.32,2.32,0,0,1-2.321,2.32,2.32,2.32,0,0,1-2.32-2.32,2.32,2.32,0,0,1,2.32-2.32,2.32,2.32,0,0,1,2.321,2.32" transform="translate(-18.678 583.346)" fill="#dadbd8"/><path d="M54.622-520.421H53.187v-32.868h1.434v32.868" transform="translate(-19.615 578.261)" fill="#dadbd8"/><path d="M142.14-412.811H0v-4.86H142.14v4.86" transform="translate(0 528.247)" fill="#dadbd8"/><path d="M142.14-485.883H0v-4.861H142.14v4.861" transform="translate(0 555.195)" fill="#dadbd8"/><path d="M159.089-349.853H45.958v-4.588h113.13v4.588" transform="translate(-16.949 504.928)" fill="#dadbd8"/><path d="M109.425-438.667H104v-45.881h5.421v45.881" transform="translate(-38.356 552.91)" fill="#dadbd8"/><path d="M51.427-373.189H46.006v-44.482h5.421v44.482" transform="translate(-16.967 528.247)" fill="#dadbd8"/><path d="M146.822-450.719l-3.332,4.79s7.5,2.083,7.5,8.747-4.582,7.913-9.579,7.913-9.788-1.458-9.58-8.122,6.456-9.163,6.456-9.163l-3.123-4.165h11.661" transform="translate(-48.615 540.434)" fill="#f3f2f1"/><path d="M275.222-109.682H425.686v-69.392H275.222Z" transform="translate(-101.499 440.254)" fill="#f3f2f1"/><path d="M281.614-111.755H423.181v-60.6H281.614Zm142.5.936H280.678V-173.29H424.116v62.471" transform="translate(-103.511 438.121)" fill="#dadbd8"/><path d="M550.353-109.682H513.6v-69.393h36.757v69.393" transform="translate(-189.41 440.254)" fill="#dadbd8"/><path d="M281.313-142.882h142.5a.189.189,0,0,0,0-.378h-142.5a.189.189,0,0,0,0,.378" transform="translate(-103.678 427.046)" fill="#dadbd8"/><path d="M394.689-154.082a156.149,156.149,0,0,0,.048-18.849.192.192,0,0,0-.384,0,156.136,156.136,0,0,0,.049,18.849.144.144,0,0,0,.287,0" transform="translate(-145.338 438.057)" fill="#dadbd8"/><path d="M453.536-159.026a1.942,1.942,0,0,1-1.942,1.942,1.941,1.941,0,0,1-1.941-1.942,1.942,1.942,0,0,1,1.941-1.942,1.942,1.942,0,0,1,1.942,1.942" transform="translate(-165.828 433.577)" fill="#dadbd8"/><path d="M335.056-159.026a1.942,1.942,0,0,1-1.942,1.942,1.942,1.942,0,0,1-1.942-1.942,1.942,1.942,0,0,1,1.942-1.942,1.942,1.942,0,0,1,1.942,1.942" transform="translate(-122.133 433.577)" fill="#dadbd8"/><path d="M395.107-124.939A1.943,1.943,0,0,1,393.165-123a1.942,1.942,0,0,1-1.942-1.942,1.942,1.942,0,0,1,1.942-1.942,1.942,1.942,0,0,1,1.942,1.942" transform="translate(-144.28 421.006)" fill="#dadbd8"/><path d="M299.195-69.138l-7.746,43.565h4.358l14.283-43.565H299.195" transform="translate(-107.484 399.711)" fill="#dadbd8"/><path d="M490.366-69.138,496.845-25.5h-4.358L479.472-69.138h10.894" transform="translate(-176.825 399.711)" fill="#dadbd8"/><path d="M536.447-69.138l7.34,43.641H539.43L525.553-69.138h10.894" transform="translate(-193.819 399.711)" fill="#dadbd8"/><path d="M394.9-93.826a1.94,1.94,0,0,1-1.941,1.941,1.941,1.941,0,0,1-1.942-1.941,1.941,1.941,0,0,1,1.942-1.942,1.941,1.941,0,0,1,1.941,1.942" transform="translate(-144.204 409.532)" fill="#dadbd8"/><path d="M281.313-108.839h142.5a.189.189,0,0,0,0-.378h-142.5a.189.189,0,0,0,0,.378" transform="translate(-103.678 414.492)" fill="#dadbd8"/><path d="M369.551-221.554l-.049-9.261,45.492-.247.05,9.261-45.493.247" transform="translate(-136.269 459.427)" fill="#dadbd8"/><path d="M369.937-187.518l-.077-14.39,50.7-.275.077,14.391-50.7.274" transform="translate(-136.401 448.777)" fill="#f3f2f1"/><path d="M434.69-187.946a52.94,52.94,0,0,1-.246-7.195,52.938,52.938,0,0,1,.246-7.2,52.5,52.5,0,0,1,.247,7.2,52.5,52.5,0,0,1-.247,7.195" transform="translate(-160.219 448.833)" fill="#dadbd8"/><path d="M438.066-187.946a52.672,52.672,0,0,1-.247-7.195,52.67,52.67,0,0,1,.247-7.2,52.926,52.926,0,0,1,.246,7.2,52.928,52.928,0,0,1-.246,7.195" transform="translate(-161.464 448.833)" fill="#dadbd8"/><path d="M381.923-187.946a52.681,52.681,0,0,1-.247-7.195,52.679,52.679,0,0,1,.247-7.2,52.926,52.926,0,0,1,.246,7.2,52.928,52.928,0,0,1-.246,7.195" transform="translate(-140.759 448.833)" fill="#dadbd8"/><path d="M385.3-187.946a52.928,52.928,0,0,1-.246-7.195,52.926,52.926,0,0,1,.246-7.2,52.518,52.518,0,0,1,.247,7.2,52.52,52.52,0,0,1-.247,7.195" transform="translate(-142.003 448.833)" fill="#dadbd8"/><path d="M392.8-190.716c0-.138,5.115-.25,11.425-.25s11.425.112,11.425.25-5.114.249-11.425.249-11.425-.112-11.425-.249" transform="translate(-144.863 444.64)" fill="#dadbd8"/><path d="M381.323-207.387l-.049-9.26,62.569-.34.049,9.261-62.569.339" transform="translate(-140.61 454.236)" fill="#e7e8e5"/><path d="M464.556-207.628a2.975,2.975,0,0,1-2.956-2.994,2.976,2.976,0,0,1,2.956-3,2.976,2.976,0,0,1,2.957,3,2.975,2.975,0,0,1-2.957,2.994" transform="translate(-170.234 452.994)" fill="#dadbd8"/><path d="M387.047-208.489v-1.851H428.93v1.851H387.047" transform="translate(-142.739 451.785)" fill="#dadbd8"/><path d="M474.464-355.242H403.175v-74.313h71.289v74.313" transform="translate(-148.687 532.629)" fill="#dadbd8"/><path d="M466.816-355.242H395.527v-74.313h71.289v74.313" transform="translate(-145.867 532.629)" fill="#fafaf9"/><path d="M395.536-355.276h71.246v-74.27H395.536Zm71.289.044H395.492V-429.59h71.333v74.357" transform="translate(-145.854 532.642)" fill="#dadbd8"/><path d="M462.832-359.395H410.71v-54.334h52.123v54.334" transform="translate(-151.466 526.793)" fill="#fff"/><path d="M405.151-327.08a8.536,8.536,0,0,1-1.287,1.5c-.832.879-2,2.067-3.313,3.359s-2.516,2.442-3.405,3.26a8.364,8.364,0,0,1-1.506,1.255,8.232,8.232,0,0,1,1.278-1.49c.833-.878,2.006-2.07,3.322-3.365s2.522-2.449,3.41-3.265a8.155,8.155,0,0,1,1.5-1.249" transform="translate(-145.907 494.839)" fill="#dadbd8"/><path d="M493.284-327.29a8.483,8.483,0,0,1,1.5,1.286c.878.832,2.067,2,3.358,3.313s2.442,2.516,3.26,3.405a8.248,8.248,0,0,1,1.255,1.506,8.327,8.327,0,0,1-1.489-1.279c-.879-.833-2.07-2.006-3.366-3.321s-2.449-2.522-3.265-3.412a8.2,8.2,0,0,1-1.249-1.5" transform="translate(-181.917 494.916)" fill="#dadbd8"/><path d="M493.057-418.975a8.562,8.562,0,0,1,1.288-1.5c.831-.879,2-2.068,3.313-3.359s2.516-2.442,3.405-3.26a8.3,8.3,0,0,1,1.507-1.255,8.31,8.31,0,0,1-1.279,1.49c-.833.878-2.006,2.07-3.321,3.366s-2.523,2.447-3.411,3.265a8.139,8.139,0,0,1-1.5,1.248" transform="translate(-181.834 532.184)" fill="#dadbd8"/><path d="M405.008-418.847a8.5,8.5,0,0,1-1.5-1.286c-.879-.832-2.067-2-3.359-3.313s-2.442-2.516-3.26-3.405a8.218,8.218,0,0,1-1.254-1.507,8.332,8.332,0,0,1,1.489,1.279c.878.832,2.07,2.006,3.365,3.321s2.45,2.523,3.265,3.412a8.151,8.151,0,0,1,1.249,1.5" transform="translate(-145.907 532.189)" fill="#dadbd8"/><path d="M462.554-359.53s-.007-.093-.01-.264-.007-.435-.012-.758c-.006-.681-.013-1.66-.024-2.933-.013-2.574-.029-6.319-.053-11.074-.024-9.516-.06-23.073-.1-39.3l.2.2-51.974.03h-.005l.231-.231c-.013,19.942-.023,38.6-.033,54.334l-.2-.2,37.637.1,10.572.051,2.8.023.723.012a2.1,2.1,0,0,1,.251.011,1.668,1.668,0,0,1-.229.011l-.7.012-2.759.022-10.528.052-37.763.1h-.2v-.2c-.009-15.735-.02-34.392-.033-54.333v-.231h.237l51.974.03h.2v.2c-.042,16.285-.077,29.886-.1,39.433-.024,4.736-.041,8.465-.053,11.028-.011,1.255-.018,2.222-.024,2.894-.005.314-.009.556-.012.736a1.572,1.572,0,0,1-.012.242" transform="translate(-151.331 526.928)" fill="#dadbd8"/><path d="M455.612-367.074H438.219v-17.393h17.393v17.393" transform="translate(-161.611 516.001)" fill="#e7e8e5"/><path d="M105.509-68.666v7.012h51.03v-7.012h-51.03" transform="translate(-38.911 399.537)" fill="#17282f"/><path d="M105.545-61.792H156.4V-68.63H105.545Zm51.029.175h-51.2V-68.8h51.2v7.187" transform="translate(-38.86 399.588)" fill="#17282f"/><path d="M113-61.255l7.345,36.236h27.177l7.1-33.9L113-61.255" transform="translate(-41.675 396.803)" fill="#17282f"/><path d="M113-9.278l3.917,5.386h33.034l4.672-5.386H113" transform="translate(-41.675 377.635)" fill="#33535f"/><path d="M142.71-103.39c-.1,0-.229-16.787-.287-37.49s-.024-37.5.077-37.5.229,16.783.287,37.494.024,37.49-.077,37.491" transform="translate(-52.514 439.997)" fill="#17282f"/><path d="M158.158-126.135a1.771,1.771,0,0,1-.137.391l-.455,1.087c-.1.24-.213.5-.333.783q-.158.444-.34.953l-.393,1.093c-.136.387-.244.81-.377,1.246a50.835,50.835,0,0,0-1.427,6.248,75.994,75.994,0,0,0-.79,7.813,105.332,105.332,0,0,0,.4,14.272c.164,1.822.33,3.294.451,4.311.052.477.094.865.128,1.172a1.8,1.8,0,0,1,.021.413,1.779,1.779,0,0,1-.093-.4c-.051-.306-.116-.691-.2-1.164-.164-1.012-.369-2.482-.566-4.3a94.023,94.023,0,0,1-.511-14.314,71.45,71.45,0,0,1,.823-7.85,47.348,47.348,0,0,1,1.512-6.269c.142-.436.258-.858.4-1.246l.423-1.09.369-.947c.126-.286.254-.541.364-.773l.518-1.062a1.736,1.736,0,0,1,.2-.359" transform="translate(-56.594 420.731)" fill="#17282f"/><path d="M154.965-147.644a3.2,3.2,0,0,1-.162.554q-.2.582-.531,1.56-.177.513-.39,1.124-.191.629-.411,1.357c-.3.971-.645,2.075-.952,3.317l-.512,1.941q-.231,1.023-.479,2.123c-.356,1.461-.614,3.048-.943,4.707-.562,3.334-1.058,7.02-1.4,10.908-.322,3.891-.463,7.609-.513,10.991-.01,3.383.033,6.431.172,8.987.045,1.279.127,2.434.193,3.448s.122,1.889.188,2.6c.052.687.093,1.234.125,1.644a3.447,3.447,0,0,1,.019.576,3.371,3.371,0,0,1-.092-.568c-.049-.408-.113-.953-.194-1.64-.086-.71-.171-1.584-.249-2.6s-.185-2.17-.247-3.45c-.172-2.558-.242-5.612-.25-9,.031-3.39.162-7.118.485-11.019.343-3.9.85-7.6,1.432-10.936.338-1.661.608-3.252.978-4.715q.259-1.1.5-2.123.28-1.011.536-1.941c.324-1.241.689-2.343,1.007-3.312q.236-.723.44-1.349.229-.608.421-1.117l.6-1.539a3.526,3.526,0,0,1,.231-.528" transform="translate(-54.706 428.663)" fill="#17282f"/><path d="M132.1-99.094a.809.809,0,0,1-.029-.2c-.013-.15-.029-.34-.048-.577-.036-.535-.087-1.279-.151-2.223-.122-1.958-.3-4.745-.512-8.177-.443-6.9-1.083-16.44-2.245-26.928-.594-5.243-1.282-10.223-2-14.738-.381-2.254-.726-4.4-1.117-6.394-.359-2-.746-3.854-1.1-5.546-.335-1.7-.709-3.214-1.01-4.555s-.581-2.489-.82-3.426c-.225-.919-.4-1.643-.53-2.164-.053-.231-.1-.417-.129-.565a.819.819,0,0,1-.032-.2.774.774,0,0,1,.068.186l.164.556c.143.516.343,1.235.6,2.147.26.932.566,2.075.881,3.414s.712,2.854,1.064,4.549c.372,1.69.774,3.543,1.146,5.545.405,1.995.762,4.14,1.152,6.4.734,4.518,1.434,9.5,2.028,14.752,1.162,10.5,1.763,20.045,2.141,26.954.187,3.455.317,6.252.4,8.185.035.946.062,1.691.082,2.227.006.237.009.428.013.579a.762.762,0,0,1-.008.2" transform="translate(-45.132 438.67)" fill="#17282f"/><path d="M132.858-168.043c-.222-2.378-2.625-4.173-5.013-4.2a7.894,7.894,0,0,0-6.076,3.3,19,19,0,0,0-2.925,6.494,44.1,44.1,0,0,0-1.8,17.277,26.148,26.148,0,0,0,7.19,15.578,2.945,2.945,0,0,0,2.477,1.132,2.983,2.983,0,0,0,1.306-.807,38.666,38.666,0,0,0,12.549-29.4A11.945,11.945,0,0,0,138.993-165c-1.219-1.835-4.06-3.781-6.135-3.045" transform="translate(-43.077 437.734)" fill="#33535f"/><path d="M124.389-193.732l-30.339-17.9a1.411,1.411,0,0,1-.739-.745c-.121-.449.216-.882.54-1.216a20.911,20.911,0,0,1,16.213-6.369,18.527,18.527,0,0,1,14.658,9.116c2.927,5.231,3.025,12.149-.333,17.117" transform="translate(-34.403 455.352)" fill="#33535f"/><path d="M101.424-215.856a1.721,1.721,0,0,1,.4-.049c.262-.013.648-.061,1.147-.056a22.786,22.786,0,0,1,4.21.335,24.7,24.7,0,0,1,5.995,1.82,24.816,24.816,0,0,1,6.435,4.175,24.842,24.842,0,0,1,4.8,5.988,24.674,24.674,0,0,1,2.41,5.784,22.769,22.769,0,0,1,.752,4.155,8.667,8.667,0,0,1,.046.884,1.486,1.486,0,0,1-.234.662,5.105,5.105,0,0,0,.047-1.531,25.929,25.929,0,0,0-.858-4.1,25.411,25.411,0,0,0-7.2-11.573,25.41,25.41,0,0,0-12.232-6.012,25.934,25.934,0,0,0-4.165-.446c-.991-.022-1.541-.005-1.543-.037" transform="translate(-37.404 453.859)" fill="#17282f"/><path d="M129.673-197.957a7.245,7.245,0,0,1-1.533.7c-.966.381-2.317.869-3.828,1.348s-2.9.861-3.9,1.108a7.245,7.245,0,0,1-1.655.316,8.4,8.4,0,0,1,1.586-.563l3.864-1.206,3.852-1.245a8.234,8.234,0,0,1,1.62-.454" transform="translate(-43.795 447.221)" fill="#17282f"/><path d="M128.452-218.283a12.851,12.851,0,0,1,.359,3.385,12.862,12.862,0,0,1-.187,3.4,21.283,21.283,0,0,1-.176-3.39,21.238,21.238,0,0,1,0-3.393" transform="translate(-47.35 454.714)" fill="#17282f"/><path d="M94.076-209.461a13.664,13.664,0,0,1,2.2-.776c1.379-.425,3.3-.962,5.438-1.479s4.095-.911,5.515-1.16a13.754,13.754,0,0,1,2.315-.313,16.26,16.26,0,0,1-2.265.566c-1.405.313-3.345.747-5.48,1.261s-4.059,1.012-5.453,1.373a16.129,16.129,0,0,1-2.274.529" transform="translate(-34.694 452.839)" fill="#17282f"/><path d="M102.338-175.087c-2.609-1.979-5.368-2.368-8.64-2.239a26.416,26.416,0,0,0-9.457,2.44c-5.116,2.24-9.925,5.544-12.981,10.218s-4.12,10.862-1.832,15.957a2.275,2.275,0,0,0,1.036,1.257,2.479,2.479,0,0,0,1.712-.13c5.818-1.9,11.678-3.815,17.028-6.787s10.219-7.1,13.09-12.51a10.754,10.754,0,0,0,1.378-4.152,5.16,5.16,0,0,0-1.335-4.054" transform="translate(-25.15 439.618)" fill="#33535f"/><path d="M103.564-174.741a2.072,2.072,0,0,1-.419.171l-1.219.419-.883.295c-.32.115-.661.258-1.032.4-.736.3-1.591.6-2.491,1.032l-1.426.651c-.495.228-.989.508-1.512.776-1.055.518-2.122,1.179-3.258,1.851a56.34,56.34,0,0,0-6.889,5.109,56.314,56.314,0,0,0-5.947,6.184c-.81,1.041-1.6,2.015-2.251,3-.331.486-.672.939-.962,1.4l-.826,1.332c-.548.837-.951,1.647-1.341,2.34-.189.349-.375.669-.53.971l-.4.838L71.6-146.82a2.059,2.059,0,0,1-.222.394,2.063,2.063,0,0,1,.155-.423l.511-1.186.377-.855c.146-.309.324-.635.5-.99.374-.7.764-1.526,1.3-2.376l.811-1.352c.285-.468.622-.929.95-1.421.642-.993,1.43-1.98,2.239-3.035A54.224,54.224,0,0,1,84.2-164.31a54.194,54.194,0,0,1,6.953-5.121c1.149-.668,2.228-1.324,3.3-1.834.529-.262,1.029-.538,1.53-.762l1.445-.632c.911-.423,1.777-.706,2.522-.987.375-.134.721-.268,1.046-.375l.9-.265,1.242-.355a2.269,2.269,0,0,1,.439-.1" transform="translate(-26.325 438.657)" fill="#17282f"/><path d="M82.6-157.256a61.482,61.482,0,0,1-6.347,2.044,61.423,61.423,0,0,1-6.45,1.7,61.435,61.435,0,0,1,6.348-2.045,61.165,61.165,0,0,1,6.449-1.7" transform="translate(-25.742 432.211)" fill="#17282f"/><path d="M89.563-142.947a10.188,10.188,0,0,1-.139-1.977c-.034-1.224-.038-2.913.013-4.779s.152-3.554.254-4.773a10.128,10.128,0,0,1,.25-1.967,11.386,11.386,0,0,1,.007,1.982c-.041,1.339-.092,2.967-.147,4.768s-.086,3.428-.119,4.769a11.291,11.291,0,0,1-.118,1.977" transform="translate(-32.969 431.908)" fill="#17282f"/><path d="M108.029-153.724c-.1.007-.419-3.428-.712-7.67s-.45-7.69-.35-7.7.419,3.426.713,7.67.45,7.688.35,7.695" transform="translate(-39.437 436.572)" fill="#17282f"/><path d="M85.007-169.654a11.184,11.184,0,0,1,2.034-.061c1.255.008,2.986.045,4.9.109s3.643.141,4.9.215a11.366,11.366,0,0,1,2.025.2,11.214,11.214,0,0,1-2.031.061c-1.255-.008-2.987-.045-4.9-.109s-3.645-.141-4.9-.215a11.184,11.184,0,0,1-2.023-.2" transform="translate(-31.35 436.804)" fill="#17282f"/><path d="M130.553-126.295a1.743,1.743,0,0,1-.043-.406c-.014-.305-.032-.692-.054-1.167-.045-1.014-.056-2.483-.017-4.3s.156-3.973.375-6.364c.236-2.388.578-5.008,1.068-7.736s1.106-5.3,1.727-7.624c.639-2.318,1.284-4.386,1.893-6.1s1.131-3.09,1.532-4.026l.462-1.076a1.731,1.731,0,0,1,.183-.367,1.743,1.743,0,0,1-.115.393c-.1.288-.237.651-.4,1.1-.359.95-.849,2.335-1.42,4.056s-1.194,3.789-1.813,6.1c-.6,2.319-1.192,4.886-1.693,7.6s-.839,5.326-1.092,7.706c-.236,2.381-.386,4.531-.451,6.341s-.1,3.273-.1,4.287c-.006.475-.011.862-.015,1.166a1.739,1.739,0,0,1-.03.408" transform="translate(-48.096 435.232)" fill="#17282f"/><path d="M127.8-134.884a8.346,8.346,0,0,1-1.21,1.328c-.785.783-1.9,1.834-3.171,2.949s-2.46,2.082-3.338,2.758a8.372,8.372,0,0,1-1.475,1.026,9.3,9.3,0,0,1,1.312-1.225l3.262-2.833,3.235-2.863a9.321,9.321,0,0,1,1.386-1.14" transform="translate(-43.738 423.958)" fill="#17282f"/><path d="M143.372-129.828a14.313,14.313,0,0,1-1.289-1.785l-3-4.375c-1.163-1.645-2.214-3.134-3.06-4.332a14.162,14.162,0,0,1-1.225-1.83,12.376,12.376,0,0,1,1.431,1.676c.842,1.068,1.968,2.574,3.154,4.279s2.206,3.282,2.915,4.443a12.417,12.417,0,0,1,1.073,1.925" transform="translate(-49.712 426.637)" fill="#17282f"/><path d="M131.973-161.17c.054.085-3.136,2.232-7.124,4.8s-7.267,4.575-7.321,4.491,3.135-2.232,7.124-4.8,7.267-4.575,7.321-4.491" transform="translate(-43.343 433.652)" fill="#17282f"/><path d="M149.172-151.152a59.292,59.292,0,0,1-4.824-4.458,59.085,59.085,0,0,1-4.572-4.719,59.481,59.481,0,0,1,4.825,4.459,59.582,59.582,0,0,1,4.571,4.718" transform="translate(-51.547 433.342)" fill="#17282f"/><path d="M158.246-157.806l2.739-.226a13.554,13.554,0,0,0,5.529-1.692,21.834,21.834,0,0,1,2.578-1.3c3.385-1.359,7.163-1.116,10.806-1.3a44.752,44.752,0,0,0,17.192-4.4,1.666,1.666,0,0,0,.748-.68c.563-1.025-.481-1.937-1.381-2.491-4.614-2.843-9.309-5.721-14.541-7.133s-11.17-1.172-15.635,1.9c-5.24,3.606-7.149,11.013-8.035,17.313" transform="translate(-58.36 439.802)" fill="#33535f"/><path d="M197.935-166.215a2.735,2.735,0,0,1-.465-.216l-1.3-.681c-1.125-.592-2.746-1.465-4.794-2.447a44.83,44.83,0,0,0-7.421-2.86,24.513,24.513,0,0,0-9.618-.779,16.431,16.431,0,0,0-8.768,3.766,19.49,19.49,0,0,0-4.566,6.412,53.726,53.726,0,0,0-1.987,4.992c-.2.573-.364,1.032-.487,1.381a2.664,2.664,0,0,1-.191.475,2.7,2.7,0,0,1,.122-.5l.423-1.4a45.557,45.557,0,0,1,1.888-5.056,19.413,19.413,0,0,1,4.577-6.556,16.619,16.619,0,0,1,8.942-3.875,24.465,24.465,0,0,1,9.755.817,43.092,43.092,0,0,1,7.443,2.952c2.042,1.015,3.645,1.925,4.75,2.555l1.265.74a2.573,2.573,0,0,1,.429.28" transform="translate(-58.394 438.286)" fill="#17282f"/><path d="M201.422-162.447c-.056.084-3.638-2.233-8-5.173s-7.852-5.393-7.8-5.476,3.637,2.233,8,5.174,7.851,5.392,7.795,5.476" transform="translate(-68.457 438.051)" fill="#17282f"/><path d="M201.521-173.41a8.715,8.715,0,0,1-2.607.469,8.871,8.871,0,0,1-2.659-.035,17.2,17.2,0,0,1,2.628-.268,17.368,17.368,0,0,1,2.638-.166" transform="translate(-72.377 438.175)" fill="#17282f"/><path d="M178.2-176.632a6.929,6.929,0,0,1-1.175,1.836,7.842,7.842,0,0,1-1.488,1.691,6.93,6.93,0,0,1,1.175-1.836,7.891,7.891,0,0,1,1.488-1.691" transform="translate(-64.732 439.354)" fill="#17282f"/><path d="M178.477-157.383a9.42,9.42,0,0,1-1.724-.934c-1.034-.629-2.433-1.548-3.927-2.633s-2.811-2.111-3.757-2.862a10.723,10.723,0,0,1-1.488-1.274,10.222,10.222,0,0,1,1.642,1.069l3.817,2.773c1.489,1.081,2.857,2.03,3.853,2.712a11.6,11.6,0,0,1,1.584,1.15" transform="translate(-61.802 435.097)" fill="#17282f"/><path d="M160.886-128.388c-2.612-.69-5.725,1.85-6.264,4.5s.454,5.354,1.618,7.793a39.763,39.763,0,0,0,10.8,14.132,26.717,26.717,0,0,0,16.516,6.079c-1.1-5.129.292-10.487-.324-15.7a20.6,20.6,0,0,0-5.911-12.115,20.6,20.6,0,0,0-12.173-5.79c-1.666-.18-3.6-.441-4.261,1.1" transform="translate(-56.968 422.017)" fill="#33535f"/><path d="M187.3-95.162a1.642,1.642,0,0,1-.372-.173,6.789,6.789,0,0,1-.977-.656,10.165,10.165,0,0,1-2.579-3.45c-.417-.809-.882-1.687-1.337-2.658s-.911-2.015-1.4-3.106a30.129,30.129,0,0,0-1.727-3.32,25.986,25.986,0,0,0-2.377-3.233c-1.788-2.1-3.706-3.917-5.37-5.653a36.937,36.937,0,0,1-4.094-4.913,18.053,18.053,0,0,1-2-3.821,11.594,11.594,0,0,1-.348-1.12,1.66,1.66,0,0,1-.082-.4c.034-.01.182.534.563,1.47a19.674,19.674,0,0,0,2.081,3.727,38.774,38.774,0,0,0,4.122,4.825c1.671,1.717,3.6,3.53,5.407,5.651a25.873,25.873,0,0,1,2.4,3.282,29.459,29.459,0,0,1,1.728,3.367c.483,1.1.943,2.139,1.374,3.119s.891,1.854,1.292,2.666a10.557,10.557,0,0,0,2.442,3.459c.763.658,1.279.9,1.258.937" transform="translate(-60.714 421.295)" fill="#17282f"/><path d="M179.143-89.708a7.826,7.826,0,0,1,.24-1.759c.2-1.076.539-2.552.992-4.161s.938-3.044,1.326-4.068a7.885,7.885,0,0,1,.713-1.624,9.423,9.423,0,0,1-.47,1.708c-.323,1.042-.767,2.481-1.219,4.083s-.824,3.059-1.092,4.117a9.541,9.541,0,0,1-.491,1.7" transform="translate(-66.061 411.579)" fill="#17282f"/><path d="M192.436-104.528a10.825,10.825,0,0,1-1.84-.423c-1.125-.295-2.68-.7-4.408-1.086s-3.307-.693-4.45-.909a10.69,10.69,0,0,1-1.843-.406,8.959,8.959,0,0,1,1.884.152c1.157.153,2.75.418,4.488.808s3.29.836,4.4,1.194a8.866,8.866,0,0,1,1.768.67" transform="translate(-66.344 413.81)" fill="#17282f"/><path d="M163.789-104.978a10.641,10.641,0,0,1,.282-2.034c.23-1.246.6-2.961,1.084-4.833s1.008-3.548,1.417-4.748a10.707,10.707,0,0,1,.747-1.913,12.358,12.358,0,0,1-.5,1.989c-.345,1.218-.823,2.9-1.31,4.764s-.89,3.564-1.184,4.8a12.443,12.443,0,0,1-.534,1.98" transform="translate(-60.4 417.918)" fill="#17282f"/><path d="M181.784-121.162c-.011.1-3.272-.164-7.282-.59a73.011,73.011,0,0,1-7.245-.951c.011-.1,3.271.165,7.283.59s7.254.851,7.244.951" transform="translate(-61.683 419.473)" fill="#17282f"/><path d="M156.573-57.71c0,.1-11.462.182-25.6.182s-25.6-.082-25.6-.182,11.46-.182,25.6-.182,25.6.082,25.6.182" transform="translate(-38.861 395.563)" fill="#33535f"/><path d="M153.7-34.344c0,.1-7.723.183-17.247.183s-17.249-.082-17.249-.183,7.721-.182,17.249-.182,17.247.081,17.247.182" transform="translate(-43.961 386.946)" fill="#33535f"/><path d="M153.575-31c0,.1-7.588.183-16.947.183S119.679-30.9,119.679-31s7.587-.181,16.948-.181,16.947.082,16.947.181" transform="translate(-44.137 385.714)" fill="#33535f"/><path d="M153.483-37.1c0,.1-7.989.182-17.84.182S117.8-37,117.8-37.1s7.986-.182,17.842-.182,17.84.082,17.84.182" transform="translate(-43.444 387.961)" fill="#33535f"/><path d="M377.418-527.6l6.352-11.2a29.81,29.81,0,0,1-4.435-15.684,29.949,29.949,0,0,1,29.949-29.949,29.948,29.948,0,0,1,29.949,29.949,29.948,29.948,0,0,1-29.949,29.948,29.81,29.81,0,0,1-18.328-6.271l.01.013L377.418-527.6" transform="translate(-139.188 589.747)" fill="#fff"/><path d="M377.416-527.7l13.526-3.286-.055.155-.01-.013.019-.138h.12a30.7,30.7,0,0,0,6.138,3.654,29.941,29.941,0,0,0,8.156,2.29,26.809,26.809,0,0,0,4.7.221c.808-.05,1.631-.071,2.46-.143l2.505-.386a30.084,30.084,0,0,0,9.978-3.948,30,30,0,0,0,8.515-7.979,29.535,29.535,0,0,0,4.987-11.441,30.2,30.2,0,0,0-.359-13.162,29.2,29.2,0,0,0-6.344-12.163l-1.208-1.33c-.4-.447-.87-.815-1.3-1.225-.45-.388-.856-.827-1.341-1.171l-1.419-1.061a12.58,12.58,0,0,0-1.469-.973l-1.5-.911-1.571-.763a13.678,13.678,0,0,0-1.586-.706,30.225,30.225,0,0,0-13.26-2.048,29.228,29.228,0,0,0-12.183,3.583,30.145,30.145,0,0,0-9.026,7.679,30.2,30.2,0,0,0-5.078,9.6,32.182,32.182,0,0,0-1.322,9.649,29.77,29.77,0,0,0,4.363,14.77l0,.1-6.436,11.15c.329-.588,2.274-4.076,6.271-11.243l0,.1a29.841,29.841,0,0,1-4.476-14.863,32.4,32.4,0,0,1,1.3-9.748,30.465,30.465,0,0,1,5.108-9.719,30.431,30.431,0,0,1,9.116-7.787,29.572,29.572,0,0,1,12.33-3.645,30.579,30.579,0,0,1,13.435,2.064,13.93,13.93,0,0,1,1.607.714l1.592.773,1.521.923a12.719,12.719,0,0,1,1.489.985l1.439,1.076c.491.348.9.792,1.358,1.185.436.416.916.789,1.319,1.242l1.224,1.347a29.574,29.574,0,0,1,6.425,12.327,30.562,30.562,0,0,1,.354,13.333,29.9,29.9,0,0,1-5.067,11.579A30.308,30.308,0,0,1,425.134-529a30.324,30.324,0,0,1-10.1,3.965l-2.532.383c-.838.07-1.669.089-2.485.136a27.026,27.026,0,0,1-4.744-.24,30.039,30.039,0,0,1-8.217-2.348,30.628,30.628,0,0,1-6.161-3.717l.139-.138.01.013-.018.138-.038.018L377.416-527.7" transform="translate(-139.188 589.839)" fill="#17282f"/><path d="M419.776-548.511h1.95l4.255-5.929v-3.893s3.014-.185,2.659,4.911.029,3.8.029,3.8,6.4.024,6.931.581c.386.4.561,6.76.628,10.207a3.731,3.731,0,0,1-2.644,3.759,2.785,2.785,0,0,1-.688.093c-1.6,0-9.751-1.3-9.751-1.3h-3.368v-12.231" transform="translate(-154.81 580.122)" fill="#f2575d"/><path d="M410.935-544.464l1.2,13.335h3.34V-544.2l-4.538-.268" transform="translate(-151.549 575.007)" fill="#f2575d"/><path d="M245.421-499.1a28.691,28.691,0,0,1-15.716,4.486c-1.762-.023-3.528-.208-5.284-.058a8.029,8.029,0,0,0-4.839,1.878,4.41,4.41,0,0,0-1.24,4.8c.993,2.273,4.208,3.177,4.7,5.609.35,1.751-.954,3.418-2.421,4.435s-3.194,1.692-4.431,2.978a6.214,6.214,0,0,0-1.448,5.956,6.213,6.213,0,0,0,4.468,4.2c1.256.29,2.8.3,3.479,1.392a3.977,3.977,0,0,1,.183,2.633,9.407,9.407,0,0,0,.72,5.543,5.147,5.147,0,0,0,4.518,2.919c.739-.026,1.464-.252,2.2-.238a1.828,1.828,0,0,1,1.777,1.069,3.748,3.748,0,0,1-.072,1.518c-.268,2.484,2.208,4.421,4.6,5.135,4.789,1.427,10.137.05,14.173-2.9a27.322,27.322,0,0,0,8.755-11.932,81.5,81.5,0,0,0,3.921-14.445" transform="translate(-79.104 558.276)" fill="#17282f"/><path d="M311.343-310.592a10.415,10.415,0,0,0-2.367-3.526c-6.336-6.745-15.935-9.966-25.174-9.442s-18.073,4.548-25.269,10.366c-3.834,3.1-8.994,9.089-10.343,13.83,5.622,1.355,14.023-.532,19.323-2.843s10.548-5.112,16.3-5.7c6.667-.679,13.211,1.688,19.78,3.018a12.4,12.4,0,0,0,4.009.322,4.78,4.78,0,0,0,3.416-1.916,4.682,4.682,0,0,0,.325-4.112" transform="translate(-91.53 493.56)" fill="#f2575d"/><path d="M252.488-295.724a18.53,18.53,0,0,1-4.3-.454c.014-.05.029-.1.044-.149,2.993-2.282,12.435-13.033,36.027-17.787a45.144,45.144,0,0,1,8.708-.863,25.338,25.338,0,0,1,6.523.709c11.122,3.145,11.961,9.134,12.1,9.133,0,0,0,0,.007-.005a.608.608,0,0,0,.051-.113,3.992,3.992,0,0,1-.635,1.958,4.78,4.78,0,0,1-3.416,1.916,7.638,7.638,0,0,1-.97.059,15.424,15.424,0,0,1-3.038-.381c-5.772-1.168-11.524-3.138-17.358-3.138a23.851,23.851,0,0,0-2.421.119c-5.752.585-11,3.386-16.3,5.7a40.884,40.884,0,0,1-15.025,3.3" transform="translate(-91.53 490.374)" fill="#cc4341"/><path d="M335.373-193.92l16.051-10.4s15.96,12.821,19.113,11.188l-19.046-31.844L325.818-209.8l9.555,15.878" transform="translate(-120.159 457.182)" fill="#f2575d"/><path d="M354.839-207.623a1.515,1.515,0,0,1,.946-1.787,1.456,1.456,0,0,1,1.779.922,1.6,1.6,0,0,1-1.012,1.888,1.512,1.512,0,0,1-1.745-1.165" transform="translate(-130.844 451.465)" fill="#dadbd8"/><path d="M394.652-174.317a2.82,2.82,0,0,1-1.279-.389,4.753,4.753,0,0,0,1.38.258,1.5,1.5,0,0,0,.7-.144h0a1.2,1.2,0,0,1-.8.275" transform="translate(-145.072 438.643)" fill="#fbfbfa"/><path d="M383.362-192.988a4.753,4.753,0,0,1-1.38-.258,3.184,3.184,0,0,1-.289-.178l-19.206-29.923,2.527-1.63,19.046,31.844a1.5,1.5,0,0,1-.7.144" transform="translate(-133.682 457.182)" fill="#f9acb4"/><path d="M366.129-193.6c.153-.1-.242-.917-.2-1.981.015-1.065.452-1.862.3-1.969-.115-.125-.906.663-.935,1.952s.708,2.118.83,2" transform="translate(-134.719 447.072)" fill="#17282f"/><path d="M371.746-189.332c.172-.054.033-.885.375-1.807.315-.932.946-1.49.848-1.641-.063-.162-1.038.276-1.442,1.43s.069,2.1.22,2.018" transform="translate(-136.955 445.321)" fill="#17282f"/><path d="M378.9-188.108c-.052-.161-.958.088-1.571,1s-.517,1.839-.348,1.827c.18.011.355-.735.87-1.473.5-.75,1.125-1.187,1.049-1.351" transform="translate(-138.981 443.603)" fill="#17282f"/><path d="M359.266-190.165c.1-.15-.539-.735-1-1.65-.485-.9-.6-1.766-.781-1.767-.166-.023-.343.989.222,2.059s1.485,1.507,1.563,1.358" transform="translate(-131.776 445.604)" fill="#17282f"/><path d="M352.639-184.15l-.056-.108,2.5-1.622-2.449,1.73" transform="translate(-130.029 442.764)" fill="#a7a9a8"/><path d="M347.7-193.986l-8.366-16.124,3.568-2.149,7.3,16.651-2.5,1.622" transform="translate(-125.142 452.493)" fill="#cc4341"/><path d="M282.341-315.748c-.659,0-22.247-.473-33.9,7.224l-9.227,5.2.249,9.344s-1.979,3.3-1.539,5.277-.063,10.334-.063,10.334-3.455.22-3.895,6.158c0,0-4.794,1.979-6.9,5.5s-23.66,43.1-24.979,49.476-2.2,17.591,2.638,21.329,15.613,2.419,15.613,2.419,1.538,4.618,10.994,4.838S255.3-199.426,255.3-199.426l43.538-29.685-10.3-22.059-15.209,9.306L289.6-260.775s7.477-12.754,5.278-26.167c-1.633-9.958-12.534-28.806-12.534-28.806" transform="translate(-74.143 490.66)" fill="#17282f"/><path d="M308.558-305.068a2.284,2.284,0,0,1-.512.027l-1.466-.006c-1.272-.011-3.112-.041-5.385-.013s-4.977.109-7.959.427a43.789,43.789,0,0,0-9.514,1.988,65.667,65.667,0,0,0-15.617,8.258l-4.427,3.067-1.207.831a2.309,2.309,0,0,1-.438.266,2.24,2.24,0,0,1,.386-.337l1.159-.9c1.014-.769,2.489-1.873,4.351-3.185a62.25,62.25,0,0,1,15.654-8.418,42.815,42.815,0,0,1,9.61-1.975,77.916,77.916,0,0,1,8-.334c2.278.012,4.12.09,5.391.152l1.464.088a2.239,2.239,0,0,1,.509.061" transform="translate(-96.635 486.831)" fill="#33535f"/><path d="M264.757-294.223a2.482,2.482,0,0,0-.689,1.266,1.515,1.515,0,0,0,.46,1.358,1.667,1.667,0,0,0,1.682.348,1.666,1.666,0,0,0,.98-1.411,1.514,1.514,0,0,0-.6-1.3,2.5,2.5,0,0,0-1.372-.443c-.007-.024.131-.1.412-.128a1.831,1.831,0,0,1,1.141.32,1.806,1.806,0,0,1,.824,1.572,2.032,2.032,0,0,1-1.22,1.8,2.032,2.032,0,0,1-2.123-.463,1.806,1.806,0,0,1-.485-1.708,1.832,1.832,0,0,1,.606-1.018c.221-.177.376-.213.387-.19" transform="translate(-97.255 482.837)" fill="#33535f"/><path d="M276.4-295.76c-.04.038-.347-.186-.774-.626a4.682,4.682,0,0,1-1.25-2.087,4.7,4.7,0,0,1,.2-2.425c.191-.584.368-.92.421-.9s-.009.391-.119.98a5.691,5.691,0,0,0-.077,2.249,5.7,5.7,0,0,0,1.06,1.987c.358.48.586.781.538.826" transform="translate(-101.158 485.515)" fill="#33535f"/><path d="M279.318-297.274c-.037.04-.337-.148-.73-.563a4.961,4.961,0,0,1-1.1-1.937,5.1,5.1,0,0,1-.046-3.1c.153,0,.022,1.4.466,2.978a13,13,0,0,0,1.411,2.627" transform="translate(-102.244 485.913)" fill="#33535f"/><path d="M315.9-308.445c-.068,0-.088-.394-.152-1.012a8.137,8.137,0,0,0-.526-2.316,6.686,6.686,0,0,0-1.314-1.964c-.419-.456-.7-.736-.654-.785s.38.149.869.562a5.367,5.367,0,0,1,1.5,2.018,6.134,6.134,0,0,1,.432,2.473,2.141,2.141,0,0,1-.158,1.023" transform="translate(-115.525 490.209)" fill="#33535f"/><path d="M320.868-308.665c-.063-.006-.074-.392-.068-1.007a8.027,8.027,0,0,0-.191-2.319,10.119,10.119,0,0,0-1.1-2.07c-.323-.525-.506-.866-.456-.9s.319.241.71.723a6.928,6.928,0,0,1,1.262,2.12,5.985,5.985,0,0,1,.081,2.471c-.086.617-.183.99-.241.985" transform="translate(-117.662 490.37)" fill="#33535f"/><path d="M262.96-208.878a4.076,4.076,0,0,1,.393-.982c.294-.63.749-1.544,1.345-2.719,1.193-2.346,2.96-5.721,5.164-9.88,4.409-8.318,10.571-19.767,17.425-32.388,1.717-3.154,3.393-6.235,5.012-9.21a40.509,40.509,0,0,0,3.544-9.019,40.427,40.427,0,0,0,.874-16.322,41.567,41.567,0,0,0-3.1-10.636c-.536-1.2-1-2.109-1.318-2.723l-.367-.7a1.318,1.318,0,0,1-.113-.245,1.127,1.127,0,0,1,.152.222l.406.677c.346.6.834,1.5,1.4,2.695a40.215,40.215,0,0,1,3.255,10.658,40.344,40.344,0,0,1-.79,16.471,40.689,40.689,0,0,1-3.557,9.122l-5,9.214-17.537,32.325L264.85-212.5l-1.416,2.679-.359.7a1.516,1.516,0,0,1-.114.242" transform="translate(-96.976 486.214)" fill="#33535f"/><path d="M312.13-198.588a2.812,2.812,0,0,1-.47.331l-1.4.879-5.157,3.181c-4.353,2.688-10.346,6.434-16.9,10.678s-12.429,8.173-16.684,11.015l-5.045,3.358-1.382.9a2.808,2.808,0,0,1-.5.289,2.816,2.816,0,0,1,.449-.361l1.336-.965,4.966-3.474c4.211-2.908,10.064-6.877,16.62-11.127s12.578-7.952,16.974-10.573c2.2-1.31,3.986-2.357,5.231-3.064l1.437-.807a2.776,2.776,0,0,1,.516-.255" transform="translate(-97.583 447.451)" fill="#33535f"/><path d="M344.683-187.846a4.126,4.126,0,0,1-.4-.874q-.429-.975-1.054-2.388c-.908-2.011-2.2-4.772-3.656-7.813-1.429-3-2.722-5.7-3.716-7.791q-.651-1.4-1.1-2.373a4.113,4.113,0,0,1-.353-.9,4.076,4.076,0,0,1,.506.82c.3.541.719,1.331,1.226,2.313,1.014,1.963,2.381,4.694,3.834,7.739s2.707,5.829,3.545,7.878c.422,1.023.732,1.865.93,2.452a4.047,4.047,0,0,1,.242.933" transform="translate(-123.322 451.653)" fill="#33535f"/><path d="M262.96-170.462c-.079-.092,7.367-6.674,16.629-14.7s16.839-14.461,16.917-14.37-7.365,6.671-16.63,14.7-16.837,14.461-16.916,14.37" transform="translate(-96.977 447.799)" fill="#33535f"/><path d="M248.351-138.3a10.269,10.269,0,0,0,1.789-1.994c.9-1.395,2.007-3.448,3.248-5.683s2.3-4.3,3.073-5.8a18.8,18.8,0,0,1,1.313-2.385,15.11,15.11,0,0,1-1.034,2.521c-.7,1.528-1.734,3.615-2.967,5.869a65.373,65.373,0,0,1-3.38,5.65,6.816,6.816,0,0,1-1.4,1.454,1.7,1.7,0,0,1-.646.361" transform="translate(-91.589 431.066)" fill="#33535f"/><path d="M260.837-135.666c-.069-.038.415-.954.94-2.533a33.106,33.106,0,0,0,1.366-6.344,23.314,23.314,0,0,0-.033-6.463,6.8,6.8,0,0,0-.566-1.854,3.439,3.439,0,0,1-.368-.619c.013-.018.221.148.514.532a5.858,5.858,0,0,1,.724,1.878,20.466,20.466,0,0,1,.164,6.576,27.306,27.306,0,0,1-1.509,6.4,13.368,13.368,0,0,1-.832,1.814,2.348,2.348,0,0,1-.4.615" transform="translate(-96.192 430.816)" fill="#33535f"/><path d="M246.4-148.458a7.834,7.834,0,0,1,1.644-.53,27.433,27.433,0,0,0,3.878-1.387,39.1,39.1,0,0,0,4.932-3.106,5.546,5.546,0,0,1-1.218,1.235,15.745,15.745,0,0,1-3.53,2.269,19.057,19.057,0,0,1-3.988,1.289,6.021,6.021,0,0,1-1.719.23" transform="translate(-90.87 430.818)" fill="#33535f"/><path d="M250.1-242.393a.792.792,0,0,1-.114.179l-.369.5c-.327.433-.8,1.08-1.367,1.943a43.23,43.23,0,0,0-3.985,7.756,100.5,100.5,0,0,0-3.85,12.373,120.411,120.411,0,0,1-4.636,15.234c-2.178,5.231-4.853,9.916-6.586,14.475a35.571,35.571,0,0,0-2.624,12.582,21.886,21.886,0,0,0,.562,4.915,20.954,20.954,0,0,0,1.2,3.546,22.03,22.03,0,0,0,1.084,2.11l.3.539a.732.732,0,0,1,.091.192.735.735,0,0,1-.128-.168l-.343-.517a18.065,18.065,0,0,1-1.163-2.085,20.077,20.077,0,0,1-1.283-3.557,21.662,21.662,0,0,1-.634-4.971,35.335,35.335,0,0,1,2.557-12.729c1.727-4.6,4.4-9.3,6.557-14.5a124.258,124.258,0,0,0,4.652-15.17,96.537,96.537,0,0,1,3.953-12.388,40.76,40.76,0,0,1,4.131-7.734c.588-.854,1.088-1.486,1.438-1.9.163-.189.3-.345.4-.47.093-.105.143-.157.149-.151" transform="translate(-83.442 463.606)" fill="#33535f"/><path d="M264.7-284.469a8.456,8.456,0,0,1-.438,1.029,11.678,11.678,0,0,0-.828,2.892,13.838,13.838,0,0,0,.157,4.444c.255,1.671.953,3.4,1.427,5.338a8.9,8.9,0,0,1,.248,2.91,17.274,17.274,0,0,1-.433,2.666,41.244,41.244,0,0,1-1.3,4.352c-.43,1.217-.81,2.188-1.078,2.857a5.635,5.635,0,0,1-.459,1.023,5.343,5.343,0,0,1,.3-1.081c.25-.767.566-1.74.945-2.9.384-1.226.843-2.688,1.2-4.341a11.312,11.312,0,0,0,.151-5.388c-.456-1.88-1.157-3.657-1.4-5.369a13.484,13.484,0,0,1-.066-4.562,10.389,10.389,0,0,1,.98-2.915,7.15,7.15,0,0,1,.415-.724c.1-.161.164-.24.177-.232" transform="translate(-96.618 479.123)" fill="#33535f"/><path d="M267.9-260.611a10.511,10.511,0,0,0,2.117-3.58,13.383,13.383,0,0,0,.662-4.462,31.01,31.01,0,0,0-.7-5.535,52.6,52.6,0,0,1-.927-5.569,21.862,21.862,0,0,1,.088-4.624,12.779,12.779,0,0,1,.74-3.029,6.326,6.326,0,0,1,.359-.769c.094-.169.15-.255.163-.248.036.019-.142.383-.362,1.075a14.867,14.867,0,0,0-.592,3.008,23.3,23.3,0,0,0,.006,4.551c.156,1.705.576,3.559.955,5.521a29.341,29.341,0,0,1,.671,5.618,13.084,13.084,0,0,1-.774,4.567,8.748,8.748,0,0,1-1.565,2.7,6.1,6.1,0,0,1-.605.6c-.148.125-.23.185-.24.175" transform="translate(-98.799 480.583)" fill="#33535f"/><path d="M287.376-254.874a4.707,4.707,0,0,1-1.017.188c-.656.087-1.6.232-2.771.436a59.052,59.052,0,0,0-8.939,2.3,59.227,59.227,0,0,0-8.456,3.7c-1.043.558-1.879,1.028-2.45,1.365a4.757,4.757,0,0,1-.917.478,4.649,4.649,0,0,1,.826-.623c.545-.382,1.361-.895,2.391-1.49a49.486,49.486,0,0,1,8.463-3.845,49.594,49.594,0,0,1,9.034-2.187c1.178-.166,2.137-.264,2.8-.3a4.565,4.565,0,0,1,1.034-.018" transform="translate(-96.928 468.216)" fill="#33535f"/><path d="M292.9-269.446c0,.084-1.241.063-3.2.369a23.99,23.99,0,0,0-3.389.793,26.072,26.072,0,0,0-3.93,1.63,26.066,26.066,0,0,0-3.577,2.306,24.069,24.069,0,0,0-2.58,2.336c-1.368,1.441-2.056,2.474-2.124,2.426a3.3,3.3,0,0,1,.438-.754A15.848,15.848,0,0,1,276-262.222a21.006,21.006,0,0,1,2.558-2.443,24.017,24.017,0,0,1,3.623-2.378,24.119,24.119,0,0,1,4.016-1.628,21.159,21.159,0,0,1,3.464-.714,16.019,16.019,0,0,1,2.376-.13,3.368,3.368,0,0,1,.87.068" transform="translate(-101.085 473.61)" fill="#33535f"/><path d="M293.46-238.906a4.477,4.477,0,0,1-.947.364c-.619.2-1.51.5-2.6.894a79.543,79.543,0,0,0-8.358,3.52,79.429,79.429,0,0,0-7.884,4.485c-.975.631-1.759,1.153-2.3,1.521a4.526,4.526,0,0,1-.865.529,4.517,4.517,0,0,1,.764-.667c.508-.411,1.267-.974,2.224-1.64a62.406,62.406,0,0,1,7.862-4.62,62.3,62.3,0,0,1,8.453-3.419c1.113-.353,2.021-.613,2.655-.764a4.554,4.554,0,0,1,1-.2" transform="translate(-99.76 462.322)" fill="#33535f"/><path d="M340.915-275.739a4.931,4.931,0,0,1-.81-.284c-.523-.2-1.287-.486-2.276-.813a42.682,42.682,0,0,0-8.408-1.844l.211-.19c.1,3.62.076,7.925-.249,12.51a102.762,102.762,0,0,1-1.775,13.3l-.005-.089a64.89,64.89,0,0,0,2.8,7.474c.395.876.761,1.533,1.007,1.982a4.4,4.4,0,0,1,.387.687,4,4,0,0,1-.481-.628,19.24,19.24,0,0,1-1.1-1.949,56.531,56.531,0,0,1-2.957-7.458l-.013-.042.009-.048a112.277,112.277,0,0,0,1.7-13.263c.324-4.569.368-8.859.311-12.472l0-.218.215.028a39.357,39.357,0,0,1,8.433,2.01c.983.359,1.738.683,2.248.914a4.787,4.787,0,0,1,.765.391" transform="translate(-120.683 477.136)" fill="#33535f"/><path d="M342.911-269.8a9.547,9.547,0,0,1-1.771-.483c-1.081-.324-2.583-.737-4.259-1.133-3.355-.784-6.113-1.289-6.09-1.421a7.293,7.293,0,0,1,1.834.162c1.123.163,2.669.434,4.357.833a21.921,21.921,0,0,1,5.929,2.042" transform="translate(-121.993 474.841)" fill="#33535f"/><path d="M332.783-289.823a27,27,0,0,1-2.669-.619,45.269,45.269,0,0,0-6.5-1.033,52.035,52.035,0,0,0-6.582-.089,23.673,23.673,0,0,1-2.739.1,2.4,2.4,0,0,1,.721-.165c.469-.082,1.151-.167,2-.247a38.949,38.949,0,0,1,6.639-.04,35.087,35.087,0,0,1,6.537,1.171c.817.233,1.471.446,1.915.617a2.385,2.385,0,0,1,.677.3" transform="translate(-115.91 481.914)" fill="#33535f"/><path d="M303.327-287.243a5.53,5.53,0,0,1-1.114.35c-.727.189-1.788.431-3.114.661a42.27,42.27,0,0,1-10.483.523,12.988,12.988,0,0,1-5.639-1.414,4.8,4.8,0,0,1-1.755-1.9,3.626,3.626,0,0,1-.3-2.234,11.987,11.987,0,0,1,.941-3.058,3.438,3.438,0,0,1,.6-1.008c.029.018-.175.378-.44,1.074a13.639,13.639,0,0,0-.791,3.033,3.33,3.33,0,0,0,.32,2.032,4.472,4.472,0,0,0,1.643,1.724,12.982,12.982,0,0,0,5.463,1.319,47.173,47.173,0,0,0,10.4-.391c1.323-.189,2.388-.384,3.124-.521a6.452,6.452,0,0,1,1.152-.183" transform="translate(-103.58 483.128)" fill="#33535f"/><path d="M288.838-525.33c-4.023-8.716-13.978-7-18.743-4.684a20.98,20.98,0,0,0-10.527,11.148c-1.4,3.366-2.513,7.206-5.335,9.24a41.317,41.317,0,0,1-4,2.083A5.181,5.181,0,0,0,247.434-504c-.42,2.9,2.491,4.91,4.949,6.08-1.461.994-1.841,3.244-1.329,5.041a12.908,12.908,0,0,0,2.88,4.628,71.457,71.457,0,0,0,14.6,12.319c4.594,2.856,7.568,3.2,12.506,1.141,2.006-.835,3.873-2.2,6.007-2.446,2.48-.284,4.861.993,7.311,1.5s5.556-.191,6.357-2.777a18.523,18.523,0,0,0,.334-3.117c.134-1.039.643-2.165,1.576-2.4a4.216,4.216,0,0,1,2.261.515c1.774.589,4.449,13.77,6.151,12.968,0,0,2.474-22.341-2.293-35.4-1.521-4.167-4.767-13.064-7.365-16.525-3.568-4.75-12.119-3.7-12.546-2.852" transform="translate(-91.237 570.368)" fill="#17282f"/><path d="M292.229-519.521c-6.332-2.211-14.883,2.649-16.823,9.07-2.156,7.134-4.508,15.928-4.918,21.533-.825,11.268,7.176,14.606,7.176,14.606L274.406-456.7l27.466-8.878,9.586-41.5.892-3.491-20.121-8.951" transform="translate(-99.732 566.008)" fill="#f8a58d"/><path d="M278.312-491.448c.1.238,1.4-.112,2.831.454,1.439.545,2.2,1.7,2.426,1.581.107-.047.062-.427-.265-.941a3.93,3.93,0,0,0-1.857-1.48,3.77,3.77,0,0,0-2.338-.146c-.574.165-.847.421-.8.531" transform="translate(-102.637 555.696)" fill="#17282f"/><path d="M300.819-485.914c.165.2,1.3-.529,2.837-.42,1.536.086,2.61.953,2.79.775.088-.078-.069-.425-.538-.816a3.924,3.924,0,0,0-2.217-.852,3.773,3.773,0,0,0-2.274.567c-.5.331-.679.656-.6.746" transform="translate(-110.933 553.901)" fill="#17282f"/><path d="M288.621-482.36a10.2,10.2,0,0,0-2.332-1.012c-.373-.129-.718-.29-.721-.566a2,2,0,0,1,.523-1.075l1.816-2.649c2.547-3.782,4.486-6.927,4.333-7.029s-2.341,2.883-4.888,6.664l-1.773,2.678a2.279,2.279,0,0,0-.551,1.456.988.988,0,0,0,.5.707,2.688,2.688,0,0,0,.629.243,10.072,10.072,0,0,0,2.468.583" transform="translate(-105.113 556.652)" fill="#17282f"/><path d="M281.593-447.769a29.543,29.543,0,0,0,15.837-.4s-5.334,6.785-16.344,3.15l.507-2.75" transform="translate(-103.662 539.494)" fill="#f68260"/><path d="M289.394-467.207c-.146-.188.067.226,0,0" transform="translate(-106.706 546.534)" fill="#f68260"/><path d="M294.264-469.3a2.83,2.83,0,0,0-1.661-1.466,3.1,3.1,0,0,0-2.967.486,1.914,1.914,0,0,0-.264,1.714c.53.677.58,1.252,1.326,1.666a3.875,3.875,0,0,0,3.231-.374,1.792,1.792,0,0,0,.336-2.026" transform="translate(-106.684 547.894)" fill="#f68260"/><path d="M293.99-471.872c-.241-.071-.625,1.556-2.289,2.384s-3.355.242-3.42.466c-.047.1.311.407,1.039.6a4.17,4.17,0,0,0,2.834-.3,3.626,3.626,0,0,0,1.815-2.023c.222-.666.135-1.111.021-1.129" transform="translate(-106.314 548.236)" fill="#17282f"/><path d="M305.724-497.9c-.081.431,1.177.876,2.442,1.8,1.286.891,2.14,1.944,2.5,1.71.166-.116.158-.566-.1-1.161a4.593,4.593,0,0,0-1.541-1.852,4.367,4.367,0,0,0-2.221-.82c-.629-.031-1.036.125-1.081.326" transform="translate(-112.747 557.957)" fill="#17282f"/><path d="M279.733-501.316c.335.318,1.482-.156,2.9-.309,1.415-.2,2.647-.018,2.889-.408.1-.189-.119-.519-.676-.8a4.4,4.4,0,0,0-2.416-.345,4.339,4.339,0,0,0-2.25.922c-.468.406-.6.78-.449.938" transform="translate(-103.141 559.794)" fill="#17282f"/><path d="M326.692-510.76a4.358,4.358,0,0,0-2.1-1.871,140.986,140.986,0,0,0-16.935-7.878l-2.392,1.352a11.873,11.873,0,0,0,5.806,11.853c1.633.909,3.754,1.763,3.966,3.621.22,1.926-1.8,3.239-2.941,4.8a6.074,6.074,0,0,0-.189,6.711c.735,1.134,1.843,2,2.516,3.169a6,6,0,0,1,.224,5.186c-.678,1.659-1.819,3.9-3.345,4.837a10.3,10.3,0,0,0,11.017-4.645c1.274-2.171,1.376-4.8,1.545-7.316a93.983,93.983,0,0,1,2.718-16.964,4.524,4.524,0,0,0,.113-2.861" transform="translate(-112.532 566.172)" fill="#17282f"/><path d="M295.754-521.4a23.417,23.417,0,0,1-5.249,5.041,7.92,7.92,0,0,1-6.974.985q.851-.937,1.7-1.875a35.171,35.171,0,0,1-13.388,5.536c3.014-3.662,6.121-7.4,10.232-9.768s9.509-3.09,13.528-.571" transform="translate(-100.253 567.322)" fill="#17282f"/><path d="M326.911-486.373l-12.829,9.965c1.471,1.6.9,5.693-.545,7.321s-3.365,3.012-3.933,5.112c-.622,2.3.6,4.681.632,7.064.051,3.372-2.218,6.258-3.967,9.142s-3.008,6.729-1.06,9.481c2.194,3.1,7.172,2.654,10.177.336s4.721-5.882,6.954-8.951,5.715-5.411,9.491-5.028a72.613,72.613,0,0,0-4.92-34.441" transform="translate(-112.196 553.583)" fill="#17282f"/><path d="M330.423-468.623c-.079-.14.679-.692,1.978-1.729a25.6,25.6,0,0,0,4.844-4.919,16.152,16.152,0,0,0,2.168-4.111,13.13,13.13,0,0,0,.758-5.155,11.648,11.648,0,0,0-1.765-5.372,18.068,18.068,0,0,0-4.261-4.593c-3.456-2.683-7.541-4.223-11.179-5.81a40.39,40.39,0,0,1-9.413-5.168A17.209,17.209,0,0,1,308.766-511c-.782-1.556-.912-2.52-.79-2.56.161-.062.563.784,1.517,2.113a19.946,19.946,0,0,0,4.978,4.714,45.038,45.038,0,0,0,9.268,4.551c1.839.734,3.8,1.49,5.8,2.422a30.175,30.175,0,0,1,5.952,3.525,19.5,19.5,0,0,1,4.748,5.206,13.384,13.384,0,0,1,1.949,6.39,14.473,14.473,0,0,1-1.076,5.9,16.713,16.713,0,0,1-2.642,4.418,20.688,20.688,0,0,1-5.59,4.676c-1.487.848-2.388,1.147-2.457,1.023" transform="translate(-113.564 563.61)" fill="#17282f"/><path d="M332.287-501.769a6.042,6.042,0,0,1-1.116-.364c-.707-.263-1.725-.655-2.97-1.177a37.77,37.77,0,0,1-9.169-5.218,18.683,18.683,0,0,1-6.088-8.552,12.415,12.415,0,0,1-.6-3.156,7.191,7.191,0,0,1,0-.873c.008-.2.019-.3.034-.3a19.331,19.331,0,0,0,.858,4.235,19.226,19.226,0,0,0,6.071,8.31,41.509,41.509,0,0,0,9.016,5.274l2.911,1.3a6.064,6.064,0,0,1,1.051.522" transform="translate(-115.185 566.506)" fill="#33535f"/><path d="M332.073-486.976c-.049-.019.207-.506.343-1.454a7.135,7.135,0,0,0-.678-3.929,11.264,11.264,0,0,0-3.891-4.478c-1.843-1.335-4.134-2.4-6.422-3.765a22.98,22.98,0,0,1-5.733-4.838,23.516,23.516,0,0,1-3.339-5.136,21.089,21.089,0,0,1-1.4-3.881c-.133-.469-.186-.846-.238-1.1a1.335,1.335,0,0,1-.047-.388,13.914,13.914,0,0,1,.45,1.438,24.469,24.469,0,0,0,1.517,3.792A24.371,24.371,0,0,0,316-505.7a23.213,23.213,0,0,0,5.653,4.726c2.258,1.347,4.562,2.432,6.434,3.813a11.379,11.379,0,0,1,3.936,4.679,7.031,7.031,0,0,1,.564,4.082,4.465,4.465,0,0,1-.327,1.08,1.358,1.358,0,0,1-.183.348" transform="translate(-114.568 564.488)" fill="#33535f"/><path d="M232.228-499.414c-.006,0,.02-.051.077-.138a3.006,3.006,0,0,1,.276-.371,3.749,3.749,0,0,1,1.432-1.058,8.465,8.465,0,0,1,2.774-.479c1.084-.065,2.334-.145,3.7-.146a20.1,20.1,0,0,0,4.419-.408,10.916,10.916,0,0,0,4.436-2.338,19.445,19.445,0,0,0,3.616-4.288,58.25,58.25,0,0,0,2.892-5.353,43.57,43.57,0,0,1,3.024-5.34,16.388,16.388,0,0,1,3.975-4.133,16.611,16.611,0,0,1,9.131-2.984,15.694,15.694,0,0,1,6.4,1.129l.937.417.654.368a3.3,3.3,0,0,1,.523.328,3.3,3.3,0,0,1-.565-.251l-.668-.328-.943-.374a16.113,16.113,0,0,0-6.329-.978,16.474,16.474,0,0,0-8.905,3,16.089,16.089,0,0,0-3.857,4.049,44.034,44.034,0,0,0-2.986,5.292,56.89,56.89,0,0,1-2.921,5.389,19.663,19.663,0,0,1-3.717,4.364A11.209,11.209,0,0,1,245-501.661a19.978,19.978,0,0,1-4.5.364c-1.374-.018-2.6.04-3.7.082a8.576,8.576,0,0,0-2.723.392,3.891,3.891,0,0,0-1.429.959,5.858,5.858,0,0,1-.419.449" transform="translate(-85.643 568.366)" fill="#33535f"/><path d="M210.763-521.866c-5.061-12.75-11.748-25.249-12.707-34.758L188-556.213c.215,3.674,1.531,34.288,8.662,46.39s30.927,40.4,30.927,40.4l8.374-21.541s-20.135-18.154-25.2-30.9" transform="translate(-69.331 579.491)" fill="#f8a58d"/><path d="M194.939-587.979h-4.4s.428,2.592,2.425,2.734,1.6-.307,1.6-.307l-.447.4-2.746.544s.143,2.14,1.95,2.473l2.664-2.473-1.046-3.377" transform="translate(-70.268 591.055)" fill="#f8a58d"/><path d="M197.839-582.737l-2.092.951.352-2.14,1.74-.171Zm8.2-7.422a16.358,16.358,0,0,1-.449,3.11l-4.022,3.318-1.023-4.886a1.5,1.5,0,0,0-1.38-1.193l-1.831-.115s.712-2.539-1.584-2.317c0,0-1.263-.345-2.282,3.885-1.11,4.613-5.9,15.47-5.485,19.1l10.2.407c-.107-3.387,2.673-6.959,4.041-8.505a3.711,3.711,0,0,0,.853-1.626,5.007,5.007,0,0,1,1.143-2.237c1.258-1.4,3.913-3.914,3.913-3.914v-7.687s-1.707-.545-2.1,2.657" transform="translate(-69.316 592.852)" fill="#f8a58d"/><path d="M197.74-581.38a3.6,3.6,0,0,1,.1-.9c.093-.576.243-1.4.437-2.428.208-1.058.445-2.266.7-3.589a14.555,14.555,0,0,0,.345-2.089c.019-.683-.252-1.471-.986-1.512-.686-.124-1.273.455-1.621,1.055a4.541,4.541,0,0,0-.4.975l-.329,1c-.4,1.287-.773,2.462-1.095,3.49-.327.991-.63,1.782-.862,2.319a3.3,3.3,0,0,1-.412.81,4.076,4.076,0,0,1,.253-.871c.182-.552.438-1.352.725-2.35l1-3.519q.157-.5.318-1.012a4.868,4.868,0,0,1,.432-1.06,3.183,3.183,0,0,1,.789-.931,1.656,1.656,0,0,1,1.267-.341,1.673,1.673,0,0,1,.642.227,1.39,1.39,0,0,1,.453.513,2.451,2.451,0,0,1,.256,1.214,13.746,13.746,0,0,1-.38,2.163c-.293,1.316-.561,2.518-.8,3.57-.233,1.015-.428,1.836-.573,2.4a3.643,3.643,0,0,1-.269.868" transform="translate(-71.403 592.668)" fill="#f68260"/><path d="M202.864-579.365a17.279,17.279,0,0,1-.121-2.476c-.022-.338-.051-.659-.081-.952s-.064-.506-.191-.61c-.285-.212-.633-.215-.612-.29,0-.029.071-.059.2-.074a.946.946,0,0,1,.588.112,1.073,1.073,0,0,1,.411.805,8.579,8.579,0,0,1,.12.981,4.678,4.678,0,0,1-.316,2.5" transform="translate(-74.443 589.504)" fill="#f68260"/><path d="M207.154-579.774c.036.046-.274.374-.826.851a10.543,10.543,0,0,1-2.4,1.582,8.026,8.026,0,0,1-2.8.663,3.011,3.011,0,0,1-1.187-.03,3.534,3.534,0,0,1,1.148-.277,10.771,10.771,0,0,0,2.659-.756,16.25,16.25,0,0,0,2.389-1.429c.594-.41.976-.652,1.015-.6" transform="translate(-73.737 588.031)" fill="#f68260"/><path d="M334.951-438.578s11.322-.338,18.111-2.35,32.856-8.22,32.856-8.22l41.767-6.97.825,10.811s-38.821,11.352-46.364,13.94-42.017,14.406-48.517,12.909l-4.037-8.309,5.359-11.81" transform="translate(-121.55 542.425)" fill="#f8a58d"/><path d="M504.4-477.063c-.679-.151-4.068,1.388-4.068,1.388a2.254,2.254,0,0,0,.071-2.791l-4.647,2.279a47.51,47.51,0,0,1-3.88,3.522,53.205,53.205,0,0,0-5.927,6.4l-2.773,2.581,1.721,10.231a8.605,8.605,0,0,0,3.634-.479c1.433-.669,3.537-3.345,3.537-3.345l3.966-.338a2.218,2.218,0,0,0,1.26-.5,3.3,3.3,0,0,0,.987-2.7c2.486-1.434,1.051-3.25,1.051-3.25a3.115,3.115,0,0,0,2.037-1.124,1.9,1.9,0,0,0-.124-2.223c-.478-.86-4.111-.574-4.111-.574l-.191-1.051s5.552-4.413,6.8-5.369,1.3-2.519.662-2.661" transform="translate(-178.191 550.667)" fill="#f8a58d"/><path d="M504.486-474.2a6,6,0,0,1-1.708,2.037,20.513,20.513,0,0,0-2.033,1.984,8.394,8.394,0,0,0-1.484,3.069,16.809,16.809,0,0,1-1.251,3.321,11.444,11.444,0,0,1-1.687,2.37,10.067,10.067,0,0,1-1.458,1.3,1.951,1.951,0,0,1-.617.366c-.048-.061.794-.642,1.843-1.874a12.365,12.365,0,0,0,1.561-2.352,18.008,18.008,0,0,0,1.192-3.265,8.425,8.425,0,0,1,1.591-3.2,17.608,17.608,0,0,1,2.139-1.957,22.988,22.988,0,0,0,1.912-1.8" transform="translate(-182.273 549.096)" fill="#f68260"/><path d="M502.832-452.262a6.016,6.016,0,0,1-1.858.874,8.972,8.972,0,0,1-2.2.454,7.719,7.719,0,0,1-1.341-.017,2.9,2.9,0,0,1-1.416-.486,1.642,1.642,0,0,1-.711-1.381,2.059,2.059,0,0,1,.746-1.225,2.449,2.449,0,0,1,1.094-.616c.364-.1.7-.174,1.012-.239a5.7,5.7,0,0,1,2.037-.231c0,.046-.753.2-1.964.533-.3.082-.634.175-.98.285a2.121,2.121,0,0,0-.923.563,1.773,1.773,0,0,0-.592.954,1.228,1.228,0,0,0,.539,1,4.232,4.232,0,0,0,2.476.453,10.1,10.1,0,0,0,2.137-.348c1.2-.332,1.92-.643,1.948-.577" transform="translate(-182.662 542.073)" fill="#f68260"/><path d="M505.814-457.921a3.443,3.443,0,0,1-1.432.433,9.249,9.249,0,0,1-1.626.117,2.492,2.492,0,0,1-1.939-.746,1.931,1.931,0,0,1-.083-2.086,2.773,2.773,0,0,1,1.239-1.142,3.063,3.063,0,0,1,1.443-.415c.026.07-.529.239-1.292.686a2.628,2.628,0,0,0-1.03,1.054,1.567,1.567,0,0,0,.064,1.629,2.2,2.2,0,0,0,1.614.616,12.162,12.162,0,0,0,1.572-.021,9.66,9.66,0,0,1,1.469-.125" transform="translate(-184.568 544.51)" fill="#f68260"/><path d="M501.539-446.859a3.8,3.8,0,0,1-1.166.363,10.048,10.048,0,0,1-2.947.353,1.142,1.142,0,0,1-.9-.385,1.283,1.283,0,0,1-.257-.872,1.628,1.628,0,0,1,.708-1.241c.736-.449,1.279-.176,1.242-.142a2.483,2.483,0,0,0-1.058.391,1.371,1.371,0,0,0-.489,1.008.91.91,0,0,0,.187.585.729.729,0,0,0,.594.219,14.6,14.6,0,0,0,2.866-.221,3.155,3.155,0,0,1,1.223-.057" transform="translate(-183.018 539.762)" fill="#f68260"/><path d="M295.326-373.872a3.186,3.186,0,0,1-.787.456,14.838,14.838,0,0,1-2.319.887,17.566,17.566,0,0,1-8.145.4,17.165,17.165,0,0,1-7.416-3.392,14.184,14.184,0,0,1-1.809-1.7,3.16,3.16,0,0,1-.552-.724c.06-.057.887.948,2.549,2.179a18.13,18.13,0,0,0,7.31,3.207,18.582,18.582,0,0,0,7.98-.267c2-.515,3.155-1.119,3.189-1.044" transform="translate(-101.158 513.597)" fill="#f2575d"/><path d="M263.6-433.657s26.629-8.516,27.623-8.781,24.477,1.827,24.477,1.827-1.012,15.561,4.932,20.594l-17.274,6.232-5.451,14.992s-3.038,6.111-.624,11.842c4.569,10.849,12.5,27.966,11.331,29.925-.124.205-.8-5.931-12.11-9.128-3.414-.964-9.623-.977-15.231.153-24.157,4.867-33.478,16.023-36.23,17.936,0,0,4.971-39.024,2.622-45.116s-4.838-10.067-2.9-15.5,4.845-14.085,4.845-14.085l-9.514-10.8,13.3-22.112,12.165,10.086L263.6-433.657" transform="translate(-88.545 542.261)" fill="#f2575d"/><path d="M282.541-372.025a3.291,3.291,0,0,1-.916.04,13.759,13.759,0,0,1-2.479-.318,15.416,15.416,0,0,1-7.256-3.808,14.4,14.4,0,0,1-4.1-7.091,12.2,12.2,0,0,1-.337-2.479,3.165,3.165,0,0,1,.044-.916,30.915,30.915,0,0,0,.592,3.317,14.95,14.95,0,0,0,4.1,6.851,16.1,16.1,0,0,0,7.027,3.825c2.017.512,3.329.495,3.324.58" transform="translate(-98.634 516.787)" fill="#17282f"/><path d="M251.742-415.783a9.014,9.014,0,0,1,1.854,4.588,8.929,8.929,0,0,1-.444,4.93,23.378,23.378,0,0,0,.01-4.865,24,24,0,0,0-1.42-4.653" transform="translate(-92.837 527.551)" fill="#17282f"/><path d="M338.3-408.476c.041.064-.55.45-1.356,1.228a11.562,11.562,0,0,0-2.481,3.547,11.026,11.026,0,0,0-.946,4.221c-.021,1.118.113,1.812.037,1.826a4.537,4.537,0,0,1-.348-1.823,9.844,9.844,0,0,1,.856-4.4,10.223,10.223,0,0,1,2.674-3.6,4.73,4.73,0,0,1,1.564-1" transform="translate(-122.878 524.857)" fill="#17282f"/><path d="M282.032-366.256a12.658,12.658,0,0,1-5.455-1.211c-3.423-1.644-6.926-5.986-6.711-8.676a14.241,14.241,0,0,0,2.91,3.887,15.416,15.416,0,0,0,7.256,3.808,13.761,13.761,0,0,0,2.479.318c.112,0,.215,0,.308,0l.241,0a49.967,49.967,0,0,0,5.063.35,12.7,12.7,0,0,1-6.092,1.523" transform="translate(-99.521 512.931)" fill="#cc4341"/><path d="M282.825-368.345c-.093,0-.2,0-.308,0a13.758,13.758,0,0,1-2.479-.318,15.416,15.416,0,0,1-7.256-3.808,14.24,14.24,0,0,1-2.91-3.887,2.671,2.671,0,0,1,.057-.373,13.651,13.651,0,0,0,2.888,3.994,12.227,12.227,0,0,0,6.661,3.773c1.214.269,2.4.471,3.588.619l-.241,0" transform="translate(-99.526 513.149)" fill="#0f191d"/><path d="M304.914-335.38c-.03.046-.7-.476-2.081-1.1a15.857,15.857,0,0,0-6.219-1.3,23.1,23.1,0,0,0-9.232,1.874,59.873,59.873,0,0,0-10.1,5.8,106.619,106.619,0,0,1-18.6,10.322c-2.506,1.073-4.577,1.839-6.017,2.337-.718.254-1.283.431-1.666.551a3.211,3.211,0,0,1-.591.16,3.191,3.191,0,0,1,.562-.243l1.636-.628c1.419-.547,3.467-1.355,5.95-2.461a114,114,0,0,0,18.485-10.4,58.532,58.532,0,0,1,10.194-5.8,23.011,23.011,0,0,1,9.393-1.81,15.419,15.419,0,0,1,6.284,1.451,9.618,9.618,0,0,1,2.009,1.257" transform="translate(-92.345 498.901)" fill="#fff"/><path d="M300.817-357.8a15.243,15.243,0,0,0-1.6-1.245,11.205,11.205,0,0,0-5.194-1.637,17.864,17.864,0,0,0-7.962,1.469,95.9,95.9,0,0,0-9.014,4.491,85.727,85.727,0,0,1-9.115,4.4,34.461,34.461,0,0,1-7.991,2.137,22.925,22.925,0,0,1-5.576.092c-.654-.086-1.16-.162-1.5-.243a2.344,2.344,0,0,1-.512-.133c.008-.042.721.1,2.026.206a24.857,24.857,0,0,0,5.517-.229,35.436,35.436,0,0,0,7.885-2.206,90.447,90.447,0,0,0,9.058-4.408,90.193,90.193,0,0,1,9.073-4.481,17.835,17.835,0,0,1,8.135-1.4,10.973,10.973,0,0,1,5.263,1.8,5.917,5.917,0,0,1,1.5,1.387" transform="translate(-93.067 507.366)" fill="#fff"/><path d="M263.13-372.7c.018.024-.173.179-.537.439a5.472,5.472,0,0,1-.686.437,9.291,9.291,0,0,1-.954.5,14.129,14.129,0,0,1-2.649.937,16.69,16.69,0,0,1-3.416.437,16.658,16.658,0,0,1-3.428-.337,14.176,14.176,0,0,1-2.675-.858,9.1,9.1,0,0,1-.97-.473,5.443,5.443,0,0,1-.7-.416c-.371-.248-.567-.4-.55-.422.043-.07.87.464,2.335,1.024a16.13,16.13,0,0,0,2.638.75,18.025,18.025,0,0,0,3.342.294,18.072,18.072,0,0,0,3.33-.391,16.077,16.077,0,0,0,2.616-.827c1.446-.6,2.257-1.163,2.3-1.094" transform="translate(-90.931 511.664)" fill="#fff"/><path d="M311.254-377.512a1.6,1.6,0,0,1-.331.285,7.039,7.039,0,0,1-1.055.672,11.676,11.676,0,0,1-4.412,1.267,20,20,0,0,1-6.779-.625c-2.5-.6-5.137-1.59-7.959-2.385a36.329,36.329,0,0,0-14.865-.96,37.574,37.574,0,0,0-4.461.917,16.063,16.063,0,0,1-1.623.421,1.6,1.6,0,0,1,.4-.176c.268-.1.657-.257,1.177-.409a31.157,31.157,0,0,1,4.461-1.06,35.091,35.091,0,0,1,15.031.845c2.85.8,5.476,1.8,7.939,2.415a20.337,20.337,0,0,0,6.655.708,12.227,12.227,0,0,0,4.36-1.109c.965-.467,1.437-.842,1.464-.805" transform="translate(-99.488 514.359)" fill="#fff"/><path d="M304.06-398.831a2.52,2.52,0,0,1-.537.082c-.353.038-.876.1-1.552.147a29.454,29.454,0,0,1-5.715-.407c-2.392-.385-5.188-1.1-8.265-1.933a63.109,63.109,0,0,0-10.112-2.1,26.545,26.545,0,0,0-2.7-.088c-.444.015-.885.012-1.32.042l-1.29.154a23.868,23.868,0,0,0-4.8,1.207c-2.994,1.06-5.609,2.277-7.905,3.052a21.478,21.478,0,0,1-5.593,1.231,10.165,10.165,0,0,1-1.559.009,2.539,2.539,0,0,1-.541-.051,2.531,2.531,0,0,1,.543-.037,13.2,13.2,0,0,0,1.543-.091,23.025,23.025,0,0,0,5.506-1.353c2.266-.806,4.858-2.049,7.873-3.142a23.912,23.912,0,0,1,4.879-1.251l1.318-.161c.444-.033.894-.029,1.346-.046a26.687,26.687,0,0,1,2.747.088,60.936,60.936,0,0,1,10.179,2.145c3.073.856,5.844,1.6,8.212,2.017a32.663,32.663,0,0,0,5.658.542l1.548-.064a2.59,2.59,0,0,1,.545.005" transform="translate(-92.996 523.05)" fill="#fff"/><path d="M345.876-431.83a38.264,38.264,0,0,0-1.592,3.5,18.046,18.046,0,0,0-.82,9.094,18.468,18.468,0,0,0,3.812,8.307c1.494,1.847,2.7,2.733,2.641,2.8a4.165,4.165,0,0,1-.851-.6,16.272,16.272,0,0,1-2.028-2,17.758,17.758,0,0,1-4.005-8.43,17.4,17.4,0,0,1,.961-9.279,15.6,15.6,0,0,1,1.272-2.548,4.159,4.159,0,0,1,.611-.846" transform="translate(-126.416 533.469)" fill="#fff"/><path d="M267.6-431.991a2.523,2.523,0,0,1-.747.169,20.107,20.107,0,0,1-2.074.222,10.89,10.89,0,0,1-3.108-.24,6.908,6.908,0,0,1-3.327-1.894c-.974-.959-1.713-2.006-2.465-2.871a9.413,9.413,0,0,0-2.266-1.972,5.728,5.728,0,0,0-2.641-.769,1.719,1.719,0,0,1,.768-.091,4.732,4.732,0,0,1,2.025.59,9.066,9.066,0,0,1,2.418,1.975c.784.869,1.533,1.9,2.468,2.824a6.7,6.7,0,0,0,3.121,1.817,11.624,11.624,0,0,0,3,.322c1.738-.032,2.823-.156,2.829-.082" transform="translate(-92.554 536.274)" fill="#fff"/><path d="M274.5-44.57c-.121,0-.22-8.822-.22-19.7s.1-19.7.22-19.7.219,8.82.219,19.7-.1,19.7-.219,19.7" transform="translate(-101.152 405.183)" fill="#17282f"/><path d="M280.4-60.613c-.121,0-.219-8.822-.219-19.7s.1-19.7.219-19.7.219,8.821.219,19.7-.1,19.7-.219,19.7" transform="translate(-103.33 411.1)" fill="#17282f"/><path d="M359.062-.872c0,.121-75.486.219-168.58.219-93.128,0-168.6-.1-168.6-.219s75.47-.219,168.6-.219c93.095,0,168.58.1,168.58.219" transform="translate(-8.071 374.616)" fill="#17282f"/></g></g></svg>