<?xml version="1.0" encoding="UTF-8" standalone="no"?>
<svg
   xmlns:dc="http://purl.org/dc/elements/1.1/"
   xmlns:cc="http://creativecommons.org/ns#"
   xmlns:rdf="http://www.w3.org/1999/02/22-rdf-syntax-ns#"
   xmlns:svg="http://www.w3.org/2000/svg"
   xmlns="http://www.w3.org/2000/svg"
   id="svg565"
   version="1.1"
   viewBox="0 0 433.384 373"
   height="373"
   width="433.384">
  <metadata
     id="metadata569">
    <rdf:RDF>
      <cc:Work
         rdf:about="">
        <dc:format>image/svg+xml</dc:format>
        <dc:type
           rdf:resource="http://purl.org/dc/dcmitype/StillImage" />
      </cc:Work>
    </rdf:RDF>
  </metadata>
  <defs
     id="defs5">
    <clipPath
       id="a">
      <path
         id="path2"
         transform="translate(-93.531 -40.069)"
         d="M204.585,374.776c-9.575-14.326-12.766-32.624-20.355-48.369-14.185-29.575-42.128-47.589-61.845-72.98-23.9-30.71-35.178-74.327-25.248-113.335,10-39.008,42.908-70.781,79.575-71.987,13.4-.426,26.6,2.908,39.859,4.681,18.653,2.482,37.873,1.844,55.887-4.114,12.128-3.83,23.546-10.142,35.461-14.965C347,37.821,400.545,35.41,440.687,48.6c23.263,7.589,46.171,22.908,53.476,46.313,4.681,15.107,2.269,31.348,1.915,47.164-.426,22.908,10.709,38.795,18.794,59.221,8.724,22.057,13.9,46.667,9.858,70.285-3.759,21.986-15.745,42.057-32.483,54.611-26.951,20.071-63.121,20-90,40.142-7.447,5.6-13.9,12.624-21.277,18.369-18.582,14.752-41.348,20.709-63.83,22.7-10.922.993-21.986,1.773-32.979,1.206-11.7-.567-21.773-4.539-33.05-6.809C232.883,398.109,216.287,392.293,204.585,374.776Z" />
    </clipPath>
  </defs>
  <g
     id="g401"
     transform="translate(0.789)">
    <path
       id="path7"
       fill="#e0ebe3"
       transform="translate(-93.531 -40.069)"
       d="M204.585,374.776c-9.575-14.326-12.766-32.624-20.355-48.369-14.185-29.575-42.128-47.589-61.845-72.98-23.9-30.71-35.178-74.327-25.248-113.335,10-39.008,42.908-70.781,79.575-71.987,13.4-.426,26.6,2.908,39.859,4.681,18.653,2.482,37.873,1.844,55.887-4.114,12.128-3.83,23.546-10.142,35.461-14.965C347,37.821,400.545,35.41,440.687,48.6c23.263,7.589,46.171,22.908,53.476,46.313,4.681,15.107,2.269,31.348,1.915,47.164-.426,22.908,10.709,38.795,18.794,59.221,8.724,22.057,13.9,46.667,9.858,70.285-3.759,21.986-15.745,42.057-32.483,54.611-26.951,20.071-63.121,20-90,40.142-7.447,5.6-13.9,12.624-21.277,18.369-18.582,14.752-41.348,20.709-63.83,22.7-10.922.993-21.986,1.773-32.979,1.206-11.7-.567-21.773-4.539-33.05-6.809C232.883,398.109,216.287,392.293,204.585,374.776Z" />
    <g
       id="g15"
       clip-path="url(#a)">
      <rect
         id="rect9"
         fill="#9cb3bc"
         transform="translate(42.613 -16.29)"
         height="270.216"
         width="345.181" />
      <rect
         id="rect11"
         fill="#fff"
         transform="translate(50.344 -9.482)"
         height="256.67"
         width="329.791" />
      <rect
         id="rect13"
         fill="#9cb3bc"
         transform="translate(211.409 -16.29)"
         height="270.216"
         width="7.66" />
    </g>
    <g
       id="g399"
       clip-path="url(#a)">
      <g
         id="g19"
         transform="translate(35.769 124.003)">
        <path
           id="path17"
           fill="#065447"
           transform="translate(-604.08 -214.91)"
           d="M627.8,214.974c-1.135.142-8.369,4.61-6.95,6.17-4.681-5.106-11.419-6.667-15.177.709-2.128,4.255-1.7,9.291-1.135,13.972.922,7.092,2.27,14.043,3.546,21.064,1.986,10.638,3.83,21.277,7.305,31.49,1.489,4.468,2.766,9.007,4.965,13.263.567,1.135,7.518,10.355,7.447,10.5,5.107-9.929,6.738-21.135,8.3-32.128,2.7-18.582,4.114-35.6.709-54.043-.5-2.624-.993-5.248-2.411-7.447S630.428,214.548,627.8,214.974Z" />
      </g>
      <g
         id="g23"
         transform="translate(3.543 135.059)">
        <path
           id="path21"
           fill="#197164"
           transform="translate(-650.125 -230.5)"
           d="M679.337,231.706c-3.333,2.908-1.986,5.461-3.121,8.936-.993-3.617-4.184-6.667-7.376-8.44-4.043-2.2-9.007-2.624-11.631,1.844-1.277,2.2-1.631,4.823-1.986,7.376-.709,5.532-1.489,11.064-2.2,16.6-2.766,20.78-6.241,45.107,3.83,64.54,6.667-13.9,12.553-27.873,15.958-42.979,1.489-6.738,2.057-13.83,4.114-20.355,2.27-7.234,4.752-14.539,7.021-21.773.851-2.624.78-6.738-1.986-6.95A4.941,4.941,0,0,0,679.337,231.706Z" />
      </g>
      <g
         id="g29"
         transform="translate(50.833 119.312)">
        <g
           id="g27"
           transform="translate(0)">
          <path
             id="path25"
             fill="#065447"
             transform="translate(-617.053 -208.296)"
             d="M617.273,218.086A17.368,17.368,0,0,1,617.84,210c.355-.993.993-1.986,2.2-1.631a6.61,6.61,0,0,1,2.128,1.56c2.482,2.553,3.688,6.1,4.326,9.5,1.489,7.589.638,15.248.851,22.837.284,12.553.213,25.178-.142,37.731-.355,12.837-.922,25.674-1.348,38.511-.355,12.837-.567,25.674-.142,38.511.071,1.56.142,3.191.213,4.752.071.922-1.347.922-1.418,0-.5-12.27-.5-24.61-.213-36.951s.851-24.61,1.206-36.951c.426-12.2.709-24.4.567-36.6-.071-4.539-.284-9.078-.213-13.688.071-3.759.142-7.589-.071-11.348a35.14,35.14,0,0,0-2.057-11.135,12.763,12.763,0,0,0-2.482-4.114,3.719,3.719,0,0,0-.78-.709c-.355-.284-.922-.922-1.277-.355a5.577,5.577,0,0,0-.567,1.844,10.968,10.968,0,0,0-.284,2.2,24.428,24.428,0,0,0,.213,3.972c.213,1.064-1.206.993-1.277.142Z" />
        </g>
      </g>
      <g
         id="g33"
         transform="translate(55.707 139.323)">
        <path
           id="path31"
           fill="#197164"
           transform="translate(-572.5 -236.512)"
           d="M580.754,236.645c3.759.851,4.326,3.972,5.674,6.95,2.837-3.759,5.816-5.6,10.567-5.319a10.521,10.521,0,0,1,8.44,4.752,16.052,16.052,0,0,1,1.489,6.028c1.631,13.972,3.262,27.944,2.624,41.986a129.957,129.957,0,0,1-9.291,42.412c-16.1-25.39-23.475-55.391-27.447-85.249-.355-2.837-.709-5.958.78-8.44A6.887,6.887,0,0,1,580.754,236.645Z" />
      </g>
      <g
         id="g39"
         transform="translate(54.129 164.134)">
        <g
           id="g37"
           transform="translate(0)">
          <path
             id="path35"
             fill="#065447"
             transform="translate(-597.885 -271.496)"
             d="M617.292,279.938a13.35,13.35,0,0,0-1.418-4.965,4,4,0,0,0-3.9-1.915c-1.7.5-2.128,2.553-2.553,4.043-.567,1.915-1.064,3.759-1.56,5.674a235.212,235.212,0,0,0-4.61,23.192,378.526,378.526,0,0,0-3.759,47.376c-.213,8.865-.213,17.731-.142,26.6a.709.709,0,0,1-1.418,0c-.142-16.738,0-33.476,1.206-50.142a270.98,270.98,0,0,1,7.8-49.362,38.172,38.172,0,0,1,1.915-6.312,4.032,4.032,0,0,1,3.759-2.624c4.255.071,5.461,4.539,6.028,7.943.142.993-1.206,1.348-1.348.5Z" />
        </g>
      </g>
      <g
         id="g45"
         transform="translate(53.73 144.978)">
        <g
           id="g43"
           transform="translate(0)">
          <path
             id="path41"
             fill="#065447"
             transform="translate(-604.505 -244.485)"
             d="M620.481,245.914c-3.475.993-5.036,5.177-6.241,8.156a61.122,61.122,0,0,0-3.191,11.348,224.091,224.091,0,0,0-2.837,24.752c-1.489,17.305-2.2,34.61-2.269,51.915,0,9.716.142,19.433.567,29.149.071.922-1.348.922-1.418,0q-1.17-26.7,0-53.4c.355-8.865.922-17.8,1.631-26.667.709-8.369,1.348-16.809,2.837-25.107a61.726,61.726,0,0,1,3.617-12.979c1.419-3.4,3.192-7.518,7.021-8.582.78-.142,1.135,1.206.284,1.418Z" />
        </g>
      </g>
      <g
         id="g51"
         transform="translate(29.399 141.285)">
        <g
           id="g49"
           transform="translate(0)">
          <path
             id="path47"
             fill="#065447"
             transform="translate(-634.049 -239.278)"
             d="M634.072,242.343c.638-2.979,4.326-3.688,6.738-2.553,3.333,1.56,4.043,6.028,4.61,9.291,1.773,9.645,3.262,19.291,4.468,29.007a525.825,525.825,0,0,1,3.972,58.795c.142,11.135-.142,22.2-.78,33.263-.071.922-1.489.922-1.418,0a494.674,494.674,0,0,0,0-56.171,506.061,506.061,0,0,0-6.1-55.674c-.425-2.624-.922-5.248-1.348-7.872a30.012,30.012,0,0,0-1.418-6.17c-.709-1.7-1.915-3.333-3.9-3.546-1.489-.142-3.121.426-3.475,1.986a.7.7,0,1,1-1.347-.355Z" />
        </g>
      </g>
      <g
         id="g57"
         transform="translate(30.742 151.202)">
        <g
           id="g55"
           transform="translate(0)">
          <path
             id="path53"
             fill="#065447"
             transform="translate(-633.49 -253.262)"
             d="M633.658,255.558a7.1,7.1,0,0,1,7.872-1.844,10.516,10.516,0,0,1,6.6,6.6c1.419,3.546,1.56,7.518,1.844,11.277.355,4.681.638,9.362.922,14.043,1.135,18.653,1.56,37.305,1.489,56.029-.071,10.426-.284,20.922-.78,31.348-.071.922-1.489.922-1.419,0,.78-17.873.993-35.674.638-53.547-.142-8.936-.5-17.873-.922-26.738-.213-4.468-.5-8.936-.78-13.333-.284-4.184-.5-8.369-.922-12.553-.426-3.759-1.348-8.227-4.681-10.568-2.624-1.844-6.6-2.34-8.794.355-.638.638-1.631-.355-1.064-1.064Z" />
        </g>
      </g>
      <g
         id="g61"
         transform="translate(19.918 227.489)">
        <path
           id="path59"
           fill="#282633"
           transform="translate(-588.78 -360.825)"
           d="M594.88,464c-3.333-33.759-6.029-68.653-6.1-103.122q30.639-.106,61.277,0c1.206.071-4.965,95.746-5.745,106.171a7.2,7.2,0,0,1-.78,3.475,2.05,2.05,0,0,1-1.277.78c-14.752,3.972-28.227,1.348-42.837.709a3.4,3.4,0,0,1-3.05-1.418C595.447,469.035,595.092,466.411,594.88,464Z" />
      </g>
      <g
         id="g65"
         transform="translate(-8.912 145.868)">
        <path
           id="path63"
           fill="#198467"
           transform="translate(-652.3 -245.74)"
           d="M672.9,252.52c-14.965,22.7-24.468,50.426-19.078,77.093a68.379,68.379,0,0,1,5.319-12.128c6.383-12.341,12.837-24.681,19.22-37.093,2.766-5.39,5.6-10.78,8.794-15.887a76.77,76.77,0,0,1,5.106-7.447c1.56-1.986,3.9-3.121,5.248-5.106C688.647,246,680.279,241.385,672.9,252.52Z" />
      </g>
      <g
         id="g69"
         transform="translate(17.894 177.728)">
        <path
           id="path67"
           fill="#198467"
           transform="translate(-627.88 -290.663)"
           d="M639.763,290.831c5.106-1.064,7.376,3.121,9.433,6.88.78-2.908,4.4-4.468,7.305-3.617s5.036,3.475,6.028,6.312a27.309,27.309,0,0,1,1.064,9.007c0,15.532.5,33.9-4.468,48.795-4.255,12.766-6.95,26.525-16.951,36.454-7.376-22.553-14.894-45.674-14.255-69.433a103.027,103.027,0,0,1,3.192-22.766C632.316,297.5,634.727,291.895,639.763,290.831Z" />
      </g>
      <g
         id="g73"
         transform="translate(57.773 165.719)">
        <path
           id="path71"
           fill="#198467"
           transform="translate(-560.437 -273.73)"
           d="M562.369,275.2c4.894-4.184,10.355,1.7,14.468,3.688,3.475-5.461,8.156-5.248,13.4-.922,4.4,3.688,6.667,9.22,8.44,14.752a117.876,117.876,0,0,1-.142,71.206c-6.879-5.461-10.709-13.759-14.255-21.844-8.014-18.3-15.532-36.88-22.412-55.6C560.454,282.716,559.319,277.822,562.369,275.2Z" />
      </g>
      <g
         id="g79"
         transform="translate(73.063 169.569)">
        <g
           id="g77"
           transform="translate(0)">
          <path
             id="path75"
             fill="#065447"
             transform="translate(-568.896 -279.158)"
             d="M570.149,279.542a223.991,223.991,0,0,1,19.433,66.029c.851,6.454,1.418,12.979,1.7,19.433.071.922-1.348.922-1.418,0a220.242,220.242,0,0,0-13.4-66.88c-2.2-6.028-4.752-11.986-7.447-17.873-.5-.851.709-1.56,1.135-.709Z" />
        </g>
      </g>
      <g
         id="g85"
         transform="translate(79.493 172.929)">
        <g
           id="g83"
           transform="translate(0)">
          <path
             id="path81"
             fill="#fff"
             transform="translate(-581.7 -283.896)"
             d="M582.409,284.112a28.131,28.131,0,0,1,5.461-.142.711.711,0,0,1,.709.709.763.763,0,0,1-.709.709,23.366,23.366,0,0,0-5.461.142c-.355.071-.709-.355-.709-.709a.711.711,0,0,1,.709-.709Z" />
        </g>
      </g>
      <g
         id="g91"
         transform="translate(82.718 177.788)">
        <g
           id="g89"
           transform="translate(0)">
          <path
             id="path87"
             fill="#fff"
             transform="translate(-576.747 -290.747)"
             d="M577.636,290.785c1.915.78,3.83,1.489,5.745,2.27a.7.7,0,0,1,.5.851.673.673,0,0,1-.851.5c-1.915-.78-3.83-1.489-5.745-2.27a.7.7,0,0,1-.5-.851.673.673,0,0,1,.851-.5Z" />
        </g>
      </g>
      <g
         id="g97"
         transform="translate(85.679 184.475)">
        <g
           id="g95"
           transform="translate(0)">
          <path
             id="path93"
             fill="#fff"
             transform="translate(-574.2 -300.176)"
             d="M575.248,300.264c1.631,1.135,3.192,2.411,4.752,3.688a.7.7,0,0,1-.993.993,41.906,41.906,0,0,0-4.468-3.475.877.877,0,0,1-.284-.993.828.828,0,0,1,.993-.213Z" />
        </g>
      </g>
      <g
         id="g103"
         transform="translate(87.746 192.195)">
        <g
           id="g101"
           transform="translate(0)">
          <path
             id="path99"
             fill="#fff"
             transform="translate(-570.11 -311.061)"
             d="M571.29,311.3a70.862,70.862,0,0,1,5.461,4.752.7.7,0,0,1-.993.993,68.9,68.9,0,0,0-5.461-4.752.755.755,0,0,1,0-.993.635.635,0,0,1,.993,0Z" />
        </g>
      </g>
      <g
         id="g109"
         transform="translate(90.431 200.29)">
        <g
           id="g107"
           transform="translate(0)">
          <path
             id="path105"
             fill="#fff"
             transform="translate(-565.478 -322.474)"
             d="M566.526,322.563a55.225,55.225,0,0,1,6.029,3.972.785.785,0,0,1,.284.993.763.763,0,0,1-.993.284,49.157,49.157,0,0,0-6.028-3.972.732.732,0,0,1,.709-1.277Z" />
        </g>
      </g>
      <g
         id="g115"
         transform="translate(91.164 205.847)">
        <g
           id="g113"
           transform="translate(0)">
          <path
             id="path111"
             fill="#fff"
             transform="translate(-564.51 -330.31)"
             d="M565.747,330.516c1.986,1.915,3.972,3.759,5.958,5.674a.7.7,0,0,1-.993.993c-1.986-1.915-3.972-3.759-5.957-5.674-.709-.638.284-1.631.993-.993Z" />
        </g>
      </g>
      <g
         id="g121"
         transform="translate(92.797 212.903)">
        <g
           id="g119"
           transform="translate(0)">
          <path
             id="path117"
             fill="#fff"
             transform="translate(-564.71 -340.259)"
             d="M566.016,340.643a43.915,43.915,0,0,0,4.114,4.752.7.7,0,0,1-.993.993,49.027,49.027,0,0,1-4.326-5.036.733.733,0,0,1,.284-.993.654.654,0,0,1,.922.284Z" />
        </g>
      </g>
      <g
         id="g127"
         transform="translate(93.49 220.21)">
        <g
           id="g125"
           transform="translate(0)">
          <path
             id="path123"
             fill="#fff"
             transform="translate(-565.247 -350.561)"
             d="M566.427,350.8a19.611,19.611,0,0,1,3.333,6.525.7.7,0,0,1-1.348.355,18.445,18.445,0,0,0-2.979-5.887.755.755,0,0,1,0-.993.635.635,0,0,1,.993,0Z" />
        </g>
      </g>
      <g
         id="g133"
         transform="translate(95.295 230.933)">
        <g
           id="g131"
           transform="translate(0)">
          <path
             id="path129"
             fill="#fff"
             transform="translate(-565.681 -365.681)"
             d="M567.042,366.191c.355,1.418.709,2.908,1.064,4.326a.7.7,0,1,1-1.348.355c-.355-1.418-.709-2.908-1.064-4.326a.7.7,0,0,1,1.348-.355Z" />
        </g>
      </g>
      <g
         id="g139"
         transform="translate(62.188 170.45)">
        <g
           id="g137"
           transform="translate(0)">
          <path
             id="path135"
             fill="#fff"
             transform="translate(-605.381 -280.4)"
             d="M611.835,282.457q-2.872-.425-5.745-.638a.711.711,0,0,1-.709-.709.763.763,0,0,1,.709-.709c2.057.142,4.114.426,6.17.709a.771.771,0,0,1,.5.851.9.9,0,0,1-.922.5Z" />
        </g>
      </g>
      <g
         id="g145"
         transform="translate(63.635 175.556)">
        <g
           id="g143"
           transform="translate(0)">
          <path
             id="path141"
             fill="#fff"
             transform="translate(-602.1 -287.6)"
             d="M609.589,288.948a51.124,51.124,0,0,0-6.6,1.064.7.7,0,1,1-.355-1.348,46.613,46.613,0,0,1,7.021-1.064.763.763,0,0,1,.709.709.831.831,0,0,1-.78.638Z" />
        </g>
      </g>
      <g
         id="g151"
         transform="translate(66.428 179.632)">
        <g
           id="g149"
           transform="translate(0)">
          <path
             id="path147"
             fill="#fff"
             transform="translate(-600.337 -293.347)"
             d="M606.594,294.8a9.635,9.635,0,0,0-4.894,3.475.877.877,0,0,1-.993.284.785.785,0,0,1-.284-.993,10.987,10.987,0,0,1,5.745-4.184.673.673,0,0,1,.851.5.709.709,0,0,1-.425.922Z" />
        </g>
      </g>
      <g
         id="g157"
         transform="translate(69.545 185.627)">
        <g
           id="g155"
           transform="translate(0)">
          <path
             id="path153"
             fill="#fff"
             transform="translate(-597.386 -301.8)"
             d="M602.866,303.006a20.106,20.106,0,0,0-4.184,5.319c-.425.78-1.631.071-1.206-.709a19.018,19.018,0,0,1,4.468-5.6.686.686,0,0,1,.993,0,.762.762,0,0,1-.071.993Z" />
        </g>
      </g>
      <g
         id="g163"
         transform="translate(72.456 191.516)">
        <g
           id="g161"
           transform="translate(0)">
          <path
             id="path159"
             fill="#fff"
             transform="translate(-594.259 -310.103)"
             d="M599.168,311.165a36.822,36.822,0,0,1-3.546,5.745.785.785,0,0,1-.993.284.763.763,0,0,1-.284-.993,33.788,33.788,0,0,0,3.546-5.745.763.763,0,0,1,.993-.284.718.718,0,0,1,.284.993Z" />
        </g>
      </g>
      <g
         id="g169"
         transform="translate(75.574 198.363)">
        <g
           id="g167"
           transform="translate(0)">
          <path
             id="path165"
             fill="#fff"
             transform="translate(-589.679 -319.758)"
             d="M594.733,320.852c-1.277,2.482-2.482,4.894-3.759,7.376-.426.78-1.631.071-1.206-.709,1.277-2.482,2.482-4.894,3.759-7.376.354-.851,1.631-.142,1.206.709Z" />
        </g>
      </g>
      <g
         id="g175"
         transform="translate(78.316 204.55)">
        <g
           id="g173"
           transform="translate(0)">
          <path
             id="path171"
             fill="#fff"
             transform="translate(-586.8 -328.481)"
             d="M591.239,329.346A26.947,26.947,0,0,1,588.119,338c-.426.78-1.7.071-1.206-.709a24.77,24.77,0,0,0,2.979-8.3.729.729,0,0,1,.851-.5c.355.071.5.5.5.851Z" />
        </g>
      </g>
      <g
         id="g181"
         transform="translate(80.965 212.038)">
        <g
           id="g179"
           transform="translate(0)">
          <path
             id="path177"
             fill="#fff"
             transform="translate(-584.945 -339.04)"
             d="M588.012,339.934a72.8,72.8,0,0,0-1.7,7.8.729.729,0,0,1-.851.5.7.7,0,0,1-.5-.851,76.73,76.73,0,0,1,1.7-7.8.7.7,0,1,1,1.348.355Z" />
        </g>
      </g>
      <g
         id="g187"
         transform="translate(84.156 220.933)">
        <g
           id="g185"
           transform="translate(0)">
          <path
             id="path183"
             fill="#fff"
             transform="translate(-581 -351.581)"
             d="M583.712,352.445c-.425,2.7-.922,5.319-1.348,8.014a.729.729,0,0,1-.851.5.7.7,0,0,1-.5-.851c.425-2.7.922-5.319,1.347-8.014a.729.729,0,0,1,.851-.5.86.86,0,0,1,.5.851Z" />
        </g>
      </g>
      <g
         id="g193"
         transform="translate(86.796 230.069)">
        <g
           id="g191"
           transform="translate(0)">
          <path
             id="path189"
             fill="#fff"
             transform="translate(-578.3 -364.462)"
             d="M580.288,365.127c-.213,2.908-.355,5.745-.567,8.653-.071.922-1.489.922-1.418,0,.213-2.908.355-5.745.567-8.653,0-.851,1.419-.922,1.419,0Z" />
        </g>
      </g>
      <g
         id="g199"
         transform="translate(90.094 239.413)">
        <g
           id="g197"
           transform="translate(0)">
          <path
             id="path195"
             fill="#fff"
             transform="translate(-573.841 -377.637)"
             d="M575.225,378.107a12.817,12.817,0,0,1,.355,5.177.77.77,0,0,1-.851.5.7.7,0,0,1-.5-.851,10.226,10.226,0,0,0-.355-4.4.673.673,0,0,1,.5-.851.661.661,0,0,1,.851.426Z" />
        </g>
      </g>
      <g
         id="g205"
         transform="translate(31.393 183.74)">
        <g
           id="g203"
           transform="translate(0)">
          <path
             id="path201"
             fill="#065447"
             transform="translate(-648.085 -299.14)"
             d="M655.972,300.034c-.922,6.454-1.915,12.837-2.7,19.291-.78,6.383-1.135,12.766-1.348,19.149s-.213,12.7-.284,19.078-.5,12.7-.709,19.078c-.071,1.844-.142,3.617-.142,5.461,0,1.773.071,3.546,0,5.319-.213,3.262-1.418,6.383-1.277,9.716.071.922-1.348.922-1.418,0-.142-2.908.78-5.6,1.206-8.511a35.462,35.462,0,0,0,.142-4.752c0-1.56,0-3.121.071-4.752.142-6.454.638-12.837.709-19.291.284-12.837,0-25.745,1.489-38.582.851-7.163,1.986-14.326,2.979-21.561.071-.922,1.418-.567,1.277.355Z" />
        </g>
      </g>
      <g
         id="g211"
         transform="translate(42.352 186.242)">
        <g
           id="g209"
           transform="translate(0)">
          <path
             id="path207"
             fill="#fff"
             transform="translate(-637.247 -302.668)"
             d="M637.58,303.258a6.269,6.269,0,0,1,3.759-.5.7.7,0,0,1-.355,1.348h-1.7a3.073,3.073,0,0,0-.355.071c-.142.071-.284.071-.355.142-.071,0-.071.071-.142.071h0a.07.07,0,0,0-.071.071.718.718,0,0,1-.993-.284.62.62,0,0,1,.213-.922Z" />
        </g>
      </g>
      <g
         id="g217"
         transform="translate(41.922 192.01)">
        <g
           id="g215"
           transform="translate(0)">
          <path
             id="path213"
             fill="#fff"
             transform="translate(-634.981 -310.8)"
             d="M635.672,310.8a17.923,17.923,0,0,1,5.461.851.77.77,0,0,1,.5.851.673.673,0,0,1-.851.5,17.459,17.459,0,0,0-5.106-.78.709.709,0,0,1,0-1.418Z" />
        </g>
      </g>
      <g
         id="g223"
         transform="translate(41.465 197.883)">
        <g
           id="g221"
           transform="translate(0)">
          <path
             id="path219"
             fill="#fff"
             transform="translate(-633.747 -319.081)"
             d="M634.612,319.094a41.868,41.868,0,0,1,6.6,2.057.7.7,0,0,1,.5.851.673.673,0,0,1-.851.5,41.85,41.85,0,0,0-6.6-2.057.7.7,0,0,1,.355-1.348Z" />
        </g>
      </g>
      <g
         id="g229"
         transform="translate(40.732 203.822)">
        <g
           id="g227"
           transform="translate(0)">
          <path
             id="path225"
             fill="#fff"
             transform="translate(-634.421 -327.455)"
             d="M635.31,327.487a36.8,36.8,0,0,1,7.021,3.688.877.877,0,0,1,.284.993.785.785,0,0,1-.993.284,33.363,33.363,0,0,0-6.667-3.546.7.7,0,0,1-.5-.851c.071-.355.5-.709.851-.567Z" />
        </g>
      </g>
      <g
         id="g235"
         transform="translate(40.062 211.61)">
        <g
           id="g233"
           transform="translate(0)">
          <path
             id="path231"
             fill="#fff"
             transform="translate(-634.103 -338.436)"
             d="M635.165,338.552c2.553,1.206,5.177,2.482,7.731,3.688a.763.763,0,0,1,.284.993.785.785,0,0,1-.993.284c-2.553-1.206-5.177-2.482-7.731-3.688a.763.763,0,0,1-.284-.993.667.667,0,0,1,.993-.284Z" />
        </g>
      </g>
      <g
         id="g241"
         transform="translate(39.896 218.78)">
        <g
           id="g239"
           transform="translate(0)">
          <path
             id="path237"
             fill="#fff"
             transform="translate(-636.021 -348.545)"
             d="M636.895,348.584a23.516,23.516,0,0,1,6.738,3.191.877.877,0,0,1,.284.993.785.785,0,0,1-.993.284A22.025,22.025,0,0,0,636.54,350c-.922-.355-.5-1.7.354-1.418Z" />
        </g>
      </g>
      <g
         id="g247"
         transform="translate(38.925 224.784)">
        <g
           id="g245"
           transform="translate(0)">
          <path
             id="path243"
             fill="#fff"
             transform="translate(-637.122 -357.011)"
             d="M638.327,357.216c2.128,1.844,4.326,3.617,6.6,5.248a.877.877,0,0,1,.284.993.785.785,0,0,1-.993.284,86.07,86.07,0,0,1-6.879-5.461.684.684,0,0,1,0-.993.638.638,0,0,1,.993-.071Z" />
        </g>
      </g>
      <g
         id="g253"
         transform="translate(39.216 232.088)">
        <g
           id="g251"
           transform="translate(0)">
          <path
             id="path249"
             fill="#fff"
             transform="translate(-637.51 -367.31)"
             d="M638.708,367.516l6.17,6.383a.7.7,0,0,1-.993.993l-6.17-6.383a.7.7,0,0,1,.993-.993Z" />
        </g>
      </g>
      <g
         id="g259"
         transform="translate(37.974 240.718)">
        <g
           id="g257"
           transform="translate(0)">
          <path
             id="path255"
             fill="#fff"
             transform="translate(-639.759 -379.478)"
             d="M641.136,379.848c1.915,2.553,3.83,5.106,5.745,7.731a.73.73,0,0,1-1.277.709c-1.915-2.553-3.83-5.106-5.745-7.731a.733.733,0,0,1,.284-.993.763.763,0,0,1,.993.284Z" />
        </g>
      </g>
      <g
         id="g265"
         transform="translate(37.204 250.066)">
        <g
           id="g263"
           transform="translate(0)">
          <path
             id="path261"
             fill="#fff"
             transform="translate(-644.174 -392.658)"
             d="M645.469,393.043c1.135,2.2,2.34,4.468,3.475,6.667.425.78-.78,1.56-1.206.709-1.135-2.2-2.34-4.468-3.475-6.667-.426-.851.78-1.56,1.206-.709Z" />
        </g>
      </g>
      <g
         id="g271"
         transform="translate(36.303 259.176)">
        <g
           id="g269"
           transform="translate(0)">
          <path
             id="path267"
             fill="#fff"
             transform="translate(-646.059 -405.503)"
             d="M647.4,405.856a39.96,39.96,0,0,0,2.979,5.39.73.73,0,0,1-1.277.709,39.96,39.96,0,0,1-2.979-5.39.785.785,0,0,1,.284-.993.807.807,0,0,1,.993.284Z" />
        </g>
      </g>
      <g
         id="g277"
         transform="translate(29.563 182.577)">
        <g
           id="g275"
           transform="translate(0)">
          <path
             id="path273"
             fill="#fff"
             transform="translate(-653.081 -297.5)"
             d="M658.4,299.628a24.96,24.96,0,0,0-4.61-.709.711.711,0,0,1-.709-.709.763.763,0,0,1,.709-.709,28.955,28.955,0,0,1,4.965.78.729.729,0,0,1,.5.851.63.63,0,0,1-.851.5Z" />
        </g>
      </g>
      <g
         id="g283"
         transform="translate(26.429 188.239)">
        <g
           id="g281"
           transform="translate(0)">
          <path
             id="path279"
             fill="#fff"
             transform="translate(-655.9 -305.482)"
             d="M662.509,306.913a19.654,19.654,0,0,0-5.745.426.7.7,0,1,1-.355-1.348,19.539,19.539,0,0,1,6.1-.426.711.711,0,0,1,.709.709.759.759,0,0,1-.709.638Z" />
        </g>
      </g>
      <g
         id="g289"
         transform="translate(25.413 194.595)">
        <g
           id="g287"
           transform="translate(0)">
          <path
             id="path285"
             fill="#fff"
             transform="translate(-656.54 -314.445)"
             d="M663.882,315.832c-2.2.567-4.326,1.206-6.454,1.915a.7.7,0,1,1-.355-1.348c2.128-.709,4.255-1.348,6.454-1.915a.7.7,0,1,1,.355,1.348Z" />
        </g>
      </g>
      <g
         id="g295"
         transform="translate(22.938 200.838)">
        <g
           id="g293"
           transform="translate(0)">
          <path
             id="path291"
             fill="#fff"
             transform="translate(-658.147 -323.247)"
             d="M666.829,324.7a34.417,34.417,0,0,0-7.589,4.184.73.73,0,1,1-.709-1.277,30.853,30.853,0,0,1,7.943-4.326.673.673,0,0,1,.851.5.688.688,0,0,1-.5.922Z" />
        </g>
      </g>
      <g
         id="g301"
         transform="translate(21.991 209.127)">
        <g
           id="g299"
           transform="translate(0)">
          <path
             id="path297"
             fill="#fff"
             transform="translate(-659.423 -334.934)"
             d="M668.343,336.257l-7.872,4.894c-.78.5-1.489-.709-.709-1.206l7.872-4.894c.78-.5,1.489.709.709,1.206Z" />
        </g>
      </g>
      <g
         id="g307"
         transform="translate(22.899 216.22)">
        <g
           id="g305"
           transform="translate(0)">
          <path
             id="path303"
             fill="#fff"
             transform="translate(-659.1 -344.936)"
             d="M667.466,346.116a32.3,32.3,0,0,1-7.3,4.539.73.73,0,1,1-.709-1.277,33.709,33.709,0,0,0,7.021-4.255.755.755,0,0,1,.993,0,.684.684,0,0,1,0,.993Z" />
        </g>
      </g>
      <g
         id="g313"
         transform="translate(23.18 225.627)">
        <g
           id="g311"
           transform="translate(0)">
          <path
             id="path309"
             fill="#fff"
             transform="translate(-661.136 -358.2)"
             d="M667.8,359.406c-1.844,1.631-3.617,3.191-5.461,4.823a.7.7,0,0,1-.993-.993c1.844-1.631,3.617-3.192,5.461-4.823a.686.686,0,0,1,.993,0c.213.284.284.78,0,.993Z" />
        </g>
      </g>
      <g
         id="g319"
         transform="translate(24.199 233.883)">
        <g
           id="g317"
           transform="translate(0)">
          <path
             id="path315"
             fill="#fff"
             transform="translate(-659.823 -369.841)"
             d="M666.251,371.159A17,17,0,0,0,661,375.7a.7.7,0,0,1-.993-.993,18.762,18.762,0,0,1,5.532-4.752c.78-.5,1.489.78.709,1.206Z" />
        </g>
      </g>
      <g
         id="g325"
         transform="translate(25.121 241.696)">
        <g
           id="g323"
           transform="translate(0)">
          <path
             id="path321"
             fill="#fff"
             transform="translate(-658.81 -380.856)"
             d="M665.167,382.093c-1.773,1.773-3.475,3.617-5.177,5.6a.685.685,0,0,1-.993,0,.755.755,0,0,1,0-.993c1.631-1.915,3.333-3.83,5.177-5.6.638-.709,1.631.284.993.993Z" />
        </g>
      </g>
      <g
         id="g331"
         transform="translate(26.585 250.382)">
        <g
           id="g329"
           transform="translate(0)">
          <path
             id="path327"
             fill="#fff"
             transform="translate(-658.8 -393.103)"
             d="M663.836,394.165a16.7,16.7,0,0,1-3.83,5.319.7.7,0,0,1-.993-.993,14.964,14.964,0,0,0,3.617-5.036.763.763,0,0,1,.993-.284.854.854,0,0,1,.213.993Z" />
        </g>
      </g>
      <g
         id="g337"
         transform="translate(29.563 260.067)">
        <g
           id="g335"
           transform="translate(0)">
          <path
             id="path333"
             fill="#fff"
             transform="translate(-659.134 -406.759)"
             d="M660.978,407.71l-.426,2.979c0,.142-.213.355-.355.426a.754.754,0,0,1-.567.071c-.142-.071-.355-.142-.426-.355a1.562,1.562,0,0,1-.071-.567l.426-2.979c0-.142.213-.355.354-.426a.754.754,0,0,1,.568-.071c.142.071.355.142.426.355a.555.555,0,0,1,.071.567Z" />
        </g>
      </g>
      <g
         id="g343"
         transform="translate(21.407 149.811)">
        <g
           id="g341"
           transform="translate(0)">
          <path
             id="path339"
             fill="#fff"
             transform="translate(-662.023 -251.3)"
             d="M668.973,254.633a13.953,13.953,0,0,0-6.241-1.915.711.711,0,0,1-.709-.709.763.763,0,0,1,.709-.709,15.036,15.036,0,0,1,6.95,2.128c.78.426.071,1.7-.709,1.206Z" />
        </g>
      </g>
      <g
         id="g349"
         transform="translate(15.255 155.411)">
        <g
           id="g347"
           transform="translate(0)">
          <path
             id="path345"
             fill="#fff"
             transform="translate(-667.525 -259.196)"
             d="M677.082,261.114c-2.979-.142-5.958-.355-8.865-.5-.922-.071-.922-1.489,0-1.418,2.979.142,5.957.355,8.865.5a.709.709,0,0,1,0,1.418Z" />
        </g>
      </g>
      <g
         id="g355"
         transform="translate(12.276 162.081)">
        <g
           id="g353"
           transform="translate(0)">
          <path
             id="path351"
             fill="#fff"
             transform="translate(-673 -268.6)"
             d="M681.706,270.018h-8.014a.709.709,0,0,1,0-1.418h8.014a.713.713,0,0,1,0,1.418Z" />
        </g>
      </g>
      <g
         id="g361"
         transform="translate(7.484 167.4)">
        <g
           id="g359"
           transform="translate(0)">
          <path
             id="path357"
             fill="#fff"
             transform="translate(-677.812 -276.1)"
             d="M687.834,277.518a39.53,39.53,0,0,0-9.149,1.277c-.851.213-1.276-1.135-.355-1.348a39.48,39.48,0,0,1,9.575-1.348c.851,0,.851,1.418-.071,1.418Z" />
        </g>
      </g>
      <g
         id="g367"
         transform="translate(3.563 174.386)">
        <g
           id="g365"
           transform="translate(0)">
          <path
             id="path363"
             fill="#fff"
             transform="translate(-682.625 -285.95)"
             d="M693.164,287.4a36.711,36.711,0,0,0-9.646.78c-.922.213-1.276-1.206-.355-1.348a39.476,39.476,0,0,1,10-.851c.922.071.922,1.489,0,1.418Z" />
        </g>
      </g>
      <g
         id="g373"
         transform="translate(2.063 181.122)">
        <g
           id="g371"
           transform="translate(0)">
          <path
             id="path369"
             fill="#fff"
             transform="translate(-688.281 -295.447)"
             d="M696.49,296.832a24.752,24.752,0,0,1-7.518,1.418.709.709,0,0,1,0-1.418,25.07,25.07,0,0,0,7.163-1.348.673.673,0,0,1,.851.5.693.693,0,0,1-.5.851Z" />
        </g>
      </g>
      <g
         id="g379"
         transform="translate(-1.215 187.023)">
        <g
           id="g377"
           transform="translate(0)">
          <path
             id="path375"
             fill="#fff"
             transform="translate(-693.812 -303.768)"
             d="M701.4,305.209c-2.2.709-4.4,1.489-6.525,2.411a.73.73,0,1,1-.709-1.277,61.821,61.821,0,0,1,6.879-2.553c.851-.213,1.206,1.135.355,1.418Z" />
        </g>
      </g>
      <g
         id="g385"
         transform="translate(-3.799 195.377)">
        <g
           id="g383"
           transform="translate(0)">
          <path
             id="path381"
             fill="#fff"
             transform="translate(-696.738 -315.547)"
             d="M704.782,317a31.806,31.806,0,0,0-6.951,3.9.733.733,0,0,1-.993-.284.718.718,0,0,1,.284-.993,36.782,36.782,0,0,1,7.3-4.043.673.673,0,0,1,.851.5.7.7,0,0,1-.5.922Z" />
        </g>
      </g>
      <g
         id="g391"
         transform="translate(-6.645 203.4)">
        <g
           id="g389"
           transform="translate(0)">
          <path
             id="path387"
             fill="#fff"
             transform="translate(-702.136 -326.859)"
             d="M709.337,328.165a30.38,30.38,0,0,1-6.312,3.475.673.673,0,0,1-.851-.5c-.142-.426.142-.709.5-.851a25.075,25.075,0,0,0,6.028-3.333.733.733,0,0,1,.993.284.846.846,0,0,1-.355.922Z" />
        </g>
      </g>
      <g
         id="g397"
         transform="translate(-6.253 210.988)">
        <g
           id="g395"
           transform="translate(0)">
          <path
             id="path393"
             fill="#fff"
             transform="translate(-706.003 -337.559)"
             d="M710.117,338.865a7.419,7.419,0,0,0-1.631.922c-.071.071-.142.071-.142.142,0,0-.142.071-.071.071h0c-.142.071-.213.213-.355.284-.213.213-.5.426-.709.638a.7.7,0,0,1-.993-.993,9.089,9.089,0,0,1,3.192-2.27.8.8,0,0,1,.567-.071c.142.071.354.142.425.355a.736.736,0,0,1-.284.922Z" />
        </g>
      </g>
    </g>
  </g>
  <g
     id="g563"
     transform="translate(0 61.599)">
    <g
       id="g561"
       transform="translate(0)">
      <g
         id="g405"
         transform="translate(326.384 227.908)">
        <path
           id="path403"
           fill="#282633"
           transform="translate(-212.084 -448.269)"
           d="M222.155,498.717c-3.617-15.6-8.936-43.476-10.071-47.164,4.4-1.064,8.723-2.057,13.121-3.121a2.347,2.347,0,0,1,1.7,0c.638.284.851,1.064.993,1.7,3.972,17.8,6.1,36.951,7.092,55.178a4.626,4.626,0,0,1-.142,1.7c-.993,3.192-7.092,2.34-9.575,2.27C224.779,509.285,223.574,504.958,222.155,498.717Z" />
      </g>
      <g
         id="g409"
         transform="translate(92.623 250.407)">
        <path
           id="path407"
           fill="#282633"
           transform="translate(-551.285 -479.992)"
           d="M552.846,528.863c-.78-16.029-1.064-44.327-1.56-48.157,4.468-.213,8.936-.5,13.475-.709a2.814,2.814,0,0,1,1.7.284,2.406,2.406,0,0,1,.709,1.844c.78,18.227-.567,37.447-2.766,55.533a5.01,5.01,0,0,1-.426,1.7c-1.56,2.979-7.376,1.064-9.858.5C553.555,539.715,553.2,535.317,552.846,528.863Z" />
      </g>
      <g
         id="g413"
         transform="translate(8.825 200.27)">
        <path
           id="path411"
           fill="#282633"
           transform="translate(-665.367 -409.3)"
           d="M665.618,457.386c.78-16.029,3.192-44.256,3.121-48.086,4.468.213,8.936.355,13.475.567a2.245,2.245,0,0,1,1.631.5,2.276,2.276,0,0,1,.5,1.915c-.993,18.227-4.184,37.234-8.156,55.036a6.347,6.347,0,0,1-.567,1.631c-1.844,2.837-7.447.355-9.858-.425C665.263,468.237,665.263,463.84,665.618,457.386Z" />
      </g>
      <g
         id="g421"
         transform="translate(0 48.252)">
        <path
           id="path415"
           fill="#fec14c"
           transform="translate(-95.472 -194.956)"
           d="M320.082,306.62a19.436,19.436,0,0,0,9.007-4.894c17.021-16.6,30.71-39.291,45.391-58.015,9.078-11.56,18.085-23.121,27.163-34.61,5.106-6.525,11.206-13.546,19.433-14.114,3.333-.213,6.667.709,9.858,1.631a468.23,468.23,0,0,1,84.682,32.837c4.681,2.34,9.787,5.177,11.348,10.142,1.418,4.326-.355,9.007-2.057,13.263-6.383,15.816-12.766,31.135-20.426,46.454-11.419,21.348-23.546,42.341-36.525,62.767-6.17,9.787-13.121,19.929-23.617,24.823-5.319,2.482-11.135,3.4-16.88,4.326q-96.6,15.107-194.328,21.064c-21.7,1.348-45.6,3.9-66.6-2.837-4.894-1.56-9.433-4.255-13.759-7.021-19.717-12.7-36.525-27.873-52.483-44.894a18.673,18.673,0,0,1-4.255-6.028c-1.064-2.979-.426-6.312.284-9.433,1.489-7.234,3.688-15.319,10.284-18.653,2.979-1.489,6.383-1.773,9.716-1.986,49.717-3.333,99.434-5.319,149.08-9.362,12.27-.993,24.468-2.128,36.738-3.4C308.167,307.967,314.479,308.109,320.082,306.62Z" />
        <g
           id="g419"
           transform="translate(0.071 32.2)">
          <path
             id="path417"
             fill="#fbac47"
             transform="translate(-95.372 -240.358)"
             d="M95.937,364.715c-1.064-2.979-.426-6.312.284-9.433,1.135-5.39,2.624-11.277,6.1-15.319.922-1.064,63.83,49.575,70.426,54.752a18.635,18.635,0,0,0,5.036,3.121,18.8,18.8,0,0,0,6.312.709c19.575-.142,39.859,1.135,59.291-.78,18.936-1.844,37.944-4.965,56.88-7.376q58.086-7.234,116.171-14.539c3.05-.355,6.17-.78,8.794-2.482,2.411-1.56,4.043-4.043,5.6-6.525,11.7-18.085,24.043-34.752,33.4-54.114q14.681-30.32,29.362-60.71c1.631-3.4,3.4-6.88,6.454-9.078a15.229,15.229,0,0,1,11.49-2.34c1.348.638,2.624,1.277,3.972,1.986,4.681,2.34,9.787,5.177,11.348,10.142,1.418,4.326-.355,9.007-2.057,13.263-6.383,15.816-12.766,31.135-20.426,46.454-11.419,21.348-23.546,42.341-36.525,62.767-6.17,9.787-13.121,19.929-23.617,24.823-5.319,2.482-11.135,3.4-16.88,4.326q-96.6,15.107-194.328,21.064c-21.7,1.348-45.6,3.9-66.6-2.837-4.894-1.56-9.433-4.255-13.759-7.021-19.717-12.7-36.525-27.873-52.483-44.894A16.146,16.146,0,0,1,95.937,364.715Z" />
        </g>
      </g>
      <g
         id="g425"
         transform="translate(63.186 66.689)">
        <path
           id="path423"
           fill="#fbac47"
           transform="translate(-183.096 -220.952)"
           d="M408.422,270.774c10-19.149,21.844-31.7,38.156-45.178a22.457,22.457,0,0,1,5.319-3.546c4.326-1.844,9.291-1.064,13.83.142,6.241,1.56,12.624,3.972,17.021,8.723,3.972,4.255,6.028,10.142,6.667,15.958a67.022,67.022,0,0,1-2.7,26.525A236.412,236.412,0,0,1,449.628,346.8c-2.269,2.979-4.681,6.028-8.014,7.8-3.333,1.7-7.163,1.915-10.851,2.128q-61.49,3.4-122.909,6.88c-34.539,1.915-69.362,3.83-103.405-1.986-8.44-1.418-18.156-4.468-20.922-12.624a5.886,5.886,0,0,1-.142-3.972c.709-1.773,2.482-2.7,4.184-3.546,23.546-11.064,49.646-15.177,75.32-19.149l95.746-14.894c11.844-1.844,24.4-3.972,33.476-11.773C399.627,289.143,403.812,279.639,408.422,270.774Z" />
      </g>
      <g
         id="g431"
         transform="translate(327.654 214.008)">
        <g
           id="g429"
           transform="translate(0)">
          <path
             id="path427"
             fill="#282633"
             transform="translate(-213.7 -428.669)"
             d="M214.558,428.691c2.553.5,4.184,2.766,5.674,4.681,1.986,2.624,3.9,5.177,5.887,7.8,3.333,4.4,7.872,9.22,8.085,15.036a.709.709,0,0,1-1.418,0,13.731,13.731,0,0,0-2.7-7.305c-1.56-2.34-3.333-4.539-4.965-6.809-1.844-2.411-3.617-4.823-5.461-7.234-1.418-1.915-2.908-4.4-5.39-4.894-.993-.071-.567-1.489.284-1.277Z" />
        </g>
      </g>
      <g
         id="g437"
         transform="translate(77.639 238.258)">
        <g
           id="g435"
           transform="translate(0)">
          <path
             id="path433"
             fill="#282633"
             transform="translate(-583.296 -462.862)"
             d="M591.684,463.527a67.952,67.952,0,0,1-7.092,27.022c-.425.78-1.631.071-1.206-.709a65.273,65.273,0,0,0,6.88-26.312c.071-.851,1.489-.922,1.419,0Z" />
        </g>
      </g>
      <g
         id="g559"
         transform="translate(47.066)">
        <g
           id="g441"
           transform="translate(6.179 179.419)">
          <path
             id="path439"
             fill="#f6d1ba"
             transform="translate(-535.692 -379.9)"
             d="M601.453,395.787c3.333-1.56-4.965-14.61-5.816-15.887-8.936,3.759-20.426,9.646-30.213,8.794-5.035-.426-10-1.348-15.036-2.057-2.7-.355-11.7-2.7-13.9-.638-4.255,3.972,9.787,13.688,12.837,15.532,3.759,2.27,8.156,3.262,11.915,5.461,3.191,1.915,5.887,4.681,9.362,6.028,6.454,2.624,10.284-2.7,14.539-6.525A63.627,63.627,0,0,1,601.453,395.787Z" />
        </g>
        <g
           id="g445"
           transform="translate(47.117 179.419)">
          <path
             id="path443"
             fill="#efa294"
             transform="translate(-535.692 -379.9)"
             d="M540.515,409.9a64.894,64.894,0,0,1-4.823-22.553c6.667-1.844,13.333-5.106,19.007-7.447.851,1.277,9.149,14.326,5.816,15.887A68.986,68.986,0,0,0,544.2,406.5C543,407.56,541.791,408.766,540.515,409.9Z" />
        </g>
        <g
           id="g449"
           transform="translate(53.5 139.617)">
          <path
             id="path447"
             fill="#1c1a28"
             transform="translate(-270.223 -323.779)"
             d="M450.3,373.511a50.968,50.968,0,0,0,17.66-8.794c.922-.709,12.553-10.5,9.149-12.2-9.362-4.61-18.724-9.22-27.589-14.752-3.546-2.2-7.092-4.61-10.993-6.17-5.177-2.057-8.44-.567-13.4-.355-5.106.142-10.638-1.348-15.674-2.057-11.206-1.631-22.412-3.121-33.617-4.539-5.39-.709-10.851-1.348-16.17-.355-5.177.922-9.929,3.333-14.61,5.674-13.759,6.95-27.589,13.972-41.348,20.922-6.525,3.333-14.255,6.1-20.213,10.355-1.489,1.064-13.263,8.724-13.263,8.582.922,6.88,4.894,13.617,8.865,19.149a3.91,3.91,0,0,0,1.206,1.206,4.59,4.59,0,0,0,2.766.142A237.883,237.883,0,0,0,322,379.61c13.617-4.965,27.022-10.355,40.355-15.958a16.622,16.622,0,0,1,5.745-1.631,15.533,15.533,0,0,1,4.681.851C398.025,369.823,423.77,380.958,450.3,373.511Z" />
        </g>
        <g
           id="g453"
           transform="translate(138.523 122.83)">
          <path
             id="path451"
             fill="#efa294"
             transform="translate(-310.001 -300.11)"
             d="M388.385,324.217c8.511-1.135,15.036-5.39,15.816-14.681.284-3.546-.142-8.014-4.184-9.149-2.624-.709-5.39.071-8.014.922-11.844,3.688-23.617,7.376-35.461,11.135-4.4,1.418-9.007,2.766-13.617,2.34-1.773-.142-3.475-.567-5.248-.709-9.575-.638-22.341,6.738-26.738,15.107a1.408,1.408,0,0,0-.709,2.128,3.756,3.756,0,0,0,2.2,1.348c11.7,3.4,23.759-3.191,35.816-5.248,5.39-.922,10.922-.922,16.383-1.135C372.64,325.99,380.513,325.28,388.385,324.217Z" />
        </g>
        <g
           id="g457"
           transform="translate(0 151.402)">
          <path
             id="path455"
             fill="#f6d1ba"
             transform="translate(-547.28 -340.396)"
             d="M610.639,371.179c1.915-.142.922-14.114.638-15.816a150.449,150.449,0,0,1-17.873.5c-6.028-.284-12.482-4.468-17.731-7.163-6.809-3.475-13.688-6.454-21.206-8.014-2.482-.5-5.674-.567-6.809,1.631-.709,1.418-.284,3.121.142,4.61,2.7,8.44,5.035,13.9,12.553,18.794,6.17,3.972,13.972,3.617,20.71,6.312a11.379,11.379,0,0,0,4.043,1.064c3.9.071,7.589-1.631,11.7-1.489C601.49,371.6,606.029,371.534,610.639,371.179Z" />
        </g>
        <g
           id="g461"
           transform="translate(30.592 165.305)">
          <path
             id="path459"
             fill="#efa294"
             transform="translate(-547.255 -360)"
             d="M547.255,376.6l.426-.638c3.121-5.177,5.958-10.5,8.582-15.958a20.305,20.305,0,0,0,6.6,1.56,150.429,150.429,0,0,0,17.872-.5c.213,1.7,1.206,15.674-.638,15.816a126.9,126.9,0,0,1-13.759.284c-4.114-.142-7.8,1.56-11.7,1.489a11.38,11.38,0,0,1-4.043-1.064C549.453,377.234,548.39,376.88,547.255,376.6Z" />
        </g>
        <g
           id="g465"
           transform="translate(42.817 155.501)">
          <path
             id="path463"
             fill="#282633"
             transform="translate(-240.8 -346.177)"
             d="M423.755,392.293c-30.355,1.135-59.362-10.568-89.5-9.362-6.17.213-12.27.922-18.44.922-10.851,0-21.773-1.915-32.554-2.7-11.7-.851-23.4-1.7-35.107-2.7a6.857,6.857,0,0,1-3.9-1.206,6.334,6.334,0,0,1-1.56-3.333c-1.135-5.674-.638-11.348-1.773-16.951a2.345,2.345,0,0,1,.142-1.844,2.2,2.2,0,0,1,1.773-.638c15.39-1.206,30.851-2.411,46.242-3.617,14.185-1.135,29.646-4.113,43.759-3.121,28.653,2.057,58.157-1.489,87.022-1.489,5.6-.142,11.277-.284,16.738,1.064,4.61,1.206,8.936,3.475,13.121,5.745q15.319,8.4,30.142,17.731c-5.816,20.993-35.816,20.213-52.908,21.348C425.883,392.222,424.819,392.293,423.755,392.293Z" />
        </g>
        <g
           id="g469"
           transform="translate(214.07 73.129)">
          <path
             id="path467"
             fill="#fff"
             transform="translate(-192.779 -230.033)"
             d="M239.375,347.812a20.4,20.4,0,0,1-6.738-2.553c-4.823-2.979-7.518-8.156-11.773-11.773-4.4-3.688-7.376-7.66-11.419-11.773-5.816-5.887-14.752-9.716-16.667-17.731,7.234-3.121,10.851-10.5,14.539-16.951,4.114-7.163,7.8-14.468,11.56-21.773,3.4-6.667,7.234-13.333,9.716-20.426,2.057-5.816,5.461-8.653,11.419-10.709a74.5,74.5,0,0,1,32.057-3.688c9.007.993,18.865,16.88,21.56,24.894,3.688,10.922-3.617,27.092-7.872,37.234-4.255,10.284-10.568,19.716-16.1,29.291-5.532,9.433-7.872,18.795-17.092,25.532a6.354,6.354,0,0,1-2.128,1.206,5.444,5.444,0,0,1-1.844.071A65.506,65.506,0,0,1,239.375,347.812Z" />
        </g>
        <g
           id="g473"
           transform="translate(202.067 72.076)">
          <path
             id="path471"
             fill="#519872"
             transform="translate(-249.5 -228.548)"
             d="M280.581,262.7c3.192-3.192,7.163-5.532,9.787-9.007,2.7-3.617,3.972-8.3,6.525-12.057,3.4-5.036,8.794-7.731,14.326-9.929a42.016,42.016,0,0,1,10.142-3.121,1.805,1.805,0,0,1,1.489.284,1.528,1.528,0,0,1,.284,1.135,7.514,7.514,0,0,1-2.766,4.752c-1.418,1.206-3.05,2.2-4.468,3.4-3.617,2.979-5.177,7.305-8.156,10.638-3.262,3.617-7.66,5.887-10.638,9.787-4.255,5.532-5.248,12.908-7.872,19.433-2.7,6.525-7.092,12.128-11.844,17.234-3.333,3.617-6.028,8.582-10.355,11.135-4.61,2.7-9.433.567-14.185-1.206-1.489-.567-3.121-1.418-3.333-2.908a3.38,3.38,0,0,1,1.7-3.05,24.481,24.481,0,0,1,3.4-1.419c10.78-4.184,13.121-18.44,19.007-27.022A44.54,44.54,0,0,1,280.581,262.7Z" />
        </g>
        <g
           id="g477"
           transform="translate(266.231 44.559)">
          <path
             id="path475"
             fill="#f6d1ba"
             transform="translate(-219.105 -189.749)"
             d="M249.285,219.36a10.253,10.253,0,0,1-.638,3.262,13.323,13.323,0,0,1-2.482,3.759,23.612,23.612,0,0,1-9.291,6.738,14.17,14.17,0,0,1-11.277-.355,24.455,24.455,0,0,1-5.461-4.326,4.21,4.21,0,0,1-.922-1.277,3.29,3.29,0,0,1,.071-1.844c2.27-9.433,4.184-19.291,4.61-29.007a5.471,5.471,0,0,1,.567-2.624,5.059,5.059,0,0,1,2.908-1.844,43.011,43.011,0,0,1,19.433-1.631,3.78,3.78,0,0,1,2.128.851c2.411,2.482.5,8.014.213,10.922-.5,4.965.213,10.355.142,15.461A8.646,8.646,0,0,1,249.285,219.36Z" />
        </g>
        <g
           id="g481"
           transform="translate(251.162 69.055)">
          <path
             id="path479"
             fill="#3c7f5a"
             transform="translate(-245.898 -224.289)"
             d="M256.678,230.963c-4.468,2.27-9.433,5.036-10.78,9.858a56.546,56.546,0,0,0,9.149.5,19.534,19.534,0,0,1-.355,7.305c1.631-2.837,3.333-5.6,4.965-8.44,2.624-4.468,6.738-7.376,10.851-10.355a6.867,6.867,0,0,0,2.057-1.986,2.459,2.459,0,0,0,0-2.766,2.6,2.6,0,0,0-2.837-.638,10.135,10.135,0,0,0-2.624,1.631C264.054,228.268,260.082,229.261,256.678,230.963Z" />
        </g>
        <g
           id="g485"
           transform="translate(266.765 44.666)">
          <path
             id="path483"
             fill="#efa294"
             transform="translate(-228.174 -189.9)"
             d="M246.613,189.971c.355,0,.638-.071.993-.071a.9.9,0,0,1,.426.071c2.128.355,3.262,2.7,3.759,4.823,2.34,10.426-4.965,22.7-12.553,29.433a10.029,10.029,0,0,1-5.532,2.908,7.429,7.429,0,0,1-5.532-2.2,154.189,154.189,0,0,0,4.468-28.44,7.307,7.307,0,0,1,.426-2.482c3.972-1.206,8.014-2.411,11.986-3.617A5.635,5.635,0,0,1,246.613,189.971Z" />
        </g>
        <g
           id="g489"
           transform="translate(253.889 6.211)">
          <path
             id="path487"
             fill="#f6d1ba"
             transform="translate(-210.299 -135.68)"
             d="M232.041,195.056a40.4,40.4,0,0,0,8.3-4.4c6.17-4.255,11.064-12.624,15.036-18.936,3.759-6.028,5.461-11.348,4.043-18.369a19.506,19.506,0,0,0-9.078-13.192,34.77,34.77,0,0,0-15.532-4.4,33.234,33.234,0,0,0-10.922.922c-16.312,4.752-13.546,21.7-13.192,34.965.142,4.681-.355,9.433-.071,14.114.213,3.333.567,9.858,4.184,11.56a7.456,7.456,0,0,0,3.546.5A38.935,38.935,0,0,0,232.041,195.056Z" />
        </g>
        <g
           id="g493"
           transform="translate(249.997 34.595)">
          <path
             id="path491"
             fill="#efa294"
             transform="translate(-271.7 -175.7)"
             d="M280.809,187.473a16.021,16.021,0,0,0,.5-3.972,54.749,54.749,0,0,0,.355-6.809,1.007,1.007,0,0,0-.567-.993c-1.773,1.418-1.986,5.106-2.908,7.092a4.991,4.991,0,0,1-1.064,1.631,4.78,4.78,0,0,1-2.411.922,5.619,5.619,0,0,0-2.411.993,1.436,1.436,0,0,0-.213,2.128,2.767,2.767,0,0,0,1.135.5c2.27.567,4.255.851,6.454-.142A2.662,2.662,0,0,0,280.809,187.473Z" />
        </g>
        <g
           id="g497"
           transform="translate(265.823 22.806)">
          <path
             id="path495"
             fill="#1e2f44"
             transform="translate(-247.358 -159.078)"
             d="M248.088,161.434c1.7.426,3.4.78,5.106,1.206,1.418.355,2.837,1.277,4.184,1.418a1.474,1.474,0,0,0,.78-.071c2.128-1.206-2.057-3.9-2.837-4.255a11.947,11.947,0,0,0-6.312-.426,2.311,2.311,0,0,0-1.348.567.9.9,0,0,0-.071,1.277A.475.475,0,0,0,248.088,161.434Z" />
        </g>
        <g
           id="g501"
           transform="translate(253.786 22.748)">
          <path
             id="path499"
             fill="#1e2f44"
             transform="translate(-274.254 -158.997)"
             d="M277.019,159a1.546,1.546,0,0,1,1.56,1.773,14.733,14.733,0,0,1-3.759,1.631c-.071,0-.213.071-.284.071a.475.475,0,0,1-.284-.5A2.913,2.913,0,0,1,277.019,159Z" />
        </g>
        <g
           id="g519"
           transform="translate(96.821 112.318)">
          <g
             id="g509"
             transform="translate(0)">
            <g
               id="g505"
               transform="translate(21.148 18.172)">
              <path
                 id="path503"
                 fill="#c5d2d8"
                 transform="translate(-368.322 -310.911)"
                 d="M368.322,312.392c0-.142,40.284-1.206,43.9-1.418a12.394,12.394,0,0,1,3.617.142c5.958,1.135,11.135,13.192,13.972,17.873a159.412,159.412,0,0,1,11.56,23.4c.284.78.638,1.7.213,2.411-.5.851-1.631.993-2.7.993A367.044,367.044,0,0,1,393,354.237a5.617,5.617,0,0,1-5.461-3.546A272.2,272.2,0,0,1,368.322,312.392Z" />
            </g>
            <path
               id="path507"
               fill="#c5d2d8"
               transform="translate(-441.9 -285.289)"
               d="M459.006,332.106a6.593,6.593,0,0,1,.355.709,10.021,10.021,0,0,0,1.7,2.766,11.324,11.324,0,0,0,3.83,2.411c5.106,2.34,10.213,4.61,15.319,6.95a7.037,7.037,0,0,0,4.114.922c-5.887-10.142-10.5-20.851-15.461-31.49-5.532-11.986-14.752-20.5-24.894-28.582a2.657,2.657,0,0,0-.851-.5c-1.206-.142-1.418,1.631-1.064,2.837A253.823,253.823,0,0,0,459.006,332.106Z" />
          </g>
          <g
             id="g513"
             transform="translate(30.085 22.623)">
            <path
               id="path511"
               fill="#9cb3bc"
               transform="translate(-405.997 -317.187)"
               d="M423.657,317.2a4.885,4.885,0,0,1,2.837.567,4.608,4.608,0,0,1,1.418,1.844,314.383,314.383,0,0,1,15.6,32.27c.284.709.5,1.631-.071,2.128a2.162,2.162,0,0,1-1.135.213c-4.468-.213-8.865-.426-13.333-.709-3.759-.213-7.163.638-9.858-2.553a18.978,18.978,0,0,1-3.05-5.958c-3.333-8.723-6.6-17.447-9.929-26.17a2.072,2.072,0,0,1-.142-.638c.071-.709.993-1.064,1.7-.993C412.876,317.622,418.408,317.125,423.657,317.2Z" />
          </g>
          <g
             id="g517"
             transform="translate(4.552 6.32)">
            <path
               id="path515"
               fill="#282633"
               transform="translate(-449.1 -294.2)"
               d="M463.426,308.81c2.057,2.057,3.121,5.319,4.4,7.872,1.56,3.05,3.121,6.1,4.681,9.078,3.121,6.1,6.241,12.128,9.362,18.227-3.546-1.489-7.021-3.05-10.5-4.61a14.715,14.715,0,0,1-5.532-3.617,16.259,16.259,0,0,1-2.482-5.39c-2.128-6.17-5.248-11.986-8.014-17.873-2.837-6.028-4.468-11.986-6.241-18.3C454.277,298.526,458.674,303.916,463.426,308.81Z" />
          </g>
        </g>
        <g
           id="g525"
           transform="translate(258.343 50.534)">
          <g
             id="g523"
             transform="translate(0)">
            <path
               id="path521"
               fill="#efa294"
               transform="translate(-258.179 -198.174)"
               d="M258.87,200.675a21.885,21.885,0,0,0,9.433-2.411c.78-.426,1.56.78.709,1.206a22.924,22.924,0,0,1-10.142,2.624c-.922.071-.922-1.348,0-1.418Z" />
          </g>
        </g>
        <g
           id="g529"
           transform="translate(219.834 79.122)">
          <path
             id="path527"
             fill="#519872"
             transform="translate(-193.605 -238.483)"
             d="M257.416,344.383c5.036-8.44,12.057-15.6,15.958-24.681,1.56-3.617,2.27-7.518,3.333-11.277,4.4-16.383,14.185-32.128,12.128-49.008-.993-8.227-4.468-13.972-10.284-19.575a4.8,4.8,0,0,0-1.844-1.277c-1.348-.355-2.624.5-3.83,1.277-8.653,5.887-18.795,7.8-27.731,12.908-8.511,4.894-15.745,12.341-19.291,21.631-1.348,3.475-2.057,7.163-3.4,10.709-2.128,5.6-5.745,10.355-9.716,14.752-4.752,5.248-9.362,11.135-15.6,14.681-1.277.709-2.766,1.489-3.333,2.908-.709,1.915.638,3.972,2.34,5.035s3.759,1.418,5.6,2.34c4.681,2.411,6.809,7.8,8.511,12.766s3.475,10.426,7.872,13.263c6.88,4.4,16.383,1.348,23.263,5.745,1.348.851,2.553,2.128,4.184,2.482a5.791,5.791,0,0,0,5.674-2.482,23.973,23.973,0,0,0,2.908-5.887A58.754,58.754,0,0,1,257.416,344.383Z" />
        </g>
        <g
           id="g533"
           transform="translate(161.2 94.489)">
          <path
             id="path531"
             fill="#f6d1ba"
             transform="translate(-194.689 -260.15)"
             d="M199.757,316.073h-2.482c-1.206,0-2.837-.567-2.553-1.7.142-.567.78-.922,1.348-1.135,6.525-2.766,12.837-5.745,19.717-7.447a15.178,15.178,0,0,1,6.88-.567c6.312,1.419,9.078,9.433,15.107,11.7,6.241,2.34,16.1,1.419,22.766,1.631,8.794.284,17.518.284,26.312-.142a16.525,16.525,0,0,0,4.965-.78c3.262-1.277,5.319-4.468,7.021-7.518,5.39-9.575,10.071-19.433,15.461-29.007,5.248-9.433,13.617-21.7,25.816-20.922,8.227.5,8.794,8.724,7.305,15.107-4.539,20.071-14.255,41.419-27.234,57.518a22.828,22.828,0,0,1-7.234,6.312c-2.908,1.418-6.241,1.7-9.5,1.915a177.09,177.09,0,0,1-60.639-7.234c-10-2.979-20.426-2.27-30.426-4.894a3.12,3.12,0,0,1-1.915-1.135c-.355-.638.213-1.773.922-1.56-1.7-.284-3.4-.638-5.177-.922a4.964,4.964,0,0,1-2.624-.993,1.9,1.9,0,0,1-.355-2.553c.922-.993,2.766-.213,3.83-.993a28.8,28.8,0,0,1-6.525-.355c-.851-.142-1.844-.5-2.057-1.348a1.756,1.756,0,0,1,.78-1.631,5.875,5.875,0,0,1,4.681-1.489A41.244,41.244,0,0,1,199.757,316.073Z" />
        </g>
        <g
           id="g537"
           transform="translate(260.511 93.633)">
          <path
             id="path535"
             fill="#3c7f5a"
             transform="translate(-191.672 -258.943)"
             d="M191.686,305.65a1.8,1.8,0,0,1,.638-1.631c4.894-4.752,6.95-11.631,10.142-17.66,4.4-8.3,11.206-15.036,17.873-21.631a21.952,21.952,0,0,1,5.319-4.255c4.326-2.27,12.837-2.057,16.88.922a4.052,4.052,0,0,1,.567.5,9.447,9.447,0,0,1,4.326,5.248c.709,2.057.426,4.4.142,6.6-2.766,18.227-8.227,39.93-18.865,55.32-7.518-2.766-14.61-1.986-21.631-7.092a50.169,50.169,0,0,1-5.532-4.752C199.558,315.3,191.969,309.267,191.686,305.65Z" />
        </g>
        <g
           id="g541"
           transform="translate(265.063 67.006)">
          <path
             id="path539"
             fill="#3c7f5a"
             transform="translate(-208.782 -221.4)"
             d="M208.782,250.691c1.844-5.674,7.8-8.794,13.4-10.851,2.837-.993,6.312-1.773,8.865-3.333,3.121-1.915,5.461-5.106,7.589-7.943a3.955,3.955,0,0,0,.5-1.135c.5-1.986.922-3.972,1.277-6.028,3.192,2.057,4.894,6.17,6.738,9.291a7.536,7.536,0,0,1,1.135,2.7c.142,1.631-.922,3.05-1.986,4.326-1.348,3.475-4.965,6.454-9.149,8.936-1.915,1.348-3.83,2.553-5.816,3.83-4.681,2.908-9.362,5.887-14.114,8.794a77.82,77.82,0,0,1-.426-11.49A18.506,18.506,0,0,0,208.782,250.691Z" />
        </g>
        <g
           id="g545"
           transform="translate(244.144)">
          <path
             id="path543"
             fill="#1e2f44"
             transform="translate(-198.678 -126.922)"
             d="M253.427,168.254a16.866,16.866,0,0,1-3.05,5.39,8.246,8.246,0,0,0-.993,5.958,35.9,35.9,0,0,1,.78,6.1c-.071.922,0,2.2.922,2.482.851.213,1.56-.709,1.773-1.489,1.277-4.255,5.6-9.149,8.511-12.482,4.539-5.036.355-8.014.993-13.546.213-1.915,1.631-3.4,2.553-5.036a11.378,11.378,0,0,0-2.553-13.972c-3.262-2.7-8.085-3.546-10.568-6.95-.709-.993-1.135-2.128-1.773-3.121-5.887-9.433-14.823-1.631-22.7-1.7-4.752-.071-9.362-3.83-13.83-2.27-2.766.922-3.546,3.546-5.745,4.965-2.34,1.489-5.461,1.135-7.518,3.05-1.915,1.773-1.986,4.965-.638,7.163,2.979,4.823,10.922,2.766,15.107,1.135,7.163-2.7,12.057-3.546,19.22-.638,1.844.709,2.624,2.908,2.908,4.823s.284,4.043,1.277,5.745c.638,1.064,1.631,1.844,2.27,2.837,2.979,4.4-2.553,12.411-.355,15.319a1.7,1.7,0,0,0,2.553-.213,6.181,6.181,0,0,0,.993-2.766,23.265,23.265,0,0,1,1.7-5.319c.851-1.844,2.2-3.759,4.184-3.9,2.057-.142,3.759,1.844,4.113,3.9A11.627,11.627,0,0,1,253.427,168.254Z" />
        </g>
        <g
           id="g549"
           transform="translate(289.905 32.506)">
          <path
             id="path547"
             fill="#f6d1ba"
             transform="translate(-210.129 -172.755)"
             d="M211.386,190.021c-.142.071-1.915-10.638-.993-12.128,1.206-1.986,3.972-3.475,6.028-4.4a6.1,6.1,0,0,1,4.965-.355,4.869,4.869,0,0,1,2.411,5.036,10.66,10.66,0,0,1-2.7,5.248A23.974,23.974,0,0,1,211.386,190.021Z" />
        </g>
        <g
           id="g553"
           transform="translate(266.943 32.822)">
          <path
             id="path551"
             fill="#1e2f44"
             transform="translate(-259.075 -173.2)"
             d="M260.032,175.257a1.031,1.031,0,0,1,0-2.057,1.031,1.031,0,0,1,0,2.057Z" />
        </g>
        <g
           id="g557"
           transform="translate(255.24 32.822)">
          <path
             id="path555"
             fill="#1e2f44"
             transform="translate(-275.575 -173.2)"
             d="M276.532,175.257a1.031,1.031,0,0,1,0-2.057,1.031,1.031,0,0,1,0,2.057Z" />
        </g>
      </g>
    </g>
  </g>
</svg>
