<svg xmlns="http://www.w3.org/2000/svg" width="146.245" height="70.221" viewBox="0 0 146.245 70.221"><g transform="translate(-400 -44.787)"><g transform="translate(405.189 35)" fill="none"><path d="M8.765,19.51c23.129-16.468,31.469-7.031,69.941-7.031s43.075,10.467,57.73,31.825-7.083,15.277-43.667,31.085c-20.853,9.01-28.865,2.5-45.147,0S26.5,80.252,16.536,70.208C-6.633,46.85-14.364,35.978,8.765,19.51Z" stroke="none"/><path d="M 36.00899505615234 12.78742980957031 C 31.47360992431641 12.78742980957031 27.78596496582031 13.35050201416016 24.05206298828125 14.61314392089844 C 19.8458251953125 16.03553009033203 15.54122924804688 18.36800384521484 10.50525665283203 21.95362091064453 C 6.172042846679688 25.03886032104492 3.051422119140625 27.84662246704102 0.9650115966796875 30.53738403320313 C -0.929931640625 32.98124313354492 -1.949127197265625 35.31469345092773 -2.150741577148438 37.67107391357422 C -2.452957153320313 41.2030029296875 -0.950103759765625 45.16543197631836 2.578826904296875 50.14107513427734 C 6.164413452148438 55.19657516479492 11.60320281982422 60.97481536865234 18.66635131835938 68.09540557861328 C 22.45301818847656 71.91291046142578 25.09761047363281 72.6798095703125 28.13718414306641 72.6798095703125 C 29.52008819580078 72.6798095703125 31.01465606689453 72.52133941650391 32.74525451660156 72.33781433105469 C 34.96685028076172 72.10224151611328 37.48487091064453 71.83524322509766 40.46994018554688 71.83524322509766 C 43.00732421875 71.83524322509766 45.49544525146484 72.02771759033203 48.07649230957031 72.42366790771484 C 52.18444061279297 73.05386352539063 55.69749450683594 73.91081237792969 59.09487152099609 74.73957824707031 C 64.08584594726563 75.95704650878906 68.39623260498047 77.00849914550781 73.3111572265625 77.00849914550781 C 78.86897277832031 77.00849914550781 84.67372894287109 75.61881256103516 91.57908630371094 72.63507080078125 C 103.5555572509766 67.46014404296875 113.7739715576172 64.64645385742188 121.9845886230469 62.38559722900391 C 126.9742736816406 61.01166915893555 130.9154510498047 59.92645645141602 133.7824401855469 58.70900344848633 C 136.1852264404297 57.68869400024414 137.5361633300781 56.69216918945313 137.9124603271484 55.66245269775391 C 138.1713714599609 54.9539794921875 138.0758972167969 53.93693161010742 137.628662109375 52.63959884643555 C 137.0247955322266 50.88795471191406 135.8255920410156 48.71650314331055 133.9624938964844 46.00114440917969 C 133.0640411376953 44.69171905517578 132.2048034667969 43.42540740966797 131.3738555908203 42.20076370239258 C 125.1211547851563 32.98579025268555 120.603515625 26.32778930664063 113.4860610961914 22.00874328613281 C 109.8296813964844 19.78995513916016 105.4797973632813 18.203125 100.187873840332 17.15760040283203 C 94.46961212158203 16.02783966064453 87.44306182861328 15.47864532470703 78.70665740966797 15.47864532470703 C 66.50082397460938 15.47864532470703 57.20455932617188 14.531982421875 49.73489379882813 13.77133941650391 C 44.55046844482422 13.24338531494141 40.07303619384766 12.78742980957031 36.00899505615234 12.78742980957031 M 36.00899505615234 9.787429809570313 C 46.20950317382813 9.787429809570313 58.16029357910156 12.47864532470703 78.70665740966797 12.47864532470703 C 117.1788711547852 12.47864532470703 121.7812271118164 22.9451904296875 136.4361877441406 44.30385971069336 C 151.0911407470703 65.66252899169922 129.3533477783203 59.58124160766602 92.76901245117188 75.38897705078125 C 84.80146789550781 78.83168792724609 78.70700073242188 80.00849914550781 73.3111572265625 80.00849914550781 C 64.584716796875 80.00849914550781 57.6829833984375 76.93248748779297 47.62158966064453 75.38897705078125 C 44.95517730712891 74.97992706298828 42.59535980224609 74.83525085449219 40.46993255615234 74.83525085449219 C 35.33421325683594 74.83525085449219 31.56545257568359 75.6798095703125 28.13717651367188 75.6798095703125 C 24.32022857666016 75.6798095703125 20.92563629150391 74.63302612304688 16.53644561767578 70.20812225341797 C -6.633193969726563 46.85000228881836 -14.36358642578125 35.97750473022461 8.765228271484375 19.50978851318359 C 19.54190826416016 11.83678436279297 27.10948944091797 9.787429809570313 36.00899505615234 9.787429809570313 Z" stroke="none" fill="#152548"/></g><path d="M26.087-17.533H16.512V8.509H10.071V-17.533H.625V-22.75H26.087Z" transform="translate(430.722 87.409)" fill="#152548"/><path d="M2.031,8.509V-22.75h9.618a14.606,14.606,0,0,1,7.375,1.857A12.95,12.95,0,0,1,24.1-15.612a16.29,16.29,0,0,1,1.825,7.782v1.438a16.336,16.336,0,0,1-1.793,7.75,12.839,12.839,0,0,1-5.056,5.26,14.716,14.716,0,0,1-7.364,1.889ZM8.472-17.533V3.335h3.113A6.994,6.994,0,0,0,17.36.866q2-2.469,2.04-7.063V-7.851q0-4.766-1.975-7.224a6.97,6.97,0,0,0-5.775-2.458Z" transform="translate(454.606 87.409)" fill="#fbac47"/><path d="M20.707-5.162H8.427V3.153H22.839V8.291H2.031V-22.75H22.8v5.181H8.427v7.4h12.28Z" transform="translate(478 87)" fill="#152548"/></g></svg>