<svg xmlns="http://www.w3.org/2000/svg" width="37.119" height="24.977" viewBox="0 0 37.119 24.977"><g transform="translate(-619 -847)"><path d="M22.895,21.918l12.63-10.111a2.814,2.814,0,0,1,3.371,0,1.665,1.665,0,0,1,0,2.7L24.586,25.967a2.829,2.829,0,0,1-3.292.056L6.884,14.52a1.662,1.662,0,0,1,0-2.7,2.814,2.814,0,0,1,3.371,0Z" transform="translate(614.813 835.754)" fill="#fbfbfb"/><path d="M24.754,23.105,38.789,11.87a3.127,3.127,0,0,1,3.746,0,1.85,1.85,0,0,1,0,3.006L26.632,27.6a3.144,3.144,0,0,1-3.658.062L6.961,14.884a1.846,1.846,0,0,1,0-3.006,3.127,3.127,0,0,1,3.746,0Z" transform="translate(612.813 843.754)" fill="#fbfbfb"/></g></svg>