<svg xmlns="http://www.w3.org/2000/svg" xmlns:xlink="http://www.w3.org/1999/xlink" width="467.011" height="482.519" viewBox="0 0 467.011 482.519"><defs><clipPath id="a"><path d="M266.977-345.491a8.053,8.053,0,0,1-.976-.054c-2.561-.316-15.7-14.026-25-24.034l.486-31.121a79.909,79.909,0,0,0-2.663-20.315c15.652,17.12,44.584,50.1,44.587,59.966q0,.179-.013.349c-.908,11.954-11.664,15.21-16.425,15.21" transform="translate(-238.829 421.016)"/></clipPath><clipPath id="b"><path d="M448.928-213.686c-.236,0-.414-.227-.547-.43l-5.048-7.748q-3.81-5.846-7.619-11.691l2.919-1.654,15.606,12.4q-2.4,4.339-4.792,8.676c-.111.2-.258.429-.489.449h-.031" transform="translate(-435.715 235.21)"/></clipPath></defs><g transform="translate(0 602.338)"><g transform="translate(0 -602.339)"><path d="M361.262-459.02a2.068,2.068,0,0,0-1.786,1.286l-3.867,9.529a2.068,2.068,0,0,0,.139,1.834,2.063,2.063,0,0,0,1.547.994,6.41,6.41,0,0,1,4.375,2.608,5.773,5.773,0,0,1,1.163,4.43,5.914,5.914,0,0,1-2.663,3.769,6.6,6.6,0,0,1-4.989,1.009,7.739,7.739,0,0,1-5.527-7.89,2.064,2.064,0,0,0-1.9-2.217,2.056,2.056,0,0,0-2.218,1.9c-.428,5.532,3.481,11.018,8.714,12.232a10.656,10.656,0,0,0,8.188-1.582A10.056,10.056,0,0,0,366.9-437.6a9.916,9.916,0,0,0-1.913-7.639,10.81,10.81,0,0,0-4.66-3.6l2.981-7.344a2.066,2.066,0,0,0-1.138-2.689,2.077,2.077,0,0,0-.9-.148" transform="translate(-68.729 573.83)" fill="#e3e3e2"/><path d="M369.691-463.271a1.691,1.691,0,0,0-.875-2.224,1.688,1.688,0,0,0-2.223.874,1.69,1.69,0,0,0,.874,2.224,1.691,1.691,0,0,0,2.224-.874" transform="translate(-72.896 575.145)" fill="#e3e3e2"/><path d="M284.285-558.344a2.054,2.054,0,0,0-.319-2.163l-6.639-7.761a2.049,2.049,0,0,0-1.68-.714,2.049,2.049,0,0,0-1.584.91,6.369,6.369,0,0,1-4.3,2.668,5.735,5.735,0,0,1-4.44-1,5.869,5.869,0,0,1-2.108-4.068,6.543,6.543,0,0,1,1.387-4.862,7.687,7.687,0,0,1,9.483-1.273,2.05,2.05,0,0,0,2.823-.662,2.041,2.041,0,0,0-.663-2.824,11.817,11.817,0,0,0-14.766,2.1,10.585,10.585,0,0,0-2.343,7.943,9.987,9.987,0,0,0,3.68,6.89,9.843,9.843,0,0,0,7.611,1.8,10.73,10.73,0,0,0,5.305-2.465l5.117,5.981a2.05,2.05,0,0,0,2.891.224,2.045,2.045,0,0,0,.544-.728" transform="translate(-51.536 598.248)" fill="#e3e3e2"/><path d="M291.257-546.84a1.676,1.676,0,0,0,2.359.245,1.676,1.676,0,0,0,.245-2.359,1.678,1.678,0,0,0-2.359-.245,1.676,1.676,0,0,0-.245,2.359" transform="translate(-57.863 591.843)" fill="#e3e3e2"/><path d="M556.517-407.951H461.634V-545.48h94.883v137.53" transform="translate(-91.83 591.028)" fill="#e3e3e2"/><path d="M550.584-407.951H455.7V-545.48h94.883v137.53" transform="translate(-90.65 591.028)" fill="#f8f8f9"/><path d="M541.722-419.147H470.416V-526.885h71.306v107.738" transform="translate(-93.577 587.329)" fill="#fff"/><path d="M541.658-419.211s-.01-.182-.014-.527-.009-.863-.014-1.527c-.006-1.353-.016-3.336-.029-5.91-.015-5.163-.036-12.688-.063-22.193-.03-19-.069-45.9-.117-77.581l.237.237-71.3.021h-.009l.257-.258c-.019,40.643-.037,78.118-.052,107.738l-.205-.205,51.9.108,14.339.052,3.763.023c.852.008,1.3.021,1.3.021s-.42.016-1.258.022l-3.725.023-14.293.052-52.029.108h-.205v-.206c-.015-29.621-.033-67.095-.052-107.738v-.257h.267l71.3.021h.237v.236c-.048,31.744-.088,58.7-.117,77.736-.027,9.483-.048,16.989-.063,22.141-.013,2.553-.022,4.519-.029,5.862-.006.653-.011,1.151-.013,1.5s-.015.5-.015.5" transform="translate(-93.513 587.393)" fill="#e3e3e2"/><path d="M571.268-545.48a16.333,16.333,0,0,1-1.691,2.458c-1.1,1.474-2.667,3.479-4.452,5.647s-3.454,4.088-4.69,5.452a16.267,16.267,0,0,1-2.088,2.131,18.035,18.035,0,0,1,1.812-2.368l4.568-5.542,4.563-5.544a17.794,17.794,0,0,1,1.978-2.232" transform="translate(-111.068 591.028)" fill="#e3e3e2"/><path d="M559.883-392.826a88.32,88.32,0,0,0,12.437,15.554" transform="translate(-111.374 560.661)" fill="#fff"/><path d="M572.318-377.272a14.083,14.083,0,0,1-2.168-1.972,69.052,69.052,0,0,1-4.692-5.292,68.372,68.372,0,0,1-4.129-5.741,14.251,14.251,0,0,1-1.447-2.548,19.673,19.673,0,0,1,1.75,2.344c1.046,1.468,2.515,3.476,4.231,5.624s3.353,4.02,4.554,5.363a19.663,19.663,0,0,1,1.9,2.223" transform="translate(-111.373 560.662)" fill="#e3e3e2"/><path d="M455.683-377.743l12.428-15.334" transform="translate(-90.646 560.711)" fill="#fff"/><path d="M468.11-393.077a94.433,94.433,0,0,1-6.013,7.829,94.537,94.537,0,0,1-6.415,7.5,94.813,94.813,0,0,1,6.014-7.829,94.878,94.878,0,0,1,6.414-7.5" transform="translate(-90.646 560.712)" fill="#e3e3e2"/><path d="M455.7-545.48a86.034,86.034,0,0,1,6.032,7.212,85.929,85.929,0,0,1,5.629,7.532,85.954,85.954,0,0,1-6.033-7.212,85.732,85.732,0,0,1-5.628-7.532" transform="translate(-90.649 591.028)" fill="#e3e3e2"/><path d="M525.767-431.786H501.892v-67.791h23.875v67.791" transform="translate(-99.838 581.897)" fill="#e3e3e2"/><path d="M121.819-500.16l-7.59.041-.2-37.769,7.591-.041.2,37.769" transform="translate(-22.683 589.526)" fill="#e3e3e2"/><path d="M51.707-516.955l-19.657.1-.111-20.85,19.656-.106.112,20.851" transform="translate(-6.353 589.502)" fill="#eee"/><path d="M76.128-517.086l-19.656.1-.112-20.85,19.657-.106.111,20.851" transform="translate(-11.211 589.528)" fill="#f8f8f9"/><path d="M31.934-530.642c13.063.108,26.159.031,39.22-.181a.209.209,0,0,0,0-.418q-19.6-.109-39.219.24a.179.179,0,0,0,0,.358" transform="translate(-6.318 588.201)" fill="#e3e3e2"/><path d="M52.444-495.22l-35.713.191-.091-16.991,35.712-.192.091,16.992" transform="translate(-3.31 584.41)" fill="#eee"/><path d="M96.814-495.457l-35.712.191-.091-16.992,35.713-.191.091,16.992" transform="translate(-12.136 584.457)" fill="#f8f8f9"/><path d="M16.629-506.281c23.725.269,47.533.028,71.256-.352a.209.209,0,0,0,0-.418c-23.726-.125-47.535-.111-71.256.412a.179.179,0,0,0,0,.358" transform="translate(-3.273 583.396)" fill="#e3e3e2"/><path d="M138.361-484.673H0v-6.088H138.361v6.088" transform="translate(0 580.143)" fill="#e3e3e2"/><path d="M33.9-466.335H28.278v-20.773H33.9v20.773" transform="translate(-5.625 579.416)" fill="#e3e3e2"/><path d="M138.562-466.335h-5.616v-20.773h5.616v20.773" transform="translate(-26.446 579.416)" fill="#e3e3e2"/><path d="M131.142-503.565l-7.591.041-.278-51.946,7.591-.041.278,51.946" transform="translate(-24.522 593.023)" fill="#eee"/><path d="M144.851-501.344l-11.794.064-.226-42.1,11.795-.063.225,42.1" transform="translate(-26.423 590.622)" fill="#f8f8f9"/><path d="M144.525-533.367a42.675,42.675,0,0,1-5.9.2,42.677,42.677,0,0,1-5.9-.2,42.706,42.706,0,0,1,5.9-.2,42.7,42.7,0,0,1,5.9.2" transform="translate(-26.403 588.659)" fill="#e3e3e2"/><path d="M144.525-535.575a42.687,42.687,0,0,1-5.9.2,42.688,42.688,0,0,1-5.9-.2,42.706,42.706,0,0,1,5.9-.2,42.7,42.7,0,0,1,5.9.2" transform="translate(-26.403 589.098)" fill="#e3e3e2"/><path d="M144.525-498.847a42.9,42.9,0,0,1-5.9.2,42.9,42.9,0,0,1-5.9-.2,42.578,42.578,0,0,1,5.9-.205,42.583,42.583,0,0,1,5.9.205" transform="translate(-26.403 581.792)" fill="#e3e3e2"/><path d="M144.525-501.055a42.693,42.693,0,0,1-5.9.2,42.706,42.706,0,0,1-5.9-.2,42.685,42.685,0,0,1,5.9-.2,42.69,42.69,0,0,1,5.9.2" transform="translate(-26.403 582.231)" fill="#e3e3e2"/><path d="M140.279-510.532c-.113,0-.205-4.247-.205-9.485s.092-9.486.205-9.486.2,4.246.2,9.486-.091,9.485-.2,9.485" transform="translate(-27.864 587.85)" fill="#e3e3e2"/><path d="M160.453-498.761H147.614v-31.775h12.839v31.775" transform="translate(-29.364 588.055)" fill="#eee"/><path d="M129.511-544.982a2.181,2.181,0,0,1-2.182,2.181,2.181,2.181,0,0,1-2.182-2.181,2.182,2.182,0,0,1,2.182-2.182,2.182,2.182,0,0,1,2.182,2.182" transform="translate(-24.895 591.363)" fill="#e3e3e2"/><path d="M128.378-506.047H127.03v-30.9h1.348v30.9" transform="translate(-25.269 589.331)" fill="#e3e3e2"/><path d="M469.461-.943c0,.154-102.343.279-228.561.279C114.636-.664,12.315-.789,12.315-.943S114.636-1.221,240.9-1.221c126.218,0,228.561.126,228.561.279" transform="translate(-2.45 482.762)" fill="#1d2a30"/><path d="M76.671-310.3H386.639v-9.926H76.671Z" transform="translate(-15.252 546.219)" fill="#e3e3e2"/><path d="M109.286-61.753,99.223-61.79V-309.47h10.063V-61.753" transform="translate(-19.738 544.08)" fill="#e3e3e2"/><path d="M442.7-61.777H432.535l.1-247.693H442.7V-61.777" transform="translate(-86.042 544.08)" fill="#e3e3e2"/><path d="M226.619-434.142s55.332,57.966,54.354,70.83-13.358,15.654-17.4,15.155-34.459-34.378-34.459-34.378l-2.494-51.607" transform="translate(-45.08 568.88)" fill="#f03658"/><g transform="translate(191.32 145.253)"><g clip-path="url(#a)"><path d="M238.829-345.491h44.587v-75.525H238.829Z" transform="translate(-238.829 421.016)" fill="#a02232"/></g></g><path d="M263.427-77.877l15,50.2,16.862-9.156-9.58-45.955-22.281,4.913" transform="translate(-52.402 498.988)" fill="#f9ad95"/><path d="M294.943-53l5.165,23.758s25.884,2.729,27.266,7.027l-45.706,11.67L272.1-47.229,294.943-53" transform="translate(-54.127 493.061)" fill="#f03658"/><path d="M288.558-21.363a1.927,1.927,0,0,0-.747,2.46,1.851,1.851,0,0,0,2.432.761,2.032,2.032,0,0,0,.777-2.609,1.921,1.921,0,0,0-2.617-.511" transform="translate(-57.216 486.814)" fill="#e3e3e2"/><path d="M340.608-15.006a3.734,3.734,0,0,0-1.981-1.761c.66.186,1.882.675,1.981,1.761" transform="translate(-67.361 485.854)" fill="#969796"/><path d="M283.841-3.359h0L283.022-7.1l44.129-9.792s.168.028.415.1a3.734,3.734,0,0,1,1.981,1.761h0L287.672-4.338l-2.18.557-1.651.421" transform="translate(-56.3 485.878)" fill="#a02232"/><path d="M307.031-23.889c.05.225-1.039.611-1.955,1.609-.942.974-1.261,2.085-1.488,2.049-.218.01-.225-1.41.9-2.6s2.535-1.276,2.539-1.059" transform="translate(-60.368 487.29)" fill="#1d2a30"/><path d="M313.948-22.931c.107.2-.764.829-1.281,1.968-.551,1.122-.481,2.19-.706,2.238-.2.089-.689-1.178-.019-2.581s1.946-1.836,2.006-1.625" transform="translate(-61.985 487.091)" fill="#1d2a30"/><path d="M319.612-17.688c-.19.1-.785-.937-.524-2.306s1.18-2.121,1.322-1.959c.173.151-.336.979-.534,2.107-.223,1.122-.047,2.078-.264,2.157" transform="translate(-63.461 486.89)" fill="#1d2a30"/><path d="M304.529-30.557c-.042.228-1.144.181-2.384.587-1.248.383-2.122,1.058-2.287.895-.17-.128.577-1.2,2.044-1.658s2.692-.029,2.626.175" transform="translate(-59.644 488.674)" fill="#1d2a30"/><path d="M302.381-36.992a4.426,4.426,0,0,1-2.293.572,10.551,10.551,0,0,1-2.583-.124,11.1,11.1,0,0,1-1.492-.362,2.913,2.913,0,0,1-.829-.361,1.007,1.007,0,0,1-.406-1.162,1.265,1.265,0,0,1,.848-.759,3.053,3.053,0,0,1,.889-.1,8.471,8.471,0,0,1,1.548.125,8.325,8.325,0,0,1,2.464.846c1.312.711,1.886,1.453,1.821,1.516-.082.1-.777-.468-2.063-1a9.466,9.466,0,0,0-2.335-.629,8.892,8.892,0,0,0-1.418-.069c-.516,0-.929.1-1,.345-.023.094-.021.128.116.245a2.391,2.391,0,0,0,.609.262,12.58,12.58,0,0,0,1.385.383,13.05,13.05,0,0,0,2.429.283,16.381,16.381,0,0,1,2.308-.006" transform="translate(-58.626 490.334)" fill="#1d2a30"/><path d="M303.649-37.852c-.069.056-.717-.633-1.168-2.057a7.684,7.684,0,0,1-.327-2.586,7.758,7.758,0,0,1,.229-1.538,1.949,1.949,0,0,1,1.165-1.528,1.1,1.1,0,0,1,1.118.394,3.182,3.182,0,0,1,.449.78,5.191,5.191,0,0,1,.4,1.54,5.431,5.431,0,0,1-.373,2.616c-.592,1.412-1.455,1.916-1.493,1.846a18.853,18.853,0,0,0,.958-2.036,5.443,5.443,0,0,0,.175-2.336,4.867,4.867,0,0,0-.38-1.312c-.194-.468-.477-.813-.646-.717-.229.055-.521.519-.609.954a7.836,7.836,0,0,0-.251,1.386,8.5,8.5,0,0,0,.14,2.4c.28,1.358.732,2.133.618,2.2" transform="translate(-60.104 491.589)" fill="#1d2a30"/><path d="M212.577-257.959c.555,2.222,39.739,162.085,39.739,162.085L287.9-106.615,254.3-268.541l-41.727,10.582" transform="translate(-42.287 535.938)" fill="#1d2a30"/><path d="M204.465-515.477l-6.217,47.764A14.328,14.328,0,0,0,211.31-451.58a14.335,14.335,0,0,0,15.357-12.455c.465-3.6.86-6.594.931-6.96,0,0,12.309.439,14.753-11.481,1.182-5.76,2.649-17.824,3.851-28.753a22.664,22.664,0,0,0-18.26-24.721l-1.152-.222c-12.572-1.664-21.007,8.083-22.323,20.7" transform="translate(-39.412 589.213)" fill="#f9ad95"/><path d="M231.325-456.818A28.292,28.292,0,0,1,216.6-464.24s2.029,9.307,14.159,10.523l.567-3.1" transform="translate(-43.087 574.867)" fill="#f6865e"/><path d="M253.017-497.034a1.739,1.739,0,0,1-1.977,1.406,1.662,1.662,0,0,1-1.462-1.877,1.737,1.737,0,0,1,1.974-1.408,1.664,1.664,0,0,1,1.465,1.879" transform="translate(-49.643 581.768)" fill="#1d2a30"/><path d="M252.329-499.756c-.255.182-1.363-1.023-3.2-1.371-1.83-.374-3.359.311-3.514.048-.08-.119.214-.479.882-.793a4.756,4.756,0,0,1,2.867-.314,4.579,4.579,0,0,1,2.494,1.369c.481.542.595.981.472,1.061" transform="translate(-48.856 582.434)" fill="#1d2a30"/><path d="M229.955-500.3a1.737,1.737,0,0,1-1.976,1.4,1.662,1.662,0,0,1-1.463-1.877,1.74,1.74,0,0,1,1.975-1.407,1.663,1.663,0,0,1,1.464,1.879" transform="translate(-45.056 582.418)" fill="#1d2a30"/><path d="M229.406-503.353c-.254.182-1.365-1.024-3.2-1.371-1.831-.375-3.36.311-3.516.048-.078-.119.213-.48.883-.793a4.763,4.763,0,0,1,2.867-.315,4.58,4.58,0,0,1,2.494,1.37c.481.542.595.981.472,1.061" transform="translate(-44.296 583.149)" fill="#1d2a30"/><path d="M235.965-487.429a12.32,12.32,0,0,1,3.086.034c.479.043.94.034,1.08-.27a2.427,2.427,0,0,0-.045-1.449q-.335-1.83-.7-3.838c-.948-5.454-1.539-9.9-1.319-9.939s1.167,4.356,2.116,9.809c.222,1.343.436,2.622.638,3.846a2.764,2.764,0,0,1-.111,1.887,1.2,1.2,0,0,1-.9.538,3.259,3.259,0,0,1-.817-.044,12.259,12.259,0,0,1-3.024-.576" transform="translate(-46.939 582.556)" fill="#1d2a30"/><path d="M230.527-507.939c-.277.464-2.065-.125-4.269-.28-2.2-.2-4.059.1-4.258-.4-.087-.238.307-.65,1.1-1a7.121,7.121,0,0,1,3.309-.489,7.111,7.111,0,0,1,3.188,1.01c.729.471,1.053.939.929,1.162" transform="translate(-44.159 583.997)" fill="#1d2a30"/><path d="M253.517-508.116c-.4.355-1.585-.322-3.1-.633-1.5-.366-2.863-.26-3.075-.754-.09-.236.194-.615.833-.9a4.381,4.381,0,0,1,2.659-.2,4.382,4.382,0,0,1,2.319,1.315c.455.532.549,1,.367,1.172" transform="translate(-49.199 584.113)" fill="#1d2a30"/><path d="M202.853-499.268c-.187-.127-7.744-4.006-9.053,4.213s7.213,7.839,7.264,7.6,1.789-11.817,1.789-11.817" transform="translate(-38.524 582.039)" fill="#f9ad95"/><path d="M199.582-490.327c-.032-.033-.159.077-.419.15a1.448,1.448,0,0,1-1.075-.15c-.817-.456-1.329-1.951-1.132-3.439a4.8,4.8,0,0,1,.727-1.987,1.674,1.674,0,0,1,1.252-.927.739.739,0,0,1,.783.528c.073.247-.005.4.036.424.019.024.2-.11.186-.459a.92.92,0,0,0-.241-.567,1.1,1.1,0,0,0-.758-.335,2.039,2.039,0,0,0-1.7,1.036,4.911,4.911,0,0,0-.861,2.212c-.211,1.665.389,3.35,1.522,3.883a1.558,1.558,0,0,0,1.345-.009c.286-.163.36-.34.333-.359" transform="translate(-39.057 581.403)" fill="#f6865e"/><path d="M199.508-508.034a4.369,4.369,0,0,1,3.545,2.771c.308,1.269.17,2.613.475,3.883s1.3,2.555,2.6,2.5a2.559,2.559,0,0,0,2.06-1.537,7.035,7.035,0,0,0,.531-2.63c.252-3.907.177-7.845.763-11.717s1.9-7.758,4.547-10.644,6.816-4.58,10.588-3.534c2.5.693,4.574,2.464,7.028,3.3a10.16,10.16,0,0,0,8.824-1.174,4.287,4.287,0,0,1,.445-.235,2.244,2.244,0,0,0,1.276-2.4,2.167,2.167,0,0,0-.332-.875c-4.114-5.589-12.882-8.615-19.811-8.222s-14.022,3.869-18.057,9.516-4.847,14.425-4.486,20.993" transform="translate(-39.672 589.655)" fill="#1d2a30"/><path d="M239.335-477.107a6.683,6.683,0,0,1-2.606-.664,6.678,6.678,0,0,1-2.414-1.186,6.686,6.686,0,0,1,2.606.663,6.668,6.668,0,0,1,2.414,1.187" transform="translate(-46.611 577.802)" fill="#1d2a30"/><path d="M248.384-465.136a5.151,5.151,0,0,1-1.017,2.222,12.351,12.351,0,0,1-4.463,3.849,21.148,21.148,0,0,1-5.567,1.9,8.9,8.9,0,0,1-2.411.315,12.746,12.746,0,0,1,2.319-.7,26.865,26.865,0,0,0,5.4-2.011,13.676,13.676,0,0,0,4.4-3.589c.9-1.159,1.245-2.028,1.334-1.99" transform="translate(-46.733 575.046)" fill="#f6865e"/><path d="M242.466-457.52c-2.892,1.448-5.023,5.382-6.861,7.932a6.306,6.306,0,0,0-1.3,2.545,5.922,5.922,0,0,0,.518,2.979c.528,1.424,1.123,2.821,1.717,4.217.169.4.394.843.815.939.534.122.99-.4,1.209-.907a14.981,14.981,0,0,0,.677-4.015,4.154,4.154,0,0,1,1.983-3.376" transform="translate(-46.6 573.531)" fill="#f6865e"/><path d="M247.667-447.011l-2.816-2.1a.846.846,0,0,0-1.175.1l-1.5,1.727,0,.015.786,4.372c.921,5.6-3.234,4.729-3.234,4.729l-.33-1.072-1.825-6.835c-.368-3.263-.108-3.649,1.478-6.011l3.483-4.978a2.8,2.8,0,0,1,3.3-1.069c5,1.845,15.778,5.187,16.992,9.42,2.213,7.717,4,27.4,4.029,27.75v.008l-15.215,1.365.072-13.134a6.805,6.805,0,0,1-2.859-3.6c-.65-2.318-1.189-10.681-1.189-10.681" transform="translate(-47.23 573.688)" fill="#f9ad95"/><path d="M259.386-442.539c.023.026-.161.264-.579.616a4.93,4.93,0,0,1-2.072,1.05,3.744,3.744,0,0,1-1.65-.012,2.969,2.969,0,0,1-1.632-1.012c-.892-1.077-1.02-2.591-1.814-3.693a6.872,6.872,0,0,0-1.568-1.285,14.88,14.88,0,0,0-1.7-.952,3.1,3.1,0,0,0-1.559-.441,3.192,3.192,0,0,0-1.242.735c-1.379,1.279-2.135,2.232-2.213,2.154-.03-.026.137-.273.457-.7a14.538,14.538,0,0,1,1.492-1.741,3.43,3.43,0,0,1,1.4-.893,1.479,1.479,0,0,1,.517-.029,3.434,3.434,0,0,1,.465.112,7.6,7.6,0,0,1,.894.342,14.052,14.052,0,0,1,1.784.958,7.022,7.022,0,0,1,1.721,1.413c.906,1.308,1.006,2.788,1.766,3.7a2.93,2.93,0,0,0,2.81.96,5.4,5.4,0,0,0,2.018-.84c.443-.288.679-.472.707-.441" transform="translate(-48.408 571.787)" fill="#f6865e"/><path d="M259.2-435.815a12.646,12.646,0,0,1-4.293-.737,12.639,12.639,0,0,1-4.025-1.664,26.717,26.717,0,0,1,4.179,1.13,26.769,26.769,0,0,1,4.138,1.271" transform="translate(-49.906 569.695)" fill="#f6865e"/><path d="M251.421-444.143c-3.989.009-4.455-.185-8.977.062a6.408,6.408,0,0,0-1.986.321,2.164,2.164,0,0,0-1.366,1.385c-.316,1.237.934,2.365,2.178,2.648s2.562.063,3.806.351a8.364,8.364,0,0,1,5.006,2.937c2.6,3.693,5.335,1.916,7.111,3.234l4.661-2.943-1.646-6.882-8.787-1.115" transform="translate(-47.551 570.882)" fill="#f9ad95"/><path d="M257.634-433.253a5.132,5.132,0,0,0-1.274-.393,11.414,11.414,0,0,1-3.691-.649,5.858,5.858,0,0,1-2.036-1.675,6.884,6.884,0,0,0-2.055-1.962,10.215,10.215,0,0,0-2.931-1.179,25.134,25.134,0,0,0-3.444-.3,3.325,3.325,0,0,1-2.92-2.12,1.9,1.9,0,0,1,.444-1.793,2.921,2.921,0,0,1,1.493-.859,17.456,17.456,0,0,1,2.985-.244c.924-.029,1.788-.041,2.575-.027,1.577.031,2.841.11,3.718.146a6.748,6.748,0,0,1,1.363.113,6.3,6.3,0,0,1-1.365.1c-.878.031-2.152.012-3.715.031-.782.011-1.637.046-2.557.1a18.2,18.2,0,0,0-2.875.278c-.914.2-1.837,1.048-1.541,2.011a2.812,2.812,0,0,0,2.465,1.714,23.635,23.635,0,0,1,3.5.32,10.484,10.484,0,0,1,3.072,1.274,7.218,7.218,0,0,1,2.144,2.109,5.594,5.594,0,0,0,1.849,1.609,12.892,12.892,0,0,0,3.557.788,2.9,2.9,0,0,1,.961.373c.193.14.285.219.273.234" transform="translate(-47.585 570.932)" fill="#f6865e"/><path d="M253.943-448.035c.005-.068.293-.125.7.064a1.85,1.85,0,0,1,1.017,1.386,1.847,1.847,0,0,1-.59,1.614c-.342.3-.633.323-.657.258s.163-.223.365-.522a1.86,1.86,0,0,0,.331-1.272,1.864,1.864,0,0,0-.673-1.13c-.278-.23-.512-.317-.5-.4" transform="translate(-50.515 571.657)" fill="#f6865e"/><path d="M260.268-224.519l-19.479,48.634,18.9,3.319,21.084-41.941-20.5-10.011" transform="translate(-47.899 527.181)" fill="#f9ad95"/><path d="M270.367-185.269l-10.732,21.816s18.569,18.236,16.978,22.461l-43.048-19.292L248.9-194.962l21.472,9.693" transform="translate(-46.462 521.302)" fill="#f03658"/><path d="M250-165.409a1.925,1.925,0,0,0-2.115,1.461,1.852,1.852,0,0,0,1.43,2.108,2.032,2.032,0,0,0,2.231-1.559,1.921,1.921,0,0,0-1.73-2.028" transform="translate(-49.305 515.427)" fill="#e3e3e2"/><path d="M277.6-131.937l-39.061-17.505h0L277.6-131.937a3.734,3.734,0,0,0-.455-2.611c.4.557,1.052,1.7.455,2.611" transform="translate(-47.452 512.247)" fill="#16191b"/><path d="M276.614-133.25l-39.061-17.505-3.986-1.787,1.548-3.5L275.893-136.2s.115.127.266.335a3.734,3.734,0,0,1,.455,2.611" transform="translate(-46.462 513.559)" fill="#a02232"/><path d="M265.862-155.709c-.1.206-1.2-.17-2.532.044-1.343.177-2.284.849-2.44.678-.176-.128.7-1.244,2.324-1.473s2.779.577,2.648.751" transform="translate(-51.893 513.651)" fill="#1d2a30"/><path d="M270.644-150.74c-.043.225-1.114.175-2.226.743-1.129.536-1.74,1.418-1.945,1.315-.213-.056.194-1.352,1.59-2.033s2.666-.227,2.581-.026" transform="translate(-52.997 512.573)" fill="#1d2a30"/><path d="M271.852-143.21c-.211-.041-.033-1.222,1.022-2.131s2.244-.926,2.255-.711c.042.225-.874.556-1.729,1.317-.873.739-1.33,1.6-1.548,1.525" transform="translate(-54.062 511.595)" fill="#1d2a30"/><path d="M268.329-162.569c-.173.153-1.008-.569-2.232-1.022-1.215-.476-2.319-.491-2.347-.72-.054-.207,1.2-.58,2.632-.029s2.124,1.652,1.947,1.771" transform="translate(-52.466 515.267)" fill="#1d2a30"/><path d="M270.7-169.1a4.411,4.411,0,0,1-2.15-.977,10.608,10.608,0,0,1-1.946-1.7,11.053,11.053,0,0,1-.943-1.211,2.887,2.887,0,0,1-.423-.8,1,1,0,0,1,.4-1.162,1.264,1.264,0,0,1,1.136-.068,3.034,3.034,0,0,1,.757.474,8.392,8.392,0,0,1,1.134,1.061,8.3,8.3,0,0,1,1.4,2.195,3.951,3.951,0,0,1,.484,2.319c-.127.028-.318-.849-.992-2.067a9.424,9.424,0,0,0-1.437-1.946,8.986,8.986,0,0,0-1.067-.936c-.4-.324-.789-.5-1-.351-.078.059-.1.087-.061.263a2.34,2.34,0,0,0,.312.584,12.393,12.393,0,0,0,.848,1.162,13.069,13.069,0,0,0,1.726,1.732c1.079.9,1.865,1.319,1.809,1.43" transform="translate(-52.751 517.355)" fill="#1d2a30"/><path d="M271.542-168.915a3.764,3.764,0,0,1,.364-2.337,7.684,7.684,0,0,1,1.352-2.229,7.7,7.7,0,0,1,1.135-1.063,1.952,1.952,0,0,1,1.863-.472,1.1,1.1,0,0,1,.631,1.005,3.177,3.177,0,0,1-.134.89,5.227,5.227,0,0,1-.648,1.453,5.444,5.444,0,0,1-1.919,1.814,3.043,3.043,0,0,1-2.317.518,19.176,19.176,0,0,0,2.016-1,5.424,5.424,0,0,0,1.59-1.72,4.866,4.866,0,0,0,.519-1.264c.138-.488.131-.934-.061-.963a1.356,1.356,0,0,0-1.071.367,7.882,7.882,0,0,0-1.057.93,8.508,8.508,0,0,0-1.381,1.963c-.626,1.238-.754,2.126-.882,2.106" transform="translate(-54.003 517.351)" fill="#1d2a30"/><path d="M204.832-305.289l59.987-29.373a26.585,26.585,0,0,1,31.227,5.845,26.586,26.586,0,0,1,4.373,29.659l-39.8,81.839-33.292-10.494L256.6-290.2l-32.934,25.1a51.755,51.755,0,0,1-30.929,10.59l-8.624.074a41.424,41.424,0,0,1-34.533-21.353l55.25-29.5" transform="translate(-29.756 549.63)" fill="#1d2a30"/><path d="M273.465-205.819s-.212-.043-.611-.156l-1.764-.522-6.718-2.054L240.107-216.1l-.245-.076.109-.234,21.124-45.137c2.8-5.959,5.524-11.76,8.109-17.264l.409.331c-15.106,11.253-28.625,20.6-38.6,26.756a103.388,103.388,0,0,1-12.072,6.6,18.955,18.955,0,0,1-3.5,1.191,4.741,4.741,0,0,1-.948.124,1.718,1.718,0,0,1-.324.011c0-.037.442-.034,1.252-.23a20.726,20.726,0,0,0,3.444-1.268,110.764,110.764,0,0,0,11.964-6.72c9.91-6.227,23.383-15.626,38.459-26.893l.867-.649-.459.979c-2.582,5.508-5.3,11.309-8.1,17.271-7.957,16.91-15.314,32.542-21.22,45.092l-.136-.31c10.088,3.224,18.393,5.876,24.206,7.732l6.681,2.171,1.745.584c.393.136.591.221.591.221" transform="translate(-42.603 538.13)" fill="#365462"/><path d="M294.385-295.4c.109.157-3.67,2.038-6.905,5.951-3.285,3.874-4.473,7.924-4.645,7.843a8.766,8.766,0,0,1,.794-2.6,22.144,22.144,0,0,1,3.424-5.6,22.139,22.139,0,0,1,4.913-4.354,8.834,8.834,0,0,1,2.419-1.24" transform="translate(-56.261 541.281)" fill="#365462"/><path d="M137.966-150.841h86.285a2.215,2.215,0,0,1,2.214,2.152,2.215,2.215,0,0,1-2.214,2.277H137.966a2.214,2.214,0,0,1-2.214-2.214,2.214,2.214,0,0,1,2.214-2.215" transform="translate(-27.004 512.525)" fill="#e3e3e2"/><path d="M215.3-222.656H147.8a13.076,13.076,0,0,1,13.077-13.077h41.34A13.076,13.076,0,0,1,215.3-222.656" transform="translate(-29.402 529.412)" fill="#365462"/><path d="M217.023-215.442h-71.2v-3.967h71.2v3.967" transform="translate(-29.007 526.165)" fill="#e3e3e2"/><path d="M149.408-214.457,132-42.853h4.095l21.248-171.6h-7.933" transform="translate(-26.258 525.18)" fill="#e3e3e2"/><path d="M224.162-214.457l17.4,171.52-4.094.021L216.238-214.393l7.924-.064" transform="translate(-43.015 525.18)" fill="#e3e3e2"/><path d="M193.632-216.457,190.7-43.351h-4.2l-1.832-173.582,8.965.475" transform="translate(-36.735 525.672)" fill="#e3e3e2"/><path d="M194.156-454.389l4.226-12.84,27.912,12.917-1.277,13.588-13.91,3.952-13.655-8.367-3.3-9.25" transform="translate(-38.622 575.462)" fill="#f03658"/><path d="M148.611-299.032a9.28,9.28,0,0,1-3.911-7.789c-.013-5.145,4.591-5.57,4.74-8.418,1.535-29.428,4.865-90.385,7.063-109.62,2.771-24.246,31.174-29.368,31.174-29.368l23.453,5.761v1.772c8.118,10.435,11.629,26.165,11.637,39.386l-1.093,70.051-73.063,38.224" transform="translate(-28.784 572.876)" fill="#f03658"/><path d="M175.757-309.47a7.478,7.478,0,0,1-.869,1.2c-.585.75-1.464,1.808-2.576,3.094-2.222,2.575-5.418,6.025-9.173,9.611s-7.353,6.62-10.027,8.719c-1.337,1.051-2.435,1.88-3.211,2.43a7.7,7.7,0,0,1-1.236.814,7.518,7.518,0,0,1,1.1-.985l3.1-2.564c2.605-2.173,6.146-5.243,9.892-8.815s6.971-6.969,9.263-9.471c1.086-1.193,1.994-2.191,2.7-2.973a7.579,7.579,0,0,1,1.035-1.056" transform="translate(-29.573 544.08)" fill="#1d2a30"/><path d="M154-285.9l-.3-.073.408-.319c2.675-2.1,6.27-5.133,10.027-8.719,1.607-1.535,3.112-3.045,4.483-4.473A115.106,115.106,0,0,1,154-285.9m-.329-.537c.291-4.233,3.492-7.733,6.666-10.61a109.329,109.329,0,0,1,12.248-9.6,5.261,5.261,0,0,1-.679,2.969c-2.177,2.337-4.982,5.237-8.151,8.266-3.746,3.572-7.287,6.642-9.892,8.815l-.192.16" transform="translate(-30.568 543.518)" fill="#d82b43"/><path d="M153.693-285.231l-.052-.012c0-.153.01-.3.02-.453l.192-.16c2.605-2.173,6.146-5.243,9.892-8.815,3.169-3.029,5.974-5.929,8.151-8.266a14.919,14.919,0,0,1-2.014,2.767q-.63.719-1.27,1.427c-1.37,1.428-2.875,2.938-4.483,4.473-3.758,3.586-7.353,6.62-10.027,8.719l-.408.319" transform="translate(-30.563 542.78)" fill="#182124"/><path d="M204.877-455.658a13.259,13.259,0,0,1,.863-3.724,13.272,13.272,0,0,1,1.395-3.559,13.335,13.335,0,0,1-.864,3.723,13.327,13.327,0,0,1-1.394,3.56" transform="translate(-40.749 574.609)" fill="#1d2a30"/><path d="M218.052-458.4a12.73,12.73,0,0,1-.565,3.7,12.746,12.746,0,0,1-1.108,3.579,12.8,12.8,0,0,1,.566-3.7,12.78,12.78,0,0,1,1.107-3.579" transform="translate(-43.035 573.705)" fill="#1d2a30"/><path d="M228.361-453.344a15.289,15.289,0,0,1-.288,3.369,15.248,15.248,0,0,1-.49,3.347,8.106,8.106,0,0,1-.062-3.41,8.077,8.077,0,0,1,.841-3.306" transform="translate(-45.236 572.7)" fill="#1d2a30"/><path d="M185.95-367.938a4.823,4.823,0,0,1-1.182.085c-.763.019-1.865.029-3.227.029-2.726,0-6.49-.041-10.647-.119s-7.923-.179-10.647-.281c-1.362-.05-2.464-.1-3.225-.148a4.852,4.852,0,0,1-1.181-.13,4.887,4.887,0,0,1,1.185-.086c.763-.019,1.865-.029,3.228-.028,2.725,0,6.488.041,10.646.117s7.918.179,10.643.281l3.226.15a4.887,4.887,0,0,1,1.182.13" transform="translate(-31.001 555.846)" fill="#fcfdfd"/><path d="M180.054-379.112c0,.154-5.357.163-11.955.023s-11.948-.38-11.943-.534,5.354-.163,11.956-.022,11.946.379,11.942.533" transform="translate(-31.063 558.059)" fill="#fcfdfd"/><path d="M222.415-328.088a10.11,10.11,0,0,1-5.24-1.69c-4.523-2.707-7.874-6.965-11-11.209A327.756,327.756,0,0,1,186.98-369.88c1.251,0,2.266-.011,2.983-.029a4.82,4.82,0,0,0,1.182-.085,4.887,4.887,0,0,0-1.182-.13l-3.213-.148q-2.467-4.228-4.789-8.561a19.429,19.429,0,0,0,3.227-.121c7.517,10.57,14.975,21.233,22.574,31.673,3.074,4.223,6.552,8.438,10.78,11.5,4.288,3.109,5.616,3.62,10.663,5.227-2.568,1.552-4.644,2.464-6.79,2.464" transform="translate(-36.196 557.902)" fill="#d82b43"/><path d="M188.169-367.725l-.23-.393,3.213.148a4.891,4.891,0,0,1,1.182.13,4.825,4.825,0,0,1-1.182.085c-.717.018-1.732.028-2.983.029" transform="translate(-37.386 555.746)" fill="#cac8c7"/><path d="M183.461-382.4a25.614,25.614,0,0,0-3.429-.258q-3.53-6.62-6.712-13.541l.917.961q4.64,6.375,9.223,12.839" transform="translate(-34.478 561.332)" fill="#d82b43"/><path d="M181.909-378.9c-.07-.129-.14-.26-.209-.39a25.62,25.62,0,0,1,3.429.258l.007.011a19.423,19.423,0,0,1-3.227.121" transform="translate(-36.144 557.969)" fill="#cac8c7"/><path d="M284.214-364.542a10.413,10.413,0,0,1,.988-3.561,3.539,3.539,0,0,1,2.949-1.958,2.175,2.175,0,0,1,2.156,2.417,5.429,5.429,0,0,1-1.181,1.823c-1.363,1.854-1.235,4.365-1.217,6.667s-.287,4.913-2.129,6.3" transform="translate(-56.537 556.133)" fill="#f9ad95"/><path d="M176.365-430.975a19.4,19.4,0,0,0-4.339,27.635l39.029,51.4A29.244,29.244,0,0,0,247.1-343.5a29.247,29.247,0,0,0,16.341-27.839l-8.593-54.05-21,1.306,1.985,44.017-32.489-46.171a19.4,19.4,0,0,0-26.978-4.738" transform="translate(-33.434 568.946)" fill="#f03658"/><path d="M279.128-341.288c-5.165-1.206-6.042-2.095-11.208-3.3-1.537-.359-3.511-1.358-2.822-2.983a2.188,2.188,0,0,1,2.192-1.282c2.013.163,5.252,1.363,7.192,1.548.486.047.471-.442.257-.773a62.091,62.091,0,0,0-9.654-2.072,2.369,2.369,0,0,1-1.188-4.182,3.525,3.525,0,0,1,1.382-.4c2.069.3,2.069.3,4.276.681,6.192,1.071,5.37-.155,5.37-.155.04-.465-7.045-1.15-10.668-1.584a3.1,3.1,0,0,1-2.107-.819,2.042,2.042,0,0,1,.246-2.575,3.6,3.6,0,0,1,2.485-1.245c4.026-.069,17.247,1.4,17.247,1.4s1.731,2.354,1.2,7.163c-.581,5.283-4.2,10.574-4.2,10.574" transform="translate(-52.077 554.216)" fill="#f9ad95"/><path d="M241.752-341.848s-.188.036-.559.079l-1.644.17c-1.446.132-3.583.336-6.349.367a30.814,30.814,0,0,1-9.957-1.378,28.139,28.139,0,0,1-10.99-7.437,145.752,145.752,0,0,1-10.308-12.437c-3.514-4.618-7.188-9.613-11.01-14.9s-7.783-10.872-11.849-16.69l-6.166-8.9q-.777-1.134-1.559-2.277l-.738-1.194a8.726,8.726,0,0,1-.673-1.239,18.478,18.478,0,0,1-1.752-5.39,18.427,18.427,0,0,1-.114-5.668,21.368,21.368,0,0,1,.534-2.764,21.3,21.3,0,0,1,.955-2.629,21.524,21.524,0,0,1,1.276-2.465,20.946,20.946,0,0,1,1.635-2.216,18.865,18.865,0,0,1,4.033-3.628,20.23,20.23,0,0,1,4.781-2.363,19.781,19.781,0,0,1,5.146-.936,19.641,19.641,0,0,1,9.815,2.107,19.991,19.991,0,0,1,7.17,6.321l5.12,7.39c3.3,4.768,6.374,9.211,9.184,13.269L231-387.421l3.583,5.245c.394.589.7,1.045.92,1.373.205.312.3.479.3.479s-.124-.145-.344-.445l-.966-1.34-3.67-5.187c-3.18-4.537-7.758-11.071-13.411-19.136l-9.24-13.231-5.143-7.374a19.524,19.524,0,0,0-7-6.143,19.148,19.148,0,0,0-9.556-2.033,19.212,19.212,0,0,0-5,.916,19.787,19.787,0,0,0-4.646,2.3,18.338,18.338,0,0,0-3.917,3.531,20.283,20.283,0,0,0-1.587,2.154,20.979,20.979,0,0,0-1.238,2.4,20.736,20.736,0,0,0-.928,2.554,21.276,21.276,0,0,0-.518,2.687,17.969,17.969,0,0,0,.112,5.505,17.936,17.936,0,0,0,1.7,5.236,38.15,38.15,0,0,0,2.929,4.644l6.157,8.9c4.06,5.82,8.012,11.408,11.818,16.7s7.467,10.294,10.962,14.92a147.828,147.828,0,0,0,10.223,12.441,27.916,27.916,0,0,0,10.808,7.418,31.006,31.006,0,0,0,9.856,1.455c2.754,0,4.891-.166,6.339-.263l1.648-.115c.372-.023.564-.021.564-.021" transform="translate(-33.403 569.204)" fill="#1d2a30"/><path d="M254.776-350.616c-.189-.025,1.109-3.9.308-8.711-.732-4.826-3.169-8.106-3-8.188a7.791,7.791,0,0,1,1.508,2.13,18.488,18.488,0,0,1,2.037,5.971,18.478,18.478,0,0,1-.083,6.306,7.783,7.783,0,0,1-.773,2.493" transform="translate(-50.145 555.627)" fill="#1d2a30"/><path d="M255.907-415.795a5.76,5.76,0,0,1-.754-2.886,5.775,5.775,0,0,1,.265-2.971,13.668,13.668,0,0,1,.289,2.926,13.725,13.725,0,0,1,.2,2.932" transform="translate(-50.748 566.396)" fill="#1d2a30"/><path d="M263.085-416.436a5.7,5.7,0,0,1-.863-2.8,5.683,5.683,0,0,1,.116-2.931,12.7,12.7,0,0,1,.435,2.858,12.58,12.58,0,0,1,.312,2.874" transform="translate(-52.143 566.498)" fill="#1d2a30"/><path d="M270.375-417.743a5.283,5.283,0,0,1-.4-2.354,5.286,5.286,0,0,1,.154-2.382,5.3,5.3,0,0,1,.4,2.353,5.321,5.321,0,0,1-.153,2.383" transform="translate(-53.699 566.56)" fill="#1d2a30"/><path d="M218.914-401.712c.088.126-6.536,4.869-14.792,10.591s-15.022,10.262-15.109,10.135,6.535-4.867,14.792-10.592,15.021-10.26,15.109-10.134" transform="translate(-37.599 562.43)" fill="#fcfdfd"/><path d="M212.465-411.388a7.285,7.285,0,0,1-1.161.9l-3.263,2.288c-2.758,1.928-6.551,4.612-10.675,7.666s-7.8,5.9-10.445,7.978l-3.14,2.454a7.442,7.442,0,0,1-1.194.85,7.389,7.389,0,0,1,1.055-1.017c.7-.628,1.738-1.516,3.031-2.593,2.588-2.157,6.23-5.057,10.362-8.12s7.967-5.7,10.786-7.543c1.408-.924,2.558-1.656,3.363-2.144a7.615,7.615,0,0,1,1.281-.715" transform="translate(-36.321 564.354)" fill="#fcfdfd"/><path d="M449.335-77.1v9.986h72.677V-77.1H449.335" transform="translate(-89.384 497.855)" fill="#1d2a30"/><path d="M449.428-67.265h72.427V-77H449.428Zm72.676.248H449.179V-77.252H522.1v10.235" transform="translate(-89.353 497.886)" fill="#1d2a30"/><path d="M457.746-68.78l10.461,51.608h38.707l10.113-48.284-59.28-3.324" transform="translate(-91.057 496.201)" fill="#1d2a30"/><path d="M457.746-10.45l5.58,7.672h47.048l6.653-7.672h-59.28" transform="translate(-91.057 484.598)" fill="#365462"/><path d="M491.177-93.417c-.142,0-.325-23.908-.408-53.4s-.035-53.4.108-53.4.327,23.9.409,53.4.034,53.4-.109,53.4" transform="translate(-97.617 522.347)" fill="#1d2a30"/><path d="M509.837-141.588a2.634,2.634,0,0,1-.2.556l-.648,1.548c-.145.341-.3.712-.474,1.114-.149.421-.312.874-.484,1.356l-.561,1.557c-.194.552-.347,1.154-.537,1.775a72.516,72.516,0,0,0-2.034,8.9,108.089,108.089,0,0,0-1.124,11.127,150.211,150.211,0,0,0,.574,20.327c.234,2.594.469,4.691.642,6.139.075.677.135,1.231.183,1.669a2.606,2.606,0,0,1,.03.589,2.493,2.493,0,0,1-.132-.572c-.074-.435-.167-.984-.28-1.658-.234-1.442-.525-3.534-.806-6.129a133.754,133.754,0,0,1-.727-20.388,101.63,101.63,0,0,1,1.172-11.182,67.309,67.309,0,0,1,2.154-8.926c.2-.622.367-1.224.576-1.775l.6-1.553q.282-.719.527-1.348c.179-.407.362-.77.518-1.1.3-.615.545-1.115.739-1.512a2.483,2.483,0,0,1,.289-.511" transform="translate(-100.087 510.684)" fill="#1d2a30"/><path d="M506.835-165.726a4.8,4.8,0,0,1-.231.788q-.284.83-.756,2.224-.255.729-.556,1.6l-.585,1.931c-.424,1.383-.918,2.955-1.354,4.724-.233.881-.477,1.805-.729,2.764l-.681,3.023c-.507,2.081-.874,4.343-1.343,6.7-.8,4.748-1.507,10-1.993,15.535-.458,5.541-.659,10.836-.729,15.654-.014,4.817.047,9.158.245,12.8.064,1.821.18,3.466.275,4.911s.174,2.689.267,3.7q.111,1.47.177,2.343a4.764,4.764,0,0,1,.027.82,5.111,5.111,0,0,1-.13-.81q-.1-.871-.275-2.335c-.124-1.013-.244-2.256-.356-3.7s-.264-3.089-.351-4.913c-.245-3.642-.344-7.992-.356-12.82.044-4.829.231-10.137.691-15.694.488-5.553,1.21-10.817,2.039-15.576.483-2.365.866-4.629,1.394-6.713q.368-1.567.712-3.026.4-1.439.764-2.764c.461-1.767.981-3.337,1.432-4.716.224-.686.434-1.328.627-1.92.217-.578.418-1.11.6-1.591q.532-1.375.849-2.192a4.876,4.876,0,0,1,.328-.752" transform="translate(-98.945 515.486)" fill="#1d2a30"/><path d="M482.112-88.384a1.127,1.127,0,0,1-.041-.28c-.018-.215-.042-.486-.069-.824-.051-.761-.123-1.821-.214-3.166-.174-2.789-.423-6.758-.73-11.645-.63-9.832-1.542-23.415-3.2-38.35-.845-7.468-1.825-14.561-2.844-20.992-.543-3.209-1.034-6.264-1.59-9.106-.512-2.85-1.063-5.49-1.57-7.9-.477-2.416-1.009-4.579-1.439-6.488s-.828-3.545-1.167-4.88c-.322-1.308-.574-2.339-.755-3.08-.076-.33-.136-.595-.184-.805a1.186,1.186,0,0,1-.046-.278,1.037,1.037,0,0,1,.1.264c.06.207.138.467.233.793.205.735.488,1.758.849,3.057.371,1.328.806,2.958,1.255,4.863s1.014,4.064,1.515,6.477c.531,2.407,1.1,5.047,1.633,7.9.577,2.841,1.085,5.9,1.64,9.109,1.047,6.435,2.043,13.535,2.889,21.011,1.656,14.953,2.51,28.548,3.048,38.388.267,4.919.453,8.9.564,11.657.05,1.346.089,2.408.118,3.17.007.339.013.611.017.826a1.257,1.257,0,0,1-.012.283" transform="translate(-93.149 521.543)" fill="#1d2a30"/><path d="M484.873-187.351c-.316-3.388-3.739-5.943-7.141-5.978s-6.572,2-8.652,4.7a27.037,27.037,0,0,0-4.168,9.248c-2.29,7.98-3.542,16.363-2.562,24.608s4.324,16.361,10.24,22.187c.961.946,2.208,1.894,3.527,1.612a4.261,4.261,0,0,0,1.863-1.15A55.071,55.071,0,0,0,495.851-174c-.092-3.135-.5-6.4-2.24-9.009s-5.783-5.385-8.738-4.336" transform="translate(-91.906 520.977)" fill="#f03658"/><path d="M454.24-222.812q-2.4,4.339-4.792,8.676c-.111.2-.258.429-.489.449-.251.02-.44-.218-.578-.429l-12.667-19.439,2.919-1.654,15.606,12.4" transform="translate(-86.674 529.308)" fill="#f03658"/><g transform="translate(349.041 294.098)"><g clip-path="url(#b)"><path d="M435.715-213.686H454.24V-235.21H435.715Z" transform="translate(-435.715 235.21)" fill="#d82b43"/></g></g><path d="M479.914-209.51l-43.208-25.5a2.014,2.014,0,0,1-1.052-1.062c-.172-.64.308-1.256.768-1.731a29.788,29.788,0,0,1,23.092-9.071,26.38,26.38,0,0,1,20.874,12.983c4.171,7.452,4.309,17.305-.474,24.378" transform="translate(-86.655 531.641)" fill="#f03658"/><path d="M444.75-242.242a2.327,2.327,0,0,1,.566-.071c.373-.019.923-.085,1.633-.079a32.483,32.483,0,0,1,6,.477,35.114,35.114,0,0,1,8.537,2.592,35.365,35.365,0,0,1,9.165,5.947,35.341,35.341,0,0,1,6.833,8.528,35.224,35.224,0,0,1,3.432,8.238,32.519,32.519,0,0,1,1.07,5.917,12.093,12.093,0,0,1,.066,1.26,2.123,2.123,0,0,1-.333.943,7.31,7.31,0,0,0,.067-2.181,36.746,36.746,0,0,0-1.224-5.839A36.183,36.183,0,0,0,470.3-232.991a36.185,36.185,0,0,0-17.421-8.563,36.815,36.815,0,0,0-5.931-.636c-1.412-.03-2.2-.006-2.2-.052" transform="translate(-88.471 530.738)" fill="#1d2a30"/><path d="M479.751-222.186a10.406,10.406,0,0,1-2.184.992c-1.377.543-3.3,1.237-5.453,1.92s-4.124,1.227-5.562,1.579a10.527,10.527,0,0,1-2.356.45,11.576,11.576,0,0,1,2.258-.8l5.5-1.721c2.045-.66,3.9-1.257,5.485-1.771a11.632,11.632,0,0,1,2.308-.647" transform="translate(-92.34 526.719)" fill="#1d2a30"/><path d="M475.1-245a18.281,18.281,0,0,1,.512,4.82,18.289,18.289,0,0,1-.267,4.84,30.272,30.272,0,0,1-.25-4.826A30.256,30.256,0,0,1,475.1-245" transform="translate(-94.492 531.255)" fill="#1d2a30"/><path d="M436.5-233.969a19.525,19.525,0,0,1,3.139-1.1c1.963-.606,4.7-1.37,7.745-2.106s5.832-1.3,7.854-1.652a19.417,19.417,0,0,1,3.3-.445,23.192,23.192,0,0,1-3.226.805c-2,.445-4.765,1.064-7.806,1.8s-5.781,1.44-7.765,1.955a23.252,23.252,0,0,1-3.24.752" transform="translate(-86.831 530.12)" fill="#1d2a30"/><path d="M456.088-195.841c-3.717-2.819-7.648-3.373-12.307-3.188a37.6,37.6,0,0,0-13.468,3.476c-7.286,3.19-14.135,7.894-18.489,14.552s-5.868,15.469-2.608,22.725a3.235,3.235,0,0,0,1.476,1.791,3.53,3.53,0,0,0,2.438-.187c8.286-2.7,16.631-5.432,24.251-9.666s14.555-10.117,18.644-17.815a15.317,15.317,0,0,0,1.962-5.913,7.353,7.353,0,0,0-1.9-5.774" transform="translate(-81.054 522.117)" fill="#f03658"/><path d="M456.871-196.132a3.012,3.012,0,0,1-.6.241l-1.736.6-1.257.419c-.456.164-.941.368-1.469.574-1.049.423-2.265.848-3.548,1.47l-2.032.925c-.7.326-1.408.726-2.153,1.1-1.5.738-3.022,1.681-4.639,2.637a80.287,80.287,0,0,0-9.813,7.276,80.357,80.357,0,0,0-8.469,8.806c-1.155,1.484-2.283,2.871-3.206,4.267-.471.691-.957,1.337-1.369,2s-.8,1.291-1.176,1.9c-.781,1.192-1.357,2.346-1.91,3.331-.27.5-.534.953-.755,1.384s-.4.829-.576,1.193l-.814,1.646a2.974,2.974,0,0,1-.316.561,2.961,2.961,0,0,1,.221-.6l.726-1.69c.163-.371.343-.778.537-1.217s.46-.9.719-1.41c.532-1,1.088-2.175,1.852-3.385l1.155-1.925c.407-.668.887-1.323,1.353-2.024.914-1.414,2.037-2.821,3.188-4.323a77.425,77.425,0,0,1,8.5-8.9,77.321,77.321,0,0,1,9.9-7.294c1.636-.951,3.173-1.885,4.693-2.61.754-.374,1.465-.767,2.179-1.085l2.057-.9c1.3-.6,2.53-1.005,3.593-1.406.534-.191,1.026-.383,1.488-.533l1.276-.379,1.769-.5a2.814,2.814,0,0,1,.626-.142" transform="translate(-81.765 521.535)" fill="#1d2a30"/><path d="M427.485-176.512a87.547,87.547,0,0,1-9.039,2.913,87.41,87.41,0,0,1-9.185,2.416,86.942,86.942,0,0,1,9.04-2.914,87.507,87.507,0,0,1,9.184-2.415" transform="translate(-81.412 517.634)" fill="#1d2a30"/><path d="M431.49-156.38a14.412,14.412,0,0,1-.2-2.815c-.047-1.742-.056-4.148.019-6.806s.217-5.062.362-6.8a14.32,14.32,0,0,1,.356-2.8,16.23,16.23,0,0,1,.009,2.822c-.058,1.908-.13,4.226-.209,6.79-.063,2.565-.122,4.882-.17,6.792a16.189,16.189,0,0,1-.167,2.815" transform="translate(-85.787 517.45)" fill="#1d2a30"/><path d="M452.493-167.909c-.142.01-.6-4.881-1.015-10.925s-.641-10.95-.5-10.96.6,4.88,1.015,10.925.641,10.949.5,10.96" transform="translate(-89.702 520.273)" fill="#1d2a30"/><path d="M426.327-190.408a16.336,16.336,0,0,1,2.9-.087c1.786.012,4.252.065,6.975.155s5.188.2,6.971.307a15.946,15.946,0,0,1,2.885.279,16.3,16.3,0,0,1-2.893.088c-1.786-.013-4.254-.065-6.98-.156s-5.191-.2-6.975-.307a15.825,15.825,0,0,1-2.881-.279" transform="translate(-84.807 520.413)" fill="#1d2a30"/><path d="M477.481-129.941a2.441,2.441,0,0,1-.062-.578c-.02-.435-.046-.986-.076-1.662-.065-1.443-.08-3.536-.025-6.119s.222-5.659.533-9.064c.336-3.4.823-7.132,1.521-11.018.716-3.885,1.574-7.55,2.459-10.857.909-3.3,1.829-6.246,2.7-8.687s1.611-4.4,2.181-5.735c.267-.625.485-1.131.657-1.533a2.375,2.375,0,0,1,.262-.522,2.46,2.46,0,0,1-.164.56l-.567,1.566c-.511,1.352-1.208,3.326-2.021,5.777s-1.7,5.395-2.583,8.691c-.856,3.3-1.7,6.959-2.411,10.829-.694,3.872-1.194,7.587-1.556,10.974-.334,3.391-.548,6.453-.642,9.031s-.142,4.662-.139,6.1c-.01.677-.016,1.227-.021,1.663a2.511,2.511,0,0,1-.043.58" transform="translate(-94.943 519.462)" fill="#1d2a30"/><path d="M477.122-151.406a11.988,11.988,0,0,1-1.724,1.892c-1.117,1.114-2.706,2.612-4.516,4.2s-3.5,2.965-4.755,3.928a11.8,11.8,0,0,1-2.1,1.46,13.391,13.391,0,0,1,1.869-1.744l4.646-4.033c1.726-1.529,3.29-2.913,4.606-4.078a13.353,13.353,0,0,1,1.975-1.625" transform="translate(-92.306 512.638)" fill="#1d2a30"/><path d="M494.415-142.011a20.048,20.048,0,0,1-1.836-2.542c-1.182-1.724-2.649-3.864-4.269-6.231l-4.36-6.17a20.338,20.338,0,0,1-1.745-2.605,17.54,17.54,0,0,1,2.039,2.386c1.2,1.522,2.8,3.666,4.49,6.093s3.142,4.676,4.153,6.329a17.821,17.821,0,0,1,1.528,2.741" transform="translate(-95.921 514.259)" fill="#1d2a30"/><path d="M483.395-180.9c.077.121-4.466,3.179-10.147,6.831s-10.349,6.516-10.427,6.395,4.465-3.178,10.147-6.83,10.349-6.515,10.427-6.395" transform="translate(-92.066 518.506)" fill="#1d2a30"/><path d="M501.171-166.89a84.717,84.717,0,0,1-6.871-6.35,85.013,85.013,0,0,1-6.511-6.72,84.48,84.48,0,0,1,6.873,6.35,84.739,84.739,0,0,1,6.509,6.72" transform="translate(-97.032 518.318)" fill="#1d2a30"/><path d="M508.516-171.078l3.9-.324a19.291,19.291,0,0,0,7.876-2.41,31.343,31.343,0,0,1,3.67-1.845c4.822-1.934,10.2-1.588,15.39-1.849a63.75,63.75,0,0,0,24.484-6.261,2.381,2.381,0,0,0,1.067-.968c.8-1.459-.686-2.759-1.967-3.548-6.57-4.048-13.258-8.149-20.709-10.159s-15.91-1.669-22.268,2.705c-7.463,5.137-10.182,15.686-11.444,24.657" transform="translate(-101.156 522.228)" fill="#f03658"/><path d="M565.013-184.3a3.969,3.969,0,0,1-.661-.308l-1.848-.969c-1.6-.843-3.911-2.087-6.828-3.485a63.664,63.664,0,0,0-10.568-4.074,34.885,34.885,0,0,0-13.7-1.11,23.409,23.409,0,0,0-12.487,5.363,27.748,27.748,0,0,0-6.5,9.133,76.188,76.188,0,0,0-2.828,7.11q-.433,1.222-.7,1.967a3.679,3.679,0,0,1-.272.675,3.83,3.83,0,0,1,.173-.708c.153-.5.354-1.168.6-2a64.666,64.666,0,0,1,2.687-7.2,27.633,27.633,0,0,1,6.519-9.336,23.677,23.677,0,0,1,12.736-5.518,34.859,34.859,0,0,1,13.893,1.163,61.438,61.438,0,0,1,10.6,4.2c2.907,1.446,5.191,2.742,6.764,3.639l1.8,1.054a3.675,3.675,0,0,1,.61.4" transform="translate(-101.177 521.31)" fill="#1d2a30"/><path d="M561.739-179.121c-.08.119-5.181-3.181-11.391-7.369s-11.184-7.681-11.1-7.8,5.18,3.18,11.392,7.369,11.183,7.68,11.1,7.8" transform="translate(-107.268 521.168)" fill="#1d2a30"/><path d="M558.671-194.633a12.472,12.472,0,0,1-3.714.668,12.564,12.564,0,0,1-3.786-.049,24.314,24.314,0,0,1,3.742-.382,24.475,24.475,0,0,1,3.759-.236" transform="translate(-109.641 521.244)" fill="#1d2a30"/><path d="M531.715-198.257a9.864,9.864,0,0,1-1.674,2.614,11.178,11.178,0,0,1-2.119,2.409,9.915,9.915,0,0,1,1.673-2.614,11.2,11.2,0,0,1,2.12-2.409" transform="translate(-105.014 521.957)" fill="#1d2a30"/><path d="M534.511-174.329a13.518,13.518,0,0,1-2.454-1.331c-1.474-.894-3.465-2.2-5.593-3.749s-4-3.007-5.352-4.076a15.219,15.219,0,0,1-2.117-1.816,14.7,14.7,0,0,1,2.337,1.523l5.437,3.95c2.12,1.539,4.069,2.89,5.487,3.86a16.615,16.615,0,0,1,2.256,1.638" transform="translate(-103.24 519.38)" fill="#1d2a30"/><path d="M513.416-143.744c-3.719-.983-8.154,2.636-8.92,6.406s.646,7.626,2.3,11.1a56.634,56.634,0,0,0,15.383,20.127c6.662,5.307,15,8.7,23.522,8.659-1.572-7.3.417-14.936-.46-22.356a29.348,29.348,0,0,0-8.42-17.253,29.341,29.341,0,0,0-17.335-8.247c-2.375-.256-5.124-.629-6.071,1.564" transform="translate(-100.314 511.463)" fill="#f03658"/><path d="M547.97-97.014a2.484,2.484,0,0,1-.529-.247,9.574,9.574,0,0,1-1.392-.935,14.489,14.489,0,0,1-3.673-4.911c-.593-1.152-1.255-2.4-1.9-3.786l-2-4.424a42.919,42.919,0,0,0-2.46-4.729,37.1,37.1,0,0,0-3.384-4.6c-2.546-2.992-5.28-5.58-7.649-8.052a52.731,52.731,0,0,1-5.832-7,25.729,25.729,0,0,1-2.85-5.443,16.679,16.679,0,0,1-.5-1.595,2.594,2.594,0,0,1-.119-.571c.049-.014.26.759.8,2.093a28.1,28.1,0,0,0,2.965,5.308,55.326,55.326,0,0,0,5.871,6.871c2.379,2.446,5.127,5.028,7.7,8.049a36.729,36.729,0,0,1,3.422,4.673,41.882,41.882,0,0,1,2.46,4.8c.689,1.56,1.343,3.045,1.957,4.44.625,1.378,1.27,2.64,1.84,3.8a15.06,15.06,0,0,0,3.477,4.926c1.087.938,1.822,1.285,1.791,1.335" transform="translate(-102.581 511.026)" fill="#1d2a30"/><path d="M531.97-97.2a11.282,11.282,0,0,1,.342-2.5c.292-1.532.769-3.635,1.414-5.926s1.336-4.335,1.887-5.794a11.291,11.291,0,0,1,1.015-2.314,13.419,13.419,0,0,1-.669,2.432c-.46,1.485-1.093,3.536-1.736,5.815s-1.173,4.358-1.555,5.866a13.457,13.457,0,0,1-.7,2.424" transform="translate(-105.818 505.145)" fill="#1d2a30"/><path d="M550.674-116.483a15.461,15.461,0,0,1-2.621-.6c-1.6-.418-3.816-.991-6.278-1.548s-4.71-.986-6.337-1.293a15.414,15.414,0,0,1-2.625-.579,12.736,12.736,0,0,1,2.684.217c1.647.218,3.916.594,6.391,1.151s4.686,1.19,6.267,1.7a12.655,12.655,0,0,1,2.52.955" transform="translate(-105.989 506.495)" fill="#1d2a30"/><path d="M514.739-113.76a15.238,15.238,0,0,1,.4-2.9c.328-1.775.848-4.217,1.543-6.884s1.437-5.053,2.019-6.761a15.2,15.2,0,0,1,1.065-2.725,17.693,17.693,0,0,1-.716,2.833c-.491,1.734-1.172,4.126-1.867,6.784s-1.268,5.078-1.687,6.83a17.552,17.552,0,0,1-.76,2.822" transform="translate(-102.391 508.981)" fill="#1d2a30"/><path d="M539.317-135.536c-.015.142-4.659-.234-10.371-.84s-10.332-1.212-10.318-1.354,4.659.234,10.372.841,10.332,1.211,10.317,1.353" transform="translate(-103.168 509.923)" fill="#1d2a30"/><path d="M522.1-64.747c0,.142-16.324.259-36.457.259s-36.461-.116-36.461-.259,16.323-.26,36.461-.26,36.457.116,36.457.26" transform="translate(-89.353 495.45)" fill="#365462"/><path d="M513.831-38.523c0,.142-11,.259-24.564.259s-24.565-.116-24.565-.259,11-.26,24.565-.26,24.564.116,24.564.26" transform="translate(-92.44 490.234)" fill="#365462"/><path d="M513.511-34.774c0,.143-10.809.259-24.137.259s-24.138-.116-24.138-.259,10.806-.26,24.138-.26,24.137.116,24.137.26" transform="translate(-92.547 489.488)" fill="#365462"/><path d="M513.946-41.615c0,.144-11.376.26-25.408.26s-25.41-.116-25.41-.26,11.375-.259,25.41-.259,25.408.116,25.408.259" transform="translate(-92.127 490.848)" fill="#365462"/><path d="M337.807-581.49c-9.533-2.123-21.759,4.489-25.053,13.4s.28,19.931,7.453,26.156c-5.6,7.2-5.831,17.908-1.1,25.7s13.9,12.478,23.021,12.422,17.965-4.592,23.9-11.517a23.882,23.882,0,0,0,24.427-2.331,23.882,23.882,0,0,0,8.865-22.88c10.806-3.943,16.743-17.754,12.171-28.308s-18.708-15.669-28.974-10.482c.222-11.506-9.812-22.24-21.3-22.8s-22.516,9.163-23.4,20.636c.708-.115-.709.114,0,0" transform="translate(-61.969 602.301)" fill="#fcfdfd"/><path d="M337.766-581.528a1.611,1.611,0,0,1-.171.04l-.023,0h-.006l0-.025.013,0,.059-.011.141-.026.177-.031-.184.073-.033.015.006-.04a20.354,20.354,0,0,1,1.641-6.648,23.755,23.755,0,0,1,3.265-5.375,24.19,24.19,0,0,1,6.017-5.329,22.02,22.02,0,0,1,9.076-3.287l1.319-.148,1.353-.012a20.712,20.712,0,0,1,2.766.2,21.483,21.483,0,0,1,5.563,1.665,9.959,9.959,0,0,1,1.357.664c.442.25.9.485,1.337.751a25.846,25.846,0,0,1,2.535,1.837,27.239,27.239,0,0,1,2.366,2.179,27.1,27.1,0,0,1,2.076,2.562,22.169,22.169,0,0,1,4.285,13.109l-.328-.206a21.322,21.322,0,0,1,15.189-1.192,22.026,22.026,0,0,1,13.151,9.848,20.694,20.694,0,0,1,1.2,17.334,23.4,23.4,0,0,1-4.746,7.931,20.125,20.125,0,0,1-7.8,5.329l.176-.308A23.794,23.794,0,0,1,398-527.185a23.369,23.369,0,0,1-8.9,10.732,24.276,24.276,0,0,1-23.234,1.332l.331-.067a33.343,33.343,0,0,1-19.514,11.195,28.085,28.085,0,0,1-20.577-4.555,25.243,25.243,0,0,1-7.048-7.3,23.308,23.308,0,0,1-3.3-9.134,24.122,24.122,0,0,1,.455-9.237A21.72,21.72,0,0,1,320-542.106l.028.292a26.112,26.112,0,0,1-7.234-10.794,24.665,24.665,0,0,1-1.343-5.88,21.481,21.481,0,0,1,.1-5.67,17.642,17.642,0,0,1,4.134-9.207,24.458,24.458,0,0,1,6.631-5.395,26.5,26.5,0,0,1,6.352-2.551,21.888,21.888,0,0,1,4.981-.659,15.95,15.95,0,0,1,3.084.24c.687.123,1.036.2,1.036.2s-.358-.037-1.047-.139a16.943,16.943,0,0,0-3.071-.178,22.152,22.152,0,0,0-4.938.711,26.573,26.573,0,0,0-6.279,2.581,24.343,24.343,0,0,0-6.526,5.375,17.349,17.349,0,0,0-4.019,9.069,21.1,21.1,0,0,0-.075,5.581,24.33,24.33,0,0,0,1.344,5.79,25.74,25.74,0,0,0,7.151,10.6l.151.131-.123.16a21.308,21.308,0,0,0-3.688,7.734,23.641,23.641,0,0,0-.424,9.061,22.838,22.838,0,0,0,3.245,8.941,24.79,24.79,0,0,0,6.921,7.143,27.58,27.58,0,0,0,20.2,4.445,32.812,32.812,0,0,0,19.183-11.027l.14-.161.192.094a23.736,23.736,0,0,0,22.692-1.308,22.834,22.834,0,0,0,8.691-10.477,23.27,23.27,0,0,0,1.52-13.129l-.044-.226.219-.08a21.281,21.281,0,0,0,12.229-12.924,20.183,20.183,0,0,0-1.145-16.9,21.536,21.536,0,0,0-12.84-9.637,20.875,20.875,0,0,0-14.853,1.127l-.33.164,0-.371a21.769,21.769,0,0,0-4.17-12.858,27.157,27.157,0,0,0-2.035-2.527,26.853,26.853,0,0,0-2.321-2.15,25.642,25.642,0,0,0-2.487-1.817c-.434-.263-.88-.5-1.314-.742a9.465,9.465,0,0,0-1.332-.659,21.141,21.141,0,0,0-5.461-1.658,20.171,20.171,0,0,0-2.717-.205l-1.33.005-1.3.141a21.8,21.8,0,0,0-8.97,3.2,24.048,24.048,0,0,0-5.989,5.236,23.78,23.78,0,0,0-3.284,5.3,21.762,21.762,0,0,0-1.75,6.585l-.026-.025.2.012-.178.026-.142.02-.059.009h-.014l-.005-.025h.006l.025,0a1.522,1.522,0,0,1,.174-.017" transform="translate(-61.927 602.339)" fill="#1d2a30"/><path d="M365.178-525.362a11.847,11.847,0,0,0,7.325,1.471,11.441,11.441,0,0,0,7.6-4.733,10.758,10.758,0,0,0,1.99-8.178,10.6,10.6,0,0,0-4.835-6.9,11.526,11.526,0,0,0-6.7-1.819l.2-9.643a1.707,1.707,0,0,0-1.672-1.742,1.707,1.707,0,0,0-1.742,1.673l-.238,11.658a1.71,1.71,0,0,0,.649,1.376,1.7,1.7,0,0,0,1.488.311,7.894,7.894,0,0,1,6.19,1.069,7.186,7.186,0,0,1,3.31,4.641,7.344,7.344,0,0,1-1.4,5.558,8.016,8.016,0,0,1-5.3,3.345c-4.06.563-8.522-2.446-9.745-6.566a1.706,1.706,0,0,0-2.121-1.152,1.708,1.708,0,0,0-1.151,2.122,12.94,12.94,0,0,0,6.161,7.508" transform="translate(-71.403 593.301)" fill="#f03658"/><path d="M373.546-563.969a1.916,1.916,0,0,0-1.825-2,1.916,1.916,0,0,0-2,1.825,1.915,1.915,0,0,0,1.825,2,1.916,1.916,0,0,0,2-1.825" transform="translate(-73.546 595.105)" fill="#f03658"/><path d="M292.734-509.671a9.7,9.7,0,0,0-10.308,8.232,9.7,9.7,0,0,0,8.218,10.32,9.7,9.7,0,0,0,10.332-8.2,9.7,9.7,0,0,0-8.188-10.343" transform="translate(-56.171 583.915)" fill="#fcfdfd"/><path d="M292.728-509.681a6.388,6.388,0,0,1,2.241.485,9.8,9.8,0,0,1,4.755,4.005,9.69,9.69,0,0,1,1.434,4.116,8.625,8.625,0,0,1-.994,4.9,9.3,9.3,0,0,1-1.6,2.212,9.754,9.754,0,0,1-2.229,1.772,9.388,9.388,0,0,1-5.778,1.329,9.4,9.4,0,0,1-5.333-2.6,9.832,9.832,0,0,1-1.773-2.229,9.3,9.3,0,0,1-1.062-2.516,8.614,8.614,0,0,1,.135-5,9.711,9.711,0,0,1,2.326-3.688,9.806,9.806,0,0,1,5.535-2.83,6.375,6.375,0,0,1,2.292.033,19.166,19.166,0,0,0-2.258.181,9.871,9.871,0,0,0-5.288,2.892,9.391,9.391,0,0,0-2.169,3.557,8.2,8.2,0,0,0-.078,4.724,8.886,8.886,0,0,0,1.023,2.378,9.393,9.393,0,0,0,1.693,2.107,8.894,8.894,0,0,0,5.02,2.436,8.9,8.9,0,0,0,5.439-1.244,9.355,9.355,0,0,0,2.122-1.67,8.894,8.894,0,0,0,1.533-2.086,8.2,8.2,0,0,0,.988-4.62,9.391,9.391,0,0,0-1.312-3.954,9.86,9.86,0,0,0-4.5-4.01,19.433,19.433,0,0,0-2.159-.686" transform="translate(-56.112 583.93)" fill="#1d2a30"/><path d="M271.5-484.3a4.184,4.184,0,0,0-4.445,3.551,4.181,4.181,0,0,0,3.543,4.45,4.182,4.182,0,0,0,4.456-3.538,4.181,4.181,0,0,0-3.531-4.46" transform="translate(-53.119 578.863)" fill="#fcfdfd"/><path d="M271.46-484.319a1.89,1.89,0,0,1,.99.152,4.22,4.22,0,0,1,2.122,1.726,4.28,4.28,0,0,1,.655,1.822,3.843,3.843,0,0,1-.432,2.195,4.457,4.457,0,0,1-4.291,2.38,4.456,4.456,0,0,1-3.645-3.284,3.837,3.837,0,0,1,.074-2.237,4.273,4.273,0,0,1,1.048-1.628,4.229,4.229,0,0,1,2.458-1.2,1.889,1.889,0,0,1,1,.076c0,.05-.359.012-.964.138a4.278,4.278,0,0,0-2.21,1.266,3.566,3.566,0,0,0-.909,3.455,3.988,3.988,0,0,0,3.214,2.866,3.988,3.988,0,0,0,3.776-2.069,3.567,3.567,0,0,0-.107-3.57,4.275,4.275,0,0,0-1.869-1.731c-.561-.258-.915-.3-.908-.352" transform="translate(-53.059 578.881)" fill="#1d2a30"/></g></g></svg>